<?xml version="1.0" encoding="UTF-8" standalone="no"?>
<svg
   xmlns:dc="http://purl.org/dc/elements/1.1/"
   xmlns:cc="http://creativecommons.org/ns#"
   xmlns:rdf="http://www.w3.org/1999/02/22-rdf-syntax-ns#"
   xmlns:svg="http://www.w3.org/2000/svg"
   xmlns="http://www.w3.org/2000/svg"
   xmlns:sodipodi="http://sodipodi.sourceforge.net/DTD/sodipodi-0.dtd"
   xmlns:inkscape="http://www.inkscape.org/namespaces/inkscape"
   width="316"
   height="50"
   viewBox="0 0 316.00001 50.000002"
   id="svg4288"
   version="1.1"
   inkscape:version="0.91 r13725"
   sodipodi:docname="BTL.svg">
  <defs
     id="defs4290" />
  <sodipodi:namedview
     id="base"
     pagecolor="#ffffff"
     bordercolor="#666666"
     borderopacity="1.0"
     inkscape:pageopacity="1"
     inkscape:pageshadow="2"
     inkscape:zoom="15.839192"
     inkscape:cx="311.26254"
     inkscape:cy="29.830795"
     inkscape:document-units="px"
     inkscape:current-layer="layer3"
     showgrid="false"
     units="px"
     inkscape:window-width="1920"
     inkscape:window-height="1057"
     inkscape:window-x="-8"
     inkscape:window-y="-8"
     inkscape:window-maximized="1"
     borderlayer="false" />
  <metadata
     id="metadata4293">
    <rdf:RDF>
      <cc:Work
         rdf:about="">
        <dc:format>image/svg+xml</dc:format>
        <dc:type
           rdf:resource="http://purl.org/dc/dcmitype/StillImage" />
        <dc:title></dc:title>
      </cc:Work>
    </rdf:RDF>
  </metadata>
  <g
     inkscape:groupmode="layer"
     id="layer2"
     inkscape:label="Hintergrund"
     transform="translate(0,22.000001)" />
  <g
     inkscape:label="Ebene 1"
     inkscape:groupmode="layer"
     id="layer1"
     transform="translate(0,-1002.3622)" />
  <g
     inkscape:groupmode="layer"
     id="layer3"
     inkscape:label="Text"
     transform="translate(0,22.000001)">
    <path
       style="fill:#3d3d3d;fill-opacity:1;stroke:none;stroke-opacity:1"
       d="m -0.5395639,-23.09961 0,51.595703 317.1586839,0 0,-51.595703 -317.1586839,0 z m 77.1046549,12.236328 c 6.509108,0 10.362428,5.957171 10.362428,13.673828 0,9.036083 -4.55131,14.195312 -10.69512,14.195312 -6.343067,0 -10.327197,-5.838259 -10.327197,-13.714843 0,-8.316398 4.350039,-14.154297 10.659889,-14.154297 z m -57.42094,0.28125 c 2.988879,0 4.881533,0.479287 6.375973,1.71875 1.394809,0.999567 2.324941,2.759129 2.324941,5.078125 0,2.478926 -1.295984,4.717342 -3.720297,5.796875 l 0,0.11914 c 2.357894,0.719689 4.516804,2.960266 4.516804,6.638672 0,2.398961 -0.863352,4.278229 -2.125324,5.597657 -1.594068,1.639289 -4.21694,2.478515 -8.334951,2.478515 -2.258264,0 -3.953132,-0.199445 -5.015845,-0.359375 l 0,-26.46875 c 1.29518,-0.319862 3.654015,-0.599609 5.978699,-0.599609 z m 100.224899,0 c 4.18443,0 7.04112,1.038088 9.10014,3.117187 2.19184,2.119082 3.52068,5.35799 3.52068,9.916016 0,4.837904 -1.36199,8.395849 -3.48741,10.714844 -2.22506,2.438937 -5.77905,3.679687 -10.12953,3.679687 -2.3579,0 -4.15134,-0.159462 -5.51294,-0.359375 l 0,-26.509766 c 1.82654,-0.319855 4.08474,-0.558593 6.50906,-0.558593 z m -87.067849,0.199219 13.018102,0 0,4.039062 -8.9338,0 0,6.957031 8.434756,0 0,3.998047 -8.434756,0 0,7.916016 9.430879,0 0,4.037109 -13.515181,0 0,-26.947265 z m 15.129725,0 4.683142,0 2.657641,6.916015 c 0.76382,1.999134 1.327983,3.520172 1.958979,5.359375 l 0.06653,0 c 0.531358,-1.719255 1.161903,-3.400224 1.925713,-5.359375 l 2.690907,-6.916015 4.614646,0 -7.438628,15.59375 0,11.353515 -4.08431,0 0,-11.234375 -7.074623,-15.71289 z m 42.952683,0 4.683152,0 5.779089,11.554687 c 1.46123,2.998701 2.78865,6.118378 3.81815,9.037109 l 0.0665,0 c -0.29888,-3.598437 -0.36401,-7.077096 -0.36401,-11.195312 l 0,-9.396484 3.78489,0 0,26.947265 -4.25065,0 L 98.0551,4.691405 c -1.428023,-2.958718 -2.88857,-6.23866 -3.984492,-9.277344 l -0.133074,0.041016 c 0.16604,3.478493 0.232883,7.036532 0.232883,11.47461 l 0,9.634765 -3.786838,0 0,-26.947265 z m -70.842184,3.4375 c -1.19555,-1e-6 -1.891255,0.081223 -2.322983,0.201171 l 0,7.396485 2.092056,0 c 2.85604,0 4.416995,-1.599894 4.416995,-3.878906 0,-2.558892 -1.595705,-3.71875 -4.186068,-3.71875 z m 56.890592,0.041015 c -4.051596,0 -6.209632,4.51858 -6.209632,10.076172 0,5.51761 2.290891,9.875 6.209632,9.875 3.951966,0 6.176354,-4.438614 6.176354,-10.076172 0,-5.0778 -2.091543,-9.875 -6.176354,-9.875 z m 43.302993,0.160156 c -1.29519,0 -2.19294,0.119367 -2.79071,0.279297 l 0,19.3125 c 0.56457,0.119948 1.42815,0.119141 2.2584,0.119141 5.31356,0.03998 8.46999,-3.518431 8.46999,-10.355469 0.0332,-5.917436 -2.82338,-9.355469 -7.93768,-9.355469 z M 17.218442,4.210937 l 0,8.796874 c 0.531357,0.119947 1.228721,0.119141 2.158594,0.119141 2.623572,0 4.980618,-1.159953 4.980618,-4.478515 0,-3.158632 -2.290865,-4.4375 -5.113695,-4.4375 l -2.025517,0 z"
       id="rect5509"
       inkscape:connector-curvature="0" />
    <path
       inkscape:connector-curvature="0"
       id="path5476"
       style="font-style:normal;font-variant:normal;font-weight:normal;font-stretch:normal;font-size:medium;line-height:125%;font-family:'Myriad Pro';-inkscape-font-specification:'Myriad Pro, Normal';text-align:start;letter-spacing:0px;word-spacing:0px;writing-mode:lr-tb;text-anchor:start;fill:#ffffff;fill-opacity:1;stroke:none;stroke-width:1px;stroke-linecap:butt;stroke-linejoin:miter;stroke-opacity:1"
       d="m 145.71843,16.635 3.25003,0 0,-24 7.60802,0 0,-2.96 -18.42914,0 0,2.96 7.57109,0 0,24 z" />
    <path
       inkscape:connector-curvature="0"
       id="path5478"
       style="font-style:normal;font-variant:normal;font-weight:normal;font-stretch:normal;font-size:medium;line-height:125%;font-family:'Myriad Pro';-inkscape-font-specification:'Myriad Pro, Normal';text-align:start;letter-spacing:0px;word-spacing:0px;writing-mode:lr-tb;text-anchor:start;fill:#ffffff;fill-opacity:1;stroke:none;stroke-width:1px;stroke-linecap:butt;stroke-linejoin:miter;stroke-opacity:1"
       d="m 159.276,-10.325 0,26.96 3.25004,0 0,-12.64 12.03988,0 0,12.64 3.25004,0 0,-26.96 -3.25004,0 0,11.28 -12.03988,0 0,-11.28 -3.25004,0 z" />
    <path
       inkscape:connector-curvature="0"
       id="path5480"
       style="font-style:normal;font-variant:normal;font-weight:normal;font-stretch:normal;font-size:medium;line-height:125%;font-family:'Myriad Pro';-inkscape-font-specification:'Myriad Pro, Normal';text-align:start;letter-spacing:0px;word-spacing:0px;writing-mode:lr-tb;text-anchor:start;fill:#ffffff;fill-opacity:1;stroke:none;stroke-width:1px;stroke-linecap:butt;stroke-linejoin:miter;stroke-opacity:1"
       d="m 196.25782,1.115 -9.6393,0 0,-8.52 10.2302,0 0,-2.92 -13.48023,0 0,26.96 14.03422,0 0,-2.92 -10.78419,0 0,-9.72 9.6393,0 0,-2.88 z" />
    <path
       inkscape:connector-curvature="0"
       id="path5482"
       style="font-style:normal;font-variant:normal;font-weight:normal;font-stretch:normal;font-size:medium;line-height:125%;font-family:'Myriad Pro';-inkscape-font-specification:'Myriad Pro, Normal';text-align:start;letter-spacing:0px;word-spacing:0px;writing-mode:lr-tb;text-anchor:start;fill:#ffffff;fill-opacity:1;stroke:none;stroke-width:1px;stroke-linecap:butt;stroke-linejoin:miter;stroke-opacity:1"
       d="m 209.40856,16.635 13.8865,0 0,-2.92 -10.63647,0 0,-24.04 -3.25004,0 0,26.96 z" />
    <path
       inkscape:connector-curvature="0"
       id="path5484"
       style="font-style:normal;font-variant:normal;font-weight:normal;font-stretch:normal;font-size:medium;line-height:125%;font-family:'Myriad Pro';-inkscape-font-specification:'Myriad Pro, Normal';text-align:start;letter-spacing:0px;word-spacing:0px;writing-mode:lr-tb;text-anchor:start;fill:#ffffff;fill-opacity:1;stroke:none;stroke-width:1px;stroke-linecap:butt;stroke-linejoin:miter;stroke-opacity:1"
       d="m 226.86479,-10.325 0,26.96 3.25002,0 0,-26.96 -3.25002,0 z" />
    <path
       inkscape:connector-curvature="0"
       id="path5486"
       style="font-style:normal;font-variant:normal;font-weight:normal;font-stretch:normal;font-size:medium;line-height:125%;font-family:'Myriad Pro';-inkscape-font-specification:'Myriad Pro, Normal';text-align:start;letter-spacing:0px;word-spacing:0px;writing-mode:lr-tb;text-anchor:start;fill:#ffffff;fill-opacity:1;stroke:none;stroke-width:1px;stroke-linecap:butt;stroke-linejoin:miter;stroke-opacity:1"
       d="m 257.27036,16.635 3.17616,0 -1.55115,-26.96 -4.09947,0 -4.43186,13.04 c -1.10796,3.4 -1.99434,6.36 -2.65912,9.08 l -0.0738,0 c -0.66478,-2.8 -1.47729,-5.76 -2.51139,-9.08 l -4.2472,-13.04 -4.09947,0 -1.73582,26.96 3.06537,0 0.66479,-11.56 c 0.22159,-4.08 0.40624,-8.56 0.48011,-11.92 l 0.0739,0 c 0.70171,3.2 1.66195,6.64 2.84378,10.48 l 4.06254,12.84 2.43752,0 4.39493,-13.08 c 1.2557,-3.72 2.25286,-7.12 3.13924,-10.24 l 0.0738,0 c 0,3.32 0.2216,7.88 0.40626,11.64 l 0.59092,11.84 z" />
    <path
       inkscape:connector-curvature="0"
       id="path5488"
       style="font-style:normal;font-variant:normal;font-weight:normal;font-stretch:normal;font-size:medium;line-height:125%;font-family:'Myriad Pro';-inkscape-font-specification:'Myriad Pro, Normal';text-align:start;letter-spacing:0px;word-spacing:0px;writing-mode:lr-tb;text-anchor:start;fill:#ffffff;fill-opacity:1;stroke:none;stroke-width:1px;stroke-linecap:butt;stroke-linejoin:miter;stroke-opacity:1"
       d="m 265.38391,-10.325 0,26.96 3.25002,0 0,-26.96 -3.25002,0 z" />
    <path
       inkscape:connector-curvature="0"
       id="path5490"
       style="font-style:normal;font-variant:normal;font-weight:normal;font-stretch:normal;font-size:medium;line-height:125%;font-family:'Myriad Pro';-inkscape-font-specification:'Myriad Pro, Normal';text-align:start;letter-spacing:0px;word-spacing:0px;writing-mode:lr-tb;text-anchor:start;fill:#ffffff;fill-opacity:1;stroke:none;stroke-width:1px;stroke-linecap:butt;stroke-linejoin:miter;stroke-opacity:1"
       d="m 278.94839,16.635 3.25004,0 0,-24 7.60803,0 0,-2.96 -18.42916,0 0,2.96 7.57109,0 0,24 z" />
    <path
       inkscape:connector-curvature="0"
       id="path5492"
       style="font-style:normal;font-variant:normal;font-weight:normal;font-stretch:normal;font-size:medium;line-height:125%;font-family:'Myriad Pro';-inkscape-font-specification:'Myriad Pro, Normal';text-align:start;letter-spacing:0px;word-spacing:0px;writing-mode:lr-tb;text-anchor:start;fill:#ffffff;fill-opacity:1;stroke:none;stroke-width:1px;stroke-linecap:butt;stroke-linejoin:miter;stroke-opacity:1"
       d="m 291.0708,15.315 c 1.32956,0.96 3.95175,1.76 6.35234,1.76 5.87222,0 8.67905,-3.64 8.67905,-7.8 0,-3.96 -2.10513,-6.16 -6.3154,-7.92 -3.43468,-1.44 -4.94891,-2.68 -4.94891,-5.2 0,-1.84 1.29263,-4.04 4.69039,-4.04 2.25286,0 3.91481,0.76 4.69039,1.28 l 0.88637,-2.84 c -1.07103,-0.68 -2.95457,-1.32 -5.46596,-1.32 -4.83812,0 -8.05122,3.12 -8.05122,7.32 0,3.76 2.51139,6.08 6.57393,7.68 3.36083,1.36 4.69039,2.84 4.69039,5.32 0,2.72 -1.92048,4.6 -5.20744,4.6 -2.21593,0 -4.28413,-0.76 -5.72449,-1.76 l -0.84944,2.92 z" />
  </g>
</svg>
