<?xml version="1.0" encoding="UTF-8" standalone="no"?>
<!-- Created with Inkscape (http://www.inkscape.org/) -->

<svg
   xmlns:dc="http://purl.org/dc/elements/1.1/"
   xmlns:cc="http://creativecommons.org/ns#"
   xmlns:rdf="http://www.w3.org/1999/02/22-rdf-syntax-ns#"
   xmlns:svg="http://www.w3.org/2000/svg"
   xmlns="http://www.w3.org/2000/svg"
   xmlns:xlink="http://www.w3.org/1999/xlink"
   xmlns:sodipodi="http://sodipodi.sourceforge.net/DTD/sodipodi-0.dtd"
   xmlns:inkscape="http://www.inkscape.org/namespaces/inkscape"
   width="378"
   height="50"
   viewBox="0 0 378.00001 50.000002"
   id="svg4288"
   version="1.1"
   inkscape:version="0.91 r13725"
   sodipodi:docname="BTL.svg">
  <defs
     id="defs4290">
    <linearGradient
       inkscape:collect="always"
       id="linearGradient5629">
      <stop
         style="stop-color:#3d3d3d;stop-opacity:1;"
         offset="0"
         id="stop5631" />
      <stop
         style="stop-color:#3d3d3d;stop-opacity:0;"
         offset="1"
         id="stop5633" />
    </linearGradient>
    <linearGradient
       inkscape:collect="always"
       xlink:href="#linearGradient5629"
       id="linearGradient5635"
       x1="-74.64286"
       y1="-150.75"
       x2="-10"
       y2="-150.75"
       gradientUnits="userSpaceOnUse"
       gradientTransform="matrix(0.97440439,0,0,1.1368111,10.050154,168.71384)" />
  </defs>
  <sodipodi:namedview
     id="base"
     pagecolor="#ffffff"
     bordercolor="#666666"
     borderopacity="1.0"
     inkscape:pageopacity="1"
     inkscape:pageshadow="2"
     inkscape:zoom="5.6"
     inkscape:cx="151.65412"
     inkscape:cy="12.944301"
     inkscape:document-units="px"
     inkscape:current-layer="layer3"
     showgrid="false"
     units="px"
     inkscape:window-width="1920"
     inkscape:window-height="1057"
     inkscape:window-x="-8"
     inkscape:window-y="1072"
     inkscape:window-maximized="1"
     borderlayer="false" />
  <metadata
     id="metadata4293">
    <rdf:RDF>
      <cc:Work
         rdf:about="">
        <dc:format>image/svg+xml</dc:format>
        <dc:type
           rdf:resource="http://purl.org/dc/dcmitype/StillImage" />
        <dc:title></dc:title>
      </cc:Work>
    </rdf:RDF>
  </metadata>
  <g
     inkscape:groupmode="layer"
     id="layer2"
     inkscape:label="Hintergrund"
     transform="translate(0,22.000001)" />
  <g
     inkscape:label="Ebene 1"
     inkscape:groupmode="layer"
     id="layer1"
     transform="translate(0,-1002.3622)" />
  <g
     inkscape:groupmode="layer"
     id="layer3"
     inkscape:label="Text"
     transform="translate(0,22.000001)">
    <path
       style="fill:#3d3d3d;fill-opacity:1;stroke:none;stroke-opacity:1"
       d="M 62.091797 -1.0996094 L 62.091797 50.496094 L 378.61914 50.496094 L 378.61914 -1.0996094 L 62.091797 -1.0996094 z M 139.04297 11.136719 C 145.53912 11.136719 149.38477 17.09389 149.38477 24.810547 C 149.38477 33.84663 144.84252 39.005859 138.71094 39.005859 C 132.3805 39.005859 128.4043 33.1676 128.4043 25.291016 C 128.4043 16.974618 132.74568 11.136719 139.04297 11.136719 z M 81.736328 11.417969 C 84.719258 11.417969 86.608144 11.897256 88.099609 13.136719 C 89.491642 14.136286 90.419922 15.895848 90.419922 18.214844 C 90.419922 20.69377 89.126518 22.932186 86.707031 24.011719 L 86.707031 24.130859 C 89.060231 24.850548 91.214844 27.091125 91.214844 30.769531 C 91.214844 33.168492 90.35321 35.04776 89.09375 36.367188 C 87.502855 38.006477 84.885205 38.845703 80.775391 38.845703 C 78.521622 38.845703 76.830128 38.646258 75.769531 38.486328 L 75.769531 12.017578 C 77.062133 11.697716 79.416272 11.417969 81.736328 11.417969 z M 181.76172 11.417969 C 185.93782 11.417969 188.78883 12.456057 190.84375 14.535156 C 193.03122 16.654238 194.35742 19.893146 194.35742 24.451172 C 194.35742 29.289076 192.99814 32.847021 190.87695 35.166016 C 188.65632 37.604953 185.1094 38.845703 180.76758 38.845703 C 178.41438 38.845703 176.62451 38.686241 175.26562 38.486328 L 175.26562 11.976562 C 177.08852 11.656707 179.34223 11.417969 181.76172 11.417969 z M 94.867188 11.617188 L 107.85938 11.617188 L 107.85938 15.65625 L 98.943359 15.65625 L 98.943359 22.613281 L 107.36133 22.613281 L 107.36133 26.611328 L 98.943359 26.611328 L 98.943359 34.527344 L 108.35547 34.527344 L 108.35547 38.564453 L 94.867188 38.564453 L 94.867188 11.617188 z M 109.9668 11.617188 L 114.64062 11.617188 L 117.29297 18.533203 C 118.05527 20.532337 118.61831 22.053375 119.24805 23.892578 L 119.31445 23.892578 C 119.84475 22.173323 120.47404 20.492354 121.23633 18.533203 L 123.92188 11.617188 L 128.52734 11.617188 L 121.10352 27.210938 L 121.10352 38.564453 L 117.02734 38.564453 L 117.02734 27.330078 L 109.9668 11.617188 z M 152.83398 11.617188 L 157.50781 11.617188 L 163.27539 23.171875 C 164.73372 26.170576 166.05849 29.290253 167.08594 32.208984 L 167.15234 32.208984 C 166.85406 28.610547 166.78906 25.131888 166.78906 21.013672 L 166.78906 11.617188 L 170.56641 11.617188 L 170.56641 38.564453 L 166.32422 38.564453 L 160.49023 26.691406 C 159.06505 23.732688 157.60741 20.452746 156.51367 17.414062 L 156.38086 17.455078 C 156.54657 20.933571 156.61328 24.49161 156.61328 28.929688 L 156.61328 38.564453 L 152.83398 38.564453 L 152.83398 11.617188 z M 82.132812 15.054688 C 80.939641 15.054687 80.245321 15.135911 79.814453 15.255859 L 79.814453 22.652344 L 81.902344 22.652344 C 84.752699 22.652344 86.310547 21.05245 86.310547 18.773438 C 86.310547 16.214546 84.718018 15.054688 82.132812 15.054688 z M 138.91016 15.095703 C 134.86663 15.095703 132.71289 19.614283 132.71289 25.171875 C 132.71289 30.689485 134.99922 35.046875 138.91016 35.046875 C 142.85426 35.046875 145.07422 30.608261 145.07422 24.970703 C 145.07422 19.892903 142.98684 15.095703 138.91016 15.095703 z M 182.12695 15.255859 C 180.83434 15.255859 179.93838 15.375226 179.3418 15.535156 L 179.3418 34.847656 C 179.90524 34.967604 180.76711 34.966797 181.5957 34.966797 C 186.89869 35.00678 190.04883 31.448366 190.04883 24.611328 C 190.08197 18.693892 187.23107 15.255859 182.12695 15.255859 z M 79.814453 26.210938 L 79.814453 35.007812 C 80.344752 35.127759 81.040728 35.126953 81.96875 35.126953 C 84.587099 35.126953 86.939453 33.967 86.939453 30.648438 C 86.939453 27.489806 84.653149 26.210938 81.835938 26.210938 L 79.814453 26.210938 z "
       transform="translate(-1.525879e-5,-22.000001)"
       id="rect5509" />
    <path
       inkscape:connector-curvature="0"
       id="path5476"
       style="font-style:normal;font-variant:normal;font-weight:normal;font-stretch:normal;font-size:medium;line-height:125%;font-family:'Myriad Pro';-inkscape-font-specification:'Myriad Pro, Normal';text-align:start;letter-spacing:0px;word-spacing:0px;writing-mode:lr-tb;text-anchor:start;fill:#ffffff;fill-opacity:1;stroke:none;stroke-width:1px;stroke-linecap:butt;stroke-linejoin:miter;stroke-opacity:1"
       d="m 208.05863,16.635 3.24356,0 0,-24 7.59288,0 0,-2.96 -18.39246,0 0,2.96 7.55602,0 0,24 z" />
    <path
       inkscape:connector-curvature="0"
       id="path5478"
       style="font-style:normal;font-variant:normal;font-weight:normal;font-stretch:normal;font-size:medium;line-height:125%;font-family:'Myriad Pro';-inkscape-font-specification:'Myriad Pro, Normal';text-align:start;letter-spacing:0px;word-spacing:0px;writing-mode:lr-tb;text-anchor:start;fill:#ffffff;fill-opacity:1;stroke:none;stroke-width:1px;stroke-linecap:butt;stroke-linejoin:miter;stroke-opacity:1"
       d="m 221.58921,-10.325 0,26.96 3.24357,0 0,-12.64 12.01592,0 0,12.64 3.24357,0 0,-26.96 -3.24357,0 0,11.28 -12.01592,0 0,-11.28 -3.24357,0 z" />
    <path
       inkscape:connector-curvature="0"
       id="path5480"
       style="font-style:normal;font-variant:normal;font-weight:normal;font-stretch:normal;font-size:medium;line-height:125%;font-family:'Myriad Pro';-inkscape-font-specification:'Myriad Pro, Normal';text-align:start;letter-spacing:0px;word-spacing:0px;writing-mode:lr-tb;text-anchor:start;fill:#ffffff;fill-opacity:1;stroke:none;stroke-width:1px;stroke-linecap:butt;stroke-linejoin:miter;stroke-opacity:1"
       d="m 258.49741,1.115 -9.62011,0 0,-8.52 10.20984,0 0,-2.92 -13.4534,0 0,26.96 14.00629,0 0,-2.92 -10.76273,0 0,-9.72 9.62011,0 0,-2.88 z" />
    <path
       inkscape:connector-curvature="0"
       id="path5482"
       style="font-style:normal;font-variant:normal;font-weight:normal;font-stretch:normal;font-size:medium;line-height:125%;font-family:'Myriad Pro';-inkscape-font-specification:'Myriad Pro, Normal';text-align:start;letter-spacing:0px;word-spacing:0px;writing-mode:lr-tb;text-anchor:start;fill:#ffffff;fill-opacity:1;stroke:none;stroke-width:1px;stroke-linecap:butt;stroke-linejoin:miter;stroke-opacity:1"
       d="m 271.62198,16.635 13.85885,0 0,-2.92 -10.61529,0 0,-24.04 -3.24357,0 0,26.96 z" />
    <path
       inkscape:connector-curvature="0"
       id="path5484"
       style="font-style:normal;font-variant:normal;font-weight:normal;font-stretch:normal;font-size:medium;line-height:125%;font-family:'Myriad Pro';-inkscape-font-specification:'Myriad Pro, Normal';text-align:start;letter-spacing:0px;word-spacing:0px;writing-mode:lr-tb;text-anchor:start;fill:#ffffff;fill-opacity:1;stroke:none;stroke-width:1px;stroke-linecap:butt;stroke-linejoin:miter;stroke-opacity:1"
       d="m 289.04346,-10.325 0,26.96 3.24355,0 0,-26.96 -3.24355,0 z" />
    <path
       inkscape:connector-curvature="0"
       id="path5486"
       style="font-style:normal;font-variant:normal;font-weight:normal;font-stretch:normal;font-size:medium;line-height:125%;font-family:'Myriad Pro';-inkscape-font-specification:'Myriad Pro, Normal';text-align:start;letter-spacing:0px;word-spacing:0px;writing-mode:lr-tb;text-anchor:start;fill:#ffffff;fill-opacity:1;stroke:none;stroke-width:1px;stroke-linecap:butt;stroke-linejoin:miter;stroke-opacity:1"
       d="m 319.3885,16.635 3.16984,0 -1.54806,-26.96 -4.09131,0 -4.42304,13.04 c -1.10576,3.4 -1.99037,6.36 -2.65383,9.08 l -0.0737,0 c -0.66346,-2.8 -1.47435,-5.76 -2.50639,-9.08 l -4.23875,-13.04 -4.09131,0 -1.73236,26.96 3.05927,0 0.66346,-11.56 c 0.22115,-4.08 0.40544,-8.56 0.47916,-11.92 l 0.0737,0 c 0.70031,3.2 1.65864,6.64 2.83812,10.48 l 4.05445,12.84 2.43267,0 4.38618,-13.08 c 1.2532,-3.72 2.24838,-7.12 3.13299,-10.24 l 0.0737,0 c 0,3.32 0.22116,7.88 0.40545,11.64 l 0.58974,11.84 z" />
    <path
       inkscape:connector-curvature="0"
       id="path5488"
       style="font-style:normal;font-variant:normal;font-weight:normal;font-stretch:normal;font-size:medium;line-height:125%;font-family:'Myriad Pro';-inkscape-font-specification:'Myriad Pro, Normal';text-align:start;letter-spacing:0px;word-spacing:0px;writing-mode:lr-tb;text-anchor:start;fill:#ffffff;fill-opacity:1;stroke:none;stroke-width:1px;stroke-linecap:butt;stroke-linejoin:miter;stroke-opacity:1"
       d="m 327.4859,-10.325 0,26.96 3.24355,0 0,-26.96 -3.24355,0 z" />
    <path
       inkscape:connector-curvature="0"
       id="path5490"
       style="font-style:normal;font-variant:normal;font-weight:normal;font-stretch:normal;font-size:medium;line-height:125%;font-family:'Myriad Pro';-inkscape-font-specification:'Myriad Pro, Normal';text-align:start;letter-spacing:0px;word-spacing:0px;writing-mode:lr-tb;text-anchor:start;fill:#ffffff;fill-opacity:1;stroke:none;stroke-width:1px;stroke-linecap:butt;stroke-linejoin:miter;stroke-opacity:1"
       d="m 341.02338,16.635 3.24357,0 0,-24 7.59288,0 0,-2.96 -18.39247,0 0,2.96 7.55602,0 0,24 z" />
    <path
       inkscape:connector-curvature="0"
       id="path5492"
       style="font-style:normal;font-variant:normal;font-weight:normal;font-stretch:normal;font-size:medium;line-height:125%;font-family:'Myriad Pro';-inkscape-font-specification:'Myriad Pro, Normal';text-align:start;letter-spacing:0px;word-spacing:0px;writing-mode:lr-tb;text-anchor:start;fill:#ffffff;fill-opacity:1;stroke:none;stroke-width:1px;stroke-linecap:butt;stroke-linejoin:miter;stroke-opacity:1"
       d="m 353.12166,15.315 c 1.32691,0.96 3.94388,1.76 6.33969,1.76 5.86053,0 8.66178,-3.64 8.66178,-7.8 0,-3.96 -2.10094,-6.16 -6.30283,-7.92 -3.42785,-1.44 -4.93906,-2.68 -4.93906,-5.2 0,-1.84 1.29006,-4.04 4.68105,-4.04 2.24838,0 3.90702,0.76 4.68105,1.28 l 0.88461,-2.84 c -1.0689,-0.68 -2.94869,-1.32 -5.45508,-1.32 -4.82849,0 -8.03519,3.12 -8.03519,7.32 0,3.76 2.50639,6.08 6.56084,7.68 3.35414,1.36 4.68105,2.84 4.68105,5.32 0,2.72 -1.91665,4.6 -5.19707,4.6 -2.21152,0 -4.2756,-0.76 -5.71309,-1.76 l -0.84775,2.92 z" />
    <rect
       style="fill:url(#linearGradient5635);fill-opacity:1;stroke:none;stroke-opacity:1"
       id="rect5627"
       width="62.988281"
       height="51.562504"
       x="-62.682182"
       y="-28.441658"
       transform="scale(-1,-1)" />
  </g>
</svg>
