<?xml version="1.0" encoding="UTF-8" standalone="no"?>
<!-- Created with Inkscape (http://www.inkscape.org/) -->

<svg
   xmlns:dc="http://purl.org/dc/elements/1.1/"
   xmlns:cc="http://creativecommons.org/ns#"
   xmlns:rdf="http://www.w3.org/1999/02/22-rdf-syntax-ns#"
   xmlns:svg="http://www.w3.org/2000/svg"
   xmlns="http://www.w3.org/2000/svg"
   xmlns:sodipodi="http://sodipodi.sourceforge.net/DTD/sodipodi-0.dtd"
   xmlns:inkscape="http://www.inkscape.org/namespaces/inkscape"
   width="72"
   height="50"
   viewBox="0 0 72 50.000002"
   id="svg4288"
   version="1.1"
   inkscape:version="0.91 r13725"
   sodipodi:docname="loxberry_footer_logo_only.svg">
  <defs
     id="defs4290" />
  <sodipodi:namedview
     id="base"
     pagecolor="#ffffff"
     bordercolor="#666666"
     borderopacity="1.0"
     inkscape:pageopacity="1"
     inkscape:pageshadow="2"
     inkscape:zoom="11.313709"
     inkscape:cx="47.916906"
     inkscape:cy="15.401756"
     inkscape:document-units="px"
     inkscape:current-layer="layer3"
     showgrid="false"
     units="px"
     inkscape:window-width="1920"
     inkscape:window-height="1057"
     inkscape:window-x="1912"
     inkscape:window-y="1072"
     inkscape:window-maximized="1"
     borderlayer="false" />
  <metadata
     id="metadata4293">
    <rdf:RDF>
      <cc:Work
         rdf:about="">
        <dc:format>image/svg+xml</dc:format>
        <dc:type
           rdf:resource="http://purl.org/dc/dcmitype/StillImage" />
        <dc:title></dc:title>
      </cc:Work>
    </rdf:RDF>
  </metadata>
  <g
     inkscape:groupmode="layer"
     id="layer3"
     inkscape:label="Text"
     transform="translate(0,22.000001)">
    <path
       style="fill:#3d3d3d;fill-opacity:1;stroke:none;stroke-opacity:1"
       d="m -0.00977326,-22.097658 0,50.155812 73.16887326,0.01286 0,-50.168681 z m 30.19031526,1.026644 c 0.297139,-0.01386 0.604746,0.1 0.934629,0.345094 0.446313,0.333087 16.500546,15.9373931 16.571692,16.1133643 0.122902,0.2828067 0.01892,0.3828645 -0.408001,0.4080013 -0.284606,0.012571 -0.38863,0.05134 -0.50506,0.1707494 -0.09055,0.09427 -0.224704,0.1581681 -0.321728,0.1581681 -0.09702,0 -0.232969,0.068384 -0.323526,0.1563708 -0.08408,0.087984 -0.227573,0.1563709 -0.318133,0.1563709 -0.122894,8e-7 -0.348153,0.1766575 -0.891492,0.7045663 -0.666237,0.6473168 -0.731526,0.7281397 -0.731526,0.9418181 0,0.1256941 -0.02626,0.2453589 -0.05211,0.264213 -0.03234,0.018847 -3.193789,-3.0232196 -7.029489,-6.7562896 -3.842175,-3.7267876 -6.986351,-6.7814526 -6.986351,-6.7814536 0,0 -4.23635,4.116388 -9.410998,9.1503789 -5.174635,5.0276983 -9.496947,9.1944675 -9.606907,9.2510298 -0.148771,0.0817 -0.354247,0.1078414 -0.839369,0.1078423 -0.5821472,0 -0.6859926,-0.019933 -1.0352813,-0.1833311 C 9.0069522,3.0290386 8.6631518,2.7833843 8.4432276,2.5697085 7.9581052,2.1046427 7.7584321,1.647952 7.7584321,1.0257737 7.7519639,0.18363162 6.8199106,1.1565587 18.618102,-10.306604 c 5.89909,-5.7253 10.795355,-10.457117 10.879443,-10.519967 0.09055,-0.05656 0.26534,-0.13845 0.38823,-0.188725 0.09702,-0.033 0.195723,-0.05111 0.294767,-0.05572 z m 0.100653,8.959857 c 0.05175,0 2.993451,2.8153324 6.531619,6.2530281 l 6.443548,6.26021775 -0.02516,0.76567665 -0.02696,0.7692712 -0.639862,0.6272801 c -0.459252,0.4524925 -0.64166,0.6741247 -0.64166,0.7872455 0,0.1005549 -0.115464,0.2626219 -0.328916,0.4763014 l -0.330715,0.325323 0,1.2455725 0,1.2509649 0.492476,0.4529361 c 0.271672,0.2450976 0.490681,0.4763362 0.490681,0.5140452 0,0.094275 -0.194877,0.1842011 -0.330716,0.1527763 -0.168174,-0.043997 -0.316335,0.086467 -0.316335,0.2875778 0,0.1194089 -0.09534,0.2581393 -0.321727,0.4780984 l -0.325324,0.3073496 0,0.9490082 c 0,0.9364133 5.1e-5,0.9554253 0.161761,1.0874053 0.135835,0.113122 0.163563,0.195296 0.163563,0.478099 0,0.295378 0.01838,0.351476 0.167153,0.445747 0.135837,0.08797 0.162477,0.139434 0.136601,0.283981 -0.03234,0.144548 0.0059,0.224903 0.251631,0.463721 0.155238,0.15711 0.316351,0.289375 0.348688,0.289375 0.0388,0 0.0647,0.10618 0.0647,0.244442 0,0.18854 -0.0324,0.263393 -0.161762,0.345094 -0.161711,0.100554 -0.161763,0.122092 -0.161763,0.907667 0,0.779297 0.0067,0.809841 0.161763,0.94182 0.09702,0.0817 0.161762,0.206799 0.161762,0.307349 0,0.138263 0.136753,0.308685 0.589535,0.754892 0.49806,0.490203 0.614744,0.577825 0.744109,0.546399 0.271664,-0.06913 0.335365,0.05085 0.296566,0.578751 -0.03235,0.452496 -0.01792,0.484534 0.143789,0.629078 0.103483,0.09427 0.167154,0.218483 0.167154,0.325322 0,0.13198 0.116595,0.283433 0.485288,0.641658 0.265203,0.257674 0.485288,0.502406 0.485288,0.546399 0,0.119411 -30.59016,0.149958 -30.920046,0.03055 -0.271665,-0.100552 -0.426037,-0.224969 -0.62009,-0.526627 l -0.154575,-0.23905 0,-7.365596 0,-7.3709881 8.363132,-8.1276777 c 4.598972,-4.4620895 8.403043,-8.1204882 8.454806,-8.1204852 z m 23.123081,5.4190513 1.12515,0 1.132339,0 0.567967,0.5517912 c 0.459251,0.4462109 0.569763,0.5914788 0.569763,0.7423107 0,0.1319786 0.05179,0.2202443 0.161765,0.2893753 l 0.163559,0.1006524 0,1.28871 0,1.2887099 -0.163559,0.098854 c -0.181113,0.1131246 -0.219226,0.3414994 -0.05751,0.3414994 0.05175,0 0.201384,-0.1088757 0.330713,-0.240846 l 0.231859,-0.2318609 -0.01258,-1.4127274 c -0.01294,-1.388904 -0.02019,-1.4155637 -0.168955,-1.5601111 -0.291072,-0.2828058 -0.168634,-0.3325002 0.769271,-0.3199314 l 0.848355,0.010786 0.569764,0.5607773 c 0.452785,0.4336384 0.562559,0.5788494 0.530223,0.6794033 -0.03234,0.087984 0.01335,0.1753592 0.149181,0.294768 l 0.194116,0.1761414 0.0072,0.9543998 c 0.0065,0.7981458 -0.0076,0.9679485 -0.09166,1.0370795 -0.265199,0.2136793 -0.292238,0.2526731 -0.253428,0.3972168 0.02587,0.1131245 -4.4e-5,0.1699297 -0.129411,0.2516313 -0.187583,0.119408 -0.226412,0.3450939 -0.0647,0.3450939 0.05176,0 0.215374,-0.1205694 0.357675,-0.271402 0.187578,-0.1948253 0.245155,-0.3020547 0.219279,-0.4026095 -0.03233,-0.131974 0.07736,-0.2948426 0.239049,-0.3450938 0.05822,-0.018847 0.07834,-0.2891739 0.0719,-0.9993346 -0.0065,-0.5781895 0.01871,-0.9975853 0.05751,-1.047863 0.04528,-0.050265 0.245627,-0.075489 0.562574,-0.075489 0.472188,-9e-7 0.505838,0.00561 0.674012,0.1941157 0.122901,0.138263 0.206731,0.1824018 0.303754,0.150978 0.103493,-0.031426 0.218339,0.042562 0.548197,0.3630672 0.401038,0.3896506 0.415191,0.4145838 0.415191,0.7099593 -0.0065,0.3645064 -0.07808,0.467314 -0.310944,0.467314 -0.129364,0 -0.375883,0.1938498 -1.055053,0.8411666 -0.491617,0.46506129 -0.891491,0.8915411 -0.891492,0.94181805 0,0.21367573 0.225957,0.0767029 0.833976,-0.52662695 0.465718,-0.4587502 0.679801,-0.6290784 0.796231,-0.6290774 0.08408,-10e-7 0.226858,-0.068384 0.310946,-0.1563708 0.135811,-0.1445474 0.201051,-0.1644404 0.505059,-0.1455864 0.316948,0.018847 0.3552,7.454e-4 0.478098,-0.1563707 0.174647,-0.2325324 0.425329,-0.2280177 0.645253,0.023365 0.161707,0.1759712 0.200315,0.1904836 0.465517,0.1527754 l 0.292972,-0.044936 0.587737,0.5643719 0.580548,0.57335909 -0.02336,0.32172866 c -0.01293,0.17596665 -0.0453,0.33795551 -0.06471,0.36306726 -0.02588,0.0188467 -0.261426,0.044935 -0.526628,0.044935 -0.433375,0.006265 -0.503319,0.0235118 -0.665024,0.17434408 -0.097,0.09427042 -0.252742,0.17074977 -0.343298,0.17074977 -0.10996,0 -0.361443,0.19549967 -0.87891,0.69198476 -0.401032,0.37708078 -0.72973,0.72798148 -0.72973,0.77825838 0,0.2073949 0.217635,0.088519 0.670416,-0.3702562 0.336355,-0.33937172 0.518038,-0.47090947 0.634469,-0.47090947 0.08408,0 0.226858,-0.0683837 0.310945,-0.15637064 0.09056,-0.087985 0.226502,-0.158168 0.323524,-0.158168 0.097,0 0.231522,-0.0638844 0.309149,-0.14558649 0.129365,-0.13826298 0.200793,-0.15008726 0.808812,-0.15637065 0.653302,-0.006264 0.659335,-0.00699 0.833978,0.18153392 0.168175,0.17597129 0.209304,0.19048352 0.474503,0.1527753 0.291074,-0.0439976 0.289515,-0.0454239 0.709959,0.36306738 0.349283,0.33937245 0.420581,0.44592095 0.420581,0.62188845 0,0.157117 0.04102,0.2274085 0.150981,0.2714021 0.135837,0.056558 0.140947,0.1003614 0.147382,0.7225397 0.0065,0.3645065 0.03093,0.7163163 0.05033,0.7854481 0.03235,0.087975 0.0078,0.1627474 -0.08268,0.2444407 -0.122897,0.1068402 -0.129098,0.1067904 -0.271403,-0.050328 -0.09055,-0.1005548 -0.214641,-0.1617634 -0.318134,-0.1617625 -0.09702,0 -0.231172,-0.070178 -0.321727,-0.158168 -0.122886,-0.125693 -0.213606,-0.1563705 -0.485277,-0.1563705 -0.271671,0 -0.362389,-0.032476 -0.485289,-0.1581681 C 67.027678,2.7531594 66.936928,2.722483 66.665259,2.722482 c -0.27814,0 -0.363112,0.029788 -0.492478,0.1617626 -0.135805,0.1445474 -0.188455,0.1572384 -0.460124,0.1258157 -0.232858,-0.031426 -0.321749,-0.017898 -0.386433,0.057515 -0.219922,0.2576718 -0.266053,0.2821449 -0.39542,0.2444411 -0.116431,-0.025141 -0.237727,0.056926 -0.580549,0.3774463 -0.239326,0.2262479 -0.434962,0.4529848 -0.434962,0.5032618 0,0.1885399 0.207164,0.09944 0.517641,-0.2210755 0.239329,-0.2451021 0.34333,-0.3136093 0.440353,-0.2821863 0.08406,0.025141 0.161067,0.00709 0.21928,-0.055722 0.252236,-0.2953742 0.207077,-0.2821851 1.403716,-0.2821851 1.13842,0 1.152521,-7.464e-4 1.30129,0.1563708 0.08408,0.087985 0.22578,0.1563697 0.316336,0.1563706 0.12287,0 0.310009,0.1451271 0.736919,0.5661691 0.478654,0.477632 0.562575,0.5897066 0.562576,0.7656768 0,0.1571169 0.03921,0.227413 0.14918,0.2714019 0.142303,0.062852 0.14379,0.082021 0.14379,1.2258018 0,1.1438029 -0.0015,1.1629524 -0.14379,1.2258026 -0.109961,0.043989 -0.149181,0.111595 -0.14918,0.2749974 0,0.1696863 -0.06444,0.2707696 -0.336108,0.5410051 -0.187554,0.1822562 -0.510164,0.5025684 -0.717148,0.7099594 -0.465718,0.4713545 -0.562575,0.4578021 -0.562575,-0.057513 0,-0.3205147 0.01765,-0.3829257 0.159965,-0.4709097 0.206984,-0.1319798 0.206984,-0.2328992 0,-0.3648648 -0.155207,-0.100551 -0.160315,-0.1298413 -0.147383,-0.5697649 0.01294,-0.433643 -0.0019,-0.4854504 -0.163559,-0.6488482 -0.09702,-0.09427 -0.174347,-0.2436215 -0.174347,-0.3253231 0,-0.2199638 -1.067017,-1.258154 -1.28691,-1.258154 -0.09056,0 -0.231169,-0.069275 -0.321729,-0.150979 -0.155236,-0.1445433 -0.228527,-0.1573146 -1.004726,-0.1761418 -0.633866,-0.012571 -0.838656,6.61e-5 -0.864531,0.062908 -0.05173,0.1508318 -0.228309,0.2704736 -0.357677,0.2390499 -0.161709,-0.037712 -0.366661,0.063919 -0.366661,0.1833312 0,0.050275 0.05718,0.1186699 0.134804,0.1563698 0.142306,0.075378 0.445745,0.036746 0.445745,-0.057515 0,-0.031417 0.04603,-0.1060928 0.104247,-0.1563696 0.07763,-0.0817 0.246414,-0.1006523 0.763879,-0.1006523 0.620957,0 0.671901,0.00728 0.814205,0.1581679 0.08408,0.087985 0.225782,0.1563698 0.316336,0.1563698 0.23933,0 1.301292,1.0292169 1.301291,1.2617495 0,0.087985 0.07121,0.2274461 0.161764,0.3091469 0.16171,0.1445456 0.159964,0.1635781 0.159964,1.0999861 0,0.936412 0.0018,0.9554396 -0.159964,1.0999873 -0.09055,0.081676 -0.161764,0.2202681 -0.161764,0.3145374 0,0.1131245 -0.09713,0.2572365 -0.323524,0.4709095 -0.219921,0.21368 -0.325323,0.357786 -0.325323,0.470909 0,0.207363 -0.108276,0.314539 -0.321728,0.314539 -0.09702,0 -0.239437,0.07018 -0.323527,0.158168 -0.09055,0.08798 -0.226499,0.156372 -0.323525,0.156372 -0.09702,0 -0.232996,0.06839 -0.323525,0.156369 -0.135832,0.138268 -0.206117,0.15817 -0.62009,0.15817 -0.258734,0 -0.511552,-0.02069 -0.569764,-0.03953 -0.16818,-0.06285 -0.130043,-0.419849 0.05751,-0.589535 0.142301,-0.131979 0.16356,-0.195435 0.16356,-0.629078 0,-0.433639 0.01766,-0.495301 0.159966,-0.6272795 0.129374,-0.1194075 0.161762,-0.2069562 0.161762,-0.4709092 0,-0.2639566 -0.0324,-0.353301 -0.161762,-0.4727071 C 64.258244,8.8741199 64.240581,8.8115384 64.240581,8.3841845 l 0,-0.4781002 -0.887897,-0.8591391 -0.891492,-0.8681272 -1.126946,0 -1.13234,0 -0.179737,0.1689524 C 59.776376,6.5740114 59.310331,6.5694921 59.051597,6.3243972 58.902826,6.1861434 58.832524,6.1662301 58.399152,6.1662301 l -0.479896,0.00543 -0.478098,-0.4709094 c -0.349289,-0.3393698 -0.517682,-0.465513 -0.647051,-0.4655139 -0.09054,0 -0.234045,-0.068384 -0.318133,-0.1563708 -0.122885,-0.1257329 -0.213648,-0.1563708 -0.485288,-0.1563708 -0.368695,0 -0.485289,-0.07662 -0.485289,-0.309146 0,-0.2325334 -0.74311,-0.9490088 -0.975968,-0.949008 -0.28461,0 -0.334661,-0.124681 -0.321728,-0.8034215 0.01294,-0.5844713 0.0054,-0.6229542 -0.15637,-0.7674748 -0.09055,-0.0817 -0.161764,-0.221161 -0.161764,-0.3091462 0,-0.2325335 -1.061966,-1.26174942 -1.301291,-1.26174942 -0.09056,0 -0.230459,-0.0683827 -0.314537,-0.15637074 -0.148771,-0.15711704 -0.170359,-0.158168 -1.134137,-0.158168 -0.963779,0 -0.981769,0.001008 -1.130542,0.158168 -0.122897,0.12569409 -0.212897,0.15637074 -0.478099,0.15637074 l -0.330715,0 -0.841165,0.81780062 c -0.459253,0.4461805 -0.879285,0.8160032 -0.931036,0.8160032 -0.206978,0 -0.330714,-0.2016223 -0.330714,-0.5284252 0,-0.2513829 -0.03204,-0.3461326 -0.174345,-0.49068 -0.155241,-0.15711721 -0.169294,-0.20800872 -0.156371,-0.62907755 0.01294,-0.38964581 0.0403,-0.48185397 0.176143,-0.62009038 0.122891,-0.1256942 0.154572,-0.22760901 0.154573,-0.47270664 0,-0.28909566 0.02131,-0.33099924 0.325322,-0.62009023 0.226389,-0.2136785 0.321728,-0.3596089 0.321728,-0.4727068 0,-0.09427 0.06511,-0.2265407 0.149183,-0.301957 0.07762,-0.069139 0.181188,-0.1761902 0.226468,-0.2264681 0.04527,-0.056559 0.162518,-0.098855 0.266008,-0.098855 0.103492,0 0.238385,-0.063903 0.328918,-0.158168 0.09054,-0.087985 0.226509,-0.1563707 0.323525,-0.1563707 0.09702,0 0.232971,-0.070187 0.323526,-0.158167 0.142302,-0.1445485 0.192523,-0.1563709 0.807017,-0.1563709 0.614488,-9e-7 0.668309,0.011826 0.810611,0.1563709 0.122892,0.1256849 0.212899,0.1581679 0.478098,0.158167 0.31048,0 0.343427,0.011154 0.731527,0.3882314 0.291072,0.2828021 0.406204,0.4404676 0.406204,0.5535875 0,0.100529 0.07194,0.2319454 0.168953,0.3199305 0.142267,0.1319786 0.160677,0.1898705 0.1348,0.43496173 -0.0388,0.30792305 0.03276,0.50326181 0.181535,0.50326275 0.161707,-9.4e-7 0.213871,-0.20266121 0.181534,-0.67401148 -0.03234,-0.3707918 -0.06584,-0.4782162 -0.188723,-0.5913325 -0.08408,-0.075415 -0.154574,-0.2139711 -0.154573,-0.301958 0,-0.2199555 -0.425342,-0.632671 -0.645253,-0.6326719 -0.11643,0 -0.26537,-0.1008853 -0.485289,-0.3145379 l -0.318133,-0.3145387 -1.137733,0 c -1.131942,0 -1.145328,0.00101 -1.294101,0.158168 -0.09054,0.094266 -0.22723,0.1563707 -0.330715,0.1563707 -0.135836,-9e-7 -0.252064,0.081111 -0.465516,0.3199306 -0.252266,0.2828066 -0.304155,0.314478 -0.420583,0.2516302 -0.122872,-0.062843 -0.134788,-0.1127075 -0.10245,-0.4960717 0.04527,-0.5844703 0.07876,-0.7045655 0.188723,-0.7045665 0.122902,0 0.219625,-0.1762887 0.174344,-0.3271204 -0.0194,-0.0817 0.167369,-0.3060678 0.717148,-0.8339768 0.653298,-0.6284626 0.775803,-0.7261343 0.963387,-0.7261343 0.161679,0 0.231514,-0.035154 0.276795,-0.1419919 0.06468,-0.131974 0.09237,-0.1393038 1.082011,-0.1455863 0.989652,-0.012571 1.015201,-0.00617 1.157503,0.1383964 0.07762,0.0817 0.218586,0.1491818 0.309146,0.1491818 0.122897,0 0.351751,0.1784549 0.895088,0.7063637 l 0.729729,0.7099583 0,0.4763012 c 0,0.4273578 0.01947,0.4917109 0.161763,0.6236857 0.135835,0.1193822 0.161763,0.2069652 0.161763,0.4834902 0,0.2828067 -0.02593,0.3451794 -0.161763,0.4331645 -0.181108,0.1131245 -0.219221,0.3397012 -0.05751,0.3397021 0.05175,-9e-7 0.212855,-0.1187602 0.34869,-0.2570231 l 0.251632,-0.2642121 -0.03773,-0.4475434 C 54.854055,-2.9981441 54.809431,-3.1235302 54.693,-3.2555087 54.557194,-3.393745 54.536631,-3.4733844 54.536631,-3.8755991 l 0,-0.4727065 -0.724338,-0.7045667 c -0.562734,-0.5468007 -0.769311,-0.7099925 -0.898681,-0.7099925 -0.09702,0 -0.215338,-0.044088 -0.260618,-0.1006522 -0.0776,-0.094271 -0.06934,-0.1132948 0.03415,-0.1761413 0.06468,-0.037712 0.252405,-0.2014677 0.420584,-0.3648654 z m -6.010383,2.8200632 c 0.105917,-0.014925 0.210314,0.00728 0.274996,0.070095 0.122898,0.1194053 0.08836,0.2014152 -0.118625,0.3145389 -0.155273,0.087984 -0.187638,0.1385068 -0.161762,0.2516312 0.02588,0.1068393 -0.0065,0.1888317 -0.12941,0.3019572 -0.161672,0.1445445 -0.167508,0.1803129 -0.154574,0.7710684 0.0065,0.5907545 -5.6e-5,0.6292357 -0.161763,0.7926372 -0.09054,0.094267 -0.168954,0.2391353 -0.168953,0.3271203 0,0.0879851 -0.06941,0.22744541 -0.159965,0.30914705 -0.142302,0.13197767 -0.161763,0.19453352 -0.161763,0.62188753 l 0,0.47090958 -0.402609,0.39541955 C 45.764859,1.030891 45.596843,1.1515874 45.486892,1.1515874 c -0.232863,0 -0.97597,0.7218581 -0.97597,0.9418181 0,0.094268 -0.07121,0.232838 -0.161763,0.3145386 -0.09702,0.087985 -0.161762,0.220285 -0.161762,0.3271205 0,0.1131246 -0.05179,0.2058644 -0.161763,0.2749966 -0.148774,0.09427 -0.174758,0.09427 -0.323527,0 l -0.167153,-0.1060443 0.01797,-1.4576624 c 0.01941,-1.43289253 0.02127,-1.45773024 0.163558,-1.52056858 0.109956,-0.0439967 0.147033,-0.11971441 0.159967,-0.31453871 0.01292,-0.18853622 0.05253,-0.26426177 0.168952,-0.31453871 0.109953,-0.0502732 0.141991,-0.11430979 0.141991,-0.29656534 0,-0.17596656 0.03852,-0.25621516 0.174343,-0.35048556 0.129374,-0.094271 0.174697,-0.1699794 0.161763,-0.301957 -0.01292,-0.1508291 0.09727,-0.2890608 0.711758,-0.8861008 0.556274,-0.5404774 0.769323,-0.7099582 0.89868,-0.7099582 0.09054,0 0.234046,-0.068384 0.318133,-0.1563706 0.09054,-0.087985 0.224704,-0.158168 0.321728,-0.158168 0.09702,0 0.23297,-0.068384 0.323526,-0.1563707 0.08085,-0.084839 0.19064,-0.1378451 0.296566,-0.1527748 z M 51.1396,0.52251188 c 0.614487,0 0.666511,0.0136193 0.808813,0.15816808 0.08408,0.087984 0.227577,0.15636962 0.318133,0.15637055 0.122897,-9.3e-7 0.317559,0.1441794 0.731527,0.54639849 l 0.567966,0.5535877 0,0.3307148 c 0,0.2388178 0.02592,0.3397268 0.09705,0.3648654 0.05821,0.025141 0.130143,0.095322 0.168952,0.1581681 0.05176,0.1005547 0.01899,0.1574455 -0.181534,0.3397011 l -0.246239,0.2210762 -0.975968,0 c -0.957308,0 -0.97638,-7.463e-4 -1.12515,0.1563707 -0.08408,0.087985 -0.227579,0.1563699 -0.318133,0.1563709 -0.239325,0 -1.623019,1.3437547 -1.623019,1.5762872 0,0.087985 -0.07121,0.2274452 -0.161762,0.3091469 -0.09054,0.0817 -0.161764,0.2184802 -0.161764,0.3001599 0,0.1822444 -0.167566,0.391825 -0.316336,0.391825 -0.05821,0 -0.369289,-0.2663195 -0.699174,-0.580549 l -0.600316,-0.5823452 0,-0.949008 c 0,-0.9301227 -0.0018,-0.9482496 0.159967,-1.092797 0.09054,-0.0817 0.161762,-0.2211611 0.161762,-0.3091471 0,-0.1256897 0.208749,-0.3646316 0.887898,-1.0244969 l 0.891491,-0.86632919 0.330716,0 c 0.265198,0 0.35521,-0.0306817 0.478097,-0.15637055 0.142303,-0.1445475 0.192526,-0.15816808 0.807019,-0.15816808 z M 46.371194,1.1677655 c 0.08247,0.03221 0.135151,0.1372002 0.106042,0.2911727 -0.02588,0.1194089 0.0065,0.201418 0.12941,0.3145388 0.09701,0.087985 0.167155,0.224759 0.167156,0.3127415 0,0.087984 0.07841,0.232858 0.168953,0.3271195 0.161707,0.1634022 0.168198,0.208167 0.161763,0.792638 -0.0065,0.5719004 -0.01839,0.6229017 -0.167155,0.7423106 -0.200521,0.1633977 -0.200521,0.2382786 0,0.3702571 0.148772,0.09427 0.159964,0.1379547 0.159965,0.5967242 0,0.4587742 0.01299,0.5024556 0.161764,0.5967252 0.09054,0.056558 0.163558,0.1312442 0.163558,0.1689523 0,0.037712 -0.22009,0.2653486 -0.485287,0.5104508 l -0.485289,0.4385573 0,0.3343094 c 0,0.4084962 -0.09756,0.4951507 -0.505058,0.4763012 C 45.655941,7.4279936 45.60929,7.403212 45.078888,6.8815839 44.651981,6.4793693 44.510922,6.2973161 44.510922,6.1716258 c 0,-0.087985 -0.07121,-0.2256565 -0.161763,-0.3073499 -0.161707,-0.14454 -0.161762,-0.1565501 -0.161762,-1.2563568 0,-1.0998149 5.5e-5,-1.1118131 0.161762,-1.2563568 0.09054,-0.087984 0.161763,-0.2202683 0.161763,-0.3145386 0,-0.094271 0.0712,-0.2265537 0.161762,-0.3145388 0.09056,-0.08169 0.161762,-0.2211609 0.161762,-0.3091469 0,-0.2325252 0.736647,-0.947209 0.975969,-0.9472099 0.109965,0 0.207438,-0.057616 0.278592,-0.158168 0.08732,-0.1319776 0.199715,-0.1724032 0.282187,-0.1401946 z m -3.362868,1.2509651 c 0.121281,-0.038595 0.227533,0.1546305 0.188724,0.4421515 -0.03234,0.2451023 -0.01821,0.2753334 0.318132,0.6146978 l 0.348689,0.3594726 0,1.0981898 c 0,1.0872406 5.7e-5,1.101025 0.161763,1.2455723 0.135831,0.119409 0.161763,0.2078817 0.161763,0.4906803 0,0.3268038 -0.01232,0.3507468 -0.316338,0.6146985 -0.239325,0.2073949 -0.330364,0.3344547 -0.343295,0.4852883 -0.01293,0.1382576 -0.07121,0.2256329 -0.194115,0.2947676 L 43.152114,8.1577082 42.537417,7.5484025 C 42.104041,7.1210526 41.922718,6.9021499 41.922718,6.7953108 c 0,-0.087985 -0.06941,-0.2202602 -0.159965,-0.3019574 -0.161699,-0.1445418 -0.16356,-0.1583309 -0.16356,-1.2455716 l 0,-1.0999867 0.363067,-0.3450938 c 0.265205,-0.257672 0.349402,-0.3775484 0.323526,-0.4780986 -0.02588,-0.09427 0.03925,-0.1952025 0.246238,-0.3900279 0.161707,-0.1445482 0.315274,-0.320004 0.354082,-0.3954204 0.0388,-0.069139 0.0818,-0.1075597 0.12222,-0.1204236 z m 9.910663,1.2455733 c 0.789112,0 0.821805,0.00736 0.970575,0.158167 0.08408,0.087985 0.226503,0.1563707 0.323526,0.1563707 0.109959,0 0.258889,0.089162 0.452937,0.2839836 0.284605,0.2828106 0.284672,0.2868477 0.194113,0.4565306 -0.09053,0.1508097 -0.148568,0.169869 -0.465516,0.1887231 -0.284602,0.012572 -0.388626,0.051342 -0.50506,0.1707498 -0.08408,0.087985 -0.22578,0.1563707 -0.316336,0.1563707 -0.239327,0 -1.624815,1.3437556 -1.624815,1.5762872 0,0.087985 -0.06941,0.2274463 -0.159966,0.3091471 -0.09053,0.087956 -0.163561,0.2202673 -0.163561,0.3145387 0,0.094269 -0.06941,0.2265775 -0.159965,0.3145387 -0.142302,0.1319739 -0.161763,0.1954341 -0.161763,0.6290763 0,0.4273304 -0.02053,0.495325 -0.15637,0.6272803 -0.103499,0.087978 -0.168601,0.2257103 -0.181534,0.370257 -0.01939,0.2073949 -0.03854,0.227388 -0.239048,0.2462395 -0.200496,0.01886 -0.272322,-0.024758 -0.796232,-0.5338182 -0.426901,-0.4085035 -0.567968,-0.5914577 -0.567968,-0.7171474 0,-0.087987 -0.07121,-0.2256575 -0.161762,-0.3073493 -0.148777,-0.1382625 -0.161763,-0.1884079 -0.161764,-0.7854477 0,-0.5970409 0.01299,-0.647189 0.161764,-0.7854484 0.09056,-0.087967 0.161762,-0.2202682 0.161762,-0.3145386 0,-0.094271 0.07121,-0.2265793 0.161762,-0.3145387 0.09055,-0.08169 0.161762,-0.221161 0.161763,-0.3091459 0,-0.1194081 0.181001,-0.3402148 0.724339,-0.8681265 l 0.72973,-0.7081619 0.330714,0 c 0.265202,0 0.355202,-0.030673 0.478099,-0.1563707 0.148773,-0.1508263 0.181444,-0.158167 0.970576,-0.158167 z m 2.264677,1.5708955 c 0.789137,0 0.821806,0.00728 0.970577,0.158168 0.08408,0.087985 0.225781,0.1563706 0.316335,0.1563706 0.232858,0 0.97597,0.7173911 0.97597,0.9436152 0,0.094267 0.07299,0.2328382 0.16356,0.3145389 0.161707,0.1445474 0.159964,0.1617892 0.159964,1.0981887 0,0.9364125 0.0018,0.9554637 -0.159964,1.0999869 -0.09054,0.087978 -0.16356,0.220269 -0.16356,0.3145393 0,0.094269 -0.0712,0.2265543 -0.161763,0.3145393 -0.09056,0.081676 -0.159966,0.2193626 -0.159966,0.3073476 0,0.2325081 -1.383693,1.5780861 -1.62302,1.5780861 -0.09054,0 -0.234044,0.06839 -0.318133,0.15637 -0.148769,0.157116 -0.169644,0.158167 -1.126945,0.158167 l -0.97597,0 -0.560777,-0.546397 c -0.407499,-0.39593 -0.571561,-0.599524 -0.571561,-0.706365 0,-0.08799 -0.07659,-0.231052 -0.167157,-0.325322 -0.168141,-0.169685 -0.169993,-0.182436 -0.163558,-1.0999862 0.01294,-0.8986999 0.02199,-0.9419722 0.170749,-1.0927975 0.09054,-0.094269 0.159966,-0.2337438 0.159966,-0.321728 0,-0.087985 0.0712,-0.2256492 0.161761,-0.3073489 0.09056,-0.0817 0.163561,-0.2211629 0.163562,-0.309147 0,-0.2325325 1.383693,-1.5762874 1.623018,-1.5762874 0.09053,0 0.232249,-0.068383 0.316336,-0.1563706 0.148769,-0.1508309 0.181443,-0.158168 0.970576,-0.158168 z m -7.446477,0.8807079 c 0.05822,0 0.299881,0.1880504 0.53921,0.4205828 l 0.438556,0.4205829 0,0.6362674 c 0,0.5970401 0.01299,0.6471837 0.161764,0.785447 0.09702,0.087969 0.161761,0.2175785 0.161761,0.3181343 0,0.1319684 0.110125,0.2717361 0.485288,0.6111032 0.265202,0.2451024 0.485289,0.4709531 0.485289,0.508654 0,0.037719 -0.07121,0.1123926 -0.161762,0.1689513 -0.103494,0.069132 -0.161765,0.1645628 -0.161764,0.2714028 0,0.100555 -0.06474,0.231945 -0.161763,0.31993 -0.09054,0.0817 -0.161762,0.220268 -0.161762,0.314539 0,0.257663 -0.10946,0.314539 -0.639862,0.314539 l -0.492477,0 -0.724338,-0.702769 -0.731527,-0.7117563 0,-0.3199315 c -1e-6,-0.2576713 -0.03061,-0.3461113 -0.159965,-0.4655165 -0.142302,-0.1319713 -0.161763,-0.1936494 -0.161763,-0.6272803 0,-0.4336422 0.01947,-0.4971024 0.161763,-0.6290763 0.12937,-0.1194007 0.159964,-0.207846 0.159965,-0.4655177 -1e-6,-0.3079434 0.01274,-0.3320089 0.433166,-0.7405134 0.239328,-0.2388141 0.478479,-0.4277727 0.530221,-0.4277727 z m 13.591664,0.3774459 c 0.446314,1e-6 0.511216,0.018111 0.64705,0.1563709 0.08408,0.087985 0.225782,0.158168 0.316336,0.158168 0.239324,0 1.299494,1.029217 1.299494,1.2617503 0,0.087983 0.07299,0.2274436 0.163561,0.309145 0.161707,0.1445176 0.159965,0.1565439 0.159965,1.2563589 0,1.0997827 0.0018,1.1118077 -0.159965,1.2563557 -0.09056,0.08168 -0.163561,0.220268 -0.163561,0.314539 0,0.113123 -0.09534,0.257234 -0.321728,0.470909 -0.252262,0.245102 -0.323525,0.351538 -0.323525,0.508654 0,0.207387 -0.08528,0.276794 -0.350487,0.276794 -0.07763,0 -0.212477,0.07018 -0.296564,0.158168 -0.08408,0.08799 -0.227578,0.15637 -0.318133,0.15637 -0.09054,0 -0.23297,0.06928 -0.323526,0.150979 -0.155241,0.144541 -0.225946,0.156386 -0.801625,0.168954 -0.608019,0.0063 -0.646052,7.44e-4 -0.814204,-0.156371 -0.116427,-0.10684 -0.247001,-0.163562 -0.382838,-0.163562 -0.349286,0 -0.336693,-0.162975 0.04493,-0.483489 0.245798,-0.207395 0.330714,-0.320958 0.330714,-0.452936 0,-0.100556 0.06475,-0.231946 0.161763,-0.319931 0.09054,-0.08796 0.161762,-0.220269 0.161762,-0.314539 0,-0.09427 0.0712,-0.22658 0.161764,-0.314539 l 0.161762,-0.143788 0,-1.427107 0,-1.4253097 -0.161762,-0.1455862 c -0.09054,-0.081672 -0.161764,-0.2211628 -0.161764,-0.309147 0,-0.1005548 -0.07265,-0.2130664 -0.176141,-0.2947672 -0.148769,-0.119408 -0.167851,-0.1627526 -0.10964,-0.2570231 0.05175,-0.075415 0.136644,-0.1060294 0.266009,-0.093463 0.129367,0.012571 0.233333,-0.032456 0.343297,-0.1455865 0.135832,-0.1445438 0.200737,-0.1563709 0.64705,-0.1563711 z m -2.884769,0.00543 c 0.10592,0.014926 0.215712,0.066139 0.296565,0.1509781 0.08408,0.087985 0.227578,0.158168 0.318134,0.158168 0.116428,0 0.285161,0.1179935 0.569763,0.3882305 0.394571,0.3770799 0.406205,0.4020224 0.406205,0.7099584 0,0.2639582 0.0324,0.3532988 0.161762,0.4727078 0.161707,0.1445176 0.161762,0.1635743 0.161762,1.0999865 0,0.9364085 -5.6e-5,0.9536405 -0.161762,1.0981885 -0.09054,0.08799 -0.161762,0.220269 -0.161762,0.314539 0,0.09425 -0.0712,0.226555 -0.161762,0.314539 -0.09055,0.0817 -0.161763,0.219362 -0.161763,0.307349 0,0.232528 -1.06017,1.263545 -1.299495,1.263545 -0.09055,0 -0.232249,0.07018 -0.316335,0.15817 -0.14877,0.150856 -0.182518,0.156369 -0.965184,0.156369 l -0.808814,0 -0.440354,-0.420582 c -0.245799,-0.23257 -0.440355,-0.465605 -0.440355,-0.51588 0,-0.150832 0.201728,-0.319932 0.382838,-0.319932 0.239305,0 1.623021,-1.339271 1.623021,-1.578084 0,-0.08798 0.07299,-0.22565 0.16356,-0.3073495 0.09055,-0.087978 0.159964,-0.2202925 0.159964,-0.3145374 0,-0.09427 0.07123,-0.2265543 0.161764,-0.3145393 l 0.16356,-0.1437884 0,-1.2707382 c 0,-0.8986913 0.01907,-1.2806826 0.0773,-1.3372374 0.06468,-0.062843 0.165487,-0.08503 0.2714,-0.070095 z M 44.47138,7.1206721 c 0.161706,0 0.272562,0.069433 0.524829,0.3145388 0.213453,0.2073924 0.36814,0.3145387 0.4781,0.3145387 0.09702,0 0.259228,0.087313 0.408001,0.23186 l 0.246238,0.2318598 0,0.6362664 c 0,0.5970394 0.0112,0.6471849 0.159967,0.7854481 0.09702,0.087978 0.163559,0.2193768 0.163559,0.3199316 0,0.1068385 0.05827,0.2004685 0.161763,0.2696035 0.09055,0.05656 0.159965,0.139347 0.159965,0.183331 0,0.03771 -0.147084,0.196059 -0.321728,0.346892 -0.310484,0.263955 -0.323526,0.281605 -0.323526,0.602115 0,0.27024 -0.02595,0.358691 -0.161762,0.4781 -0.109959,0.100555 -0.163561,0.212224 -0.16356,0.350485 0,0.263954 -0.140262,0.315249 -0.334309,0.120422 -0.08408,-0.08796 -0.220387,-0.156369 -0.310944,-0.156369 -0.226387,0 -0.970576,-0.723652 -0.970576,-0.943615 0,-0.09427 -0.07119,-0.232847 -0.161763,-0.314541 l -0.161763,-0.143786 0,-1.4271074 0,-1.4253097 0.161763,-0.1455863 c 0.09055,-0.08169 0.161763,-0.2139665 0.161763,-0.2893753 0,-0.075415 0.01835,-0.1824913 0.03775,-0.2390498 0.02588,-0.062843 0.116866,-0.1006533 0.246235,-0.1006524 z m -2.230527,0.9526002 c 0.151196,-0.00159 0.304562,0.124722 0.569763,0.379244 l 0.406204,0.3900298 0,0.6362646 c 0,0.5970393 0.01298,0.6471993 0.161763,0.7854483 0.129372,0.119405 0.16356,0.206953 0.16356,0.470909 0,0.301661 0.01771,0.339981 0.321728,0.629078 0.375162,0.358223 0.414025,0.552915 0.161763,0.785447 -0.09054,0.08799 -0.161763,0.218471 -0.161763,0.312742 0,0.100553 -0.07193,0.231946 -0.168953,0.319932 -0.122929,0.113123 -0.155284,0.18975 -0.129409,0.321727 0.02587,0.125693 0.0078,0.188773 -0.08267,0.23905 -0.103495,0.05027 -0.174433,0.01231 -0.433165,-0.251632 -0.245795,-0.251378 -0.349464,-0.314539 -0.51764,-0.314539 -0.148774,0 -0.221082,-0.03244 -0.253427,-0.120423 -0.01941,-0.06914 -0.108952,-0.169002 -0.199509,-0.219278 -0.116424,-0.0817 -0.149167,-0.138511 -0.116828,-0.251631 0.02587,-0.09427 0.0011,-0.18159 -0.07009,-0.231861 -0.304005,-0.251387 -0.304819,-0.258224 -0.26601,-0.566168 0.04527,-0.301665 0.03764,-0.313871 -0.253429,-0.546398 -0.07762,-0.06285 -0.09526,-0.251489 -0.09526,-1.0244983 l 0,-0.9418195 0.399015,-0.4097978 c 0.261966,-0.2608131 0.413178,-0.3902559 0.564352,-0.3918261 z m 26.850813,1.2473714 c 0.291052,0 0.321728,0.094295 0.321729,0.9490083 l 0,0.798029 -0.174345,0.125815 c -0.161707,0.113123 -0.181534,0.169275 -0.181534,0.496073 0,0.320517 -0.01731,0.371213 -0.140194,0.427773 -0.116437,0.04398 -0.15098,0.113394 -0.15098,0.276794 0,0.182254 -0.05832,0.268942 -0.323524,0.514045 -0.23933,0.219959 -0.321728,0.33893 -0.321728,0.470908 0,0.188541 -0.402666,0.656039 -0.564372,0.656039 -0.04527,0 -0.08448,0.02971 -0.08448,0.07369 0,0.04399 -0.109683,0.182562 -0.239048,0.31454 -0.168147,0.169682 -0.296607,0.239047 -0.425976,0.239047 -0.142302,-10e-7 -0.26644,0.07481 -0.479895,0.294768 -0.161706,0.169686 -0.308435,0.297431 -0.33431,0.291175 -0.01941,-0.0063 -0.319686,0.01173 -0.656037,0.04313 -0.336351,0.02511 -0.65138,0.03234 -0.690188,0.01978 -0.16171,-0.06285 -0.0779,-0.2465 0.23905,-0.510454 0.2458,-0.20111 0.323525,-0.315563 0.323525,-0.447542 -1e-6,-0.100556 0.06474,-0.230148 0.161762,-0.318133 0.129373,-0.119383 0.161763,-0.208754 0.161763,-0.472707 0,-0.263956 0.0324,-0.351501 0.161763,-0.47091 0.142302,-0.131978 0.161762,-0.196327 0.161762,-0.623685 l 0,-0.476301 1.047863,-1.017307 c 0.808536,-0.791894 1.093918,-1.0244973 1.216816,-1.0244973 0.116427,0 0.265367,-0.1008931 0.485288,-0.3145395 0.219925,-0.2136783 0.36886,-0.3145384 0.485285,-0.3145355 z M 50.523104,9.989262 c 0.07922,-0.00709 0.141666,0.044594 0.203102,0.154573 0.0388,0.07542 0.135565,0.120425 0.239048,0.120424 0.226392,0 0.337904,0.09998 0.337904,0.30735 0,0.119408 0.181001,0.33842 0.724338,0.866329 l 0.731528,0.711755 0.328916,0 c 0.2652,0 0.355198,0.03069 0.478099,0.156369 0.219919,0.226278 0.731957,0.225356 0.945414,-0.0072 0.174629,-0.182252 0.243461,-0.15517 0.508653,0.152774 0.135833,0.163403 0.181534,0.274316 0.181534,0.494275 0,0.276526 -0.01067,0.295464 -0.735121,0.999335 -0.562746,0.546761 -0.778304,0.717146 -0.907669,0.717147 -0.09056,0 -0.230452,0.07018 -0.314539,0.158168 -0.14877,0.157115 -0.170359,0.156371 -1.134137,0.156371 -0.963778,0 -0.981775,7.44e-4 -1.130541,-0.156371 -0.08408,-0.08799 -0.227578,-0.158168 -0.318132,-0.158168 -0.219925,0 -0.652444,-0.416293 -0.652444,-0.623684 0,-0.08798 -0.07121,-0.223864 -0.161762,-0.318133 -0.155271,-0.157113 -0.155337,-0.184371 -0.161764,-1.252762 l -0.01258,-1.085609 0.16895,-0.17075 c 0.135838,-0.138263 0.167155,-0.232103 0.167155,-0.48349 0,-0.263957 0.0317,-0.338103 0.219279,-0.53921 0.119663,-0.125692 0.215532,-0.1924371 0.294768,-0.199507 z m -3.425776,0.839368 c 0.0582,0 0.258887,0.158357 0.452936,0.346893 0.329885,0.326806 0.368206,0.345094 0.672215,0.345094 0.284607,0 0.356307,0.02447 0.569763,0.231858 0.239359,0.22625 0.246239,0.238612 0.246238,0.70996 0,0.433642 0.01946,0.4971 0.161764,0.629077 0.129361,0.119409 0.161762,0.206953 0.161762,0.470908 0,0.263953 0.03239,0.353308 0.161762,0.472708 0.09055,0.0817 0.161762,0.217576 0.161763,0.305552 0,0.09427 0.06439,0.214864 0.174345,0.296566 0.278135,0.213679 0.168078,0.339699 -0.291173,0.339699 -0.316946,0 -0.400857,0.02439 -0.530223,0.156372 -0.122889,0.125691 -0.213617,0.158167 -0.485287,0.158167 -0.271669,0 -0.362391,-0.03248 -0.485289,-0.158167 -0.09054,-0.08799 -0.226498,-0.156372 -0.323525,-0.156372 -0.09701,0 -0.231173,-0.06839 -0.321729,-0.156369 -0.103491,-0.106842 -0.220763,-0.15817 -0.363066,-0.15817 -0.213452,0 -0.285782,-0.08202 -0.285782,-0.339699 0,-0.07542 -0.06941,-0.205876 -0.159965,-0.287579 -0.129359,-0.1194 -0.161763,-0.208755 -0.161763,-0.472708 0,-0.263955 -0.03419,-0.351499 -0.163559,-0.470908 -0.129361,-0.119409 -0.159967,-0.206953 -0.159967,-0.470909 0,-0.263955 0.0306,-0.351509 0.159967,-0.47091 0.129373,-0.119408 0.163559,-0.209643 0.163559,-0.467312 0,-0.289092 0.02561,-0.337246 0.271403,-0.582347 0.148766,-0.150828 0.31564,-0.271404 0.373851,-0.271404 z m -22.637794,1.321063 0,0.400813 c 0,1.571152 1.312329,3.229644 3.104047,3.927239 1.028461,0.395927 1.475696,0.478955 2.717614,0.472708 0.944371,0 1.214441,-0.02526 1.628411,-0.138398 1.241916,-0.333084 2.097069,-0.793386 2.866795,-1.560113 0.769731,-0.76044 1.182686,-1.614086 1.247371,-2.588203 l 0.03235,-0.514046 -5.80189,0 z m 40.661755,0 c 0.09892,0.03399 0.124908,0.27795 0.100654,0.772865 -0.02585,0.565617 -0.04572,0.658876 -0.181534,0.803423 -0.08408,0.08798 -0.154573,0.227467 -0.154573,0.309147 0,0.226245 -1.390163,1.570897 -1.62302,1.570897 -0.09054,0 -0.23227,0.0684 -0.316336,0.156369 -0.08408,0.08799 -0.227576,0.156371 -0.318132,0.156371 -0.09056,-1e-6 -0.232972,0.06928 -0.323526,0.150977 -0.15524,0.144542 -0.225947,0.156386 -0.801626,0.168954 -0.60802,0.0063 -0.647826,7.42e-4 -0.816001,-0.15637 -0.09702,-0.08799 -0.24483,-0.163562 -0.32892,-0.163561 -0.181112,-1e-6 -0.711755,-0.470163 -0.711755,-0.627281 0,-0.05654 0.16183,-0.251826 0.355878,-0.440352 0.252266,-0.238818 0.355877,-0.390141 0.355877,-0.503263 0,-0.09426 0.07121,-0.231038 0.161764,-0.312741 0.09055,-0.08169 0.161762,-0.220269 0.161762,-0.314539 0,-0.25767 0.110182,-0.314538 0.647052,-0.314538 0.446314,0 0.511216,-0.01992 0.64705,-0.158169 0.09054,-0.09427 0.225426,-0.15637 0.328919,-0.15637 0.129366,0 0.25206,-0.08201 0.465516,-0.314539 l 0.291174,-0.314538 0.821395,0 c 0.795604,0 0.827219,-0.0056 0.975968,-0.156373 0.116431,-0.12254 0.203063,-0.176771 0.262414,-0.156369 z m -20.619354,0.30016 c 0.226494,-0.02945 0.532245,0.03944 0.663227,0.176142 0.08408,0.08798 0.219312,0.150978 0.316336,0.150978 0.245797,0 0.321727,0.112686 0.321728,0.470909 0,0.263957 0.0342,0.353299 0.16356,0.472707 0.09702,0.08798 0.161762,0.217579 0.161762,0.318133 0,0.125693 0.0842,0.247338 0.323526,0.454733 l 0.321728,0.282186 0,0.496073 c -1e-6,0.452493 -0.0112,0.515072 -0.159965,0.647051 -0.09054,0.08169 -0.161763,0.220269 -0.161763,0.314539 0,0.257676 -0.111254,0.314537 -0.641659,0.314538 l -0.490679,0 -0.562575,-0.546398 c -0.569209,-0.546763 -0.569764,-0.553001 -0.569764,-0.873518 0,-0.257673 -0.03239,-0.34612 -0.161763,-0.46552 -0.142307,-0.131976 -0.161763,-0.193638 -0.161763,-0.627278 0,-0.433633 0.01946,-0.497109 0.161763,-0.629077 0.135831,-0.119408 0.161763,-0.207862 0.161763,-0.478098 0,-0.251388 0.0252,-0.350552 0.122221,-0.413394 0.04852,-0.033 0.116819,-0.05488 0.192317,-0.06471 z m 14.562239,0.641659 c 0.485109,0 0.491844,2.44e-4 0.744109,0.251632 0.226415,0.226246 0.253046,0.276156 0.233658,0.546398 -0.01292,0.295379 -0.03367,0.319711 -0.738716,1.004724 l -0.724339,0.711722 -0.330713,0 c -0.2652,0 -0.355198,0.03068 -0.478101,0.156369 -0.135832,0.138268 -0.198937,0.156371 -0.645253,0.156371 -0.446313,0 -0.513015,-0.0181 -0.648848,-0.156371 -0.122901,-0.125691 -0.21218,-0.156369 -0.47091,-0.156369 -0.316932,0 -0.335588,-0.01399 -0.87891,-0.523034 -0.304012,-0.282806 -0.557183,-0.545537 -0.557183,-0.576953 0,-0.03771 0.252095,-0.296846 0.562576,-0.585941 l 0.562574,-0.526627 1.281519,0.01258 1.286913,0.0055 0.154574,-0.163561 c 0.135833,-0.138266 0.200736,-0.15637 0.64705,-0.156364 z m -16.515973,0.312741 c 0.122089,0.01178 0.257772,0.06703 0.345093,0.158167 0.08408,0.08797 0.226503,0.158169 0.323526,0.158169 0.28461,0 0.325323,0.100421 0.325323,0.785449 0,0.59703 0.0112,0.64719 0.159964,0.785446 0.142298,0.131977 0.161764,0.193642 0.161764,0.627281 0,0.515333 -0.05868,0.629077 -0.310944,0.629077 -0.226393,0 -0.988896,-0.75416 -0.943615,-0.923844 0.02587,-0.07542 -0.0065,-0.163613 -0.06471,-0.213887 -0.303979,-0.245103 -0.298363,-0.225455 -0.298363,-1.02989 0,-0.427353 0.02014,-0.818755 0.03954,-0.875315 0.03234,-0.0817 0.140325,-0.112436 0.262425,-0.100653 z m 11.729595,1.522368 c 0.01942,-0.0063 0.26539,0.214155 0.549994,0.490681 0.368692,0.364491 0.561174,0.501463 0.677604,0.501463 0.213452,0 0.661057,0.397352 0.609307,0.535613 -0.02587,0.05027 -0.09708,0.124055 -0.161763,0.161764 -0.07116,0.03772 -0.122221,0.125918 -0.122221,0.226467 0,0.213679 -0.446178,0.648849 -0.659631,0.648849 -0.09055,0 -0.226858,0.0684 -0.310946,0.156371 -0.09054,0.08799 -0.2265,0.156369 -0.323524,0.156369 -0.09702,0 -0.23297,0.07018 -0.323526,0.158169 -0.135833,0.138262 -0.200737,0.156371 -0.647051,0.156371 -0.446313,0 -0.511228,-0.0181 -0.64705,-0.156371 -0.09055,-0.08799 -0.226502,-0.158168 -0.323526,-0.158169 -0.09702,0 -0.231181,-0.06839 -0.321727,-0.156369 -0.08408,-0.08799 -0.228299,-0.156371 -0.325323,-0.156371 -0.213453,0 -0.323527,-0.10716 -0.323527,-0.314539 0,-0.09427 -0.06941,-0.232838 -0.159965,-0.314538 -0.129359,-0.119442 -0.161763,-0.206985 -0.161763,-0.458364 0,-0.251388 -0.0342,-0.340724 -0.163558,-0.460125 -0.129373,-0.119409 -0.1542,-0.176228 -0.10245,-0.264214 0.0582,-0.106833 0.129974,-0.111413 0.731526,-0.08628 0.653299,0.02515 0.670822,0.0232 0.819597,-0.140194 0.129365,-0.13826 0.214341,-0.161762 0.492478,-0.161762 0.271667,10e-7 0.362387,-0.03337 0.485288,-0.152776 0.09702,-0.106838 0.234076,-0.162675 0.415191,-0.181534 0.142286,-0.01257 0.277161,-0.0243 0.296566,-0.03055 z m -3.822992,0.08988 c 0.04122,-0.01571 0.07873,-0.0089 0.124018,0.01617 0.109963,0.05656 0.115744,0.125488 0.08988,0.70996 -0.02587,0.634738 -0.02618,0.653481 0.141991,0.798028 0.09702,0.09427 0.168952,0.221178 0.168953,0.321728 0,0.09427 0.06941,0.226555 0.159965,0.314539 0.09054,0.08797 0.163558,0.220272 0.163558,0.314539 0,0.100555 0.07588,0.23197 0.192319,0.345095 0.109964,0.100555 0.194113,0.225625 0.194114,0.282184 -10e-7,0.05027 -0.198153,0.289607 -0.443947,0.528426 -0.439847,0.421064 -0.455542,0.433129 -0.720742,0.395419 -0.232859,-0.03143 -0.296984,-0.0043 -0.478098,0.152777 -0.2652,0.226246 -0.484281,0.230761 -0.684797,0.02336 -0.122898,-0.125723 -0.213622,-0.156369 -0.485288,-0.15637 -0.271672,0 -0.360593,-0.03248 -0.483492,-0.158167 -0.08408,-0.08799 -0.227584,-0.156371 -0.318132,-0.156372 -0.226388,0 -0.652444,-0.415397 -0.652444,-0.629077 0,-0.09427 -0.07299,-0.232836 -0.163558,-0.314539 -0.161706,-0.144533 -0.161765,-0.16178 -0.161764,-1.098189 0,-0.653594 0.02734,-0.976019 0.07908,-1.026294 0.05176,-0.05027 0.421213,-0.07368 1.216815,-0.07368 1.131955,0 1.14353,-9.99e-4 1.292306,-0.158167 0.08407,-0.08799 0.225059,-0.156372 0.309145,-0.156372 0.09054,0 0.226857,-0.07018 0.310944,-0.158168 0.06146,-0.06285 0.107945,-0.101116 0.149177,-0.116831 z m 8.758551,0.589495 c 0.0388,0 0.200642,0.143053 0.35588,0.31274 0.194052,0.21994 0.328595,0.314539 0.438555,0.314539 0.181115,0 0.674011,0.350608 0.674011,0.476301 0,0.05027 -0.07121,0.132165 -0.161762,0.188723 -0.103494,0.06285 -0.161764,0.165455 -0.161764,0.266009 0,0.232533 -0.737717,0.954402 -0.970575,0.954402 -0.09702,0 -0.239456,0.07018 -0.323526,0.158169 -0.09054,0.08799 -0.226497,0.156368 -0.323525,0.156369 -0.09702,-10e-7 -0.23297,0.0684 -0.323525,0.15637 -0.148775,0.157105 -0.168561,0.158169 -1.132339,0.158168 -0.963777,0 -0.981772,-0.0011 -1.130542,-0.158168 -0.08408,-0.08799 -0.219666,-0.15637 -0.303754,-0.15637 -0.174644,-10e-7 -0.666823,-0.351518 -0.666823,-0.483491 0,-0.04399 0.02624,-0.08267 0.05212,-0.08267 0.03233,0 0.321838,-0.262724 0.645253,-0.576953 0.43984,-0.433643 0.594927,-0.622911 0.594927,-0.742311 0,-0.276508 0.10377,-0.314539 0.808814,-0.314539 0.614493,0 0.668308,-0.01183 0.810611,-0.156371 0.122894,-0.125691 0.212552,-0.158168 0.49068,-0.158168 0.284606,0 0.348001,-0.02439 0.438557,-0.156371 0.05821,-0.08799 0.143445,-0.156371 0.188723,-0.156383 z m 4.876248,0 c 0.04527,0 0.130511,0.06839 0.188723,0.156369 0.09702,0.14455 0.142146,0.156371 0.594927,0.156371 0.433357,0 0.498632,-0.0181 0.634469,-0.156371 0.174643,-0.182254 0.314561,-0.150749 0.379244,0.07549 0.03881,0.169686 -0.107904,0.395421 -0.269603,0.395421 -0.05176,0 -0.08448,0.07564 -0.08448,0.226466 0,0.201109 -0.07248,0.2963 -0.738716,0.943617 -0.64683,0.628459 -0.768616,0.715351 -0.956197,0.715351 -0.161707,0 -0.231536,0.03783 -0.276794,0.138396 -0.05821,0.125696 -0.110474,0.145586 -0.440354,0.145585 -0.342822,0 -0.395822,0.01903 -0.512249,0.176143 -0.135838,0.175965 -0.135391,0.17431 -0.801625,0.161763 -0.608012,-0.01257 -0.68484,-0.02979 -0.814206,-0.161763 -0.07762,-0.0817 -0.214275,-0.145586 -0.298361,-0.145586 -0.194052,-10e-7 -0.400813,-0.162822 -0.400813,-0.30735 0,-0.05656 0.16183,-0.259022 0.355878,-0.447544 0.23933,-0.232532 0.355879,-0.38923 0.355879,-0.49607 0,-0.09427 0.09027,-0.250876 0.239047,-0.395421 0.23286,-0.232558 0.246405,-0.23905 0.731528,-0.239049 0.446314,0 0.509418,-0.01811 0.645254,-0.156372 0.122898,-0.131974 0.21434,-0.158166 0.492477,-0.158166 0.329861,0 0.350217,-0.01291 0.621889,-0.314539 0.155239,-0.169687 0.315275,-0.312751 0.354078,-0.312738 z M 44.306021,16.23687 c 0.07973,-0.0078 0.187538,0.0847 0.386434,0.310944 0.271673,0.301656 0.290209,0.314537 0.62009,0.314537 0.278141,0 0.367785,0.02439 0.490681,0.156372 0.08407,0.08799 0.227578,0.158166 0.318134,0.158167 0.226392,0 0.652441,0.413612 0.652442,0.62728 0,0.09427 0.073,0.232846 0.163561,0.31454 0.09054,0.0817 0.159964,0.219364 0.159965,0.307348 0,0.09427 0.08559,0.245462 0.208495,0.364866 0.200504,0.201101 0.206661,0.221232 0.109638,0.384634 -0.09054,0.1634 -0.122384,0.169893 -0.607508,0.176141 -0.284607,0.0063 -0.679472,0.02428 -0.873519,0.04314 -0.342822,0.03771 -0.362025,0.03218 -0.465517,-0.143789 -0.07762,-0.138263 -0.162885,-0.188725 -0.285782,-0.188725 -0.232856,10e-7 -0.67795,-0.427049 -0.632671,-0.609304 0.02587,-0.07542 -0.0065,-0.16542 -0.0647,-0.215686 -0.303979,-0.251382 -0.298362,-0.226408 -0.298362,-1.087405 0,-0.458776 0.01906,-0.85287 0.04493,-0.87172 0.02263,-0.02357 0.04711,-0.03868 0.07368,-0.04134 z m 10.42471,1.928565 c 0.07519,0.0275 0.171885,0.122405 0.343296,0.310944 0.174642,0.188545 0.304152,0.271402 0.420584,0.271402 0.187571,0 0.400811,0.162803 0.400811,0.307349 0,0.05656 -0.271509,0.358884 -0.594926,0.679404 -0.433378,0.421069 -0.64206,0.584143 -0.758488,0.584143 -0.09055,10e-7 -0.231173,0.06839 -0.321729,0.156371 -0.161705,0.144539 -0.214857,0.15279 -0.965182,0.165356 -0.782668,0.0063 -0.801327,0.0053 -0.97597,-0.158167 -0.09702,-0.08799 -0.239438,-0.16356 -0.323524,-0.16356 -0.148755,0 -0.945414,-0.647173 -0.945414,-0.772866 0,-0.02515 0.245985,-0.290561 0.549992,-0.585941 l 0.549993,-0.526627 1.126948,0 c 1.119016,-1e-6 1.125558,-1.6e-4 1.274331,-0.16356 0.09054,-0.09112 0.144084,-0.131743 0.219278,-0.104248 z m 4.980495,0.267808 c 0.09702,-1e-6 0.23297,0.0684 0.323525,0.15637 0.09054,0.09426 0.226502,0.158169 0.323524,0.158168 0.129367,0 0.251695,0.08108 0.445747,0.282187 0.142303,0.15083 0.26601,0.30918 0.26601,0.34689 0,0.03772 -0.271155,0.332833 -0.607508,0.659633 -0.530401,0.521631 -0.636331,0.596724 -0.830383,0.596724 -0.161706,0 -0.231513,0.03784 -0.276793,0.138397 -0.05821,0.125698 -0.11047,0.14379 -0.440355,0.14379 -0.336353,0 -0.394022,0.01814 -0.510451,0.168951 -0.116429,0.163402 -0.155093,0.176142 -0.627281,0.176142 -0.472187,0 -0.505114,-0.0047 -0.66682,-0.186926 -0.161707,-0.182238 -0.194214,-0.189594 -0.485289,-0.158167 -0.27814,0.0377 -0.327886,0.02593 -0.463721,-0.118626 -0.09054,-0.09427 -0.227573,-0.163561 -0.318131,-0.163561 -0.18758,0 -0.402611,-0.162801 -0.402611,-0.307349 0,-0.05656 0.27331,-0.358885 0.596726,-0.679403 l 0.602116,-0.584144 0.97597,0 c 0.957309,1e-6 0.976378,-9.98e-4 1.125148,-0.158168 0.09056,-0.08799 0.226501,-0.156369 0.323525,-0.15637 0.097,0 0.23297,-0.07019 0.323526,-0.158168 0.09054,-0.08799 0.226499,-0.15637 0.323526,-0.15637 z m -9.243841,0.931034 0.208493,0.176141 c 0.278134,0.245102 0.303755,0.281468 0.303755,0.463721 0,0.20111 0.427483,0.629076 0.63447,0.629076 0.161706,0 0.659632,0.3515 0.659633,0.470911 0,0.13826 -0.498294,0.472691 -0.679403,0.460122 -0.122903,-0.01256 -0.213201,0.03068 -0.303755,0.156372 -0.116429,0.157119 -0.156891,0.168952 -0.629077,0.168952 -0.472189,0 -0.504035,-0.0074 -0.672215,-0.195912 -0.122896,-0.138264 -0.206739,-0.180606 -0.303755,-0.149182 -0.103494,0.03142 -0.24533,-0.07591 -0.704567,-0.515842 l -0.569763,-0.553588 -0.03236,-0.483492 c -0.01941,-0.295375 -0.0076,-0.50781 0.03776,-0.551788 0.09702,-0.09427 0.163614,-0.0825 0.325323,0.09346 0.142302,0.150836 0.192514,0.157313 0.774663,0.163561 0.601552,0.0063 0.633804,-1.58e-4 0.789042,-0.163561 z m -3.641458,0.350486 0.886099,0.0072 0.01978,0.226467 c 0.01294,0.144543 0.07805,0.282285 0.181532,0.370257 0.168174,0.157118 0.206659,0.446748 0.0773,0.553588 -0.04527,0.03143 -0.226888,0.06204 -0.408001,0.0683 -0.304009,0 -0.335488,-0.01196 -0.620091,-0.307349 -0.226393,-0.232528 -0.349456,-0.314538 -0.48529,-0.314539 -0.116427,-0.0063 -0.285115,-0.0873 -0.440353,-0.219279 -0.213456,-0.169674 -0.246217,-0.226547 -0.181533,-0.301955 0.06468,-0.07545 0.259064,-0.08893 0.970586,-0.08268 z m 8.034213,0.918452 c 0.09702,0 0.232972,0.0684 0.323526,0.156371 0.09054,0.09427 0.224705,0.158167 0.321728,0.158168 0.129366,0 0.253493,0.08108 0.447544,0.282187 0.29754,0.31423 0.304066,0.32641 0.161763,0.521234 -0.06469,0.09427 -0.160372,0.138397 -0.309146,0.138397 -0.161707,0 -0.246629,0.04415 -0.330715,0.16356 -0.08407,0.125695 -0.143132,0.150958 -0.26601,0.125815 -0.122896,-0.03142 -0.199194,1.65e-4 -0.341501,0.15098 L 54.692986,22.52584 53.85182,22.50606 c -0.795599,-0.01885 -0.835796,-0.0253 -0.900478,-0.16356 -0.05176,-0.10683 -0.116183,-0.138396 -0.303755,-0.138396 -0.252266,-1e-6 -0.32426,-0.06228 -0.363068,-0.307349 -0.01294,-0.119405 0.07776,-0.24564 0.38823,-0.553589 l 0.400814,-0.39542 0.65424,0 c 0.614487,0 0.666507,-0.01363 0.808813,-0.158168 0.09055,-0.08798 0.226521,-0.156366 0.323524,-0.156369 z"
       id="rect5509"
       inkscape:connector-curvature="0"
       sodipodi:nodetypes="ccccccccccscssscccccscccccccccccccscccccscsccscscccsscscsccccssscccccccccccscccccscccsccccccccccscccccsccccsccccccccccccccccscscscscccccscccccscscscccccscccscccscscsccsccccssccccscscscsscscscsscscsccscscsccccccccccscsssccsscscsccsscccscsccscscscsssccccccsccscscccsccscccsccscsccccccsccscccccscccccccsccsscscccccccsccsscsccsscccsccccsccssssccscsccscsscccccccscsccsccscscscsscscsccscscccccscsccccccsssccccsscscsccccscscsccccscssssscscscsscsccscccsccscssscscscscscsscccscscscsscsscscscsscscccscscscccccsccccscsscscscscsscsccssscsccscccscsccscscscscscsscccccscscccscsccsccccsccccccscccccccscscssscscccccscscsccscccsssccscccssscscssccccscccscscscscccscscscsscssssscscccccccccccccssccccccscscsscsccscccssscsccscssccscscscccccccscscscscccccsccsscssccsccccsccsscscscscsscsscccsccccccccscsccccccsccscscscsccccsscsscccscssscsscsccccsccsssscscccsscscscsccccsccscccccccsccscccscscccccssccsccscccscscscscccssccscscscccssccscccccccccccsscccccccccscccsccccccscccsacsc" />
    <g
       id="g4"
       transform="matrix(0.07029891,0,0,0.05557263,34.996656,0.45721183)"
       style="opacity:1;fill:#000000;fill-opacity:1;stroke:none">
      <g
         id="g6"
         style="fill:#000000;fill-opacity:1">
        <path
           d="m 107.12303,-21.467766 c 0.87242,9.78603 -2.12808,15.3313798 -2.01714,24.2829698 -13.09734,6.23631 -13.97279,30.6771202 -19.1629,48.5659402 -3.74081,12.89316 -8.16239,27.93756 -18.15433,34.21692 -31.61375,19.868986 -83.3536,11.7055 -102.87454,-14.34903 -4.83712,-6.45596 -10.98237,-18.83696 -15.12861,-28.69806 -6.39637,-15.20997 -7.07212,-37.8770202 -25.21435,-29.80183 -6.04639,2.691 -12.40243,26.2521 -17.14575,36.42446 -5.32528,11.41962 -13.10642,25.97064 -20.17148,32.00937 -20.93698,17.89324 -73.86493,21.228836 -95.81452,1.10378 -19.52196,-17.89987 -12.44177,-64.27262 -33.28294,-80.5753202 -0.16944,-8.27608 -2.82501,-13.8324698 -2.01714,-23.1791998 34.66669,-11.59402 87.10145,-6.48797 123.04602,1.10377 17.68634,3.73516 34.50834,11.9637798 53.45441,11.0377098 13.56532,-0.66336 27.80739,-6.0961298 41.35153,-8.8301698 41.66014,-8.41074 85.13069,-13.09625 133.13174,-3.31131 z"
           id="path8"
           inkscape:connector-curvature="0"
           style="clip-rule:evenodd;fill:#000000;fill-opacity:1;fill-rule:evenodd" />
      </g>
    </g>
  </g>
</svg>
