<?xml version="1.0" encoding="UTF-8" standalone="no"?>
<!-- Created with Inkscape (http://www.inkscape.org/) -->

<svg
   xmlns:dc="http://purl.org/dc/elements/1.1/"
   xmlns:cc="http://creativecommons.org/ns#"
   xmlns:rdf="http://www.w3.org/1999/02/22-rdf-syntax-ns#"
   xmlns:svg="http://www.w3.org/2000/svg"
   xmlns="http://www.w3.org/2000/svg"
   xmlns:sodipodi="http://sodipodi.sourceforge.net/DTD/sodipodi-0.dtd"
   xmlns:inkscape="http://www.inkscape.org/namespaces/inkscape"
   width="79"
   height="50"
   viewBox="0 0 79 50.000002"
   id="svg4288"
   version="1.1"
   inkscape:version="0.91 r13725"
   sodipodi:docname="loxberry_footer_logo_only.svg">
  <defs
     id="defs4290" />
  <sodipodi:namedview
     id="base"
     pagecolor="#ffffff"
     bordercolor="#666666"
     borderopacity="1.0"
     inkscape:pageopacity="1"
     inkscape:pageshadow="2"
     inkscape:zoom="8.0000004"
     inkscape:cx="32.666775"
     inkscape:cy="12.4148"
     inkscape:document-units="px"
     inkscape:current-layer="layer3"
     showgrid="false"
     units="px"
     inkscape:window-width="1920"
     inkscape:window-height="1057"
     inkscape:window-x="-8"
     inkscape:window-y="-8"
     inkscape:window-maximized="1"
     borderlayer="false" />
  <metadata
     id="metadata4293">
    <rdf:RDF>
      <cc:Work
         rdf:about="">
        <dc:format>image/svg+xml</dc:format>
        <dc:type
           rdf:resource="http://purl.org/dc/dcmitype/StillImage" />
        <dc:title />
      </cc:Work>
    </rdf:RDF>
  </metadata>
  <g
     inkscape:groupmode="layer"
     id="layer2"
     inkscape:label="Hintergrund"
     transform="translate(0,22.000001)" />
  <g
     inkscape:label="Ebene 1"
     inkscape:groupmode="layer"
     id="layer1"
     transform="translate(0,-1002.3622)" />
  <g
     inkscape:groupmode="layer"
     id="layer3"
     inkscape:label="Text"
     transform="translate(0,22.000001)">
    <path
       style="fill:#3d3d3d;fill-opacity:1;stroke:none;stroke-opacity:1"
       d="m -0.00977326,-22.164063 0,50.609374 80.13987626,0 0,-50.609374 z m 30.64230826,1.105509 c 0.301586,-0.01406 0.613799,0.101493 0.948621,0.35026 0.452995,0.338074 16.747582,16.1759989 16.819794,16.3546046 0.124741,0.2870407 0.01919,0.3885966 -0.41411,0.4141096 -0.288868,0.012758 -0.394448,0.05211 -0.51262,0.1733059 -0.09191,0.095682 -0.228068,0.160536 -0.326544,0.160536 -0.09848,0 -0.236458,0.069407 -0.328371,0.1587119 -0.08534,0.089303 -0.230979,0.1587118 -0.322895,0.1587118 -0.124735,10e-7 -0.353368,0.1793025 -0.90484,0.7151149 -0.676212,0.657008 -0.742479,0.739041 -0.742479,0.9559184 0,0.127576 -0.02664,0.2490323 -0.0529,0.2681687 -0.03283,0.019129 -3.241605,-3.0684815 -7.13473,-6.8574411 -3.899699,-3.7825827 -7.090948,-6.8829807 -7.090948,-6.8829807 0,0 -4.299772,4.178016 -9.551893,9.2873723 -5.252108,5.10297014 -9.63913,9.3321219 -9.750737,9.389531 -0.150996,0.082923 -0.359549,0.1094559 -0.851935,0.1094569 -0.5908632,0 -0.696262,-0.020231 -1.0507809,-0.1860761 C 9.1419454,3.4023105 8.7929979,3.1529783 8.569781,2.9361037 8.0773956,2.4640751 7.8747331,2.000547 7.8747331,1.3690538 7.868168,0.51430366 6.9221608,1.5017969 18.896989,-10.132985 c 5.987406,-5.811017 10.956976,-10.613676 11.042323,-10.677469 0.09191,-0.05741 0.269312,-0.140521 0.394041,-0.191548 0.09848,-0.03348 0.198653,-0.05187 0.299182,-0.05655 z m 0.102159,9.093998 c 0.05252,0 3.038267,2.8574824 6.629406,6.3466452 l 6.540018,6.35394227 -0.02554,0.77713993 -0.02737,0.7807883 -0.649442,0.6366715 C 42.735639,3.3898981 42.5505,3.6148485 42.5505,3.7296628 c 0,0.1020603 -0.117194,0.2665537 -0.333842,0.4834322 l -0.335666,0.3301937 0,1.2642203 0,1.2696938 0.49985,0.4597171 c 0.27574,0.2487672 0.498027,0.4834677 0.498027,0.5217413 0,0.095686 -0.197796,0.1869587 -0.335666,0.1550636 -0.170693,-0.044656 -0.321073,0.087761 -0.321073,0.2918836 0,0.1211957 -0.09676,0.2620041 -0.326544,0.4852563 l -0.330194,0.3119515 0,0.9632158 c 0,0.950431 5.4e-5,0.96973 0.164185,1.103685 0.137865,0.114816 0.166009,0.198219 0.166009,0.485256 0,0.299801 0.01865,0.356739 0.169657,0.45242 0.137871,0.08929 0.164908,0.141522 0.138645,0.288234 -0.03282,0.146712 0.0059,0.22827 0.255398,0.470664 0.157563,0.159461 0.321089,0.293707 0.35391,0.293707 0.03939,0 0.06567,0.107769 0.06567,0.248101 0,0.191363 -0.03287,0.267335 -0.164185,0.350261 -0.164132,0.102059 -0.164184,0.12392 -0.164184,0.921257 0,0.790963 0.0067,0.821964 0.164184,0.955919 0.09848,0.08293 0.164185,0.209896 0.164185,0.311951 0,0.140333 0.138801,0.313305 0.598361,0.766194 0.505515,0.497543 0.623946,0.586475 0.755249,0.554579 0.275731,-0.07017 0.340386,0.0516 0.301005,0.587415 -0.03283,0.459271 -0.01819,0.49179 0.145942,0.638496 0.105033,0.09568 0.169657,0.221755 0.169657,0.330194 0,0.133954 0.118339,0.287675 0.492553,0.651265 0.269173,0.261529 0.492554,0.509927 0.492554,0.554578 0,0.121198 -31.048139,0.152205 -31.382963,0.03101 -0.275733,-0.102056 -0.432416,-0.228335 -0.629374,-0.534511 l -0.156888,-0.242629 0,-7.475869 0,-7.4813426 8.488342,-8.2493607 c 4.667823,-4.5288933 8.528848,-8.2420637 8.58139,-8.2420617 z m 23.469268,5.5001827 1.141994,0 1.149292,0 0.576471,0.5600523 c 0.466125,0.4528914 0.578294,0.6003342 0.578294,0.7534241 0,0.1339545 0.05256,0.2235417 0.164185,0.2937078 l 0.166008,0.1021592 0,1.3080039 0,1.3080038 -0.166008,0.1003341 c -0.183825,0.1148183 -0.222508,0.3466121 -0.05838,0.3466121 0.05252,0 0.204398,-0.1105057 0.335665,-0.2444518 l 0.235332,-0.235332 -0.01277,-1.4338781 c -0.01313,-1.4096979 -0.02048,-1.4367567 -0.171484,-1.5834682 -0.295429,-0.2870397 -0.171158,-0.3374781 0.780789,-0.3247212 l 0.861056,0.010947 0.578295,0.5691731 c 0.459563,0.4401306 0.570981,0.5875155 0.53816,0.6895748 -0.03283,0.089303 0.01355,0.1779846 0.151414,0.2991812 l 0.197023,0.1787785 0.0073,0.9686884 c 0.0065,0.8100952 -0.0078,0.9824402 -0.09304,1.0526061 -0.26917,0.2168785 -0.296612,0.256456 -0.257223,0.4031637 0.02627,0.1148182 -4.4e-5,0.1724738 -0.131347,0.2553987 -0.190392,0.12119565 -0.229803,0.35026031 -0.06567,0.35026031 0.05253,0 0.218599,-0.12237443 0.363031,-0.27546531 0.190386,-0.197742 0.248824,-0.3065768 0.222561,-0.4086371 -0.03281,-0.1339498 0.07851,-0.2992568 0.242628,-0.3502603 0.05909,-0.019129 0.07951,-0.2935032 0.07298,-1.0142961 -0.0065,-0.5868458 0.01899,-1.0125204 0.05838,-1.063551 0.04595,-0.051017 0.249304,-0.076618 0.570997,-0.076618 0.479256,-1e-6 0.51341,0.0057 0.684102,0.1970219 0.124741,0.140333 0.209826,0.1851326 0.308302,0.1532384 0.105042,-0.031897 0.221608,0.043199 0.556404,0.3685029 0.407043,0.3954841 0.421407,0.4207906 0.421407,0.7205882 -0.0065,0.3699637 -0.07925,0.4743105 -0.3156,0.4743105 -0.131302,0 -0.381509,0.1967519 -1.070848,0.85376 -0.498978,0.47202396 -0.904838,0.90488877 -0.904839,0.95591844 0,0.21687467 0.22934,0.0778512 0.846462,-0.53451131 0.472692,-0.46561833 0.689978,-0.63849663 0.808153,-0.63849563 0.08534,-10e-7 0.230252,-0.069408 0.315599,-0.1587119 0.137844,-0.1467114 0.204061,-0.1669023 0.512621,-0.1477659 0.321693,0.019129 0.36052,7.566e-4 0.485257,-0.1587119 0.17726,-0.2360138 0.431696,-0.2314314 0.654913,0.023715 0.164128,0.1786057 0.203314,0.1933353 0.472486,0.1550626 l 0.297357,-0.045609 0.596537,0.5728214 0.589241,0.5819431 -0.02372,0.32654539 c -0.01312,0.17860102 -0.04598,0.3430151 -0.06567,0.36850284 -0.02627,0.0191289 -0.265339,0.0456086 -0.534512,0.0456086 -0.439861,0.006351 -0.510854,0.0238644 -0.674981,0.17695429 -0.09845,0.0956818 -0.256525,0.17330607 -0.348436,0.17330607 -0.111606,0 -0.366854,0.19842668 -0.892069,0.70234481 -0.407036,0.3827263 -0.740655,0.7388803 -0.740655,0.7899099 0,0.2105 0.220894,0.089844 0.680454,-0.3757994 0.34139,-0.3444526 0.525794,-0.4779597 0.643968,-0.4779597 0.08534,0 0.230253,-0.069407 0.3156,-0.1587119 0.09192,-0.0893026 0.229893,-0.16053593 0.328368,-0.16053593 0.09845,0 0.234988,-0.0648401 0.313775,-0.14776593 0.131303,-0.140333 0.203801,-0.15233425 0.820924,-0.15871188 0.663082,-0.006356 0.669204,-0.007102 0.846462,0.18425192 0.170693,0.17860571 0.212439,0.19333536 0.481608,0.15506264 0.295433,-0.0446562 0.293849,-0.0461037 0.720587,0.36850278 0.354513,0.3444535 0.426879,0.4525971 0.426879,0.631199 0,0.1594693 0.04163,0.2308132 0.15324,0.2754654 0.137871,0.057405 0.143059,0.101864 0.14959,0.7333573 0.0065,0.3699637 0.03139,0.7270405 0.05108,0.7972075 0.03283,0.089293 0.008,0.1651837 -0.08392,0.2481002 -0.124736,0.1084396 -0.131029,0.1083892 -0.275465,-0.051082 -0.09191,-0.1020603 -0.217855,-0.1641853 -0.322896,-0.1641843 -0.09848,0 -0.234633,-0.071229 -0.326544,-0.160536 C 69.016342,3.4415498 68.924262,3.410413 68.648524,3.410413 c -0.275737,0 -0.367816,-0.032962 -0.492554,-0.160536 -0.124709,-0.127575 -0.216816,-0.1587109 -0.492554,-0.1587118 -0.282303,0 -0.368548,0.030234 -0.49985,0.1641843 -0.137839,0.1467115 -0.191276,0.1595926 -0.467014,0.1276993 -0.236343,-0.031897 -0.326566,-0.018167 -0.392218,0.058377 -0.223213,0.2615296 -0.270035,0.2863691 -0.40134,0.2481011 -0.118172,-0.025518 -0.241286,0.057779 -0.589241,0.3830969 -0.242909,0.2296354 -0.441473,0.4597667 -0.441473,0.5107964 0,0.1913626 0.210265,0.1009282 0.525391,-0.2243852 0.242912,-0.2487717 0.348471,-0.3183044 0.446947,-0.2864112 0.08532,0.025518 0.163477,0.00719 0.222561,-0.056555 0.256037,-0.2997967 0.210202,-0.2864102 1.424756,-0.2864102 1.155466,0 1.169777,-7.575e-4 1.320773,0.1587118 0.08534,0.089303 0.229161,0.1587109 0.321073,0.1587118 0.124709,0 0.314649,0.1472999 0.747951,0.5746456 0.48582,0.4847827 0.570997,0.5985351 0.570998,0.7771399 0,0.1594693 0.03981,0.2308178 0.151415,0.2754653 0.144432,0.063794 0.145942,0.08325 0.145942,1.2441537 0,1.1609272 -0.0015,1.1803633 -0.145942,1.2441547 -0.111608,0.044646 -0.151416,0.1132658 -0.151415,0.2791135 0,0.1722263 -0.0654,0.2748237 -0.341139,0.5491055 -0.190362,0.1849841 -0.517801,0.5100923 -0.727885,0.7205885 -0.472691,0.4784101 -0.570998,0.4646551 -0.570998,-0.058376 0,-0.3253136 0.01793,-0.3886587 0.162361,-0.4779604 0.210084,-0.1339539 0.210084,-0.2363851 0,-0.3703267 C 68.817537,8.7027293 68.812352,8.6730002 68.825479,8.2264911 68.838598,7.7863558 68.823638,7.7337729 68.65947,7.5679288 68.560991,7.472248 68.482515,7.32066 68.482515,7.2377351 c 0,-0.2232568 -1.082993,-1.2769904 -1.306179,-1.2769904 -0.09191,0 -0.234628,-0.070313 -0.326544,-0.1532393 -0.157562,-0.1467069 -0.23195,-0.1596693 -1.019769,-0.1787786 -0.643356,-0.012758 -0.851211,6.73e-5 -0.877475,0.06385 -0.0525,0.1530899 -0.231728,0.2745228 -0.36303,0.2426286 -0.164132,-0.038276 -0.372152,0.064878 -0.372152,0.186076 0,0.051026 0.05804,0.1204466 0.13682,0.1587109 0.144438,0.076507 0.452421,0.037295 0.452421,-0.058377 0,-0.031888 0.04672,-0.1076812 0.105806,-0.1587109 0.07879,-0.082922 0.250105,-0.1021593 0.775317,-0.1021593 0.630253,0 0.681959,0.00738 0.826396,0.160536 0.08534,0.089303 0.22916,0.1587109 0.321071,0.1587109 0.242913,0 1.320774,1.0446259 1.320773,1.2806397 0,0.089303 0.07228,0.2308514 0.164184,0.3137754 0.164131,0.1467095 0.162361,0.1660271 0.162361,1.1164543 0,0.9504318 0.0017,0.9697437 -0.162361,1.1164566 -0.09191,0.0829 -0.164184,0.223565 -0.164184,0.319247 0,0.114817 -0.09858,0.261086 -0.328368,0.477958 -0.223213,0.21688 -0.330194,0.363142 -0.330194,0.477961 0,0.210467 -0.109896,0.319247 -0.326544,0.319247 -0.09848,0 -0.243023,0.07124 -0.32837,0.160537 -0.09191,0.0893 -0.229892,0.158712 -0.328368,0.158712 -0.09848,0 -0.236485,0.06941 -0.32837,0.158711 -0.137866,0.140337 -0.209204,0.160536 -0.629373,0.160536 -0.262608,0 -0.519212,-0.021 -0.578296,-0.04013 -0.170698,-0.06379 -0.131988,-0.426134 0.05837,-0.598361 0.144433,-0.133954 0.166009,-0.19836 0.166009,-0.638496 0,-0.440131 0.01793,-0.502716 0.162361,-0.63667 0.13131,-0.121197 0.164184,-0.210056 0.164184,-0.4779597 0,-0.2679088 -0.03287,-0.3585911 -0.164184,-0.4797838 C 65.220399,9.334898 65.202471,9.2713795 65.202471,8.8376263 l 0,-0.4852572 -0.901191,-0.8720017 -0.904839,-0.8811243 -1.143818,0 -1.149292,0 -0.182428,0.1714818 C 60.671461,7.0003566 60.198438,6.9957696 59.935829,6.7470054 59.784832,6.6066818 59.713476,6.5864703 59.273619,6.5864703 l -0.487082,0.00551 -0.485256,-0.4779596 c -0.35452,-0.3444558 -0.525433,-0.4724876 -0.656739,-0.4724886 -0.09191,0 -0.237548,-0.069407 -0.322895,-0.1587118 -0.124726,-0.1276153 -0.216848,-0.1587118 -0.492555,-0.1587118 -0.374213,0 -0.492554,-0.077767 -0.492554,-0.3137744 0,-0.2360148 -0.754236,-0.963217 -0.990579,-0.963216 -0.28887,0 -0.339671,-0.1265477 -0.326544,-0.81545 0.01312,-0.5932215 0.0054,-0.6322807 -0.158712,-0.7789651 -0.09191,-0.082923 -0.164185,-0.224472 -0.164185,-0.3137744 0,-0.2360148 -1.077866,-1.28063965 -1.320773,-1.28063965 -0.09192,0 -0.23391,-0.0694074 -0.319248,-0.15871178 -0.150997,-0.15946935 -0.172909,-0.160536 -1.151116,-0.160536 -0.978208,0 -0.996467,0.001027 -1.147467,0.160536 -0.124737,0.12757601 -0.216084,0.15871178 -0.485257,0.15871178 l -0.335666,0 -0.85376,0.83004415 c -0.466127,0.4528606 -0.892449,0.8282201 -0.944974,0.8282201 -0.210077,0 -0.335665,-0.2046408 -0.335665,-0.5363364 0,-0.2551465 -0.03252,-0.3513149 -0.176955,-0.4980263 -0.157566,-0.1594694 -0.171831,-0.2111229 -0.158712,-0.63849565 0.01312,-0.39547948 0.04091,-0.48906807 0.17878,-0.62937399 0.124732,-0.12757602 0.156886,-0.23101677 0.156887,-0.47978382 0,-0.29342383 0.02163,-0.33595478 0.330193,-0.62937395 0.229778,-0.21687749 0.326544,-0.36499279 0.326544,-0.47978379 0,-0.095682 0.06608,-0.2299324 0.151416,-0.3064779 0.07877,-0.070174 0.183901,-0.1788279 0.229858,-0.2298585 0.04595,-0.057406 0.164951,-0.1003351 0.269992,-0.1003351 0.105041,0 0.241954,-0.064858 0.333842,-0.160536 0.09191,-0.089303 0.2299,-0.1587119 0.328368,-0.1587119 0.09848,0 0.236459,-0.071239 0.32837,-0.160535 0.144432,-0.1467125 0.195406,-0.1587119 0.819099,-0.1587119 0.623687,-9e-7 0.678315,0.012003 0.822747,0.1587119 0.124733,0.1275667 0.216086,0.160536 0.485256,0.160535 0.315128,0 0.348569,0.011321 0.742479,0.3940438 0.295429,0.2870361 0.412285,0.4470621 0.412285,0.5618756 0,0.1020341 0.07302,0.2354179 0.171482,0.3247203 0.1444,0.13395446 0.163084,0.19271321 0.136821,0.44147371 -0.03939,0.31253311 0.03325,0.51079634 0.184251,0.51079728 0.164129,-9.4e-7 0.217072,-0.20569529 0.184252,-0.68410237 -0.03284,-0.37634302 -0.06682,-0.48537582 -0.191549,-0.60018562 -0.08534,-0.076543 -0.156888,-0.2171745 -0.156888,-0.3064787 0,-0.2232485 -0.431709,-0.642143 -0.654913,-0.642144 -0.118172,0 -0.269341,-0.1023956 -0.492553,-0.3192469 l -0.322897,-0.3192478 -1.154765,0 c -1.14889,0 -1.162476,0.00103 -1.313477,0.160536 -0.0919,0.095677 -0.230631,0.1587118 -0.335665,0.1587118 -0.13787,-9e-7 -0.255838,0.082326 -0.472487,0.3247203 -0.256042,0.2870407 -0.308707,0.3191862 -0.426879,0.2553977 -0.124713,-0.063785 -0.136806,-0.114395 -0.103984,-0.5034987 0.04595,-0.5932206 0.07994,-0.715114 0.191549,-0.7151149 0.124742,0 0.222912,-0.178928 0.176954,-0.3320179 -0.01969,-0.082923 0.169876,-0.3106501 0.727885,-0.8464625 0.663079,-0.6378718 0.787419,-0.7370057 0.977811,-0.7370057 0.164099,0 0.23498,-0.035679 0.280937,-0.1441177 0.06565,-0.1339498 0.09374,-0.1413893 1.098212,-0.1477659 1.004468,-0.012758 1.030399,-0.00626 1.174832,0.1404684 0.07878,0.082922 0.221858,0.1514152 0.313775,0.1514152 0.124736,0 0.357015,0.1811267 0.908487,0.716939 l 0.740655,0.7205874 0,0.4834322 c 0,0.4337558 0.01976,0.4990724 0.164185,0.6330231 0.137868,0.1211695 0.164184,0.2100638 0.164184,0.4907288 0,0.2870407 -0.02632,0.3503472 -0.164184,0.4396496 -0.183821,0.1148181 -0.222504,0.3447869 -0.05838,0.3447879 0.05252,-1e-6 0.216042,-0.1205382 0.353909,-0.2608711 l 0.255397,-0.2681677 -0.03831,-0.4542439 c -0.02627,-0.3572113 -0.07155,-0.4844744 -0.189725,-0.6184289 -0.13784,-0.140306 -0.158712,-0.2211376 -0.158712,-0.629374 l 0,-0.4797838 -0.735182,-0.715115 c -0.571158,-0.554987 -0.780828,-0.7206218 -0.912134,-0.7206218 -0.09848,0 -0.218563,-0.044749 -0.264519,-0.1021593 -0.07876,-0.095682 -0.07038,-0.1149909 0.03466,-0.1787785 0.06565,-0.038276 0.256184,-0.2044838 0.426881,-0.370328 z m -6.100369,2.8622837 c 0.107505,-0.01515 0.213463,0.00738 0.279114,0.071145 0.124737,0.1211929 0.08969,0.2044306 -0.120402,0.3192479 -0.157596,0.089303 -0.190447,0.1405805 -0.164184,0.2553986 0.02627,0.1084388 -0.0065,0.1916587 -0.131347,0.3064778 -0.164094,0.1467087 -0.170015,0.1830124 -0.156888,0.7826124 0.0065,0.599599 -5.7e-5,0.6386563 -0.164184,0.8045041 -0.09191,0.095679 -0.171483,0.2427155 -0.171482,0.33201788 0,0.0893024 -0.07046,0.23085052 -0.16236,0.31377536 -0.144432,0.13395357 -0.164184,0.19744596 -0.164184,0.6311981 l 0,0.4779597 -0.408637,0.40133956 c -0.288868,0.2806612 -0.4594,0.4031646 -0.570998,0.4031646 -0.236348,0 -0.99058,0.7326652 -0.99058,0.9559183 0,0.095679 -0.07228,0.236324 -0.164186,0.3192479 -0.09848,0.089303 -0.164184,0.2235828 -0.164184,0.3320178 0,0.1148182 -0.05257,0.2089467 -0.164184,0.2791137 -0.151001,0.095682 -0.177375,0.095682 -0.32837,0 l -0.169656,-0.1076318 0.01824,-1.4794857 c 0.0197,-1.4543454 0.02159,-1.47955486 0.166009,-1.54333397 0.111601,-0.0446559 0.149234,-0.12150672 0.162361,-0.31924784 0.01311,-0.19135891 0.05332,-0.26821817 0.171481,-0.31924783 0.111601,-0.0510259 0.144117,-0.11602118 0.144117,-0.30100534 0,-0.17860102 0.03909,-0.26005103 0.176954,-0.35573282 0.131311,-0.095682 0.177312,-0.1725242 0.164185,-0.3064778 -0.01311,-0.1530871 0.09873,-0.2933883 0.722412,-0.8993668 0.564603,-0.5485693 0.780843,-0.7205874 0.912136,-0.7205874 0.09191,0 0.23755,-0.069407 0.322898,-0.1587117 0.09191,-0.089303 0.228068,-0.160536 0.326544,-0.160536 0.09848,0 0.236457,-0.069408 0.328369,-0.1587119 0.08206,-0.086108 0.193493,-0.1399089 0.301006,-0.1550618 z m 3.801785,4.46034706 c 0.623688,0 0.67649,0.0138232 0.820922,0.16053604 0.08534,0.089303 0.230986,0.1587109 0.322897,0.1587117 0.124737,-8e-7 0.322314,0.1463379 0.742479,0.5545789 l 0.57647,0.5618756 0,0.3356662 c 0,0.2423931 0.0263,0.3448131 0.09851,0.3703278 0.05908,0.025518 0.132091,0.096749 0.171482,0.160536 0.05253,0.1020603 0.01927,0.1598029 -0.184252,0.344787 l -0.249925,0.2243861 -0.990581,0 c -0.971642,0 -0.990996,-7.574e-4 -1.141994,0.1587119 -0.08534,0.089303 -0.230985,0.1587109 -0.322896,0.1587118 -0.242909,0 -1.647319,1.3638727 -1.647319,1.5998865 0,0.089303 -0.07228,0.2308505 -0.164184,0.3137754 -0.09191,0.082923 -0.164186,0.2217512 -0.164186,0.3046537 0,0.184973 -0.170075,0.3976912 -0.321071,0.3976912 -0.05908,0 -0.374818,-0.2703067 -0.709642,-0.5892407 l -0.609307,-0.5910638 0,-0.963216 c 0,-0.9440479 -0.0017,-0.9624464 0.16236,-1.1091578 0.09191,-0.082923 0.164184,-0.224472 0.164184,-0.3137753 0,-0.1275714 0.211875,-0.3700907 0.901191,-1.0398352 l 0.90484,-0.8792993 0.335665,0 c 0.26917,0 0.360529,-0.03114 0.485257,-0.1587117 0.144433,-0.14671153 0.195407,-0.16053604 0.8191,-0.16053604 z M 47.065583,1.5131714 c 0.08371,0.032691 0.137175,0.1392542 0.107632,0.295532 -0.02627,0.1211966 0.0065,0.2044334 0.131347,0.3192478 0.09847,0.089303 0.169657,0.2281241 0.169658,0.3174237 0,0.089303 0.07957,0.2363444 0.171482,0.3320169 0.164127,0.1658487 0.170715,0.2112836 0.164184,0.8045051 -0.0065,0.5804626 -0.01866,0.6322274 -0.169657,0.753424 -0.203524,0.165844 -0.203524,0.2418459 0,0.3758004 0.151,0.095681 0.162359,0.14002 0.16236,0.605658 0,0.4656427 0.01319,0.5099782 0.164185,0.605659 0.09191,0.057406 0.166008,0.1332091 0.166008,0.1714819 0,0.038276 -0.223386,0.2693212 -0.492553,0.518093 l -0.492553,0.445123 0,0.3393144 c 0,0.4146121 -0.09902,0.5025639 -0.512622,0.4834322 -0.295432,-0.012759 -0.34278,-0.037912 -0.881124,-0.5673489 -0.433299,-0.4082364 -0.576469,-0.5930151 -0.576469,-0.7205874 0,-0.089303 -0.07228,-0.2290348 -0.164186,-0.3119512 -0.164128,-0.146704 -0.164184,-0.158894 -0.164184,-1.2751663 0,-1.1162806 5.6e-5,-1.1284585 0.164184,-1.2751662 0.09191,-0.089303 0.164186,-0.2235661 0.164186,-0.3192478 0,-0.095682 0.07227,-0.2299455 0.164184,-0.3192478 0.09191,-0.082914 0.164184,-0.2244721 0.164184,-0.3137754 0,-0.2360064 0.747675,-0.9613899 0.990581,-0.9613909 0.11161,0 0.210542,-0.058479 0.282762,-0.1605359 0.08863,-0.1339536 0.202705,-0.1749845 0.286411,-0.1422936 z m -3.413215,1.2696938 c 0.123098,-0.039173 0.230939,0.1569456 0.191549,0.4487713 -0.03283,0.2487718 -0.01849,0.2794555 0.322896,0.6239006 l 0.35391,0.3648545 0,1.1146311 c 0,1.1035181 5.7e-5,1.117509 0.164184,1.2642204 0.137865,0.1211966 0.164184,0.2109941 0.164184,0.4980263 0,0.3316966 -0.01251,0.3559981 -0.321072,0.6239015 -0.242908,0.2105 -0.33531,0.3394621 -0.348436,0.4925539 -0.01313,0.1403273 -0.07228,0.2290114 -0.197021,0.2991811 l -0.184252,0.094862 -0.623901,-0.618428 c -0.439864,-0.4337521 -0.623901,-0.655932 -0.623901,-0.7643708 0,-0.089303 -0.07046,-0.2235577 -0.162361,-0.3064778 C 42.224028,6.7717841 42.222138,6.7577887 42.222138,5.6542706 l 0,-1.1164554 0.368503,-0.3502603 c 0.269175,-0.2615296 0.354633,-0.3832007 0.32837,-0.4852562 -0.02627,-0.095682 0.03985,-0.1981251 0.249925,-0.3958672 0.164128,-0.1467123 0.319993,-0.3247949 0.359382,-0.4013404 0.03939,-0.070174 0.08302,-0.1091701 0.12405,-0.1222259 z m 10.05904,1.2642213 c 0.800926,0 0.83411,0.00747 0.985107,0.1605351 0.08534,0.089303 0.229893,0.1587118 0.328369,0.1587118 0.111605,0 0.262764,0.090498 0.459717,0.2882353 0.288868,0.2870444 0.288936,0.291142 0.197021,0.4633655 -0.09189,0.1530675 -0.150793,0.1724121 -0.472486,0.1915485 -0.288864,0.012758 -0.394446,0.05211 -0.512621,0.1733061 -0.08534,0.089303 -0.22916,0.1587118 -0.321071,0.1587118 -0.242913,0 -1.649144,1.3638736 -1.649144,1.5998865 0,0.089303 -0.07046,0.2308515 -0.162359,0.3137754 -0.09188,0.089275 -0.16601,0.2235651 -0.16601,0.3192478 0,0.09568 -0.07046,0.2299697 -0.16236,0.3192478 -0.144432,0.1339499 -0.164184,0.1983605 -0.164184,0.6384947 0,0.4337283 -0.02084,0.5027414 -0.158712,0.636672 -0.105048,0.089303 -0.171125,0.2290893 -0.184252,0.3757996 -0.01968,0.2104996 -0.0391,0.2307926 -0.242628,0.2499256 -0.203498,0.01914 -0.276399,-0.02513 -0.808153,-0.5418086 -0.43329,-0.4146201 -0.57647,-0.6003138 -0.57647,-0.7278852 0,-0.089303 -0.07228,-0.2290348 -0.164184,-0.3119503 -0.151004,-0.1403329 -0.164185,-0.191229 -0.164186,-0.7972074 0,-0.6059794 0.01319,-0.6568783 0.164186,-0.7972075 0.09191,-0.089284 0.164184,-0.2235661 0.164184,-0.3192479 0,-0.095682 0.07227,-0.2299716 0.164185,-0.3192478 0.09191,-0.082914 0.164184,-0.2244721 0.164185,-0.3137744 0,-0.1211958 0.183709,-0.3453082 0.735182,-0.8811234 l 0.740654,-0.7187641 0.335666,0 c 0.269173,0 0.36052,-0.031131 0.485256,-0.1587118 0.151002,-0.1530844 0.184162,-0.1605351 0.985108,-0.1605351 z m 2.298583,1.5944141 c 0.800951,0 0.83411,0.00738 0.985107,0.160536 0.08534,0.089303 0.229161,0.1587118 0.321073,0.1587118 0.236343,0 0.99058,0.7281315 0.99058,0.9577426 0,0.095678 0.0741,0.2363239 0.166009,0.3192478 0.164128,0.1467114 0.16236,0.1642113 0.16236,1.1146303 0,0.9504315 0.0017,0.9697677 -0.16236,1.1164557 -0.09191,0.089303 -0.166009,0.2235656 -0.166009,0.3192474 0,0.095678 -0.07227,0.2299468 -0.164185,0.3192478 -0.09191,0.0829 -0.16236,0.222649 -0.16236,0.31195 0,0.23599 -1.40441,1.601711 -1.647318,1.601711 -0.09191,0 -0.23755,0.06941 -0.322897,0.158712 -0.150996,0.159469 -0.172185,0.160537 -1.143818,0.160537 l -0.99058,0 -0.569173,-0.554579 c -0.413601,-0.401858 -0.58012,-0.608499 -0.58012,-0.716939 0,-0.0893 -0.07774,-0.234513 -0.169657,-0.330194 -0.170658,-0.172226 -0.17254,-0.185166 -0.166009,-1.1164545 0.01313,-0.9121543 0.02233,-0.9560751 0.173307,-1.1091576 0.09191,-0.095681 0.162359,-0.2372439 0.162359,-0.3265453 0,-0.089303 0.07227,-0.2290274 0.164185,-0.3119503 0.09191,-0.082923 0.166008,-0.2244739 0.166009,-0.3137753 0,-0.2360139 1.404409,-1.5998866 1.647318,-1.5998866 0.09189,0 0.235725,-0.069407 0.321072,-0.1587118 0.150997,-0.1530891 0.184158,-0.160536 0.985107,-0.160536 z M 48.45203,6.5353939 c 0.05909,0 0.30437,0.1908658 0.547282,0.4268796 l 0.445122,0.4268795 0,0.6457933 c 0,0.6059794 0.01319,0.6568736 0.164184,0.7972065 0.09848,0.089293 0.164184,0.220836 0.164184,0.3228969 0,0.1339443 0.111774,0.2758034 0.492555,0.6202525 0.269171,0.2487718 0.492554,0.4780038 0.492554,0.5162688 0,0.03828 -0.07228,0.114076 -0.164184,0.171481 -0.105045,0.07017 -0.164186,0.167027 -0.164185,0.275466 0,0.102061 -0.06571,0.235418 -0.164185,0.32472 -0.09191,0.08293 -0.164185,0.223567 -0.164185,0.319249 0,0.26152 -0.1111,0.319247 -0.649441,0.319247 l -0.499851,0 -0.735181,-0.713291 -0.742479,-0.722411 0,-0.3247211 c -1e-6,-0.2615286 -0.03106,-0.3512934 -0.16236,-0.4724861 -0.144432,-0.1339461 -0.164184,-0.19655 -0.164184,-0.636672 0,-0.4401342 0.01976,-0.5045448 0.164184,-0.6384947 0.131306,-0.1211882 0.162359,-0.2109576 0.16236,-0.4724872 -1e-6,-0.3125536 0.01292,-0.3369794 0.439649,-0.7515998 0.242913,-0.2423895 0.485644,-0.4341772 0.538161,-0.4341772 z M 62.24718,6.918491 c 0.452996,9e-7 0.518869,0.018382 0.656738,0.1587118 0.08534,0.089303 0.229161,0.160536 0.321071,0.160536 0.242908,0 1.318951,1.0446258 1.318951,1.2806396 0,0.089303 0.0741,0.2308496 0.166007,0.3137744 0.164128,0.1466807 0.162361,0.1588875 0.162361,1.2751672 0,1.116249 0.0017,1.128454 -0.162361,1.275167 -0.09191,0.0829 -0.166007,0.223565 -0.166007,0.319247 0,0.114817 -0.09676,0.261085 -0.326546,0.477959 -0.256039,0.248773 -0.328369,0.356801 -0.328369,0.51627 -10e-7,0.210493 -0.08656,0.280937 -0.355734,0.280937 -0.07879,0 -0.215657,0.07124 -0.301004,0.160537 -0.08534,0.0893 -0.230985,0.158712 -0.322896,0.158712 -0.09191,0 -0.236458,0.07031 -0.32837,0.153238 -0.157565,0.146706 -0.229328,0.158728 -0.813625,0.171482 -0.617123,0.0064 -0.655725,7.58e-4 -0.826396,-0.158712 -0.11817,-0.108438 -0.250698,-0.166008 -0.38857,-0.166008 -0.354512,0 -0.341733,-0.165416 0.04561,-0.49073 0.249479,-0.210499 0.335667,-0.325762 0.335667,-0.459717 0,-0.10206 0.06571,-0.235418 0.164184,-0.324721 0.09191,-0.08927 0.164185,-0.223565 0.164185,-0.319247 0,-0.09568 0.07227,-0.229973 0.164185,-0.319247 l 0.164185,-0.145942 0,-1.4484728 0,-1.4466481 -0.164185,-0.147766 c -0.09191,-0.082895 -0.164185,-0.2244739 -0.164185,-0.3137753 0,-0.1020603 -0.07374,-0.2162563 -0.178778,-0.2991803 -0.150992,-0.1211956 -0.170361,-0.1651892 -0.111278,-0.2608711 0.05252,-0.076543 0.138689,-0.1076168 0.269992,-0.094863 0.131301,0.012759 0.236825,-0.032943 0.348437,-0.1477659 0.137861,-0.1467079 0.203737,-0.158712 0.656731,-0.1587115 z m -2.927958,0.00551 c 0.107505,0.015149 0.218943,0.067129 0.301005,0.1532384 0.08534,0.089303 0.230985,0.160536 0.322896,0.160536 0.118172,0 0.289431,0.11976 0.578295,0.3940429 0.400478,0.3827253 0.412286,0.4080411 0.412286,0.7205873 0,0.2679091 0.03288,0.3585872 0.164184,0.4797839 0.164128,0.1466815 0.164185,0.1660234 0.164185,1.1164549 0,0.9504266 -5.8e-5,0.9679196 -0.164185,1.1146306 -0.0919,0.0893 -0.164184,0.223566 -0.164184,0.319247 0,0.09566 -0.07227,0.229947 -0.164186,0.319249 -0.09191,0.08293 -0.164184,0.222648 -0.164184,0.31195 0,0.236011 -1.076042,1.282463 -1.318949,1.282463 -0.09191,0 -0.235725,0.07124 -0.321072,0.160537 -0.150997,0.153114 -0.18525,0.158712 -0.979634,0.158712 l -0.820922,0 -0.446948,-0.42688 c -0.249478,-0.236052 -0.446947,-0.472575 -0.446947,-0.523604 0,-0.15309 0.204748,-0.32472 0.38857,-0.32472 0.242888,0 1.647319,-1.359323 1.647319,-1.601712 0,-0.0893 0.0741,-0.229027 0.166009,-0.31195 0.09191,-0.0893 0.16236,-0.223593 0.16236,-0.319248 0,-0.09568 0.0723,-0.2299452 0.164184,-0.3192478 l 0.166009,-0.145942 0,-1.2897609 c 0,-0.9121462 0.01935,-1.2998564 0.07844,-1.357258 0.06565,-0.063785 0.167964,-0.086304 0.275466,-0.071145 z M 45.137326,7.5551998 c 0.164127,0 0.276645,0.070472 0.532687,0.3192479 0.216648,0.2104971 0.373652,0.3192478 0.485258,0.3192478 0.09848,0 0.263108,0.08862 0.414109,0.2353311 l 0.249925,0.235331 0,0.6457921 c 0,0.6059788 0.01136,0.6568746 0.162361,0.7972073 0.09848,0.08929 0.16601,0.222661 0.16601,0.324721 0,0.108439 0.05914,0.203471 0.164184,0.273641 0.09191,0.05741 0.16236,0.141433 0.16236,0.186075 0,0.03828 -0.149287,0.198995 -0.326544,0.352085 -0.315133,0.267907 -0.328371,0.285822 -0.328371,0.611131 0,0.274287 -0.02632,0.36406 -0.164184,0.485258 -0.111605,0.10206 -0.166009,0.2154 -0.166008,0.355732 0,0.267905 -0.142363,0.319968 -0.339316,0.122226 -0.08534,-0.08928 -0.223686,-0.158711 -0.315598,-0.158711 -0.229778,0 -0.985108,-0.734487 -0.985108,-0.957743 0,-0.09568 -0.07227,-0.236332 -0.164184,-0.319248 l -0.164184,-0.145942 0,-1.448472 0,-1.4466485 0.164184,-0.147766 c 0.09191,-0.082914 0.164184,-0.2171698 0.164184,-0.2937078 0,-0.076543 0.01862,-0.1852233 0.03831,-0.2426286 0.02627,-0.063785 0.118617,-0.1021602 0.249925,-0.1021593 z m -2.263922,0.9668643 c 0.153461,-0.00159 0.309123,0.1265897 0.578294,0.3849212 l 0.412287,0.3958677 0,0.6457924 c 0,0.6059776 0.01318,0.6568886 0.164184,0.7972066 0.131309,0.121193 0.166009,0.210052 0.166009,0.47796 0,0.306176 0.01798,0.345072 0.326545,0.638495 0.380778,0.363587 0.420223,0.561193 0.164184,0.797208 -0.09191,0.0893 -0.164184,0.221741 -0.164184,0.317423 0,0.10206 -0.07301,0.23542 -0.171482,0.324721 -0.12477,0.114817 -0.157611,0.192592 -0.131348,0.326545 0.02627,0.127575 0.008,0.1916 -0.08391,0.242628 -0.105047,0.05102 -0.177047,0.0125 -0.439651,-0.255398 -0.249477,-0.255142 -0.354697,-0.319249 -0.52539,-0.319249 -0.151002,0 -0.224392,-0.03292 -0.257223,-0.122225 -0.0197,-0.07018 -0.110583,-0.171532 -0.202494,-0.222561 -0.118168,-0.08293 -0.151399,-0.140585 -0.118578,-0.255399 0.02626,-0.09568 0.0012,-0.184309 -0.07115,-0.235331 -0.308557,-0.255151 -0.309382,-0.26209 -0.269992,-0.574645 0.04595,-0.306181 0.03821,-0.31857 -0.257223,-0.554579 -0.07878,-0.06379 -0.09669,-0.255254 -0.09669,-1.039837 l 0,-0.9559184 0.404987,-0.4159343 C 42.56647,8.6550388 42.719947,8.5236576 42.873404,8.5220641 Z M 70.126213,9.78811 c 0.29541,0 0.326544,0.095707 0.326545,0.963215 l 0,0.809977 -0.176955,0.1277 c -0.164128,0.114817 -0.184251,0.171808 -0.184251,0.503499 0,0.325318 -0.01756,0.37677 -0.142293,0.434176 -0.11818,0.04465 -0.153239,0.115095 -0.15324,0.280939 0,0.184984 -0.0592,0.27297 -0.328368,0.521741 -0.242913,0.223252 -0.326544,0.344006 -0.326544,0.47796 0,0.191362 -0.408696,0.66586 -0.572823,0.66586 -0.04595,0 -0.08575,0.03015 -0.08575,0.0748 0,0.04466 -0.111325,0.185293 -0.242628,0.319248 -0.170664,0.172222 -0.301049,0.242627 -0.432353,0.242627 -0.144432,-10e-7 -0.27043,0.07592 -0.48708,0.299182 -0.164128,0.172226 -0.313054,0.301881 -0.339315,0.295532 -0.0197,-0.0064 -0.324472,0.01191 -0.66586,0.04377 -0.341386,0.02548 -0.661131,0.03283 -0.700521,0.02007 -0.164132,-0.06379 -0.07906,-0.250189 0.242629,-0.518094 0.249479,-0.204121 0.328368,-0.320289 0.328368,-0.454244 -10e-7,-0.10206 0.06571,-0.233593 0.164185,-0.322896 0.13131,-0.121168 0.164185,-0.211879 0.164185,-0.479784 0,-0.267908 0.03288,-0.356763 0.164184,-0.477959 0.144434,-0.133954 0.164184,-0.199267 0.164184,-0.633023 l 0,-0.483431 1.063552,-1.032539 c 0.820641,-0.803749 1.110296,-1.039835 1.235033,-1.039835 0.118171,0 0.26934,-0.102402 0.492553,-0.319248 0.223217,-0.2168777 0.374381,-0.3192478 0.492563,-0.319243 z m -18.846561,0.678628 c 0.08042,-0.0072 0.143788,0.04527 0.206143,0.156889 0.03939,0.07654 0.137595,0.122226 0.242628,0.122225 0.229782,0 0.342964,0.10147 0.342964,0.311951 0,0.121197 0.183709,0.343487 0.735181,0.8793 l 0.742479,0.722412 0.333843,0 c 0.269169,0 0.360514,0.03115 0.485256,0.158711 0.223213,0.229664 0.742915,0.228728 0.959568,-0.0073 0.177242,-0.184979 0.247104,-0.157492 0.516268,0.155063 0.137866,0.165848 0.184252,0.278423 0.184252,0.501675 0,0.280666 -0.01083,0.299886 -0.746127,1.014295 -0.571172,0.554949 -0.789956,0.727884 -0.921258,0.727885 -0.09192,0 -0.233901,0.07124 -0.319248,0.160536 -0.150998,0.159466 -0.17291,0.158712 -1.151116,0.158712 -0.978208,0 -0.996475,7.54e-4 -1.147467,-0.158712 -0.08534,-0.0893 -0.230985,-0.160536 -0.322897,-0.160536 -0.223217,0 -0.66221,-0.422526 -0.66221,-0.633022 0,-0.0893 -0.07229,-0.227215 -0.164184,-0.322896 -0.157596,-0.159465 -0.157663,-0.187132 -0.164185,-1.271519 l -0.01277,-1.10186 0.171481,-0.173307 c 0.137871,-0.140333 0.169659,-0.235578 0.169659,-0.490728 0,-0.267909 0.03217,-0.343166 0.222561,-0.547283 0.121454,-0.127574 0.218758,-0.195318 0.299179,-0.202491 z m -3.477063,0.851937 c 0.05907,0 0.262762,0.160726 0.459716,0.352084 0.334824,0.3317 0.373719,0.35026 0.682278,0.35026 0.288869,0 0.361644,0.02483 0.578294,0.235331 0.242943,0.229637 0.249926,0.242184 0.249925,0.720588 0,0.440134 0.01975,0.504543 0.164186,0.638496 0.131297,0.121197 0.164184,0.21005 0.164184,0.477959 0,0.267903 0.03287,0.358597 0.164185,0.479784 0.09191,0.08293 0.164184,0.220834 0.164185,0.310126 0,0.09568 0.06535,0.218082 0.176955,0.301005 0.282298,0.216879 0.170592,0.344788 -0.295533,0.344788 -0.321691,0 -0.40686,0.02476 -0.538162,0.158712 -0.124729,0.127572 -0.216814,0.160535 -0.492552,0.160535 -0.275734,0 -0.367816,-0.03296 -0.492554,-0.160535 -0.09191,-0.0893 -0.229889,-0.158712 -0.32837,-0.158712 -0.09847,0 -0.234634,-0.06942 -0.326544,-0.158712 -0.105042,-0.108442 -0.22407,-0.160537 -0.368503,-0.160537 -0.216647,0 -0.290059,-0.08326 -0.290059,-0.344786 0,-0.07654 -0.07046,-0.20896 -0.16236,-0.291884 -0.131297,-0.121187 -0.164184,-0.211881 -0.164184,-0.479784 0,-0.267909 -0.03471,-0.356762 -0.16601,-0.477959 -0.131297,-0.121196 -0.162361,-0.210051 -0.162361,-0.477961 0,-0.267906 0.03105,-0.356771 0.162361,-0.477958 0.13131,-0.121196 0.16601,-0.212782 0.16601,-0.474311 0,-0.293419 0.02601,-0.342293 0.275465,-0.591064 0.150993,-0.153086 0.320364,-0.275465 0.379448,-0.275465 z m -22.976715,1.34084 0,0.406813 c 0,1.594674 1.331976,3.277997 3.150519,3.986035 1.043858,0.401855 1.49779,0.486127 2.758301,0.479784 0.95851,0 1.232624,-0.02565 1.652791,-0.140469 1.26051,-0.338071 2.128465,-0.805265 2.909715,-1.583469 0.781255,-0.771826 1.200393,-1.638253 1.266045,-2.626952 l 0.03284,-0.521742 -5.888753,0 z m 41.270521,0 c 0.100402,0.03449 0.126778,0.282111 0.102159,0.784437 -0.02624,0.574084 -0.0464,0.668737 -0.184252,0.81545 -0.08534,0.0893 -0.156886,0.230873 -0.156886,0.313775 0,0.229632 -1.410975,1.594414 -1.647319,1.594414 -0.09191,0 -0.235748,0.06942 -0.321072,0.158711 -0.08534,0.0893 -0.230984,0.158712 -0.322896,0.158712 -0.09192,-1e-6 -0.236459,0.07031 -0.32837,0.153239 -0.157562,0.146704 -0.229328,0.158726 -0.813625,0.171482 -0.617124,0.0064 -0.657527,7.54e-4 -0.828219,-0.158712 -0.09848,-0.0893 -0.248495,-0.16601 -0.333842,-0.166009 -0.183827,-1e-6 -0.722413,-0.477201 -0.722413,-0.636671 0,-0.05739 0.164253,-0.255595 0.361206,-0.446946 0.256043,-0.242393 0.361207,-0.39598 0.361207,-0.510797 0,-0.09568 0.07227,-0.234499 0.164184,-0.317423 0.09191,-0.08291 0.164185,-0.223566 0.164185,-0.319248 0,-0.261528 0.111831,-0.319248 0.656738,-0.319248 0.452996,0 0.518869,-0.0202 0.656738,-0.160535 0.09191,-0.09568 0.228801,-0.158712 0.333841,-0.158712 0.131303,0 0.255837,-0.08323 0.472487,-0.319249 l 0.295532,-0.319247 0.833694,0 c 0.807514,0 0.839604,-0.0056 0.990579,-0.158712 0.118176,-0.124376 0.206105,-0.179418 0.266344,-0.158711 z m -20.928056,0.304653 c 0.229884,-0.02989 0.540214,0.04004 0.673156,0.178779 0.08534,0.0893 0.222596,0.153238 0.321072,0.153238 0.249477,0 0.326545,0.114374 0.326546,0.477961 0,0.267908 0.03471,0.358586 0.166008,0.479783 0.09848,0.0893 0.164184,0.220836 0.164184,0.322896 0,0.127575 0.08547,0.251041 0.328371,0.461541 l 0.326544,0.286411 0,0.503499 c -1e-6,0.459268 -0.01137,0.522784 -0.16236,0.656738 -0.09191,0.08292 -0.164184,0.223567 -0.164184,0.319249 0,0.261533 -0.112921,0.319246 -0.651266,0.319247 l -0.498027,0 -0.570997,-0.554578 c -0.577732,-0.55495 -0.578295,-0.561281 -0.578295,-0.886598 0,-0.261529 -0.03287,-0.3513 -0.164184,-0.472487 -0.144436,-0.133953 -0.164184,-0.196539 -0.164184,-0.63667 0,-0.440125 0.01975,-0.504552 0.164184,-0.638496 0.137865,-0.121196 0.164184,-0.210973 0.164184,-0.485256 0,-0.25515 0.02558,-0.3558 0.124051,-0.419583 0.04924,-0.03349 0.118568,-0.0557 0.195197,-0.06567 z m 14.780257,0.651266 c 0.492371,0 0.499207,2.47e-4 0.755249,0.255398 0.229804,0.229634 0.256834,0.280292 0.237155,0.554578 -0.01312,0.299802 -0.03417,0.3245 -0.749776,1.019768 l -0.735182,0.722376 -0.335666,0 c -0.269168,0 -0.360514,0.03114 -0.485256,0.158711 -0.137867,0.140337 -0.201918,0.158712 -0.654914,0.158712 -0.452995,0 -0.520696,-0.01837 -0.658562,-0.158712 -0.124742,-0.127573 -0.215356,-0.158711 -0.47796,-0.158711 -0.321678,0 -0.340613,-0.0142 -0.892069,-0.530863 -0.308564,-0.28704 -0.565525,-0.553704 -0.565525,-0.585592 0,-0.03828 0.255869,-0.30129 0.570997,-0.594713 l 0.570997,-0.534513 1.300707,0.01277 1.30618,0.0055 0.156887,-0.166008 c 0.137867,-0.140338 0.203741,-0.158712 0.656738,-0.158701 z m -16.763241,0.317423 c 0.123917,0.01196 0.261631,0.06804 0.35026,0.160536 0.08534,0.08929 0.229894,0.160536 0.32837,0.160536 0.288869,0 0.330193,0.101926 0.330193,0.797207 0,0.60597 0.01136,0.656881 0.162359,0.797207 0.144428,0.133955 0.164186,0.196541 0.164186,0.636671 0,0.523049 -0.05957,0.638496 -0.3156,0.638496 -0.229782,0 -1.003701,-0.76545 -0.957743,-0.937676 0.02627,-0.07654 -0.0065,-0.166061 -0.06567,-0.217089 -0.30853,-0.248772 -0.30283,-0.228831 -0.30283,-1.045308 0,-0.433752 0.02043,-0.831015 0.04013,-0.888421 0.03283,-0.08293 0.142424,-0.114118 0.266345,-0.102159 z m 11.905203,1.545159 c 0.0197,-0.0064 0.269363,0.217361 0.558227,0.498027 0.374214,0.369948 0.569576,0.508971 0.687751,0.508971 0.216647,0 0.670954,0.403302 0.618429,0.543634 -0.02627,0.05102 -0.09853,0.12591 -0.164186,0.164184 -0.07222,0.03827 -0.12405,0.127803 -0.12405,0.229859 0,0.216878 -0.452859,0.658562 -0.669507,0.658562 -0.09191,0 -0.230254,0.06942 -0.3156,0.158712 -0.0919,0.0893 -0.229892,0.158711 -0.328369,0.158711 -0.09848,0 -0.236458,0.07124 -0.328369,0.160537 -0.137867,0.140333 -0.203743,0.158711 -0.656738,0.158711 -0.452995,0 -0.518882,-0.01837 -0.656738,-0.158711 -0.09191,-0.0893 -0.229893,-0.160536 -0.328369,-0.160537 -0.09848,0 -0.234642,-0.06942 -0.326545,-0.158711 -0.08534,-0.0893 -0.231717,-0.158712 -0.330194,-0.158712 -0.216648,0 -0.328369,-0.108765 -0.328369,-0.319248 0,-0.09568 -0.07046,-0.236324 -0.16236,-0.319248 -0.131297,-0.12123 -0.164184,-0.210084 -0.164184,-0.465226 0,-0.255151 -0.03471,-0.345825 -0.166009,-0.467014 -0.131308,-0.121196 -0.156509,-0.178866 -0.103983,-0.268168 0.05907,-0.108433 0.131921,-0.113081 0.742478,-0.08757 0.663079,0.02552 0.680866,0.02354 0.831869,-0.142294 0.131301,-0.14033 0.217549,-0.164184 0.499851,-0.164184 0.275734,1e-6 0.367811,-0.03387 0.492553,-0.155063 0.09848,-0.108437 0.23758,-0.16511 0.421407,-0.184252 0.144415,-0.01276 0.281311,-0.02467 0.301005,-0.03101 z m -3.880228,0.09122 c 0.04185,-0.01594 0.07991,-0.0091 0.125876,0.01642 0.111609,0.05741 0.117477,0.127367 0.09122,0.720588 -0.02627,0.644243 -0.02657,0.663266 0.144117,0.809977 0.09847,0.09568 0.171481,0.224489 0.171482,0.326545 0,0.09568 0.07046,0.229946 0.16236,0.319247 0.09191,0.08929 0.166009,0.22357 0.166009,0.319248 0,0.102061 0.07702,0.235443 0.195196,0.35026 0.11161,0.10206 0.197021,0.229006 0.197022,0.286412 -10e-7,0.05102 -0.201122,0.293943 -0.450595,0.536336 -0.446432,0.427368 -0.462362,0.439614 -0.731533,0.40134 -0.236344,-0.0319 -0.30143,-0.0044 -0.485256,0.155063 -0.26917,0.229633 -0.491531,0.234217 -0.695049,0.02372 -0.124737,-0.127607 -0.21682,-0.158711 -0.492554,-0.158712 -0.275738,0 -0.365991,-0.03296 -0.490728,-0.160536 -0.08534,-0.0893 -0.230994,-0.15871 -0.322897,-0.158711 -0.229778,0 -0.662211,-0.421617 -0.662211,-0.638495 0,-0.09568 -0.0741,-0.236323 -0.166009,-0.319248 -0.164126,-0.146698 -0.164185,-0.164204 -0.164184,-1.114631 0,-0.663381 0.02775,-0.990632 0.08027,-1.04166 0.05253,-0.05102 0.427518,-0.0748 1.235032,-0.0748 1.148901,0 1.160649,-0.0011 1.311652,-0.160535 0.08533,-0.0893 0.228428,-0.158712 0.313775,-0.158712 0.09191,0 0.230252,-0.07124 0.3156,-0.160537 0.06237,-0.06379 0.109561,-0.10263 0.151405,-0.118579 z m 8.88968,0.59832 c 0.03939,0 0.203645,0.145197 0.361207,0.317424 0.196957,0.223234 0.333515,0.319248 0.445122,0.319248 0.183827,0 0.684103,0.355857 0.684103,0.483432 0,0.05102 -0.07227,0.134143 -0.164185,0.191549 -0.105044,0.06379 -0.164184,0.167931 -0.164184,0.269992 0,0.236014 -0.748764,0.968689 -0.985108,0.968689 -0.09848,0 -0.243041,0.07124 -0.328369,0.160536 -0.09191,0.0893 -0.229888,0.158711 -0.328369,0.158712 -0.09848,-10e-7 -0.236458,0.06942 -0.328369,0.158712 -0.151001,0.159456 -0.171084,0.160535 -1.149292,0.160534 -0.978206,0 -0.99647,-0.0012 -1.147468,-0.160534 -0.08534,-0.0893 -0.222955,-0.158712 -0.308302,-0.158712 -0.177257,-10e-7 -0.676805,-0.356781 -0.676805,-0.49073 0,-0.04466 0.02663,-0.08392 0.0529,-0.08392 0.03282,0 0.326654,-0.266657 0.654913,-0.585591 0.446427,-0.440135 0.603835,-0.632236 0.603835,-0.753424 0,-0.280647 0.105323,-0.319248 0.820922,-0.319248 0.623693,0 0.678315,-0.01202 0.822747,-0.158712 0.124736,-0.127573 0.215736,-0.160536 0.498026,-0.160536 0.288868,0 0.353212,-0.02476 0.445123,-0.158712 0.05908,-0.0893 0.145593,-0.158714 0.191553,-0.158709 z m 4.949252,0 c 0.04596,0 0.132465,0.06942 0.191549,0.158712 0.09848,0.146715 0.144274,0.158712 0.603835,0.158712 0.439844,0 0.506096,-0.01837 0.643968,-0.158712 0.177256,-0.184983 0.319269,-0.153007 0.38492,0.07662 0.03939,0.172227 -0.109519,0.401341 -0.273639,0.401341 -0.05253,0 -0.08575,0.07676 -0.08575,0.229857 0,0.20412 -0.07357,0.300736 -0.749777,0.957744 -0.656514,0.637869 -0.780121,0.726061 -0.970512,0.726061 -0.164129,0 -0.235002,0.03841 -0.280939,0.140468 -0.05908,0.127578 -0.112126,0.147767 -0.446946,0.147767 -0.347954,0 -0.401747,0.01931 -0.519919,0.178778 -0.13787,0.1786 -0.137416,0.176919 -0.813625,0.164185 -0.617114,-0.01276 -0.695093,-0.03023 -0.826395,-0.164185 -0.07878,-0.08293 -0.217483,-0.147765 -0.302829,-0.147765 -0.196957,-1e-6 -0.406813,-0.165261 -0.406813,-0.311952 0,-0.05741 0.164253,-0.262901 0.361206,-0.454244 0.242912,-0.236013 0.361206,-0.395059 0.361206,-0.503498 0,-0.09568 0.09163,-0.25463 0.242628,-0.40134 0.236343,-0.236039 0.250093,-0.242629 0.742479,-0.242628 0.452995,0 0.517043,-0.01838 0.654913,-0.158712 0.124738,-0.133951 0.217549,-0.160536 0.499852,-0.160536 0.334799,0 0.35546,-0.0131 0.631199,-0.319248 0.157563,-0.172227 0.319995,-0.317433 0.359389,-0.317425 z m -20.079769,0.640321 c 0.08093,-0.008 0.190344,0.08597 0.392219,0.315599 0.275739,0.306171 0.294554,0.319246 0.629373,0.319246 0.282304,0 0.373291,0.02476 0.498028,0.158712 0.08533,0.0893 0.230985,0.160536 0.322897,0.160537 0.229782,0 0.662209,0.419804 0.66221,0.636671 0,0.09568 0.07409,0.236332 0.166009,0.319248 0.09191,0.08293 0.162359,0.222649 0.16236,0.31195 0,0.09568 0.08687,0.249135 0.211616,0.370328 0.203506,0.204111 0.209756,0.224546 0.111281,0.390393 -0.09191,0.165846 -0.124219,0.172437 -0.616605,0.178779 -0.288868,0.0064 -0.689645,0.02465 -0.886597,0.04378 -0.347953,0.03827 -0.367445,0.03265 -0.472487,-0.145942 -0.07878,-0.140333 -0.165322,-0.191548 -0.290059,-0.191548 -0.236344,10e-7 -0.688101,-0.433445 -0.642144,-0.618428 0.02627,-0.07654 -0.0065,-0.167896 -0.06567,-0.218913 -0.30853,-0.255147 -0.30283,-0.229799 -0.30283,-1.103686 0,-0.465645 0.01935,-0.86564 0.04561,-0.884772 0.02296,-0.02392 0.04781,-0.03926 0.0748,-0.04196 z m 10.580781,1.957444 c 0.07632,0.02791 0.174458,0.124236 0.348437,0.315599 0.177256,0.191367 0.308705,0.275464 0.42688,0.275464 0.190379,0 0.406812,0.165241 0.406812,0.311952 0,0.05741 -0.275576,0.364257 -0.603834,0.689575 -0.439866,0.427372 -0.651672,0.592889 -0.769843,0.592889 -0.09191,10e-7 -0.234633,0.06941 -0.326544,0.158712 -0.164127,0.146702 -0.218075,0.155077 -0.979635,0.167832 -0.794385,0.0064 -0.813322,0.0053 -0.99058,-0.160536 -0.09848,-0.0893 -0.243024,-0.166008 -0.32837,-0.166008 -0.15098,0 -0.959566,-0.656864 -0.959566,-0.784438 0,-0.02552 0.249668,-0.294912 0.558227,-0.594713 l 0.558227,-0.534511 1.143819,0 c 1.13577,-10e-7 1.142408,-1.62e-4 1.29341,-0.16601 0.0919,-0.0925 0.146241,-0.133714 0.22256,-0.105807 z m 5.05506,0.271817 c 0.09848,-10e-7 0.236458,0.06942 0.32837,0.158712 0.09191,0.09567 0.229893,0.160535 0.328369,0.160534 0.131302,0 0.255462,0.08229 0.45242,0.286412 0.144432,0.15309 0.269991,0.313811 0.269991,0.352084 0,0.03828 -0.275214,0.337816 -0.616604,0.669508 -0.538342,0.52944 -0.645858,0.605659 -0.842814,0.605659 -0.164127,0 -0.234981,0.03841 -0.280938,0.140469 -0.05908,0.127579 -0.112123,0.145942 -0.446947,0.145942 -0.341389,0 -0.39992,0.0184 -0.518093,0.171482 -0.118172,0.165847 -0.157416,0.178778 -0.636671,0.178778 -0.479256,0 -0.512678,-0.0047 -0.676805,-0.189725 -0.164128,-0.184968 -0.197121,-0.192432 -0.492554,-0.160535 -0.282304,0.03827 -0.332796,0.02632 -0.470662,-0.120402 -0.09191,-0.09568 -0.230982,-0.166009 -0.322897,-0.166009 -0.190387,0 -0.408637,-0.165239 -0.408637,-0.311951 0,-0.05741 0.277401,-0.364258 0.605658,-0.689574 l 0.611132,-0.592889 0.990581,0 c 0.971641,10e-7 0.990997,-0.0011 1.141994,-0.160537 0.09192,-0.0893 0.229892,-0.158711 0.328369,-0.158712 0.09846,0 0.236458,-0.07124 0.328369,-0.160534 0.09191,-0.0893 0.229889,-0.158712 0.328369,-0.158712 z m -9.382234,0.944972 0.211616,0.17878 c 0.282296,0.248771 0.308301,0.285681 0.308302,0.470661 0,0.204121 0.433882,0.638496 0.643968,0.638496 0.164127,0 0.669507,0.356763 0.669508,0.47796 0,0.140332 -0.505753,0.479768 -0.689575,0.467013 -0.124741,-0.01275 -0.216391,0.03114 -0.308302,0.158711 -0.118172,0.159471 -0.15924,0.171482 -0.638496,0.171482 -0.479256,0 -0.511581,-0.0075 -0.682277,-0.198845 -0.124738,-0.140335 -0.209835,-0.183311 -0.308302,-0.151414 -0.105047,0.0319 -0.249003,-0.07706 -0.715116,-0.523567 l -0.578294,-0.561875 -0.03285,-0.490731 c -0.01969,-0.299796 -0.0077,-0.515413 0.03831,-0.560051 0.09848,-0.09568 0.166062,-0.08373 0.330193,0.09486 0.144433,0.153092 0.195398,0.159666 0.786263,0.166009 0.610556,0.0064 0.643292,-1.62e-4 0.800855,-0.166009 z m -3.695976,0.355734 0.899366,0.0073 0.02006,0.229858 c 0.01313,0.146709 0.07922,0.286511 0.184251,0.375801 0.170692,0.159469 0.209752,0.453436 0.07844,0.561876 -0.04595,0.0319 -0.230284,0.06297 -0.414111,0.06932 -0.308559,0 -0.340508,-0.01215 -0.629373,-0.31195 -0.229782,-0.23601 -0.354687,-0.319247 -0.492554,-0.319248 -0.118173,-0.0064 -0.289384,-0.08862 -0.446946,-0.222562 -0.216653,-0.172215 -0.249904,-0.229938 -0.184252,-0.306477 0.06565,-0.07657 0.262942,-0.09025 0.985119,-0.08392 z m 8.154498,0.932203 c 0.09848,0 0.23646,0.06942 0.328369,0.158711 0.09191,0.09568 0.228069,0.160537 0.326545,0.160538 0.131302,0 0.257287,0.08229 0.454243,0.286409 0.301996,0.318935 0.308618,0.331297 0.164186,0.52904 -0.06565,0.09568 -0.162773,0.140468 -0.313775,0.140468 -0.164128,0 -0.250321,0.04481 -0.335667,0.166009 -0.08533,0.127576 -0.145274,0.153218 -0.269992,0.1277 -0.124736,-0.0319 -0.202175,1.66e-4 -0.346611,0.153238 l -0.176955,0.198846 -0.853759,-0.02007 c -0.80751,-0.01913 -0.848309,-0.02568 -0.91396,-0.16601 -0.05253,-0.108429 -0.117924,-0.140467 -0.308303,-0.140467 -0.256043,-1e-6 -0.329114,-0.06321 -0.368503,-0.311951 -0.01313,-0.121193 0.07892,-0.249317 0.394043,-0.561876 l 0.406813,-0.40134 0.664035,0 c 0.623687,0 0.676486,-0.01383 0.820922,-0.160537 0.09191,-0.08929 0.229912,-0.158706 0.328369,-0.158708 z"
       id="rect5509"
       inkscape:connector-curvature="0"
       sodipodi:nodetypes="ccccccccccscssscccccscccccccccccccscccccscsccscscccsscscsccccssscccccccccccscccccscccsccccccccccscccccsccccsccccccccccccccccscscscscccccscccccscscscccccscccscccscscsccsccccssccccscscscsscscscsscscsccscscsccccccccccscsssccsscscsccsscccscsccscscscsssccccccsccscscccsccscccsccscsccccccsccscccccccccccccsccsscscccccccsccsscsccsccccsccccsccssssccscsccscsscccccccscsccsccscscscsscsccccscscccccscsccccccscsccccsscscsccccscscsccccscsscsscscscsscsccscccsccscssccscscscscsscccscscscsscsscscscsscscccscscscccccsccccsccscscscscsscsccssscsccscccsssccscscscscscsscccccscscccscsccsccccsccccccsccccsccscscssscscccccscscsccsccccssccscccssscscssccccscccscscscscccscscscsscssssscccscccccccccccssccccccscscsscsccsccccsscsccscssccscscscccccccscscscsccccccccsscssccsccccsccsscscscscsscsscccsccccccccscsccccccsccscscscsccccsscsscccscssscsscsccccsccsssscscccsscscscsccccsccscccccccsccscccssscccccssccsccscscscscscscccssccscscsccsssccsccccccccccccccccccccccccccsccccccscccsac" />
    <g
       id="g4"
       transform="matrix(0.08172222,0,0,0.06460296,38.676327,4.058088)"
       style="opacity:1;fill:#000000;fill-opacity:1;stroke:none">
      <g
         id="g6"
         style="fill:#000000;fill-opacity:1">
        <path
           d="m 55.136313,-67.562212 c 0.769858,8.635581 -1.877902,13.529017 -1.780004,21.428255 -11.557612,5.503167 -12.330143,27.070706 -16.910102,42.8565098 -3.301039,11.3774356 -7.202816,24.6532092 -16.0201,30.1943652 -27.8972254,17.533181 -73.554519,10.329397 -90.78057,-12.662152 -4.268466,-5.6969946 -9.691278,-16.6224797 -13.350085,-25.324305 -5.64441,-13.421881 -6.240719,-33.424184 -22.250142,-26.298316 -5.33558,2.374645 -10.9444,23.165894 -15.13009,32.142387 -4.69924,10.0771254 -11.56563,22.917521 -17.80012,28.246336 -18.47562,15.789704 -65.18134,18.733166 -84.55053,0.974019 -17.22695,-15.7955536 -10.97911,-56.716706 -29.37018,-71.102855 -0.14952,-7.30314 -2.4929,-12.206319 -1.78,-20.454244 30.59126,-10.231023 76.86177,-5.725242 108.58068,0.97401 15.60713,3.296054 30.45152,10.557314 47.170289,9.740113 11.97058,-0.585375 24.538347,-5.379467 36.490232,-7.792092 36.762559,-7.42197 75.122694,-11.55665 117.480722,-2.922031 z"
           id="path8"
           inkscape:connector-curvature="0"
           style="clip-rule:evenodd;fill:#000000;fill-opacity:1;fill-rule:evenodd" />
      </g>
    </g>
    <rect
       style="fill:none;fill-opacity:1;stroke:none;stroke-opacity:1"
       id="rect6177"
       width="95.964493"
       height="45.961941"
       x="85.844872"
       y="-21.055534" />
  </g>
</svg>
