<?xml version="1.0" encoding="UTF-8" standalone="no"?>
<svg
   xmlns:osb="http://www.openswatchbook.org/uri/2009/osb"
   xmlns:dc="http://purl.org/dc/elements/1.1/"
   xmlns:cc="http://creativecommons.org/ns#"
   xmlns:rdf="http://www.w3.org/1999/02/22-rdf-syntax-ns#"
   xmlns:svg="http://www.w3.org/2000/svg"
   xmlns="http://www.w3.org/2000/svg"
   xmlns:sodipodi="http://sodipodi.sourceforge.net/DTD/sodipodi-0.dtd"
   xmlns:inkscape="http://www.inkscape.org/namespaces/inkscape"
   version="1.0"
   width="648"
   height="468"
   viewBox="140 100 360.28369 225"
   id="svg3412"
   inkscape:version="0.91 r13725"
   sodipodi:docname="loxberry_ui-panel-wrapper.svg">
  <title
     id="title4358">Loxberry Logo</title>
  <metadata
     id="metadata3486">
    <rdf:RDF>
      <cc:Work
         rdf:about="">
        <dc:format>image/svg+xml</dc:format>
        <dc:type
           rdf:resource="http://purl.org/dc/dcmitype/StillImage" />
        <dc:title>Loxberry Logo</dc:title>
      </cc:Work>
    </rdf:RDF>
  </metadata>
  <defs
     id="defs3484">
    <linearGradient
       id="linearGradient4288"
       osb:paint="solid">
      <stop
         style="stop-color:#000000;stop-opacity:1;"
         offset="0"
         id="stop4290" />
    </linearGradient>
  </defs>
  <sodipodi:namedview
     pagecolor="#ffffff"
     bordercolor="#666666"
     borderopacity="1"
     objecttolerance="10"
     gridtolerance="10"
     guidetolerance="10"
     inkscape:pageopacity="0"
     inkscape:pageshadow="2"
     inkscape:window-width="1920"
     inkscape:window-height="1057"
     id="namedview3482"
     showgrid="false"
     inkscape:zoom="7.552"
     inkscape:cx="474.00195"
     inkscape:cy="134.87345"
     inkscape:window-x="-8"
     inkscape:window-y="1072"
     inkscape:window-maximized="1"
     inkscape:current-layer="g3414" />
  <g
     transform="matrix(0.03721248,0,0,-0.03721248,86.532433,437.17623)"
     id="g3414"
     style="fill:#F6F6F6;stroke:none">
    <path
       d="m 4919,9507 c -19,-8 -46,-21 -60,-30 C 4846,9467 4089,8714 3177,7803 1353,5979 1497,6134 1498,6000 c 0,-99 31,-172 106,-246 34,-34 87,-73 121,-90 54,-26 70,-29 160,-29 75,0 107,4 130,17 17,9 685,672 1485,1472 800,801 1455,1456 1455,1456 0,0 486,-486 1080,-1079 593,-594 1082,-1078 1087,-1075 4,3 8,22 8,42 0,34 10,47 113,150 84,84 119,112 138,112 14,0 36,11 49,25 14,14 35,25 50,25 15,0 36,10 50,25 18,19 34,25 78,27 66,4 82,20 63,65 -11,28 -2493,2511 -2562,2564 -68,52 -130,67 -190,46 z"
       id="path3416"
       inkscape:connector-curvature="0"
       style="fill-opacity:1" />
    <path
       d="m 3673,6798 -1293,-1293 0,-1173 0,-1172 24,-38 c 30,-48 54,-68 96,-84 51,-19 4780,-14 4780,5 0,7 -34,46 -75,87 -57,57 -75,81 -75,102 0,17 -10,37 -26,52 -25,23 -27,28 -22,100 6,84 -4,103 -46,92 -20,-5 -38,9 -115,87 -70,71 -91,98 -91,120 0,16 -10,36 -25,49 -24,21 -25,26 -25,150 0,125 0,128 25,144 20,13 25,25 25,55 0,22 -4,39 -10,39 -5,0 -30,21 -54,46 -38,38 -44,51 -39,74 4,23 0,31 -21,45 -23,15 -26,24 -26,71 0,45 -4,58 -25,76 -25,21 -25,24 -25,173 l 0,151 50,49 c 35,35 50,57 50,76 0,32 23,53 49,46 21,-5 51,9 51,24 0,6 -34,43 -76,82 l -76,72 0,199 0,198 51,52 c 33,34 51,60 51,76 0,18 28,53 99,125 l 99,100 4,122 4,122 -996,996 c -547,547 -1002,995 -1010,995 -8,0 -596,-582 -1307,-1292 z m 600,-752 c 36,-3 74,-10 84,-15 10,-5 39,-18 65,-28 27,-10 48,-21 48,-25 0,-5 6,-8 13,-8 30,0 131,-96 186,-176 69,-103 93,-180 97,-313 2,-80 -1,-125 -11,-155 -8,-22 -15,-49 -15,-58 0,-10 -4,-18 -9,-18 -5,0 -12,-12 -15,-26 -18,-70 -125,-192 -220,-253 -91,-57 -183,-84 -300,-88 -90,-3 -109,0 -190,28 -50,17 -98,37 -107,45 -8,8 -21,14 -27,14 -7,0 -47,35 -90,78 -74,74 -144,187 -157,251 -2,12 -7,26 -10,31 -11,18 -14,175 -4,235 21,125 62,205 157,310 49,53 149,123 179,126 5,0 13,4 18,9 11,9 88,32 124,36 13,2 25,5 27,7 4,4 46,2 157,-7 z m 1592,-38 c 90,-28 204,-116 283,-217 33,-44 79,-153 93,-221 14,-72 7,-272 -10,-278 -6,-2 -11,-12 -11,-22 0,-22 -46,-114 -77,-155 -44,-57 -128,-137 -165,-156 -20,-10 -39,-23 -42,-27 -3,-5 -27,-15 -53,-22 -27,-7 -54,-18 -62,-24 -9,-7 -67,-11 -151,-11 -132,0 -146,2 -212,36 -10,5 -22,9 -28,9 -25,0 -143,86 -193,141 -68,74 -130,196 -144,284 -32,200 26,385 162,521 105,104 192,147 340,169 83,12 178,2 270,-27 z m 3,-1860 c -10,-155 -74,-291 -193,-412 -119,-122 -251,-195 -443,-248 -64,-18 -106,-22 -252,-22 -192,-1 -261,12 -420,75 -277,111 -480,375 -480,625 l 0,64 896,0 897,0 -5,-82 z"
       id="path3418"
       inkscape:connector-curvature="0"
       style="fill-opacity:1" />
    <path
       d="m 4337,5729 c -48,-14 -135,-92 -158,-144 -26,-56 -25,-156 1,-210 25,-52 72,-100 124,-128 63,-34 176,-31 238,6 172,101 173,353 2,453 -51,30 -144,40 -207,23 z"
       id="path3420"
       inkscape:connector-curvature="0"
       style="fill-opacity:1" />
    <path
       d="m 5810,5711 c -70,-25 -141,-98 -160,-165 -26,-93 -1,-191 67,-262 50,-51 105,-74 178,-74 101,0 193,57 236,147 27,57 30,161 5,214 -60,128 -196,186 -326,140 z"
       id="path3422"
       inkscape:connector-curvature="0"
       style="fill-opacity:1" />
    <path
       d="m 8509,7182 c -26,-26 -55,-52 -65,-58 -16,-10 -17,-13 -5,-28 7,-9 25,-16 40,-16 20,0 52,-26 139,-113 l 112,-112 0,-75 c 0,-64 3,-77 24,-99 18,-21 25,-41 29,-97 l 6,-71 -39,-42 c -21,-22 -46,-41 -54,-41 -25,0 -19,36 9,54 21,14 25,24 25,69 0,44 -4,58 -25,77 -22,21 -25,31 -25,99 l 0,76 -113,113 c -84,84 -119,112 -138,112 -14,0 -36,11 -48,24 -22,23 -26,24 -179,22 -153,-1 -157,-2 -167,-23 -7,-17 -18,-23 -43,-23 -29,0 -48,-15 -149,-115 -85,-84 -114,-120 -111,-133 7,-24 -8,-52 -27,-52 -17,0 -22,-19 -29,-112 -5,-61 -3,-69 16,-79 18,-10 26,-5 65,40 33,38 51,51 72,51 16,0 37,10 51,25 23,25 25,25 200,25 l 176,0 49,-50 c 34,-34 57,-50 75,-50 34,0 100,-66 100,-101 0,-14 11,-36 24,-48 19,-18 24,-35 29,-94 5,-75 -3,-107 -28,-107 -23,0 -34,31 -28,80 4,39 1,48 -21,69 -15,14 -26,35 -26,51 0,18 -18,43 -63,88 -60,60 -65,62 -113,62 -41,0 -55,5 -74,25 -22,23 -30,25 -125,25 -95,0 -103,-2 -125,-25 -14,-14 -35,-25 -50,-25 -15,0 -36,-11 -50,-25 -14,-15 -35,-25 -51,-25 -16,0 -34,-7 -41,-16 -7,-8 -23,-25 -35,-36 -13,-12 -23,-33 -23,-48 0,-18 -15,-41 -50,-75 -47,-46 -50,-53 -50,-99 0,-39 -5,-55 -24,-75 -21,-22 -25,-37 -27,-99 -2,-67 0,-75 24,-100 22,-23 27,-38 27,-78 0,-52 19,-84 51,-84 8,0 73,59 144,130 l 130,130 51,0 c 41,0 55,5 74,25 23,25 26,25 175,25 149,0 152,0 175,-25 13,-14 35,-25 49,-25 37,0 201,-164 201,-201 0,-14 11,-36 25,-49 25,-23 26,-29 24,-122 -2,-108 6,-128 50,-128 36,0 151,-114 151,-151 0,-37 18,-49 75,-49 42,0 56,-5 75,-25 13,-14 35,-25 49,-25 20,0 46,-20 100,-74 l 74,-75 74,1 c 67,0 78,-3 101,-25 40,-39 112,-40 150,-4 l 28,27 175,0 174,0 138,-138 137,-137 0,-76 c 0,-68 3,-78 25,-99 20,-19 25,-33 25,-75 0,-42 -5,-56 -25,-75 -22,-21 -25,-31 -25,-100 0,-69 -3,-79 -25,-100 -29,-27 -35,-84 -9,-94 9,-3 48,-6 88,-6 64,0 75,3 96,25 14,14 35,25 50,25 15,0 36,11 50,25 13,14 35,25 50,25 33,0 50,17 50,50 0,18 16,41 50,75 35,34 50,57 50,75 0,15 11,37 25,50 25,23 25,26 25,175 0,149 0,152 -25,175 -14,13 -25,35 -25,49 0,37 -164,201 -201,201 -14,0 -36,11 -49,25 -22,24 -30,25 -126,25 -80,0 -106,-3 -118,-16 -9,-8 -16,-20 -16,-25 0,-15 -47,-21 -69,-9 -12,6 -21,17 -21,25 0,19 32,35 57,29 20,-5 47,14 55,38 4,10 36,12 134,10 120,-3 131,-5 155,-28 14,-13 36,-24 50,-24 34,0 199,-165 199,-200 0,-13 12,-37 27,-52 25,-26 27,-34 25,-103 -2,-70 -1,-75 23,-91 32,-21 32,-37 0,-58 -22,-14 -25,-24 -25,-75 0,-82 15,-84 87,-9 32,33 82,84 111,113 42,43 52,59 52,86 0,26 6,37 23,44 22,10 22,13 22,195 0,182 0,185 -22,195 -17,7 -23,18 -23,43 0,28 -13,46 -87,122 -66,67 -95,90 -114,90 -14,0 -36,11 -49,25 -23,25 -25,25 -201,25 -185,0 -178,2 -217,-45 -9,-10 -21,-13 -34,-9 -15,5 -31,-6 -68,-45 -48,-51 -80,-65 -80,-35 0,8 30,44 67,80 53,51 72,64 90,60 20,-6 27,-2 61,39 10,12 24,14 60,9 42,-5 50,-3 71,20 20,21 33,26 76,26 42,0 56,-5 75,-25 19,-20 33,-25 75,-25 42,0 56,-5 75,-25 14,-14 35,-25 50,-25 16,0 35,-10 49,-26 22,-25 23,-25 42,-8 14,13 18,25 13,39 -3,11 -7,67 -8,125 -1,99 -2,106 -23,115 -17,7 -23,18 -23,43 0,28 -11,45 -65,99 -65,65 -65,65 -110,58 -41,-6 -47,-4 -73,24 -27,30 -28,30 -129,29 -94,-1 -105,-3 -125,-25 -12,-13 -33,-23 -48,-23 -15,0 -36,-11 -50,-25 -13,-14 -35,-25 -48,-25 -18,0 -46,-21 -98,-75 -70,-73 -104,-92 -104,-59 0,8 51,64 113,124 80,79 119,110 136,110 14,0 38,12 53,27 25,24 36,27 103,28 41,0 77,4 81,7 3,4 8,30 10,58 l 4,51 -90,91 -91,90 -45,-7 c -41,-6 -47,-4 -72,24 -34,40 -73,41 -100,4 -19,-25 -25,-28 -74,-25 -47,3 -57,0 -78,-23 -13,-14 -35,-25 -48,-25 -18,0 -51,-27 -123,-100 -94,-96 -129,-118 -129,-84 0,8 62,76 138,150 105,103 143,134 163,134 36,0 47,16 48,74 0,47 -2,51 -64,113 -51,51 -69,63 -85,58 -15,-5 -28,2 -47,24 -26,30 -31,31 -104,31 -49,0 -80,-4 -87,-12 -6,-8 -10,-75 -9,-167 1,-113 -2,-156 -11,-159 -25,-8 -42,-34 -37,-55 4,-16 -5,-33 -34,-64 -22,-24 -47,-43 -55,-43 -25,0 -19,36 10,55 20,13 24,22 20,40 -6,23 -2,29 39,63 13,11 15,38 14,165 l -1,152 -30,28 c -21,19 -28,33 -23,47 5,16 -12,39 -82,108 l -88,89 -131,2 c -145,2 -164,-6 -119,-51 23,-23 24,-27 26,-248 l 2,-225 -36,-37 c -20,-21 -43,-38 -51,-38 -25,0 -19,36 9,54 l 25,16 0,205 0,205 -25,16 c -17,11 -25,25 -25,46 0,24 -17,47 -88,118 l -88,88 -175,0 -174,0 -46,-46 z"
       id="path3424"
       inkscape:connector-curvature="0"
       style="fill-opacity:1" />
    <path
       d="m 7580,6755 c -14,-14 -35,-25 -50,-25 -15,0 -36,-11 -50,-25 -13,-14 -35,-25 -49,-25 -20,0 -53,-27 -139,-113 -95,-95 -112,-117 -110,-141 2,-21 -5,-33 -25,-48 -21,-15 -27,-28 -27,-56 0,-29 -5,-39 -22,-47 -18,-8 -24,-20 -26,-50 -2,-31 -8,-43 -25,-50 -22,-10 -22,-14 -25,-242 l -3,-232 26,-17 c 23,-15 27,-15 50,0 17,11 25,26 25,44 0,17 10,38 25,52 14,13 25,35 25,50 0,35 115,150 151,150 17,0 43,19 87,63 l 62,63 0,75 c 0,68 3,78 25,99 14,13 25,35 25,49 0,14 12,37 26,52 25,26 26,32 25,126 -2,94 -1,100 24,123 19,18 24,31 20,48 -4,18 1,26 25,40 32,18 37,31 18,50 -20,20 -63,14 -88,-13 z"
       id="path3426"
       inkscape:connector-curvature="0"
       style="fill-opacity:1" />
    <path
       d="m 8080,6055 c -19,-20 -33,-25 -74,-25 l -51,0 -138,-138 c -105,-105 -137,-143 -137,-163 0,-14 -11,-36 -25,-49 -25,-23 -25,-26 -25,-174 l 0,-151 93,-93 c 51,-50 99,-92 108,-92 23,0 49,33 49,62 0,13 11,35 25,48 14,13 25,35 25,49 0,37 214,251 251,251 14,0 36,11 49,25 23,25 26,25 174,25 l 151,0 38,35 c 31,29 36,38 28,54 -6,10 -17,21 -26,25 -11,4 -15,20 -15,58 l 0,53 -88,88 c -64,64 -94,87 -113,87 -14,0 -36,11 -49,25 -22,23 -30,25 -125,25 -95,0 -103,-2 -125,-25 z"
       id="path3428"
       inkscape:connector-curvature="0"
       style="fill-opacity:1" />
    <path
       d="m 7424,5955 c -11,-16 -26,-25 -43,-25 -37,0 -151,-114 -151,-151 0,-14 -11,-36 -25,-49 -14,-14 -25,-35 -25,-50 0,-15 -11,-36 -25,-50 -25,-23 -25,-25 -25,-200 0,-175 0,-177 25,-200 14,-13 25,-35 25,-49 0,-20 22,-49 88,-113 82,-83 89,-87 134,-89 63,-3 78,11 78,76 l 0,53 75,70 c 41,39 75,75 75,81 0,6 -11,18 -25,27 -23,15 -25,22 -25,95 0,73 -2,80 -25,95 -31,21 -31,33 0,59 23,19 25,27 26,118 1,93 0,100 -25,126 -14,15 -26,38 -26,52 0,14 -11,36 -26,50 -19,18 -24,31 -20,50 9,49 -33,66 -60,24 z"
       id="path3430"
       inkscape:connector-curvature="0"
       style="fill-opacity:1" />
    <path
       d="m 6929,5759 c -6,-12 -30,-40 -55,-63 -32,-31 -42,-47 -38,-62 4,-16 -9,-35 -50,-76 l -56,-55 0,-175 c 0,-173 0,-175 25,-198 14,-13 25,-34 25,-48 0,-17 28,-52 95,-120 l 95,-97 28,15 c 19,11 28,25 30,47 2,24 16,44 53,77 47,42 49,46 49,98 0,45 -4,59 -25,78 -25,23 -25,25 -25,198 l 0,175 -54,57 c -52,54 -54,59 -49,98 8,61 -24,95 -48,51 z"
       id="path3432"
       inkscape:connector-curvature="0"
       style="fill-opacity:1" />
    <path
       d="m 8092,5417 c -114.5537,-93.1544 -211.8956,-316.5949 -212,-412 -58.0787,-141.0726 233.9955,-479.7545 323.7195,-361.6979 -26.2421,179.6913 68.0576,326.3674 126.2805,435.6979 42.1529,96.8962 285.6022,298.3465 378,303 49,3 58,6 72,30 -118.7211,289.76 -509.2137,213.4627 -688,5 z"
       id="path3434"
       inkscape:connector-curvature="0"
       style="fill-opacity:1"
       sodipodi:nodetypes="ccccccc" />
    <path
       d="m 8676.5037,5291.8705 c -37,0 -206.1182,-121.5234 -296.5037,-262.8705 -114.2985,-239.066 -171.8773,-445.3819 38,-662 230.2065,-231.4038 591.4848,-25.5209 750.849,241.2374 99.7527,237.8411 88.4013,385.0845 40.8273,511.8705 -95.9085,206.3736 -376.813,259.0392 -533.1726,171.7626 z"
       id="path3436"
       inkscape:connector-curvature="0"
       style="fill-opacity:1"
       sodipodi:nodetypes="cccccc" />
    <path
       d="m 7597,5122 c -65,-65 -67,-69 -67,-118 0,-41 -5,-55 -25,-74 -22,-21 -25,-31 -25,-100 0,-69 3,-79 25,-100 20,-19 25,-33 25,-74 l 0,-51 113,-113 112,-112 76,0 c 82,0 99,9 99,50 0,15 11,37 25,50 15,14 25,35 25,51 0,17 9,32 25,43 14,9 25,21 25,27 0,6 -34,42 -75,81 -58,54 -75,76 -75,97 0,16 -10,37 -25,51 -23,22 -25,30 -25,125 l 0,101 -68,67 c -37,37 -74,67 -83,67 -8,0 -45,-30 -82,-68 z"
       id="path3438"
       inkscape:connector-curvature="0"
       style="fill-opacity:1" />
    <path
       d="m 9292,5118 c 41.9954,-402.7363 -57.6827,-567.2567 -256.1652,-764.7983 C 8911.2856,4278.9819 8868.4586,4252.5596 8870,4229 c 0.5223,-7.9829 30,-45 68,-82 l 68,-67 125,0 c 121,0 126,1 149,25 13,14 35,25 49,25 37,0 201,164 201,201 0,14 11,36 25,49 14,14 25,35 25,50 0,15 11,36 25,50 25,23 25,26 25,175 0,149 0,152 -25,175 -20,19 -25,33 -25,75 0,49 -2,53 -63,113 -44,43 -70,62 -88,62 -14,0 -36,11 -49,25 -25,27 -68,33 -88,13 z"
       id="path3440"
       inkscape:connector-curvature="0"
       style="fill-opacity:1"
       sodipodi:nodetypes="ccsccscsscscscscscc" />
    <path
       d="m 9680,5105 c -17,-18 -33,-25 -53,-23 -20,2 -33,-3 -41,-15 -9,-15 -6,-22 17,-41 16,-13 27,-31 27,-47 0,-14 11,-36 25,-49 l 25,-23 0,-227 0,-227 -25,-23 c -14,-14 -25,-35 -25,-50 0,-15 -11,-36 -25,-50 -15,-14 -25,-35 -25,-51 0,-21 -13,-39 -51,-72 -59,-51 -61,-77 -7,-77 21,0 41,-9 59,-26 26,-25 32,-26 126,-25 89,2 100,4 124,27 14,13 36,24 50,24 14,0 36,11 49,25 13,14 34,25 46,25 41,0 54,11 54,44 0,25 11,42 50,81 35,34 50,57 50,75 0,15 11,37 25,50 25,23 25,25 25,200 0,175 0,177 -25,200 -14,13 -25,35 -25,49 0,37 -164,201 -201,201 -14,0 -36,11 -49,25 -21,22 -31,25 -100,25 -69,0 -79,-2 -100,-25 z"
       id="path3442"
       inkscape:connector-curvature="0"
       style="fill-opacity:1" />
    <path
       d="m 7136,5014 c -3,-9 -6,-26 -6,-38 0,-12 -11,-33 -25,-46 l -25,-23 0,-227 0,-227 25,-23 c 14,-13 25,-35 25,-50 0,-35 115,-150 150,-150 14,0 35,-11 48,-25 30,-31 52,-23 52,19 0,22 8,40 25,56 21,19 25,33 25,76 0,51 2,54 50,96 27,24 50,49 50,55 0,7 -11,20 -25,29 -16,11 -25,26 -25,43 0,16 -10,37 -25,51 -23,22 -25,30 -25,125 l 0,101 -38,37 c -23,23 -48,37 -63,37 -17,0 -41,17 -74,50 -39,39 -56,50 -81,50 -20,0 -34,-6 -38,-16 z"
       id="path3444"
       inkscape:connector-curvature="0"
       style="fill-opacity:1" />
    <path
       d="m 6742,4816 -62,-65 0,-150 c 0,-123 3,-153 15,-163 45,-37 46,-39 39,-87 -6,-49 -6,-50 41,-90 11,-8 15,-22 11,-37 -5,-18 0,-27 18,-40 14,-8 28,-24 31,-35 5,-14 16,-19 39,-19 26,0 42,-10 80,-50 40,-42 51,-48 67,-40 14,8 17,18 13,38 -4,21 1,33 20,51 15,14 26,35 26,51 0,15 11,36 25,50 39,37 33,68 -25,125 -47,46 -50,52 -50,100 0,42 -5,56 -25,75 -23,22 -25,30 -25,125 l 0,101 -63,62 c -82,81 -94,81 -175,-2 z"
       id="path3446"
       inkscape:connector-curvature="0"
       style="fill-opacity:1" />
    <path
       d="m 10905,4630 c -34,-34 -57,-50 -75,-50 -19,0 -63,-37 -188,-163 l -162,-162 0,-76 c 0,-68 -3,-78 -25,-99 -20,-19 -25,-33 -25,-75 0,-42 -5,-56 -25,-75 -15,-14 -25,-35 -25,-51 0,-21 -12,-39 -50,-71 -49,-42 -62,-71 -37,-81 6,-2 55,-1 107,3 52,5 98,8 101,7 4,-1 27,19 52,46 33,35 52,47 74,47 20,0 40,11 66,38 20,21 37,43 37,50 0,7 6,12 13,12 25,0 87,74 87,104 0,21 13,40 50,75 41,39 50,53 50,82 0,26 5,37 23,44 19,9 22,17 22,68 0,52 3,61 28,79 l 27,20 0,127 c 0,136 -5,151 -50,151 -18,0 -41,-16 -75,-50 z"
       id="path3448"
       inkscape:connector-curvature="0"
       style="fill-opacity:1" />
    <path
       d="m 8064,4542 c -29,-32 -34,-44 -34,-86 0,-40 -5,-55 -26,-77 l -26,-27 2,-173 c 1,-170 1,-174 25,-199 14,-15 25,-37 25,-51 0,-33 67,-99 101,-99 14,0 36,-11 49,-25 23,-25 26,-25 175,-25 149,0 152,0 175,25 13,14 35,25 49,25 20,0 53,27 140,114 112,112 114,115 114,159 0,35 -7,53 -28,79 -41,49 -52,53 -79,24 -33,-37 -112,-37 -146,-1 -19,20 -33,25 -74,25 l -51,0 -113,113 c -84,84 -112,119 -112,138 0,33 -17,49 -52,49 -16,0 -31,7 -37,19 -19,35 -40,33 -77,-7 z"
       id="path3450"
       inkscape:connector-curvature="0"
       style="fill-opacity:1" />
    <path
       d="m 7522,4397 c -38,-39 -42,-47 -42,-93 0,-41 -5,-55 -25,-74 -20,-19 -25,-33 -25,-75 0,-42 5,-56 25,-75 20,-19 25,-33 25,-75 0,-42 5,-56 25,-75 14,-13 25,-34 25,-46 0,-41 11,-54 44,-54 22,0 40,-8 56,-25 14,-14 35,-25 50,-25 15,0 36,-11 50,-25 19,-20 33,-25 75,-25 42,0 56,5 75,25 20,21 33,25 82,25 71,0 88,20 45,54 -17,13 -27,32 -27,47 0,14 -11,36 -25,49 -20,19 -25,33 -25,75 0,42 -5,56 -25,75 -22,21 -25,31 -25,100 0,75 -1,77 -38,113 -33,33 -44,37 -88,37 -47,0 -53,3 -104,55 -30,30 -61,55 -70,55 -9,0 -35,-19 -58,-43 z"
       id="path3452"
       inkscape:connector-curvature="0"
       style="fill-opacity:1" />
    <path
       d="m 10326,4205 c -23,-24 -28,-25 -151,-25 l -127,0 -45,-50 c -33,-37 -52,-50 -72,-50 -16,0 -37,-10 -51,-25 -21,-22 -31,-25 -100,-25 -83,0 -100,-9 -100,-50 0,-15 -11,-37 -25,-50 -14,-13 -25,-35 -25,-50 0,-18 -16,-42 -55,-80 -30,-30 -55,-61 -55,-70 0,-25 82,-100 110,-100 13,0 36,-12 51,-26 26,-25 32,-26 126,-25 89,2 100,4 124,27 14,13 36,24 50,24 14,0 36,11 49,25 13,14 35,25 49,25 36,0 251,214 251,250 0,13 11,35 24,49 21,23 24,38 28,128 6,126 -8,150 -56,98 z"
       id="path3454"
       inkscape:connector-curvature="0"
       style="fill-opacity:1" />
    <path
       d="m 7149,4172 c -15,-10 -19,-26 -19,-66 0,-43 -4,-57 -25,-76 -22,-21 -25,-31 -25,-100 0,-69 3,-79 25,-100 20,-19 25,-33 25,-74 0,-51 0,-52 88,-139 l 87,-87 76,0 c 82,0 99,9 99,50 0,15 11,37 25,50 23,21 25,31 25,103 l 0,79 -50,45 c -37,33 -50,52 -50,72 0,16 -10,37 -25,51 -20,19 -25,33 -25,75 0,57 -12,75 -50,75 -15,0 -36,10 -49,24 -27,29 -102,39 -132,18 z"
       id="path3456"
       inkscape:connector-curvature="0"
       style="fill-opacity:1" />
    <path
       d="m 9330,4055 -24,-26 -199,1 -198,2 -87,-84 c -48,-46 -87,-87 -87,-93 0,-5 39,-47 86,-92 84,-81 87,-83 136,-83 40,0 54,-5 73,-25 21,-22 31,-25 100,-25 69,0 79,3 100,25 19,20 33,25 74,25 l 51,0 112,113 c 109,109 112,113 114,160 3,43 -1,51 -36,87 -39,40 -40,40 -115,40 -69,0 -79,-3 -100,-25 z"
       id="path3458"
       inkscape:connector-curvature="0"
       style="fill-opacity:1" />
    <path
       d="m 6836,4014 c -3,-9 -6,-71 -6,-139 0,-128 -1,-125 46,-164 9,-8 14,-22 10,-34 -7,-27 111,-147 146,-147 39,0 48,18 48,100 0,69 -3,79 -25,100 -23,22 -25,30 -25,125 0,109 -6,125 -50,125 -15,0 -37,11 -50,25 -27,29 -84,35 -94,9 z"
       id="path3460"
       inkscape:connector-curvature="0"
       style="fill-opacity:1" />
    <path
       d="m 8644,3783 c -28,-3 -49,-12 -64,-29 -19,-19 -33,-24 -75,-24 -43,0 -56,-4 -76,-26 -23,-26 -26,-26 -127,-22 -93,4 -104,3 -113,-14 -8,-14 -4,-23 16,-42 20,-19 25,-33 25,-73 0,-40 5,-54 25,-73 14,-13 25,-35 25,-50 0,-33 17,-50 50,-50 15,0 37,-11 50,-25 14,-14 35,-25 50,-25 15,0 36,-11 50,-25 21,-22 31,-25 100,-25 69,0 79,3 100,25 14,14 35,25 50,25 15,0 36,11 50,25 13,14 34,25 48,25 33,0 102,69 102,103 0,16 8,30 19,36 10,6 21,18 25,26 8,22 -61,85 -94,85 -18,0 -48,22 -105,80 -44,44 -82,79 -85,78 -3,-1 -24,-3 -46,-5 z"
       id="path3462"
       inkscape:connector-curvature="0"
       style="fill-opacity:1" />
    <path
       d="m 8076,3755 c -13,-14 -34,-25 -48,-25 -13,0 -35,-11 -48,-25 -23,-25 -25,-25 -200,-25 -123,0 -180,-4 -188,-12 -8,-8 -12,-59 -12,-163 0,-149 0,-152 25,-175 14,-13 25,-35 25,-50 0,-34 66,-100 101,-100 14,0 36,-11 49,-25 19,-20 33,-25 75,-25 42,0 56,-5 75,-25 31,-33 65,-32 106,4 28,25 38,29 74,24 41,-6 43,-4 111,63 38,38 69,76 69,84 0,9 -13,29 -30,45 -18,18 -30,39 -30,55 0,15 -11,36 -25,50 -14,14 -25,35 -25,50 0,16 -11,36 -26,51 -26,23 -26,26 -22,127 4,93 3,104 -14,113 -14,8 -23,4 -42,-16 z"
       id="path3464"
       inkscape:connector-curvature="0"
       style="fill-opacity:1" />
    <path
       d="m 9424,3655 c -14,-21 -24,-25 -68,-25 -43,0 -57,-5 -76,-25 -22,-23 -30,-25 -125,-25 -109,0 -125,-6 -125,-50 0,-19 -24,-49 -92,-118 -50,-50 -95,-92 -100,-92 -4,0 -8,-6 -8,-13 0,-21 76,-77 103,-77 13,0 34,-11 47,-25 23,-25 26,-25 175,-25 149,0 152,0 175,25 14,14 35,25 50,25 15,0 36,11 50,25 13,14 35,25 50,25 36,0 150,115 150,152 0,16 9,32 25,42 14,9 25,22 25,30 0,20 -76,76 -104,76 -17,0 -38,15 -68,50 -24,27 -49,50 -55,50 -7,0 -20,-11 -29,-25 z"
       id="path3466"
       inkscape:connector-curvature="0"
       style="fill-opacity:1" />
    <path
       d="m 10152,3630 c -42,-48 -45,-50 -96,-50 -43,0 -57,-4 -76,-25 -21,-22 -31,-25 -100,-25 -75,0 -77,-1 -113,-38 -23,-23 -37,-48 -37,-63 0,-17 -18,-42 -55,-79 -30,-30 -55,-62 -55,-71 0,-23 32,-49 62,-49 13,0 34,-10 46,-23 20,-21 32,-24 126,-26 103,-2 103,-2 124,26 18,25 26,28 79,28 51,0 59,3 68,23 7,16 18,22 43,22 29,0 48,14 148,114 103,103 114,118 114,150 0,24 5,36 13,36 25,0 48,36 42,63 -10,36 -32,41 -59,12 -21,-22 -31,-25 -98,-25 -70,0 -77,2 -92,25 -9,14 -22,25 -29,25 -6,0 -31,-23 -55,-50 z"
       id="path3468"
       inkscape:connector-curvature="0"
       style="fill-opacity:1" />
    <path
       d="m 7137,3573 c -4,-3 -7,-66 -7,-139 0,-137 -1,-133 46,-173 9,-8 14,-22 10,-34 -7,-29 62,-97 98,-97 19,0 32,-8 44,-30 16,-28 19,-29 72,-23 30,3 91,6 135,7 75,1 80,2 94,28 15,26 14,29 -17,61 -19,19 -32,43 -32,58 0,14 -11,36 -25,49 -14,13 -25,35 -25,50 0,34 -66,100 -101,100 -14,0 -36,11 -49,25 -19,21 -33,25 -76,25 -51,0 -54,2 -96,50 -41,48 -57,58 -71,43 z"
       id="path3470"
       inkscape:connector-curvature="0"
       style="fill-opacity:1" />
    <path
       d="m 8726,3256 c -23,-26 -24,-26 -197,-26 l -174,0 -85,-84 c -47,-47 -85,-89 -85,-93 0,-20 123,-123 146,-123 13,0 35,-12 50,-26 27,-26 30,-26 151,-25 116,2 124,3 149,26 14,14 36,25 50,25 18,0 50,26 117,93 50,51 92,99 92,108 0,23 -33,49 -62,49 -18,0 -38,13 -65,43 -53,60 -59,62 -87,33 z"
       id="path3472"
       inkscape:connector-curvature="0"
       style="fill-opacity:1" />
    <path
       d="m 9480,3205 c -14,-14 -35,-25 -50,-25 -15,0 -36,-11 -50,-25 -23,-25 -26,-25 -174,-25 l -151,0 -93,-93 c -50,-51 -92,-99 -92,-108 0,-23 33,-49 62,-49 14,0 35,-11 49,-26 21,-23 29,-25 72,-19 45,5 50,4 75,-25 25,-29 30,-30 103,-30 73,0 79,2 97,28 18,24 27,27 79,27 51,0 59,3 68,23 7,16 18,22 43,22 30,0 46,12 128,95 52,52 94,99 94,105 0,6 -19,31 -41,55 -30,32 -49,45 -69,45 -15,0 -36,10 -50,25 -14,14 -35,25 -50,25 -15,0 -36,-11 -50,-25 z"
       id="path3474"
       inkscape:connector-curvature="0"
       style="fill-opacity:1" />
    <path
       d="m 7784,3070 c -7,-7 -9,-41 -6,-88 l 5,-77 88,-88 c 71,-70 93,-87 109,-82 15,5 28,-2 47,-24 26,-30 31,-31 104,-31 73,0 79,2 97,27 14,20 28,27 47,25 28,-2 105,51 105,73 0,19 -77,75 -102,75 -32,0 -98,68 -98,100 0,29 -4,35 -47,74 l -32,28 -25,-27 c -24,-26 -29,-27 -122,-26 -90,1 -98,2 -120,26 -25,28 -35,30 -50,15 z"
       id="path3476"
       inkscape:connector-curvature="0"
       style="fill-opacity:1" />
    <path
       d="m 7388,3013 c -10,-12 -5,-21 28,-48 24,-21 50,-34 68,-35 21,0 40,-13 75,-50 44,-47 49,-49 96,-49 28,1 56,6 63,11 20,17 14,63 -12,88 -16,14 -26,36 -28,59 l -3,36 -137,1 c -110,1 -140,-1 -150,-13 z"
       id="path3478"
       inkscape:connector-curvature="0"
       style="fill-opacity:1" />
    <path
       d="m 8730,2855 c -22,-23 -30,-25 -125,-25 l -101,0 -62,-63 c -48,-49 -62,-69 -60,-88 6,-39 17,-49 56,-49 29,0 39,-5 47,-22 10,-22 16,-23 139,-26 l 130,-3 27,31 c 22,24 34,29 53,24 19,-4 28,0 41,20 13,19 26,26 51,26 23,0 38,7 48,22 22,31 21,33 -25,83 -30,32 -49,45 -69,45 -15,0 -36,10 -50,25 -14,14 -35,25 -50,25 -15,0 -36,-11 -50,-25 z"
       id="path3480"
       inkscape:connector-curvature="0"
       style="fill-opacity:1" />
  </g>
</svg>
