<?xml version="1.0" encoding="UTF-8" standalone="no"?>
<!-- Created with Inkscape (http://www.inkscape.org/) -->

<svg
   xmlns:dc="http://purl.org/dc/elements/1.1/"
   xmlns:cc="http://creativecommons.org/ns#"
   xmlns:rdf="http://www.w3.org/1999/02/22-rdf-syntax-ns#"
   xmlns:svg="http://www.w3.org/2000/svg"
   xmlns="http://www.w3.org/2000/svg"
   xmlns:xlink="http://www.w3.org/1999/xlink"
   xmlns:sodipodi="http://sodipodi.sourceforge.net/DTD/sodipodi-0.dtd"
   xmlns:inkscape="http://www.inkscape.org/namespaces/inkscape"
   width="311"
   height="50"
   viewBox="0 0 311 50.000002"
   id="svg4288"
   version="1.1"
   inkscape:version="0.91 r13725"
   sodipodi:docname="loxberry_footer_logo.svg">
  <defs
     id="defs4290">
    <linearGradient
       inkscape:collect="always"
       id="linearGradient5629">
      <stop
         style="stop-color:#3d3d3d;stop-opacity:1;"
         offset="0"
         id="stop5631" />
      <stop
         style="stop-color:#3d3d3d;stop-opacity:0;"
         offset="1"
         id="stop5633" />
    </linearGradient>
    <linearGradient
       inkscape:collect="always"
       xlink:href="#linearGradient5629"
       id="linearGradient5635"
       x1="-74.64286"
       y1="-150.75"
       x2="-10"
       y2="-150.75"
       gradientUnits="userSpaceOnUse"
       gradientTransform="matrix(1.0492126,0,0,1.105315,321.8044,163.73494)" />
  </defs>
  <sodipodi:namedview
     id="base"
     pagecolor="#ffffff"
     bordercolor="#666666"
     borderopacity="1.0"
     inkscape:pageopacity="1"
     inkscape:pageshadow="2"
     inkscape:zoom="3.959798"
     inkscape:cx="145.97739"
     inkscape:cy="14.273328"
     inkscape:document-units="px"
     inkscape:current-layer="layer3"
     showgrid="false"
     units="px"
     inkscape:window-width="1920"
     inkscape:window-height="1057"
     inkscape:window-x="-8"
     inkscape:window-y="1072"
     inkscape:window-maximized="1"
     borderlayer="false" />
  <metadata
     id="metadata4293">
    <rdf:RDF>
      <cc:Work
         rdf:about="">
        <dc:format>image/svg+xml</dc:format>
        <dc:type
           rdf:resource="http://purl.org/dc/dcmitype/StillImage" />
        <dc:title></dc:title>
      </cc:Work>
    </rdf:RDF>
  </metadata>
  <g
     inkscape:groupmode="layer"
     id="layer2"
     inkscape:label="Hintergrund"
     transform="translate(0,22.000001)">
    <rect
       style="fill:url(#linearGradient5635);fill-opacity:1;stroke:none;stroke-opacity:1"
       id="rect5627"
       width="67.824097"
       height="50.133934"
       x="243.48816"
       y="-27.958246"
       transform="scale(1,-1)" />
  </g>
  <g
     inkscape:label="Ebene 1"
     inkscape:groupmode="layer"
     id="layer1"
     transform="translate(0,-1002.3622)" />
  <g
     inkscape:groupmode="layer"
     id="layer3"
     inkscape:label="Text"
     transform="translate(0,22.000001)">
    <path
       style="fill:#3d3d3d;fill-opacity:1;stroke:none;stroke-opacity:1"
       d="m -0.01056196,-22.16452 0,50.110088 243.97622196,0 0.48341,-50.110088 z m 32.80669696,1.183703 c 0.322889,-0.01505 0.658299,0.109258 1.016771,0.375597 0.484991,0.361953 17.930518,17.3177187 18.007839,17.5089391 0.133552,0.307315 0.02002,0.416573 -0.443889,0.4438883 -0.309271,0.013656 -0.421701,0.056148 -0.548221,0.1859028 -0.0984,0.1024399 -0.245506,0.1707261 -0.350938,0.1707261 -0.105433,0 -0.252534,0.075116 -0.350938,0.1707261 -0.09137,0.095609 -0.246839,0.1707262 -0.345247,0.1707262 -0.133545,10e-7 -0.378921,0.1908172 -0.969345,0.7644753 -0.723975,0.70341419 -0.794827,0.79216156 -0.794827,1.02435768 0,0.13658693 -0.02879,0.26595364 -0.05691,0.28644105 -0.03514,0.0204835 -3.470942,-3.28465073 -7.639057,-7.34123343 -4.175143,-4.0497552 -7.591632,-7.3696892 -7.591632,-7.3696892 0,0 -4.603421,4.473621 -10.22651,9.943863 -5.623085,5.46341294 -10.319475,9.9905261 -10.438965,10.0519902 -0.161662,0.088781 -0.385273,0.1176108 -0.912437,0.1176108 -0.632597,0 -0.745338,-0.02162 -1.124897,-0.1991806 C 9.7879486,5.2082248 9.4141763,4.9419011 9.1751931,4.7097089 8.6480286,4.2043399 8.4315848,3.7069962 8.4315848,3.0308992 8.424556,2.1157762 7.4119296,3.1743149 20.232571,-9.282266 c 6.410319,-6.221463 11.730478,-11.364679 11.821853,-11.432977 0.09841,-0.06146 0.289474,-0.15024 0.423022,-0.204871 0.105433,-0.03585 0.21106,-0.05569 0.318689,-0.0607 z m 0.110024,9.737094 c 0.05623,0 3.253634,3.0592989 7.098423,6.7949098 l 7.001679,6.8024974 -0.02846,0.8327654 -0.02846,0.8346623 -0.696184,0.6829055 c -0.499049,0.4917065 -0.696184,0.7307091 -0.696184,0.8536326 0,0.1092688 -0.126576,0.2856728 -0.358526,0.5178699 l -0.358525,0.3547311 0,1.3525321 0,1.3601205 0.534942,0.4913122 c 0.295215,0.2663383 0.533046,0.5186262 0.533046,0.5596032 0,0.102444 -0.210916,0.199184 -0.358525,0.165036 -0.182749,-0.04781 -0.34335,0.09446 -0.34335,0.312997 0,0.129756 -0.104929,0.280747 -0.350937,0.519768 l -0.352834,0.333865 0,1.031946 c 0,1.017563 6.92e-4,1.03839 0.176416,1.181806 0.147603,0.122927 0.176418,0.210551 0.176418,0.51787 0,0.320977 0.02044,0.383183 0.182108,0.485622 0.147609,0.09561 0.176081,0.150232 0.147963,0.307307 -0.03514,0.157074 0.006,0.245077 0.273162,0.504591 0.168692,0.170733 0.344253,0.314895 0.379392,0.314895 0.04217,0 0.07019,0.11533 0.07019,0.265574 0,0.204879 -0.03394,0.286817 -0.17452,0.375599 -0.175724,0.109268 -0.176418,0.130867 -0.176418,0.984522 0,0.84683 0.0078,0.880943 0.176418,1.024359 0.105431,0.08878 0.17452,0.2246 0.17452,0.333864 0,0.150245 0.149153,0.33461 0.641173,0.819487 0.541222,0.532685 0.667528,0.627897 0.808105,0.593748 0.295207,-0.07512 0.364654,0.05613 0.322483,0.62979 -0.03515,0.49171 -0.02017,0.525837 0.15555,0.682906 0.11246,0.10244 0.182108,0.238634 0.182108,0.354732 0,0.143416 0.126709,0.306913 0.527355,0.696183 0.288185,0.280002 0.527355,0.545945 0.527355,0.59375 0,0.129758 -33.240478,0.163902 -33.598951,0.03415 -0.295209,-0.109273 -0.462551,-0.245084 -0.67342,-0.572886 l -0.168829,-0.259884 0,-8.003272 0,-8.0108614 9.088334,-8.8303475 c 4.997522,-4.8487793 9.130742,-8.8246571 9.186983,-8.8246581 z m 25.127129,5.8881628 1.223539,0 1.22923,0 0.618409,0.5994398 c 0.499049,0.4848806 0.618408,0.6423046 0.618408,0.8062077 0,0.1434158 0.05692,0.2397728 0.176418,0.3148956 l 0.176417,0.1100235 0,1.399956 0,1.39995691 -0.176417,0.10812659 c -0.196808,0.12292736 -0.238324,0.36990678 -0.0626,0.36990678 0.05624,0 0.217978,-0.11646762 0.358525,-0.25988336 l 0.252296,-0.25229601 -0.01328,-1.53653701 c -0.01405,-1.5092686 -0.02234,-1.5369112 -0.184005,-1.6939855 -0.316296,-0.307314 -0.182626,-0.3626992 0.836559,-0.3490406 l 0.921923,0.013277 0.618409,0.608924 c 0.492023,0.4712182 0.611815,0.628649 0.576676,0.7379178 -0.03514,0.095609 0.01364,0.1908289 0.161241,0.320586 l 0.210562,0.1915933 0.0076,1.0376366 c 0.007,0.86731344 -0.0073,1.05167195 -0.09864,1.12679374 -0.288182,0.2321971 -0.317231,0.27354002 -0.275059,0.43061047 0.02812,0.12292733 2.02e-4,0.18438081 -0.140375,0.27316217 -0.20384,0.12975617 -0.245912,0.3755973 -0.07019,0.3755973 0.05624,0 0.232346,-0.13012428 0.38698,-0.2940284 0.203834,-0.21170871 0.267134,-0.32892902 0.239016,-0.43819779 -0.03512,-0.14341088 0.08417,-0.32099108 0.259885,-0.3755973 0.06327,-0.0204835 0.08477,-0.31335808 0.07778,-1.08506139 -0.007,-0.6282963 0.02043,-1.0854382 0.0626,-1.1400726 0.0492,-0.054632 0.266405,-0.081565 0.61082,-0.081565 0.513107,-1e-6 0.549478,0.00573 0.732227,0.2105617 0.133551,0.1502455 0.224639,0.1991826 0.330071,0.1650356 0.112461,-0.034149 0.239099,0.04628 0.597542,0.3945676 0.435794,0.4234174 0.44958,0.4510901 0.44958,0.7720626 -0.007,0.39609539 -0.08461,0.50648788 -0.337659,0.50648788 -0.140576,0 -0.407736,0.21092105 -1.145764,0.9143353 -0.534222,0.50536404 -0.969374,0.96972332 -0.969375,1.02435772 0,0.2321923 0.246036,0.082731 0.906747,-0.57288214 0.506078,-0.4985062 0.738492,-0.68290547 0.865014,-0.6829045 0.09137,-9.7e-7 0.246285,-0.075116 0.33766,-0.1707271 0.14758,-0.15707434 0.217867,-0.17793568 0.548221,-0.1574473 0.344415,0.0204835 0.386219,5.83e-6 0.519766,-0.17072613 0.189781,-0.25268451 0.462892,-0.24661521 0.701875,0.0265538 0.175721,0.19122131 0.218304,0.20601141 0.506489,0.16503562 l 0.316792,-0.0493197 0.639275,0.61461444 0.631688,0.62220377 -0.02655,0.34903964 c -0.01405,0.1912165 -0.04911,0.3672796 -0.07019,0.3945676 -0.02812,0.020484 -0.2828,0.04932 -0.570985,0.04932 -0.47093,0.0068 -0.547022,0.025796 -0.722742,0.1896955 -0.105403,0.1024399 -0.275297,0.1859018 -0.3737,0.1859018 -0.11949,0 -0.393756,0.2116854 -0.956068,0.7511965 C 69.110143,3.3040752 68.753,3.6857262 68.753,3.7403606 c 0,0.2253673 0.238309,0.096377 0.730329,-0.402156 0.365503,-0.368782 0.562074,-0.5121784 0.688596,-0.5121784 0.09137,0 0.246284,-0.075116 0.337659,-0.1707271 0.09841,-0.095609 0.245507,-0.1707261 0.350938,-0.1707261 0.105404,0 0.253306,-0.068667 0.337659,-0.1574473 0.140577,-0.1502445 0.217581,-0.1638993 0.878292,-0.1707271 0.709918,-0.0068 0.716969,-0.00758 0.906746,0.1972838 0.18275,0.1912213 0.225896,0.2060114 0.514077,0.1650356 0.316301,-0.047805 0.315182,-0.049329 0.772062,0.3945677 0.379553,0.368783 0.457168,0.4859985 0.457168,0.677215 0,0.1707329 0.04365,0.2462228 0.163138,0.2940283 0.147609,0.06146 0.154249,0.1092445 0.161242,0.7853416 0.007,0.3960954 0.03393,0.7785089 0.05501,0.8536317 0.03515,0.095609 0.0074,0.1767934 -0.09106,0.2655748 -0.133546,0.1160986 -0.13939,0.1157207 -0.294028,-0.055011 -0.0984,-0.1092688 -0.232786,-0.1764176 -0.345247,-0.1764167 -0.105432,0 -0.252534,-0.075116 -0.350937,-0.1707271 -0.133547,-0.1365859 -0.232141,-0.1707261 -0.527355,-0.1707261 -0.295214,0 -0.393807,-0.034139 -0.527355,-0.1707261 -0.133518,-0.136586 -0.232141,-0.1707262 -0.527354,-0.1707271 -0.302244,0 -0.394368,0.033003 -0.534944,0.1764176 -0.147575,0.1570733 -0.203686,0.1707271 -0.498899,0.1365811 -0.253037,-0.034149 -0.350837,-0.019357 -0.421126,0.062597 -0.238979,0.2800017 -0.288133,0.3065458 -0.428712,0.2655749 -0.126519,-0.027321 -0.259157,0.061451 -0.631688,0.4097433 -0.260066,0.2458547 -0.472343,0.49169 -0.472343,0.5463244 0,0.2048789 0.226014,0.1092736 0.563397,-0.2390172 0.26007,-0.2663431 0.372603,-0.3414532 0.478034,-0.3073072 0.09135,0.027321 0.175759,0.00758 0.239016,-0.060703 0.274123,-0.3209727 0.224815,-0.3073073 1.525156,-0.3073073 1.237078,0 1.251573,-6.8e-6 1.413235,0.1707262 0.09137,0.095609 0.244947,0.1707261 0.34335,0.1707261 0.133518,0 0.33661,0.157085 0.800517,0.6146145 0.520135,0.5190237 0.612718,0.641545 0.612718,0.8327653 0,0.1707329 0.04175,0.2462287 0.161241,0.2940294 0.154634,0.068298 0.155552,0.088762 0.155552,1.331665 0,1.2429259 -9.18e-4,1.2633679 -0.155552,1.3316649 -0.119491,0.04781 -0.161241,0.122158 -0.161241,0.29972 0,0.184391 -0.0709,0.294403 -0.366114,0.588058 -0.203807,0.19805 -0.554728,0.546699 -0.77965,0.772063 -0.506078,0.512202 -0.610821,0.497375 -0.610821,-0.0626 0,-0.348291 0.01988,-0.41657 0.17452,-0.512179 0.224922,-0.143416 0.224922,-0.253054 0,-0.396465 -0.168658,-0.109265 -0.175294,-0.142256 -0.16124,-0.620303 0.01405,-0.4712229 -6.97e-4,-0.5262139 -0.176417,-0.7037722 -0.105436,-0.1024389 -0.189696,-0.2659497 -0.189696,-0.3547311 0,-0.2390259 -1.159109,-1.365811 -1.398059,-1.365811 -0.0984,0 -0.252531,-0.076252 -0.350939,-0.1650356 -0.168691,-0.1570695 -0.247287,-0.1711331 -1.090752,-0.1915923 -0.688798,-0.013656 -0.912774,9e-7 -0.940892,0.068288 -0.05621,0.1639031 -0.246402,0.2940303 -0.386979,0.2598834 -0.175724,-0.040977 -0.400258,0.069424 -0.400258,0.1991806 0,0.054632 0.06362,0.1297513 0.147962,0.1707271 0.154639,0.081915 0.483725,0.039831 0.483725,-0.062597 0,-0.034149 0.05056,-0.1160918 0.113818,-0.1707262 0.08435,-0.088781 0.266662,-0.1081265 0.828971,-0.1081265 0.674769,0 0.731243,0.0068 0.885881,0.1707261 0.09137,0.095609 0.244945,0.1707271 0.343349,0.1707271 0.26007,0 1.413236,1.118817 1.413235,1.3715015 0,0.095609 0.07802,0.2469807 0.176417,0.3357616 0.175724,0.1570725 0.174521,0.1775265 0.174521,1.1950845 0,1.017563 0.0012,1.038011 -0.174521,1.195085 -0.0984,0.08875 -0.176417,0.239012 -0.176417,0.341452 0,0.122927 -0.104925,0.279988 -0.350938,0.512179 -0.238979,0.232198 -0.352834,0.389252 -0.352834,0.51218 0,0.225333 -0.118987,0.341452 -0.350938,0.341452 -0.105432,0 -0.259562,0.07512 -0.350937,0.170726 -0.0984,0.09561 -0.245505,0.170726 -0.350937,0.170726 -0.105437,0 -0.25446,0.07512 -0.352835,0.170727 -0.147604,0.15025 -0.223573,0.170727 -0.673421,0.170727 -0.281156,0 -0.555152,-0.02125 -0.618409,-0.04174 -0.182755,-0.0683 -0.141211,-0.45678 0.0626,-0.641172 0.154634,-0.143416 0.176417,-0.211682 0.176417,-0.682905 0,-0.471219 0.01989,-0.539491 0.174521,-0.682906 0.140585,-0.129757 0.176417,-0.225353 0.176417,-0.512179 0,-0.286832 -0.03584,-0.382427 -0.176417,-0.51218 -0.154635,-0.143386 -0.174521,-0.212824 -0.174521,-0.677214 l 0,-0.51787 -0.963655,-0.9352004 -0.969346,-0.9427889 -1.22354,0 -1.231127,0 -0.195387,0.184005 C 64.957552,9.06058 64.451093,9.0545107 64.169936,8.7881754 64.008274,8.6379318 63.931408,8.6174492 63.460473,8.6174492 l -0.521663,0.00573 -0.519768,-0.5121794 c -0.37956,-0.3687831 -0.561295,-0.504591 -0.701875,-0.504592 -0.0984,0 -0.253872,-0.075116 -0.345247,-0.1707261 -0.133535,-0.1366287 -0.232157,-0.1707689 -0.527337,-0.1707689 -0.400646,0 -0.527355,-0.08308 -0.527355,-0.3357617 0,-0.2526845 -0.807364,-1.0300492 -1.060401,-1.0300492 -0.309273,0 -0.364991,-0.1369376 -0.350938,-0.8744988 0.01405,-0.6351213 0.0069,-0.6757193 -0.168829,-0.8327645 -0.0984,-0.088781 -0.176417,-0.2401526 -0.176417,-0.3357627 0,-0.2526845 -1.15317,-1.3715016 -1.413235,-1.3715016 -0.09841,0 -0.251976,-0.075116 -0.34335,-0.1707261 -0.161663,-0.1707329 -0.183827,-0.1707271 -1.231127,-0.1707271 -1.047301,0 -1.067563,-5.8e-6 -1.22923,0.1707271 -0.133547,0.1365869 -0.231582,0.1707261 -0.519767,0.1707261 l -0.358526,0 -0.914334,0.8877777 c -0.49905,0.4848476 -0.956742,0.8877767 -1.012977,0.8877767 -0.224925,0 -0.358524,-0.2196545 -0.358524,-0.574779 0,-0.273168 -0.03506,-0.3759712 -0.189697,-0.5330455 -0.168695,-0.170733 -0.182883,-0.225346 -0.168829,-0.6829055 0.01405,-0.4234126 0.04399,-0.5251008 0.191593,-0.6753172 0.133542,-0.1365869 0.166933,-0.2458411 0.166933,-0.5121794 0,-0.31414874 0.02247,-0.36117438 0.352834,-0.67531821 0.246008,-0.23219613 0.350937,-0.38927921 0.350937,-0.51217837 0,-0.10243996 0.06987,-0.24622283 0.161242,-0.3281744 0.08434,-0.0751257 0.197402,-0.19197014 0.246605,-0.24660452 0.0492,-0.0614603 0.175877,-0.10812756 0.288338,-0.10812756 0.112461,0 0.260146,-0.0682881 0.358524,-0.17072613 0.0984,-0.0956092 0.245506,-0.17072613 0.350939,-0.17072613 0.105432,0 0.252534,-0.075116 0.350937,-0.17072608 0.154634,-0.1570743 0.210547,-0.1707261 0.878293,-0.1707261 0.66774,-1e-6 0.725555,0.013656 0.880189,0.1707261 0.133552,0.1365859 0.231585,0.17072608 0.519767,0.17072608 0.337386,0 0.373093,0.0132672 0.794826,0.42302214 0.316296,0.30731889 0.441991,0.47841312 0.441991,0.6013366 0,0.10924057 0.07668,0.25153258 0.182108,0.34714275 0.154598,0.14341574 0.176081,0.20600461 0.147963,0.47234385 -0.04217,0.33460798 0.03562,0.54632348 0.197284,0.54632448 0.175721,-1e-6 0.232423,-0.2200284 0.197284,-0.73222729 -0.03515,-0.4029242 -0.07133,-0.51824478 -0.204871,-0.64117212 -0.09137,-0.0819535 -0.168831,-0.23256325 -0.16883,-0.3281744 0,-0.23902591 -0.462896,-0.68859601 -0.701875,-0.68859601 -0.126519,0 -0.288376,-0.10928428 -0.527355,-0.34145218 l -0.345246,-0.3414532 -1.236819,0 c -1.230048,0 -1.24398,-6.8e-6 -1.405646,0.1707261 -0.0984,0.1024351 -0.246065,0.1707271 -0.358526,0.1707271 -0.147609,-1e-6 -0.274537,0.087626 -0.506488,0.34714269 -0.274127,0.307315 -0.330649,0.34145615 -0.457168,0.2731622 -0.133521,-0.0682881 -0.14706,-0.12214842 -0.11192,-0.53873599 0.0492,-0.6351212 0.08538,-0.7644743 0.204872,-0.7644753 0.133553,0 0.238899,-0.1927248 0.189695,-0.356628 -0.02108,-0.088781 0.182227,-0.3330889 0.77965,-0.906747 0.709914,-0.682926 0.843284,-0.7872385 1.047123,-0.7872385 0.175691,0 0.252413,-0.039452 0.301616,-0.1555504 0.07029,-0.1434109 0.0988,-0.1506195 1.174219,-0.1574473 1.075416,-0.013656 1.10305,-0.00719 1.257684,0.1498599 0.08434,0.088781 0.239251,0.1631378 0.337659,0.1631378 0.133547,0 0.380819,0.1927141 0.971243,0.7663723 l 0.792929,0.7720628 0,0.5178699 c 0,0.4643931 0.02179,0.533803 0.176418,0.6772149 0.147606,0.129728 0.176416,0.224968 0.176416,0.52545715 0,0.307315 -0.02881,0.37483584 -0.176416,0.47044601 -0.196804,0.12292736 -0.238319,0.36990679 -0.0626,0.36990776 0.05623,-9.7e-7 0.231787,-0.13050598 0.379392,-0.28075053 l 0.273162,-0.28644104 -0.04173,-0.48562169 C 59.608102,-1.3408489 59.559762,-1.4770308 59.433245,-1.6204466 59.285669,-1.7706629 59.264416,-1.8586925 59.264416,-2.2957637 l 0,-0.5121794 -0.787237,-0.7663713 c -0.611511,-0.5941504 -0.836354,-0.7720627 -0.976935,-0.7720627 -0.105431,0 -0.233444,-0.046659 -0.282647,-0.1081266 -0.08432,-0.10244 -0.07642,-0.1233003 0.03604,-0.1915933 0.07029,-0.040977 0.274415,-0.2189066 0.457168,-0.3964645 z m -6.531232,3.065487 c 0.115097,-0.01622 0.227535,0.00758 0.297823,0.075883 0.133548,0.1297532 0.09783,0.2185259 -0.127097,0.3414532 -0.168728,0.095609 -0.204535,0.1502348 -0.176417,0.2731622 0.02812,0.1160985 -0.0068,0.205246 -0.140376,0.3281743 -0.175683,0.1570714 -0.182883,0.1965049 -0.168829,0.83845592 0.007,0.64195009 0.0012,0.68365722 -0.17452,0.86121994 -0.0984,0.10243704 -0.184006,0.25912093 -0.184005,0.3547311 0,0.0956092 -0.07612,0.24698044 -0.174521,0.33576184 -0.154634,0.1434157 -0.176417,0.2109288 -0.176417,0.6753181 l 0,0.5121784 -0.4363,0.4306105 c -0.309271,0.3004852 -0.491332,0.4306095 -0.610822,0.4306095 -0.253041,0 -1.062297,0.7853367 -1.062297,1.0243588 0,0.102437 -0.07612,0.2526709 -0.17452,0.3414522 -0.105432,0.095609 -0.176418,0.2386374 -0.176418,0.3547311 0,0.1229284 -0.05692,0.2245971 -0.176417,0.2997199 -0.161666,0.10244 -0.189277,0.10244 -0.350937,0 l -0.182108,-0.1157139 0.02086,-1.583962 c 0.02109,-1.5570692 0.02179,-1.5839591 0.176417,-1.6522521 0.119485,-0.047805 0.160467,-0.1297435 0.174521,-0.3414522 0.01405,-0.2048751 0.05749,-0.2868189 0.184005,-0.3414533 0.119484,-0.054632 0.153653,-0.1244328 0.153653,-0.32248298 0,-0.19121644 0.04209,-0.27884882 0.189697,-0.38128877 0.140585,-0.10243995 0.19047,-0.18475866 0.176416,-0.32817437 -0.01405,-0.16389926 0.104323,-0.31487516 0.772063,-0.96365506 0.604482,-0.58731662 0.836359,-0.77016582 0.976935,-0.77016582 0.0984,0 0.253871,-0.075116 0.345246,-0.1707261 0.0984,-0.095609 0.245506,-0.1707271 0.350938,-0.1707271 0.105434,0 0.252534,-0.075116 0.350938,-0.1707261 0.08786,-0.09219 0.207384,-0.1488158 0.322489,-0.1650402 z m 4.070875,4.7746479 c 0.66774,0 0.723658,0.013656 0.878292,0.1707262 0.09137,0.095609 0.246844,0.1707261 0.345247,0.1707271 0.133547,-1e-6 0.344983,0.1566722 0.794826,0.5937483 l 0.618409,0.6013356 0,0.3604226 c 0,0.2595133 0.02702,0.3691473 0.104333,0.3964644 0.06326,0.027321 0.141832,0.1024332 0.184005,0.1707262 0.05624,0.1092697 0.02061,0.1718576 -0.197284,0.3699077 l -0.267471,0.2390172 -1.060401,0 c -1.040271,0 -1.061876,-6.8e-6 -1.223539,0.1707261 -0.09137,0.095609 -0.246843,0.1707262 -0.345246,0.1707262 -0.260066,0 -1.764173,1.4602701 -1.764173,1.7129546 0,0.095609 -0.07612,0.2469804 -0.174521,0.3357618 -0.0984,0.088781 -0.176416,0.2375195 -0.176416,0.3262766 0,0.1980462 -0.181688,0.424919 -0.34335,0.424919 -0.06327,0 -0.402208,-0.2883292 -0.760681,-0.6297902 l -0.652554,-0.6335848 0,-1.031946 c 0,-1.0107283 -0.0012,-1.0304222 0.17452,-1.1874965 0.0984,-0.088781 0.176417,-0.2401516 0.176417,-0.3357618 0,-0.1365821 0.225651,-0.3964654 0.963655,-1.113515 l 0.969347,-0.940892 0.358526,0 c 0.288181,0 0.386219,-0.034149 0.519766,-0.1707271 0.154634,-0.1570744 0.210548,-0.1707262 0.878293,-0.1707262 z m -5.182494,0.7018749 c 0.08962,0.035004 0.147344,0.1475795 0.115714,0.3148956 -0.02812,0.1297571 0.0068,0.2185278 0.140376,0.3414522 0.105425,0.095609 0.182107,0.245847 0.182108,0.3414533 0,0.095609 0.08561,0.2522921 0.184005,0.3547311 0.17572,0.1775627 0.181513,0.2260986 0.17452,0.8612199 -0.007,0.6214627 -0.02045,0.6764507 -0.182108,0.8062078 -0.217898,0.1775579 -0.217898,0.2587402 0,0.402156 0.161666,0.1024389 0.174521,0.1502251 0.174521,0.6487603 0,0.4985315 0.01475,0.5463205 0.176416,0.6487595 0.0984,0.06146 0.176418,0.1430292 0.176418,0.184005 0,0.040977 -0.239175,0.2875696 -0.527355,0.5539127 l -0.527355,0.4780334 0,0.3623194 c 0,0.4438973 -0.105402,0.5383532 -0.548221,0.5178702 -0.3163,-0.01366 -0.366422,-0.040199 -0.942789,-0.6070274 -0.463905,-0.4370712 -0.618409,-0.6354787 -0.618409,-0.7720618 0,-0.095609 -0.07612,-0.2450923 -0.17452,-0.3338649 C 48.018037,8.1321976 48.01734,8.1185778 48.01734,6.923461 c 0,-1.1951257 6.97e-4,-1.2087405 0.176418,-1.365811 0.0984,-0.095609 0.17452,-0.2390133 0.17452,-0.3414532 0,-0.10244 0.07801,-0.2458431 0.176417,-0.3414533 0.0984,-0.088772 0.176418,-0.2401516 0.176418,-0.3357617 0,-0.2526845 0.800337,-1.0300483 1.060399,-1.0300493 0.119494,0 0.224296,-0.06146 0.301617,-0.1707261 0.09489,-0.1434148 0.21769,-0.1867565 0.307308,-0.1517568 z m -3.653544,1.3582237 c 0.131792,-0.041938 0.247044,0.1674928 0.204871,0.4799302 -0.03514,0.2663431 -0.02025,0.3008523 0.345247,0.6696266 l 0.379392,0.3888771 0,1.1950848 c 0,1.1814622 -0.0012,1.1954579 0.17452,1.3525322 0.147603,0.1297571 0.176417,0.2257315 0.176417,0.5330456 0,0.3551244 -0.01299,0.3809032 -0.343349,0.6677293 -0.260066,0.2253679 -0.359648,0.3634509 -0.373701,0.5273559 -0.01405,0.150239 -0.07701,0.24546 -0.210563,0.320586 l -0.197284,0.102436 -0.66773,-0.66204 c -0.470933,-0.4643889 -0.66773,-0.7033886 -0.66773,-0.8194861 0,-0.095609 -0.07612,-0.2393979 -0.174519,-0.3281744 -0.175721,-0.1570695 -0.176418,-0.17107 -0.176418,-1.3525322 l 0,-1.1950838 0.392671,-0.3755983 c 0.288187,-0.2800017 0.380952,-0.4105028 0.352834,-0.5197667 -0.02812,-0.10244 0.04255,-0.2113134 0.267472,-0.4230222 0.17572,-0.1570743 0.342911,-0.3486588 0.385082,-0.4306104 0.04217,-0.075126 0.08886,-0.1169115 0.132788,-0.1308896 z m 10.76904,1.354429 c 0.857498,0 0.893047,0.0068 1.05471,0.1707261 0.09137,0.095609 0.245505,0.1707261 0.350937,0.1707261 0.119489,0 0.282346,0.095599 0.49321,0.3073082 0.309271,0.3073189 0.308969,0.3126161 0.210562,0.4970037 -0.09838,0.1638788 -0.162073,0.1843827 -0.506488,0.2048711 -0.309267,0.013656 -0.421699,0.056148 -0.548221,0.1859018 -0.09137,0.095609 -0.244947,0.1707262 -0.343351,0.1707262 -0.260069,0 -1.766069,1.4602712 -1.766069,1.7129547 0,0.095609 -0.07612,0.2469814 -0.17452,0.3357627 -0.09837,0.09558 -0.176417,0.2390122 -0.176417,0.3414526 0,0.1024385 -0.07612,0.2458675 -0.174521,0.3414515 -0.154634,0.143411 -0.176417,0.211685 -0.176417,0.682907 0,0.464363 -0.02122,0.539514 -0.168829,0.682904 -0.112468,0.09561 -0.18323,0.245083 -0.197284,0.402156 -0.02108,0.225367 -0.04199,0.246988 -0.259884,0.267472 -0.217871,0.02049 -0.2957,-0.0273 -0.865013,-0.58047 -0.463904,-0.443905 -0.618409,-0.643068 -0.618409,-0.77965 0,-0.09561 -0.07612,-0.245084 -0.174521,-0.333865 -0.16167,-0.150245 -0.176416,-0.204852 -0.176416,-0.8536319 0,-0.6487809 0.01475,-0.703392 0.176416,-0.8536326 0.0984,-0.09559 0.174521,-0.2390124 0.174521,-0.3414523 0,-0.10244 0.07801,-0.2458712 0.176417,-0.3414523 0.0984,-0.088781 0.176418,-0.2401525 0.176418,-0.3357627 0,-0.1297562 0.196814,-0.3691269 0.787238,-0.9427888 l 0.792929,-0.7701659 0.358526,0 c 0.288184,0 0.386218,-0.034139 0.519766,-0.1707261 0.161667,-0.1639051 0.197192,-0.1707261 1.05471,-0.1707261 z m 2.460357,1.7072632 c 0.857523,0 0.893047,0.0068 1.054709,0.1707271 0.09137,0.095609 0.244947,0.1707261 0.34335,0.1707261 0.253037,0 1.062298,0.7785283 1.062298,1.0243578 0,0.102436 0.07801,0.2526718 0.176416,0.3414532 0.175721,0.1570743 0.174521,0.1775268 0.174521,1.1950843 0,1.017563 0.0012,1.038036 -0.174521,1.195084 -0.0984,0.09561 -0.176416,0.239014 -0.176416,0.341454 0,0.102439 -0.07801,0.245844 -0.176418,0.341453 -0.0984,0.08875 -0.17452,0.238256 -0.17452,0.333865 0,0.252658 -1.504107,1.71485 -1.764173,1.71485 -0.0984,0 -0.253871,0.07512 -0.345246,0.170728 -0.161662,0.170732 -0.183268,0.170726 -1.223539,0.170726 l -1.060401,0 -0.610821,-0.593749 c -0.442814,-0.430242 -0.620306,-0.650273 -0.620306,-0.766372 0,-0.09561 -0.0837,-0.252292 -0.182108,-0.354731 -0.182713,-0.184391 -0.18341,-0.198009 -0.176417,-1.195085 0.01405,-0.976582 0.02237,-1.023592 0.184005,-1.187496 0.0984,-0.102439 0.17452,-0.253432 0.17452,-0.349041 0,-0.09561 0.07801,-0.245084 0.176418,-0.3338645 0.0984,-0.08878 0.176417,-0.2401529 0.176417,-0.335762 0,-0.2526846 1.504107,-1.7129548 1.764173,-1.7129548 0.09838,0 0.251974,-0.075116 0.343349,-0.1707261 0.161662,-0.1639013 0.197188,-0.1707271 1.05471,-0.1707271 z m -8.090534,0.9560686 c 0.06327,0 0.324194,0.2044827 0.584264,0.4571672 l 0.478033,0.4571672 0,0.6904925 c 0,0.648781 0.01286,0.703388 0.174521,0.853633 0.105432,0.0956 0.176418,0.237873 0.176418,0.347143 0,0.143414 0.119678,0.295158 0.527354,0.663936 0.288184,0.266343 0.527355,0.511047 0.527355,0.552015 0,0.04098 -0.07802,0.122545 -0.176417,0.184006 -0.112463,0.07512 -0.17452,0.177929 -0.17452,0.294028 0,0.109269 -0.07099,0.253431 -0.176418,0.349041 -0.0984,0.08878 -0.176417,0.239013 -0.176417,0.341453 0,0.279992 -0.117921,0.341452 -0.694287,0.341452 l -0.534943,0 -0.787238,-0.764474 -0.794826,-0.772063 0,-0.349041 c -10e-7,-0.280001 -0.03395,-0.374839 -0.174521,-0.504592 -0.154634,-0.143407 -0.176417,-0.211695 -0.176417,-0.682904 0,-0.471222 0.02179,-0.539496 0.176417,-0.682907 0.140581,-0.129748 0.17452,-0.226486 0.174521,-0.5064879 -10e-7,-0.3346307 0.01358,-0.3604046 0.470445,-0.8043104 0.26007,-0.2595095 0.52045,-0.4647546 0.576676,-0.4647546 z m 14.767832,0.4097424 c 0.484992,9e-7 0.556166,0.020483 0.703772,0.1707271 0.09137,0.095609 0.244947,0.1707261 0.34335,0.1707261 0.260065,0 1.413235,1.1188173 1.413235,1.3715013 0,0.09561 0.07801,0.246981 0.176417,0.335763 0.17572,0.157041 0.17452,0.170686 0.17452,1.365811 0,1.195092 0.0012,1.208737 -0.17452,1.365811 -0.0984,0.08875 -0.176417,0.239012 -0.176417,0.341452 0,0.122927 -0.104929,0.279987 -0.350937,0.51218 -0.274124,0.266343 -0.350938,0.381282 -0.350938,0.552014 -10e-7,0.225361 -0.09311,0.301617 -0.38129,0.301617 -0.08435,0 -0.231108,0.07512 -0.322483,0.170726 -0.09137,0.09561 -0.246843,0.170726 -0.345246,0.170726 -0.0984,0 -0.252534,0.07436 -0.350938,0.163139 -0.168695,0.157067 -0.245137,0.170349 -0.870704,0.184005 -0.660712,0.0068 -0.703155,7e-6 -0.88588,-0.170726 -0.126518,-0.116098 -0.267825,-0.176418 -0.415435,-0.176418 -0.379553,0 -0.365378,-0.177166 0.04932,-0.525457 0.267099,-0.225367 0.358526,-0.349794 0.358526,-0.49321 0,-0.109269 0.07098,-0.251534 0.176417,-0.347144 0.0984,-0.09558 0.17452,-0.239012 0.17452,-0.341452 0,-0.10244 0.07801,-0.245871 0.176418,-0.341452 l 0.176417,-0.157448 0,-1.549816 0,-1.549816 -0.176417,-0.157449 c -0.0984,-0.08875 -0.176418,-0.240152 -0.176418,-0.335761 0,-0.1092689 -0.07723,-0.231805 -0.189695,-0.3205864 -0.161661,-0.1297561 -0.182766,-0.1764127 -0.119509,-0.2788527 0.05623,-0.081954 0.147761,-0.1160917 0.288338,-0.102436 0.140576,0.013656 0.254207,-0.034518 0.373701,-0.1574473 0.147604,-0.1570705 0.216884,-0.1707271 0.701876,-0.1707271 z m -3.133778,0.00573 c 0.115098,0.01622 0.234624,0.072843 0.322483,0.1650356 0.09137,0.095609 0.246844,0.1707261 0.345247,0.1707261 0.126518,0 0.309142,0.1293658 0.618409,0.4230222 0.428765,0.4097576 0.441992,0.4374306 0.441992,0.7720616 0,0.286832 0.03584,0.382423 0.176417,0.51218 0.175721,0.157042 0.17452,0.177521 0.17452,1.195084 0,1.017558 0.0012,1.03801 -0.17452,1.195084 -0.0984,0.09561 -0.176417,0.239014 -0.176417,0.341454 0,0.102412 -0.07801,0.245843 -0.176418,0.341452 -0.0984,0.08878 -0.17452,0.238256 -0.17452,0.333865 0,0.252681 -1.153169,1.373398 -1.413234,1.373398 -0.0984,0 -0.251976,0.07512 -0.343351,0.170727 -0.161662,0.16393 -0.198524,0.170726 -1.049018,0.170726 l -0.878293,0 -0.478033,-0.457167 c -0.267099,-0.252684 -0.478034,-0.506867 -0.478034,-0.5615 0,-0.163903 0.218628,-0.347144 0.415434,-0.347144 0.260043,0 1.764173,-1.455342 1.764173,-1.714851 0,-0.09561 0.07801,-0.245084 0.176416,-0.333865 0.0984,-0.09561 0.174521,-0.23904 0.174521,-0.341452 0,-0.102439 0.07804,-0.245844 0.176417,-0.341454 l 0.176417,-0.157447 0,-1.37909 c 0,-0.9765812 0.02021,-1.3935029 0.08347,-1.4549671 0.07029,-0.068288 0.180828,-0.092103 0.295922,-0.075878 z m -15.183265,0.677215 c 0.17572,0 0.29496,0.075106 0.569088,0.341452 0.23195,0.2253655 0.400277,0.3414515 0.519766,0.3414515 0.105433,0 0.282223,0.09522 0.44389,0.252296 l 0.26747,0.252296 0,0.690493 c 0,0.64878 0.01286,0.703388 0.174521,0.853633 0.105435,0.0956 0.176417,0.237874 0.176417,0.347142 0,0.116099 0.06396,0.218904 0.176417,0.29403 0.0984,0.06146 0.174521,0.151376 0.174521,0.199181 0,0.04098 -0.16116,0.211694 -0.350938,0.375598 -0.337391,0.28683 -0.350938,0.306156 -0.350938,0.654451 0,0.29366 -0.02882,0.390009 -0.176416,0.519766 -0.119489,0.109269 -0.176418,0.231045 -0.176418,0.381289 0,0.286828 -0.153352,0.3426 -0.364216,0.130891 -0.09137,-0.0956 -0.239255,-0.170726 -0.337659,-0.170726 -0.246008,0 -1.05471,-0.785333 -1.05471,-1.024359 0,-0.10244 -0.07801,-0.252679 -0.176417,-0.341452 l -0.17452,-0.157449 0,-1.549816 0,-1.549816 0.17452,-0.157448 c 0.0984,-0.08877 0.176417,-0.232941 0.176417,-0.314894 0,-0.081949 0.02065,-0.1984227 0.04173,-0.2598829 0.02812,-0.068288 0.126892,-0.1081276 0.267475,-0.1081266 z M 45.90223,10.688964 c 0.1643,-0.0017 0.330226,0.13695 0.618409,0.413537 l 0.441992,0.423022 0,0.690493 c 0,0.648779 0.01475,0.703393 0.176417,0.853631 0.140584,0.129753 0.176417,0.225349 0.176417,0.51218 0,0.327802 0.02058,0.368756 0.350938,0.682905 0.407674,0.389267 0.448644,0.600948 0.17452,0.853633 -0.0984,0.09561 -0.17452,0.239012 -0.17452,0.341452 0,0.109269 -0.07857,0.251535 -0.184005,0.347144 -0.133583,0.122927 -0.168493,0.205626 -0.140375,0.34904 0.02812,0.136587 0.0074,0.205251 -0.09105,0.259884 -0.112465,0.05463 -0.189294,0.01366 -0.470446,-0.273163 -0.267099,-0.273163 -0.378751,-0.341453 -0.5615,-0.341453 -0.161667,0 -0.23991,-0.03528 -0.275059,-0.130889 -0.02109,-0.07513 -0.119748,-0.184385 -0.218151,-0.239018 -0.126523,-0.08878 -0.162236,-0.150238 -0.127096,-0.273162 0.02811,-0.102439 0.0015,-0.197669 -0.07588,-0.252295 -0.330352,-0.273173 -0.33051,-0.279983 -0.288338,-0.614615 0.0492,-0.327807 0.04124,-0.341069 -0.275059,-0.593748 -0.08434,-0.0683 -0.104333,-0.273516 -0.104333,-1.113516 l 0,-1.024358 0.434403,-0.443889 c 0.284668,-0.283414 0.448419,-0.425109 0.612716,-0.426815 z m 29.177138,1.356326 c 0.316275,0 0.350938,0.101267 0.350938,1.03005 l 0,0.868807 -0.189697,0.136581 c -0.175721,0.122928 -0.197283,0.183618 -0.197283,0.538737 0,0.348295 -0.02011,0.403294 -0.153654,0.464755 -0.126527,0.0478 -0.163139,0.122162 -0.163139,0.29972 0,0.19805 -0.06276,0.29326 -0.350937,0.559603 -0.26007,0.239021 -0.350938,0.368763 -0.350938,0.512179 0,0.204879 -0.436997,0.711359 -0.612717,0.711359 -0.0492,0 -0.09105,0.03377 -0.09105,0.08157 0,0.04781 -0.119308,0.198037 -0.259885,0.341453 -0.182718,0.184387 -0.322278,0.259884 -0.462857,0.259884 -0.154634,-1e-6 -0.28971,0.08156 -0.521664,0.320586 -0.17572,0.184391 -0.336099,0.321693 -0.364216,0.314895 -0.02109,-0.0068 -0.345859,0.01331 -0.71136,0.04743 -0.365499,0.02728 -0.709025,0.03452 -0.751197,0.02086 -0.175725,-0.0683 -0.08453,-0.267086 0.259884,-0.553913 0.267101,-0.218539 0.350938,-0.342206 0.350938,-0.485622 -10e-7,-0.109269 0.07099,-0.251534 0.176417,-0.347144 0.140584,-0.129727 0.176417,-0.225351 0.176417,-0.512178 0,-0.286831 0.03395,-0.382422 0.17452,-0.512179 0.154635,-0.143415 0.176418,-0.212822 0.176418,-0.677215 l 0,-0.51787 1.138176,-1.105928 c 0.878604,-0.86052 1.188633,-1.113546 1.32218,-1.113546 0.126518,0 0.288376,-0.10929 0.527355,-0.341452 0.238984,-0.232196 0.400836,-0.341453 0.527355,-0.341453 z m -20.177961,0.726536 c 0.0861,-0.0077 0.155184,0.04742 0.221944,0.166933 0.04217,0.08195 0.147424,0.13089 0.259884,0.130889 0.246012,0 0.366113,0.108517 0.366113,0.333865 0,0.129757 0.196815,0.369132 0.787239,0.94279 l 0.794826,0.772063 0.358525,0 c 0.288182,0 0.386215,0.03415 0.519767,0.170726 0.238979,0.245886 0.794301,0.245096 1.026256,-0.0076 0.189762,-0.198045 0.265727,-0.169596 0.553911,0.165036 0.147604,0.177562 0.197284,0.299716 0.197284,0.538737 0,0.30049 -0.01329,0.320182 -0.800517,1.08506 -0.611514,0.594146 -0.843946,0.77965 -0.984522,0.779651 -0.09841,0 -0.251975,0.07512 -0.343349,0.170726 -0.161663,0.17073 -0.183828,0.170727 -1.231127,0.170727 -1.047301,0 -1.067564,3e-6 -1.22923,-0.170727 -0.09137,-0.09561 -0.246843,-0.170726 -0.345247,-0.170726 -0.238983,0 -0.709463,-0.451851 -0.709463,-0.677215 0,-0.09561 -0.07803,-0.244703 -0.176417,-0.347143 -0.168727,-0.170728 -0.167528,-0.199142 -0.17452,-1.360121 l -0.01518,-1.179908 0.184005,-0.185903 c 0.147609,-0.150245 0.182108,-0.252285 0.182108,-0.525457 0,-0.286832 0.03518,-0.367627 0.239017,-0.586161 0.130033,-0.136586 0.232586,-0.208571 0.318689,-0.216253 z m -3.721834,0.912438 c 0.06326,0 0.282344,0.170724 0.493209,0.375598 0.358473,0.355129 0.399975,0.375597 0.730329,0.375597 0.309272,0 0.386455,0.02693 0.618409,0.252296 0.260102,0.245856 0.267472,0.259869 0.267472,0.772063 0,0.471222 0.02177,0.539491 0.176416,0.682905 0.140571,0.129758 0.174521,0.225348 0.174521,0.51218 0,0.286826 0.03584,0.382431 0.176417,0.512178 0.0984,0.08878 0.176418,0.238266 0.176418,0.333865 0,0.10244 0.07021,0.231806 0.189695,0.320587 0.302239,0.232197 0.182258,0.369907 -0.316791,0.369907 -0.344412,0 -0.4361,0.02731 -0.576676,0.170726 -0.133548,0.136584 -0.232141,0.170726 -0.527355,0.170726 -0.29521,0 -0.393807,-0.03414 -0.527355,-0.170726 -0.0984,-0.09561 -0.245501,-0.170726 -0.350938,-0.170726 -0.105431,0 -0.252535,-0.07512 -0.350937,-0.170726 -0.112461,-0.116101 -0.239934,-0.170726 -0.394568,-0.170726 -0.23195,0 -0.309204,-0.08991 -0.309204,-0.369908 0,-0.08195 -0.07612,-0.224217 -0.174521,-0.312999 -0.140571,-0.129747 -0.176417,-0.225352 -0.176417,-0.512178 0,-0.286832 -0.03584,-0.382422 -0.176417,-0.51218 -0.140571,-0.129756 -0.174521,-0.225347 -0.174521,-0.512179 0,-0.28683 0.03394,-0.382431 0.174521,-0.512178 0.140585,-0.129756 0.176417,-0.226487 0.176417,-0.506489 0,-0.314144 0.02884,-0.367242 0.295926,-0.633585 0.161667,-0.163898 0.342693,-0.294028 0.40595,-0.294028 z m -24.599774,1.434102 0,0.4363 c 0,1.707318 1.425803,3.510111 3.372794,4.26816 1.117588,0.430239 1.604023,0.518977 2.953566,0.512178 1.026212,0 1.320019,-0.02693 1.769863,-0.14986 1.349543,-0.361949 2.278376,-0.860813 3.114808,-1.693984 0.836436,-0.826342 1.286038,-1.754658 1.356327,-2.813192 l 0.03415,-0.559602 -6.303597,0 z m 44.185882,0 c 0.107493,0.03693 0.136381,0.302547 0.110024,0.840353 -0.02809,0.614633 -0.0497,0.715526 -0.197283,0.872601 -0.09137,0.09561 -0.16883,0.247003 -0.16883,0.335761 0,0.245851 -1.511136,1.707265 -1.764173,1.707265 -0.0984,0 -0.251998,0.07512 -0.343349,0.170726 -0.09137,0.09561 -0.246843,0.170727 -0.345247,0.170727 -0.09841,-1e-6 -0.252534,0.07436 -0.350937,0.163138 -0.168692,0.157066 -0.247035,0.170349 -0.872602,0.184005 -0.660713,0.0068 -0.703131,2e-6 -0.88588,-0.170727 -0.105436,-0.09561 -0.267151,-0.176417 -0.358526,-0.176416 -0.196811,-1e-6 -0.772062,-0.512174 -0.772062,-0.682907 0,-0.06144 0.176115,-0.273158 0.38698,-0.478033 0.274127,-0.259514 0.385082,-0.423397 0.385082,-0.546324 0,-0.10244 0.07801,-0.252672 0.176418,-0.341454 0.0984,-0.08876 0.176417,-0.239012 0.176417,-0.341452 0,-0.280001 0.118481,-0.341452 0.701875,-0.341452 0.484992,0 0.556166,-0.02048 0.703772,-0.170727 0.0984,-0.102435 0.246066,-0.170727 0.358526,-0.170727 0.140577,0 0.272637,-0.08877 0.504591,-0.341453 l 0.316792,-0.341452 0.893468,0 c 0.864552,0 0.898761,-0.0068 1.0604,-0.170726 0.126522,-0.13317 0.22005,-0.192896 0.284544,-0.170726 z m -22.406888,0.326276 c 0.246121,-0.03201 0.578512,0.04306 0.720845,0.191594 0.09137,0.09561 0.237918,0.165034 0.34335,0.165034 0.267097,0 0.350937,0.122913 0.350937,0.51218 0,0.286831 0.03584,0.382422 0.176418,0.512179 0.105431,0.09561 0.176416,0.237875 0.176416,0.347144 0,0.136586 0.09087,0.267841 0.350938,0.493209 l 0.350938,0.307308 0,0.538736 c -10e-7,0.491706 -0.01286,0.560357 -0.174521,0.703773 -0.0984,0.08877 -0.176417,0.239012 -0.176417,0.341452 0,0.280006 -0.119815,0.341452 -0.696185,0.341452 l -0.533045,0 -0.612718,-0.593748 c -0.618538,-0.594146 -0.618409,-0.602082 -0.618409,-0.950376 0,-0.280002 -0.03584,-0.374845 -0.176417,-0.504591 -0.154638,-0.143415 -0.17452,-0.211689 -0.17452,-0.682907 0,-0.471212 0.01988,-0.539499 0.17452,-0.682904 0.147603,-0.129757 0.176417,-0.226112 0.176417,-0.519768 0,-0.273172 0.02736,-0.381291 0.132788,-0.449579 0.05272,-0.03586 0.126624,-0.05952 0.208665,-0.07019 z m 15.824439,0.698081 c 0.527148,0 0.533977,-10e-6 0.808104,0.273163 0.246044,0.245854 0.275262,0.300088 0.254193,0.593748 -0.01405,0.320977 -0.03627,0.348263 -0.802414,1.092649 l -0.787238,0.772063 -0.358526,0 c -0.288181,0 -0.386215,0.03414 -0.519767,0.170726 -0.147605,0.150249 -0.216883,0.170727 -0.701875,0.170727 -0.484992,0 -0.556168,-0.02048 -0.703772,-0.170727 -0.133552,-0.136584 -0.231028,-0.170726 -0.51218,-0.170726 -0.344399,0 -0.365659,-0.01403 -0.956066,-0.567191 -0.330358,-0.307314 -0.605131,-0.593745 -0.605131,-0.627894 0,-0.04098 0.273434,-0.321333 0.610821,-0.635482 l 0.612718,-0.572881 1.392368,0.01328 1.39806,0.0057 0.168829,-0.176417 c 0.147605,-0.15025 0.216883,-0.170727 0.701876,-0.170727 z m -17.947137,0.339556 c 0.13267,0.0128 0.28071,0.0736 0.375599,0.172624 0.09137,0.0956 0.245506,0.170726 0.350937,0.170726 0.309273,0 0.352834,0.109241 0.352834,0.853632 0,0.64878 0.01286,0.703393 0.174521,0.853631 0.154629,0.143416 0.176417,0.211689 0.176417,0.682907 0,0.559992 -0.06354,0.682904 -0.337659,0.682904 -0.246012,10e-7 -1.075459,-0.8191 -1.026255,-1.003491 0.02812,-0.08195 -0.0069,-0.178694 -0.07019,-0.233326 -0.330322,-0.266343 -0.324381,-0.245059 -0.324381,-1.119206 0,-0.464389 0.02254,-0.888916 0.04363,-0.950377 0.03514,-0.08878 0.151875,-0.122828 0.284547,-0.110024 z m 12.745673,1.654149 c 0.02109,-0.0068 0.288275,0.232557 0.597542,0.533046 0.400645,0.396079 0.611396,0.546325 0.737918,0.546325 0.23195,0 0.718273,0.430225 0.662038,0.580469 -0.02812,0.05463 -0.106128,0.13544 -0.176417,0.176417 -0.07732,0.04098 -0.132787,0.137341 -0.132787,0.246605 0,0.232197 -0.4851,0.703772 -0.717051,0.703772 -0.0984,0 -0.246285,0.07512 -0.337659,0.170726 -0.09839,0.09561 -0.245506,0.170726 -0.350938,0.170726 -0.105436,0 -0.254431,0.07512 -0.352834,0.170727 -0.147605,0.150245 -0.216884,0.170727 -0.701875,0.170727 -0.484991,0 -0.556179,-0.02048 -0.703772,-0.170727 -0.0984,-0.09561 -0.245507,-0.170726 -0.350938,-0.170727 -0.105436,0 -0.252535,-0.07512 -0.350937,-0.170726 -0.09137,-0.09561 -0.247403,-0.170726 -0.352835,-0.170726 -0.231951,0 -0.350937,-0.116102 -0.350937,-0.341452 0,-0.102439 -0.07612,-0.252672 -0.174521,-0.341453 -0.140571,-0.129753 -0.176417,-0.225729 -0.176417,-0.498901 0,-0.273173 -0.03584,-0.369143 -0.176417,-0.498901 -0.140583,-0.129757 -0.168155,-0.190831 -0.11192,-0.286441 0.06326,-0.116092 0.141143,-0.122168 0.794825,-0.09485 0.709914,0.02732 0.729904,0.0258 0.891572,-0.151757 0.140576,-0.150242 0.2327,-0.176418 0.534942,-0.176418 0.29521,10e-7 0.393803,-0.03527 0.527355,-0.165034 0.105432,-0.116097 0.252769,-0.176791 0.44958,-0.197284 0.154616,-0.01366 0.301397,-0.02735 0.322483,-0.03414 z m -4.154342,0.09864 c 0.0448,-0.01707 0.08548,-0.01025 0.134684,0.01707 0.119493,0.06146 0.126759,0.13694 0.09864,0.772062 -0.02812,0.689756 -0.02908,0.709837 0.153654,0.866911 0.105429,0.10244 0.184006,0.239776 0.184006,0.34904 0,0.10244 0.07612,0.245845 0.17452,0.341454 0.0984,0.0956 0.176417,0.239016 0.176417,0.341452 0,0.109269 0.08404,0.252671 0.210563,0.375598 0.119494,0.109269 0.210562,0.245847 0.210563,0.307307 -1e-6,0.05463 -0.216631,0.313369 -0.483725,0.572883 -0.477964,0.457563 -0.493364,0.471586 -0.781548,0.430609 -0.253037,-0.03415 -0.322956,-0.0057 -0.519767,0.165036 -0.288181,0.245853 -0.527612,0.25192 -0.745505,0.02655 -0.133548,-0.13662 -0.232145,-0.170763 -0.527355,-0.170764 -0.295214,0 -0.39191,-0.03414 -0.525458,-0.170726 -0.09137,-0.09561 -0.246842,-0.170726 -0.345246,-0.170726 -0.246008,0 -0.709463,-0.450708 -0.709463,-0.682905 0,-0.102435 -0.07801,-0.252672 -0.176418,-0.341454 -0.175719,-0.15706 -0.176416,-0.177525 -0.176416,-1.195083 0,-0.710245 0.02913,-1.058884 0.08536,-1.113516 0.05624,-0.05463 0.45763,-0.08157 1.322181,-0.08157 1.23005,0 1.24398,10e-7 1.405648,-0.170727 0.09137,-0.09561 0.244387,-0.170727 0.335761,-0.170727 0.0984,0 0.246284,-0.07512 0.337659,-0.170726 0.06677,-0.0683 0.116433,-0.110023 0.161242,-0.127096 z m 9.518944,0.639276 c 0.04217,0 0.216392,0.157061 0.385083,0.341453 0.210869,0.239001 0.358543,0.341452 0.478033,0.341452 0.196811,0 0.732227,0.381284 0.732227,0.51787 0,0.05463 -0.07801,0.143412 -0.176417,0.204872 -0.112463,0.0683 -0.176418,0.179069 -0.176418,0.288338 0,0.252684 -0.799775,1.037637 -1.052812,1.037637 -0.105432,0 -0.261479,0.07512 -0.352834,0.170726 -0.0984,0.09561 -0.245502,0.170726 -0.350939,0.170727 -0.105432,-1e-6 -0.252534,0.07512 -0.350937,0.170726 -0.161667,0.170728 -0.183826,0.170726 -1.231127,0.170726 -1.047299,0 -1.067567,2e-6 -1.22923,-0.170726 -0.09137,-0.09561 -0.238696,-0.170726 -0.330071,-0.170726 -0.189778,-1e-6 -0.724638,-0.382048 -0.724638,-0.525458 0,-0.04781 0.02879,-0.08916 0.05691,-0.08916 0.03514,0 0.350432,-0.286432 0.701876,-0.627893 0.477959,-0.471223 0.646863,-0.676452 0.646863,-0.806209 0,-0.300469 0.112149,-0.341452 0.878292,-0.341452 0.667746,0 0.725556,-0.01366 0.88019,-0.170726 0.133546,-0.136584 0.230807,-0.170726 0.533045,-0.170726 0.309271,0 0.379631,-0.02731 0.478034,-0.170727 0.06326,-0.09561 0.155668,-0.170726 0.20487,-0.170724 z m 5.298208,0 c 0.0492,0 0.141615,0.07512 0.204872,0.170726 0.105432,0.157077 0.154843,0.170727 0.646864,0.170727 0.470912,0 0.540986,-0.02048 0.688596,-0.170727 0.189777,-0.198049 0.343248,-0.164285 0.413537,0.08156 0.04217,0.184391 -0.118308,0.430609 -0.294029,0.430609 -0.05624,0 -0.09105,0.08081 -0.09105,0.244708 0,0.218537 -0.07844,0.322841 -0.802414,1.026255 -0.702885,0.682923 -0.835695,0.777754 -1.039534,0.777754 -0.175721,0 -0.252435,0.04059 -0.301616,0.14986 -0.06327,0.136589 -0.119565,0.157447 -0.478034,0.157447 -0.372531,0 -0.429292,0.02086 -0.55581,0.191593 -0.147609,0.191214 -0.14863,0.190051 -0.872601,0.176418 -0.660712,-0.01366 -0.743407,-0.033 -0.883983,-0.176418 -0.08434,-0.08878 -0.233006,-0.157447 -0.324381,-0.157447 -0.210868,-1e-6 -0.4363,-0.176813 -0.4363,-0.333865 0,-0.06146 0.176116,-0.280765 0.38698,-0.485622 0.260069,-0.252684 0.386979,-0.424535 0.386979,-0.540634 0,-0.10244 0.09822,-0.271639 0.259884,-0.428712 0.253037,-0.252711 0.267661,-0.259884 0.794826,-0.259885 0.484991,0 0.554266,-0.02048 0.701875,-0.170726 0.133548,-0.143412 0.232701,-0.170726 0.534943,-0.170726 0.358447,0 0.380103,-0.01367 0.675317,-0.341452 0.168692,-0.184392 0.342912,-0.341453 0.385079,-0.341443 z m -21.498244,0.686699 c 0.08665,-0.0086 0.203093,0.09181 0.419227,0.337658 0.295215,0.327806 0.31685,0.341454 0.675319,0.341454 0.302243,0 0.399498,0.02731 0.533045,0.170726 0.09137,0.09561 0.246844,0.170726 0.345247,0.170727 0.246012,0 0.709462,0.45072 0.709463,0.682904 0,0.10244 0.07801,0.252682 0.176417,0.341454 0.0984,0.08878 0.174521,0.238255 0.174521,0.333864 0,0.10244 0.09219,0.266712 0.225738,0.396465 0.217881,0.218537 0.224939,0.23977 0.119508,0.417332 -0.0984,0.17756 -0.132977,0.184793 -0.660142,0.191592 -0.309271,0.0068 -0.737617,0.02694 -0.94848,0.04743 -0.372531,0.04098 -0.394028,0.03377 -0.506488,-0.157448 -0.08434,-0.150246 -0.175657,-0.204872 -0.309204,-0.204872 -0.253037,1e-6 -0.7378,-0.463988 -0.688597,-0.662038 0.02812,-0.08195 -0.0069,-0.178705 -0.07019,-0.233326 -0.330322,-0.273168 -0.324381,-0.246194 -0.324381,-1.181806 0,-0.498535 0.0212,-0.927997 0.04932,-0.94848 0.02459,-0.02561 0.05079,-0.04075 0.07968,-0.04364 z m 11.328643,2.094243 c 0.08171,0.02988 0.185538,0.134677 0.371805,0.339557 0.189777,0.204883 0.330645,0.294028 0.457167,0.294028 0.203835,0 0.436301,0.176791 0.436301,0.333865 0,0.06146 -0.29542,0.389623 -0.646864,0.737918 -0.470935,0.457559 -0.696762,0.63548 -0.82328,0.63548 -0.0984,10e-7 -0.252535,0.07512 -0.350938,0.170727 -0.17572,0.157065 -0.231771,0.164659 -1.047121,0.178315 -0.850494,0.0068 -0.87252,0.0068 -1.062298,-0.170727 -0.105431,-0.09561 -0.259564,-0.178315 -0.350938,-0.178315 -0.161645,0 -1.026255,-0.703767 -1.026255,-0.840352 0,-0.02732 0.267189,-0.314505 0.597542,-0.635482 l 0.597543,-0.572881 1.223538,0 c 1.215992,-1e-6 1.223115,-7.53e-4 1.384782,-0.178315 0.09839,-0.09903 0.157306,-0.143696 0.239016,-0.113818 z m 5.412026,0.292133 c 0.105432,-1e-6 0.252535,0.07512 0.350938,0.170726 0.0984,0.10244 0.245506,0.170726 0.350937,0.170726 0.140577,0 0.274753,0.08877 0.485622,0.307307 0.154634,0.163903 0.288338,0.334622 0.288338,0.375599 0,0.04098 -0.294639,0.36193 -0.660142,0.71705 -0.576366,0.566836 -0.690188,0.648761 -0.901056,0.648761 -0.175719,0 -0.252414,0.04059 -0.301617,0.149859 -0.06326,0.13659 -0.11956,0.157448 -0.478033,0.157448 -0.365502,0 -0.429291,0.02011 -0.55581,0.184005 -0.126518,0.177561 -0.167902,0.191593 -0.681008,0.191593 -0.513107,0 -0.548918,-0.0068 -0.724638,-0.204872 -0.175721,-0.198033 -0.211055,-0.204875 -0.527355,-0.170726 -0.302244,0.04098 -0.356987,0.02808 -0.504591,-0.128993 -0.0984,-0.102437 -0.24684,-0.178314 -0.345247,-0.178314 -0.203836,0 -0.436301,-0.176791 -0.436301,-0.333865 0,-0.06146 0.29542,-0.389623 0.646863,-0.737918 l 0.654451,-0.635482 1.060401,0 c 1.040271,1e-6 1.061876,7e-6 1.223538,-0.170726 0.09841,-0.09561 0.245506,-0.170726 0.350939,-0.170726 0.10541,0 0.254431,-0.07512 0.352834,-0.170726 0.0984,-0.09561 0.245501,-0.170726 0.350937,-0.170726 z m -10.044402,1.011079 0.225739,0.191593 c 0.302236,0.266343 0.330071,0.306545 0.330071,0.504591 0,0.218538 0.463671,0.682906 0.688596,0.682906 0.17572,0 0.717051,0.382422 0.717051,0.512179 0,0.150244 -0.54111,0.512556 -0.737917,0.4989 -0.133551,-0.01365 -0.231668,0.03414 -0.330071,0.170727 -0.126518,0.170734 -0.169799,0.184005 -0.682906,0.184005 -0.513107,0 -0.547576,-0.0076 -0.730329,-0.21246 -0.133548,-0.150247 -0.22464,-0.197288 -0.330071,-0.163139 -0.112466,0.03415 -0.267337,-0.08156 -0.766372,-0.559603 l -0.618409,-0.601336 -0.03604,-0.525458 c -0.02108,-0.320973 -0.0075,-0.553545 0.04174,-0.601335 0.105432,-0.10244 0.17711,-0.08878 0.352834,0.102435 0.154634,0.163906 0.209653,0.171515 0.842251,0.178314 0.653682,0.0068 0.688733,-7.53e-4 0.857425,-0.178314 z m -3.957058,0.381288 0.961759,0.0076 0.02277,0.246605 c 0.01405,0.15707 0.08293,0.306558 0.195387,0.402155 0.182747,0.170733 0.225941,0.485238 0.08536,0.601336 -0.0492,0.03415 -0.247079,0.06718 -0.443889,0.07398 -0.330354,0 -0.364153,-0.01289 -0.673421,-0.333865 -0.246012,-0.25268 -0.37975,-0.341452 -0.527355,-0.341453 -0.126519,-0.0068 -0.309342,-0.0956 -0.478033,-0.239016 -0.231955,-0.184387 -0.267573,-0.246221 -0.197284,-0.328175 0.07029,-0.08198 0.281532,-0.09596 1.054706,-0.08917 z m 8.729809,0.997802 c 0.105436,0 0.252536,0.07512 0.350938,0.170726 0.0984,0.102435 0.245506,0.170726 0.350938,0.170727 0.140576,0 0.274753,0.08877 0.485621,0.307307 0.323325,0.341461 0.331051,0.355482 0.176417,0.567191 -0.07029,0.10244 -0.175991,0.14986 -0.337659,0.14986 -0.17572,0 -0.267151,0.04856 -0.358525,0.178314 -0.09136,0.136586 -0.154811,0.163902 -0.288337,0.136581 -0.133547,-0.03415 -0.217167,-7.46e-4 -0.371805,0.163138 l -0.189696,0.212459 -0.914335,-0.02086 c -0.864546,-0.02048 -0.906645,-0.02807 -0.976934,-0.178314 -0.05624,-0.116097 -0.126236,-0.149859 -0.330071,-0.149859 -0.274128,-1e-6 -0.352396,-0.06754 -0.394568,-0.333865 -0.01405,-0.129753 0.08374,-0.266701 0.421126,-0.601337 l 0.436301,-0.430609 0.709462,0 c 0.66774,0 0.725551,-0.01366 0.880189,-0.170727 0.0984,-0.09561 0.245527,-0.170727 0.350938,-0.170732 z"
       id="rect5509"
       inkscape:connector-curvature="0"
       sodipodi:nodetypes="cccccsccccscssscccccsccccccsscccccscccccscsccscscccsscscsccccsssccccccsccccscccccscccsccccccccccscccccsccccsccccccccccccccccscscscscccccscccccscscscccccscccscscscscsccsccccssccccscscscsscscscsscscsccscscsccccccccccscsssccsscscsccsscccscsccscscscsssccccccsccscscccsccscccsccscsccccccsccsccccsccccccccsccsscscccccccsccsscscssccccsccccscsssssccscsccscsscccccccscsccsccscscscsscsccccscscccccscsccccccscsccccsscscsccccscscscsccscsscsscscscsscsccscccscsscssccscscscscsscccscscscsscsscscscsssscccscscscccccsccccsscscscscscsscsccssscsccscssssccscscscscscssccccsscssccscsccsccccsccccccsccsssccscscssscscccccscscsccscsscssccscccssscscssccccscsscscscscscscscscsscscssscscscccccccccccsscsccccscscsscsccsccsccscsccscssccscscscsscsccscscscscccccsscsscssccscsccsccsscscscscsscsccccscccsccsscsccccccscsscscscscsscsscsscccscssscsscscsscsccsssscscccsscscscscsccscsscscccccsccsccscsscscccssccscsscscscscscscccssccscsssccsscccscccccccccccccccccccccscsccsccccccscccscscscc" />
    <g
       id="g4"
       transform="matrix(0.08172222,0,0,0.06460296,38.676327,4.058088)"
       style="opacity:1;fill:#000000;fill-opacity:1;stroke:none">
      <g
         id="g6"
         style="fill:#000000;fill-opacity:1">
        <path
           d="m 107.12303,-21.467766 c 0.87242,9.78603 -2.12808,15.3313798 -2.01714,24.2829698 -13.09734,6.23631 -13.97279,30.6771202 -19.1629,48.5659402 -3.74081,12.89316 -8.16239,27.93756 -18.15433,34.21692 -31.61375,19.868986 -83.3536,11.7055 -102.87454,-14.34903 -4.83712,-6.45596 -10.98237,-18.83696 -15.12861,-28.69806 -6.39637,-15.20997 -7.07212,-37.8770202 -25.21435,-29.80183 -6.04639,2.691 -12.40243,26.2521 -17.14575,36.42446 -5.32528,11.41962 -13.10642,25.97064 -20.17148,32.00937 -20.93698,17.89324 -73.86493,21.228836 -95.81452,1.10378 -19.52196,-17.89987 -12.44177,-64.27262 -33.28294,-80.5753202 -0.16944,-8.27608 -2.82501,-13.8324698 -2.01714,-23.1791998 34.66669,-11.59402 87.10145,-6.48797 123.04602,1.10377 17.68634,3.73516 34.50834,11.9637798 53.45441,11.0377098 13.56532,-0.66336 27.80739,-6.0961298 41.35153,-8.8301698 41.66014,-8.41074 85.13069,-13.09625 133.13174,-3.31131 z"
           id="path8"
           inkscape:connector-curvature="0"
           style="clip-rule:evenodd;fill:#000000;fill-opacity:1;fill-rule:evenodd" />
      </g>
    </g>
    <rect
       style="fill:none;fill-opacity:1;stroke:none;stroke-opacity:1"
       id="rect6177"
       width="95.964493"
       height="45.961941"
       x="85.844872"
       y="-21.055534" />
    <path
       inkscape:connector-curvature="0"
       id="path6197"
       style="font-style:normal;font-variant:normal;font-weight:bold;font-stretch:normal;font-size:medium;line-height:125%;font-family:Candara;-inkscape-font-specification:'Candara, Bold';text-align:start;letter-spacing:0px;word-spacing:0px;writing-mode:lr-tb;text-anchor:start;fill:#ffffff;fill-opacity:1;stroke:none;stroke-width:1px;stroke-linecap:butt;stroke-linejoin:miter;stroke-opacity:1"
       d="m 99.126888,9.9857926 -0.160186,4.5770834 -16.639464,0 q 0.240281,-5.6898605 0.240281,-14.29813591 0,-7.89441839 -0.240281,-13.03838809 l 5.626583,0 q -0.240282,4.7660454 -0.240282,13.03838809 0,6.31973391 -0.260305,10.03598991 5.526466,0 11.673654,-0.3149374 z" />
    <path
       inkscape:connector-curvature="0"
       id="path6199"
       style="font-style:normal;font-variant:normal;font-weight:bold;font-stretch:normal;font-size:medium;line-height:125%;font-family:Candara;-inkscape-font-specification:'Candara, Bold';text-align:start;letter-spacing:0px;word-spacing:0px;writing-mode:lr-tb;text-anchor:start;fill:#ffffff;fill-opacity:1;stroke:none;stroke-width:1px;stroke-linecap:butt;stroke-linejoin:miter;stroke-opacity:1"
       d="m 120.91238,4.1279662 q 0,5.2909399 -3.10363,8.2723428 -3.10363,2.981403 -7.30855,2.981403 -4.00469,0 -6.86804,-2.708457 -2.86335,-2.729454 -2.86335,-7.6634656 0,-5.31193574 3.12366,-8.3143342 3.12365,-3.0023985 7.32857,-3.0023985 3.98466,0 6.82799,2.7504489 2.86335,2.72945322 2.86335,7.6844606 z M 115.68627,4.75784 q 0,-3.0443901 -1.3616,-5.10197792 -1.36159,-2.07858358 -3.54415,-2.07858358 -2.12248,0 -3.46404,1.93161302 -1.32156,1.93161308 -1.32156,4.82903248 0,3.0443901 1.3616,5.1229737 1.3616,2.0575883 3.54415,2.0575883 2.12248,0 3.44403,-1.9316135 1.34157,-1.931613 1.34157,-4.8290325 z" />
    <path
       inkscape:connector-curvature="0"
       id="path6201"
       style="font-style:normal;font-variant:normal;font-weight:bold;font-stretch:normal;font-size:medium;line-height:125%;font-family:Candara;-inkscape-font-specification:'Candara, Bold';text-align:start;letter-spacing:0px;word-spacing:0px;writing-mode:lr-tb;text-anchor:start;fill:#ffffff;fill-opacity:1;stroke:none;stroke-width:1px;stroke-linecap:butt;stroke-linejoin:miter;stroke-opacity:1"
       d="m 142.77796,14.562876 -6.26733,0 q 0,-0.566887 -1.64192,-3.779244 -1.56183,-3.0443894 -2.38278,-4.2621454 l -0.28034,0 q -0.66077,0.9448107 -2.16252,4.1991594 -1.50176,3.254347 -1.50176,3.84223 l -5.56651,0 q 0,-0.5039 2.88337,-4.9130162 2.9034,-4.4091166 4.04473,-5.6268727 l 0,-0.3149369 q -0.96113,-1.0917812 -3.48407,-4.7240535 -2.68315,-3.8842218 -2.68315,-4.3671251 l 6.22729,0 q 0,0.5458906 1.34157,3.254348 1.30153,2.62447423 2.00234,3.6112766 l 0.24029,0 q 0.62072,-0.81883603 1.84215,-3.5482892 1.24145,-2.750449 1.24145,-3.3173354 l 5.36628,0 q 0,0.3989201 -2.68313,4.1991587 -2.66312,3.8002387 -3.50411,4.6190746 l 0,0.3149369 q 1.14133,1.3227351 4.00468,5.6898601 2.96347,4.5140951 2.96347,5.1229741 z" />
    <path
       inkscape:connector-curvature="0"
       id="path6203"
       style="font-style:normal;font-variant:normal;font-weight:bold;font-stretch:normal;font-size:medium;line-height:125%;font-family:Candara;-inkscape-font-specification:'Candara, Bold';text-align:start;letter-spacing:0px;word-spacing:0px;writing-mode:lr-tb;text-anchor:start;fill:#ffffff;fill-opacity:1;stroke:none;stroke-width:1px;stroke-linecap:butt;stroke-linejoin:miter;stroke-opacity:1"
       d="m 166.40561,6.3325245 q 0,8.3563255 -13.03525,8.3563255 -2.26265,0 -7.04825,-0.125974 0.2603,-6.3407301 0.2603,-14.29813591 0,-7.64246889 -0.2603,-13.03838809 l 3.2438,0 q 0.92107,0 3.08361,-0.06299 2.18255,-0.06298 3.40397,-0.06298 8.87039,0 8.87039,6.0467881 0,4.6610663 -4.54533,6.17276335 l 0,0.3149369 q 2.42284,0.39892008 4.22495,1.99460045 1.80211,1.5746845 1.80211,4.7030577 z m -5.40633,0.2309537 q 0,-4.1781629 -6.98817,-4.1781629 -1.38162,0 -2.38279,0.1049789 0,4.3881209 0.18021,8.0833808 0.6808,0.167966 2.04239,0.167966 3.70433,0 5.42635,-0.9238148 1.72201,-0.9448107 1.72201,-3.254348 z m -1.46171,-11.7576445 q 0,-3.7582471 -4.48525,-3.7582471 -2.06241,0 -3.66428,0.3149369 0.22026,2.1205753 0.22026,7.2855405 0.76088,0.041992 1.60187,0.041992 6.3274,0 6.3274,-3.8842219 z" />
    <path
       inkscape:connector-curvature="0"
       id="path6205"
       style="font-style:normal;font-variant:normal;font-weight:bold;font-stretch:normal;font-size:medium;line-height:125%;font-family:Candara;-inkscape-font-specification:'Candara, Bold';text-align:start;letter-spacing:0px;word-spacing:0px;writing-mode:lr-tb;text-anchor:start;fill:#ffffff;fill-opacity:1;stroke:none;stroke-width:1px;stroke-linecap:butt;stroke-linejoin:miter;stroke-opacity:1"
       d="m 187.57036,2.4483026 q 0,1.0707855 -0.12013,2.7924406 l -12.89509,0.2309537 q 0.28032,2.3725247 1.94227,3.9472092 1.66194,1.5746849 4.3651,1.5746849 3.00352,0 6.38748,-0.944811 l -0.40047,4.073184 q -2.76323,1.049789 -6.84801,1.049789 -5.16605,0 -7.92928,-3.044389 -2.7432,-3.0443905 -2.7432,-7.3275324 0,-4.47210413 2.60304,-7.7474479 2.62307,-3.2963396 7.2685,-3.2963396 4.24497,0 6.30739,2.4145162 2.0624,2.4145163 2.0624,6.2777423 z m -4.68548,-0.1889621 q 0,-4.8290326 -3.92459,-4.8290326 -3.74438,0 -4.4452,4.996999 l 8.36979,-0.1679664 z" />
    <path
       inkscape:connector-curvature="0"
       id="path6207"
       style="font-style:normal;font-variant:normal;font-weight:bold;font-stretch:normal;font-size:medium;line-height:125%;font-family:Candara;-inkscape-font-specification:'Candara, Bold';text-align:start;letter-spacing:0px;word-spacing:0px;writing-mode:lr-tb;text-anchor:start;fill:#ffffff;fill-opacity:1;stroke:none;stroke-width:1px;stroke-linecap:butt;stroke-linejoin:miter;stroke-opacity:1"
       d="m 204.37002,-5.3831284 -1.16136,4.91301572 q -1.48172,-0.62987382 -3.00351,-0.62987382 -2.94344,0 -3.88454,2.7714448 0,8.3773217 0.12014,12.8914177 l -5.32623,0 q 0.34039,-6.3197343 0.34039,-10.3299309 0,-4.9969989 -1.00117,-9.469103 l 5.10598,-0.5878822 q 0.3404,2.3095373 0.3404,2.7084574 l 0.32037,0 q 1.84215,-2.9604069 4.90574,-2.9604069 1.44169,0 3.24379,0.6928612 z" />
    <path
       inkscape:connector-curvature="0"
       id="path6209"
       style="font-style:normal;font-variant:normal;font-weight:bold;font-stretch:normal;font-size:medium;line-height:125%;font-family:Candara;-inkscape-font-specification:'Candara, Bold';text-align:start;letter-spacing:0px;word-spacing:0px;writing-mode:lr-tb;text-anchor:start;fill:#ffffff;fill-opacity:1;stroke:none;stroke-width:1px;stroke-linecap:butt;stroke-linejoin:miter;stroke-opacity:1"
       d="m 220.14848,-5.3831284 -1.16136,4.91301572 q -1.48173,-0.62987382 -3.00351,-0.62987382 -2.94344,0 -3.88454,2.7714448 0,8.3773217 0.12014,12.8914177 l -5.32623,0 q 0.34039,-6.3197343 0.34039,-10.3299309 0,-4.9969989 -1.00117,-9.469103 l 5.10597,-0.5878822 q 0.34041,2.3095373 0.34041,2.7084574 l 0.32037,0 q 1.84215,-2.9604069 4.90574,-2.9604069 1.44169,0 3.24379,0.6928612 z" />
    <path
       inkscape:connector-curvature="0"
       id="path6211"
       style="font-style:normal;font-variant:normal;font-weight:bold;font-stretch:normal;font-size:medium;line-height:125%;font-family:Candara;-inkscape-font-specification:'Candara, Bold';text-align:start;letter-spacing:0px;word-spacing:0px;writing-mode:lr-tb;text-anchor:start;fill:#ffffff;fill-opacity:1;stroke:none;stroke-width:1px;stroke-linecap:butt;stroke-linejoin:miter;stroke-opacity:1"
       d="m 239.87156,-5.3831284 q 0,1.3647266 -2.86335,8.650267 -3.26383,8.3773214 -4.02471,11.4217114 -1.30152,5.248949 -3.50411,7.243549 -2.12248,1.931613 -6.36744,1.931613 l -0.40047,-4.052188 q 2.4829,0 4.08478,-1.490702 1.60187,-1.469705 1.60187,-3.947209 0,-2.498499 -3.60422,-10.9178122 -3.60421,-8.4403091 -3.60421,-8.8392292 l 6.18724,0 q 0,0.7348528 1.82213,7.117574 1.82213,6.3827213 1.82213,7.8104353 l 0.28033,0 q 0,-1.217756 1.64192,-7.1805615 1.66195,-5.9838011 1.66195,-7.7474478 l 5.26616,0 z" />
  </g>
</svg>
