<?xml version="1.0" encoding="UTF-8" standalone="no"?>
<!-- Created with Inkscape (http://www.inkscape.org/) -->

<svg
   xmlns:dc="http://purl.org/dc/elements/1.1/"
   xmlns:cc="http://creativecommons.org/ns#"
   xmlns:rdf="http://www.w3.org/1999/02/22-rdf-syntax-ns#"
   xmlns:svg="http://www.w3.org/2000/svg"
   xmlns="http://www.w3.org/2000/svg"
   xmlns:sodipodi="http://sodipodi.sourceforge.net/DTD/sodipodi-0.dtd"
   xmlns:inkscape="http://www.inkscape.org/namespaces/inkscape"
   width="79"
   height="50"
   viewBox="0 0 79 50.000002"
   id="svg4288"
   version="1.1"
   inkscape:version="0.91 r13725"
   sodipodi:docname="loxberry_footer_logo.svg">
  <defs
     id="defs4290" />
  <sodipodi:namedview
     id="base"
     pagecolor="#ffffff"
     bordercolor="#666666"
     borderopacity="1.0"
     inkscape:pageopacity="1"
     inkscape:pageshadow="2"
     inkscape:zoom="11.313709"
     inkscape:cx="32.499301"
     inkscape:cy="22.657345"
     inkscape:document-units="px"
     inkscape:current-layer="layer3"
     showgrid="false"
     units="px"
     inkscape:window-width="1920"
     inkscape:window-height="1057"
     inkscape:window-x="-8"
     inkscape:window-y="1072"
     inkscape:window-maximized="1"
     borderlayer="false" />
  <metadata
     id="metadata4293">
    <rdf:RDF>
      <cc:Work
         rdf:about="">
        <dc:format>image/svg+xml</dc:format>
        <dc:type
           rdf:resource="http://purl.org/dc/dcmitype/StillImage" />
        <dc:title></dc:title>
      </cc:Work>
    </rdf:RDF>
  </metadata>
  <g
     inkscape:groupmode="layer"
     id="layer2"
     inkscape:label="Hintergrund"
     transform="translate(0,22.000001)" />
  <g
     inkscape:label="Ebene 1"
     inkscape:groupmode="layer"
     id="layer1"
     transform="translate(0,-1002.3622)" />
  <g
     inkscape:groupmode="layer"
     id="layer3"
     inkscape:label="Text"
     transform="translate(0,22.000001)">
    <path
       style="fill:#3d3d3d;fill-opacity:1;stroke:none;stroke-opacity:1"
       d="m -0.00976563,-0.1640625 0,50.1093745 79.50976563,0 0,-50.1093745 -79.50976563,0 z M 32.796875,1.0195312 c 0.322889,-0.015049 0.657153,0.1086619 1.015625,0.375 0.484991,0.361953 17.9305,17.3185448 18.007812,17.5097658 0.133552,0.307315 0.02055,0.416044 -0.443359,0.443359 -0.309271,0.01366 -0.422308,0.05579 -0.548828,0.185547 -0.0984,0.10244 -0.244177,0.171875 -0.349609,0.171875 -0.105433,0 -0.253159,0.07431 -0.351563,0.169922 -0.09137,0.09561 -0.247295,0.169922 -0.345703,0.169922 -0.133545,1e-6 -0.378326,0.191967 -0.96875,0.765625 -0.723975,0.703414 -0.794922,0.791241 -0.794922,1.023437 0,0.136587 -0.02853,0.266622 -0.05664,0.28711 -0.03514,0.02048 -3.470566,-3.285215 -7.638672,-7.341797 -4.175143,-4.049755 -7.591797,-7.3691407 -7.591797,-7.3691408 0,0 -4.603474,4.4731178 -10.226563,9.9433598 -5.623076,5.463404 -10.319963,9.99127 -10.439453,10.052734 -0.161662,0.08878 -0.384945,0.117187 -0.912109,0.117188 -0.632597,0 -0.745441,-0.02166 -1.125,-0.199219 C 9.7883588,27.20812 9.4147644,26.941177 9.1757812,26.708984 8.6486176,26.203615 8.4316406,25.707347 8.4316406,25.03125 8.4246118,24.116127 7.411786,25.173369 20.232422,12.716797 26.642732,6.4953358 31.963313,1.3534542 32.054688,1.2851562 c 0.0984,-0.061459 0.288335,-0.1504471 0.421874,-0.2050781 0.105433,-0.03585 0.212684,-0.055537 0.320313,-0.060547 z m 0.109375,9.7363278 c 0.05623,0 3.252867,3.059312 7.097656,6.794922 l 7.001953,6.802735 -0.02734,0.832031 -0.0293,0.835937 -0.695313,0.681641 c -0.499049,0.491706 -0.697265,0.732545 -0.697265,0.855469 0,0.109269 -0.125472,0.285381 -0.357422,0.517578 l -0.359375,0.353516 0,1.353515 0,1.359375 0.535156,0.492188 c 0.295215,0.266338 0.533203,0.517616 0.533203,0.558593 0,0.102444 -0.211766,0.200164 -0.359375,0.166016 -0.182749,-0.04781 -0.34375,0.09396 -0.34375,0.3125 0,0.129756 -0.103601,0.28051 -0.349609,0.519531 l -0.353516,0.333985 0,1.03125 c 0,1.017563 5.7e-5,1.038224 0.175781,1.18164 0.147603,0.122927 0.177735,0.212221 0.177735,0.519531 0,0.320977 0.01997,0.381937 0.18164,0.484376 0.147609,0.0956 0.176556,0.151518 0.148438,0.308593 -0.03514,0.157074 0.0063,0.244393 0.273437,0.503907 0.168692,0.170724 0.343768,0.314453 0.378907,0.314453 0.04217,0 0.07031,0.115381 0.07031,0.265625 0,0.204879 -0.0352,0.286218 -0.175781,0.375 -0.175724,0.109268 -0.175781,0.132673 -0.175781,0.986328 0,0.84683 0.0072,0.880021 0.175781,1.023437 0.105431,0.08878 0.175781,0.224721 0.175781,0.333985 0,0.150245 0.148605,0.335435 0.640625,0.820312 0.541222,0.532685 0.668017,0.627899 0.808594,0.59375 0.295207,-0.07512 0.364428,0.05525 0.322266,0.628906 -0.03515,0.49171 -0.01947,0.526525 0.15625,0.683594 0.112451,0.10244 0.18164,0.237418 0.18164,0.353516 0,0.143416 0.126698,0.307995 0.527344,0.697265 0.288185,0.280002 0.527344,0.545945 0.527344,0.59375 0,0.129758 -33.241137,0.162955 -33.59961,0.0332 -0.295209,-0.109264 -0.462959,-0.244463 -0.673828,-0.572265 l -0.167969,-0.259766 0,-8.003906 0,-8.009766 9.087891,-8.832031 c 4.997522,-4.848779 9.131259,-8.824218 9.1875,-8.824219 z m 25.126953,5.888672 1.222656,0 1.230469,0 0.617188,0.59961 c 0.499049,0.48488 0.61914,0.642737 0.61914,0.80664 0,0.143416 0.05628,0.239331 0.175782,0.314453 l 0.177734,0.109375 0,1.400391 0,1.400391 -0.177734,0.107421 c -0.196808,0.122928 -0.238224,0.371094 -0.0625,0.371094 0.05623,0 0.218836,-0.118311 0.359374,-0.261718 l 0.251954,-0.251954 -0.01367,-1.535156 C 62.419544,18.19581 62.411665,18.16684 62.25,18.009766 61.933704,17.702452 62.066753,17.648451 63.085938,17.662109 l 0.921874,0.01172 0.619141,0.609375 c 0.492023,0.471218 0.611311,0.629013 0.576172,0.738281 -0.03514,0.09561 0.01451,0.190556 0.162109,0.320313 l 0.210938,0.191406 0.0078,1.037109 c 0.007,0.867314 -0.0083,1.051832 -0.09961,1.126954 -0.288182,0.232197 -0.317563,0.27457 -0.275391,0.43164 0.02812,0.122928 -4.8e-5,0.184656 -0.140625,0.273438 -0.20384,0.129756 -0.246034,0.375 -0.07031,0.375 0.05624,0 0.234038,-0.131018 0.388672,-0.294922 0.203834,-0.211709 0.266399,-0.328231 0.238281,-0.4375 -0.03512,-0.143411 0.08405,-0.320394 0.259766,-0.375 0.06327,-0.02048 0.08512,-0.314234 0.07813,-1.085938 -0.007,-0.628296 0.02033,-1.084037 0.0625,-1.138672 0.0492,-0.05462 0.266913,-0.08203 0.611328,-0.08203 0.513107,-10e-7 0.549673,0.0061 0.732422,0.210938 0.133551,0.150245 0.224646,0.198209 0.330078,0.164062 0.112461,-0.03415 0.23726,0.04625 0.595703,0.394531 0.435794,0.423418 0.451172,0.450512 0.451172,0.771485 -0.007,0.396095 -0.08484,0.507812 -0.337891,0.507812 -0.140576,0 -0.408456,0.210649 -1.146484,0.914063 -0.534222,0.505364 -0.968749,0.968803 -0.96875,1.023437 0,0.232193 0.245539,0.08335 0.90625,-0.572265 0.506078,-0.498506 0.738712,-0.683595 0.865234,-0.683594 0.09137,-10e-7 0.246516,-0.07431 0.337891,-0.169922 0.14758,-0.157074 0.218474,-0.178691 0.548828,-0.158203 0.344415,0.02048 0.385984,8.1e-4 0.519531,-0.169922 0.189781,-0.252684 0.462189,-0.247778 0.701172,0.02539 0.175721,0.191221 0.217674,0.206991 0.505859,0.166015 l 0.31836,-0.04883 0.638672,0.613281 0.630859,0.623047 -0.02539,0.34961 c -0.01405,0.191216 -0.04923,0.367243 -0.07031,0.394531 -0.02812,0.02048 -0.284081,0.04883 -0.572266,0.04883 -0.47093,0.0068 -0.546936,0.02555 -0.722656,0.189453 -0.105403,0.10244 -0.274644,0.185547 -0.373047,0.185547 -0.11949,0 -0.392766,0.212442 -0.955078,0.751953 -0.435786,0.409759 -0.792969,0.791069 -0.792969,0.845703 0,0.225368 0.236496,0.09619 0.728516,-0.402343 0.365503,-0.368782 0.562931,-0.511719 0.689453,-0.511719 0.09137,0 0.246516,-0.07431 0.337891,-0.169922 0.09841,-0.09561 0.246131,-0.171875 0.351562,-0.171875 0.105404,0 0.251585,-0.06942 0.335938,-0.158203 0.140577,-0.150245 0.218195,-0.163094 0.878906,-0.169922 0.709918,-0.0068 0.716473,-0.0076 0.90625,0.197266 0.18275,0.191221 0.227444,0.206991 0.515625,0.166015 0.316301,-0.04781 0.314604,-0.04936 0.771484,0.394531 0.379553,0.368783 0.457031,0.484565 0.457031,0.675782 0,0.170733 0.04457,0.247116 0.164063,0.294922 0.147609,0.06146 0.153163,0.109059 0.160156,0.785156 0.007,0.396095 0.03361,0.778393 0.05469,0.853516 0.03515,0.0956 0.0086,0.176851 -0.08984,0.265624 -0.133546,0.116099 -0.140284,0.116045 -0.294922,-0.05469 -0.0984,-0.109269 -0.233242,-0.175782 -0.345703,-0.175781 -0.105432,0 -0.251206,-0.07626 -0.349609,-0.171875 -0.133547,-0.136586 -0.23213,-0.169922 -0.527344,-0.169922 -0.295214,0 -0.393796,-0.03529 -0.527344,-0.171875 -0.133518,-0.136586 -0.232131,-0.169921 -0.527344,-0.169922 -0.302244,0 -0.39458,0.03237 -0.535156,0.175781 -0.147575,0.157074 -0.204787,0.170865 -0.5,0.136719 -0.253037,-0.03415 -0.349633,-0.01945 -0.419922,0.0625 -0.238979,0.280002 -0.289108,0.306596 -0.429687,0.265625 -0.126519,-0.02732 -0.258329,0.06186 -0.63086,0.410156 -0.260066,0.245855 -0.472656,0.492241 -0.472656,0.546875 0,0.204879 0.225117,0.108057 0.5625,-0.240234 0.26007,-0.266343 0.373085,-0.340787 0.478516,-0.306641 0.09135,0.02732 0.175024,0.0077 0.238281,-0.06055 0.274123,-0.320972 0.22505,-0.30664 1.525391,-0.30664 1.237078,0 1.2524,-8.11e-4 1.414062,0.169922 0.09137,0.09561 0.245347,0.169921 0.34375,0.169922 0.133518,0 0.336874,0.157704 0.800781,0.615234 0.520135,0.519024 0.611328,0.640811 0.611329,0.832031 0,0.170733 0.04262,0.247121 0.162109,0.294922 0.154634,0.0683 0.15625,0.08913 0.15625,1.332031 0,1.242926 -0.0016,1.263735 -0.15625,1.332032 -0.119491,0.0478 -0.16211,0.121266 -0.162109,0.298828 0,0.184391 -0.07002,0.294235 -0.365235,0.58789 -0.203807,0.19805 -0.554375,0.546121 -0.779297,0.771485 -0.506078,0.512202 -0.611328,0.497475 -0.611328,-0.0625 0,-0.348291 0.01919,-0.41611 0.173828,-0.511719 0.224922,-0.143416 0.224922,-0.253082 0,-0.396484 -0.168658,-0.109265 -0.17421,-0.141094 -0.160156,-0.619141 0.01405,-0.471223 -0.002,-0.52752 -0.177734,-0.705078 -0.105436,-0.102439 -0.189454,-0.264734 -0.189454,-0.353516 0,-0.239026 -1.159487,-1.367187 -1.398437,-1.367187 -0.0984,0 -0.251201,-0.07528 -0.349609,-0.164063 -0.168691,-0.157069 -0.248332,-0.170947 -1.091797,-0.191406 -0.688798,-0.01366 -0.911335,7.2e-5 -0.939453,0.06836 -0.05621,0.163903 -0.248095,0.293913 -0.388672,0.259766 -0.175724,-0.04098 -0.398438,0.06946 -0.398438,0.199219 0,0.05463 0.06214,0.128954 0.146485,0.169921 0.154639,0.08191 0.484375,0.03993 0.484375,-0.0625 0,-0.03414 0.05002,-0.115287 0.113281,-0.169921 0.08435,-0.08878 0.267769,-0.109375 0.830078,-0.109375 0.674769,0 0.730128,0.0079 0.884766,0.171875 0.09137,0.09561 0.245346,0.169921 0.34375,0.169921 0.26007,0 1.414063,1.11841 1.414062,1.371094 0,0.09561 0.07738,0.247157 0.175781,0.335938 0.175724,0.157072 0.173828,0.177754 0.173828,1.195312 0,1.017563 0.0019,1.038239 -0.173828,1.195313 -0.0984,0.08875 -0.175781,0.239357 -0.175781,0.341797 0,0.122927 -0.105549,0.279527 -0.351562,0.511718 -0.238979,0.232198 -0.353516,0.388791 -0.353516,0.511719 0,0.225333 -0.117658,0.341797 -0.349609,0.341797 -0.105432,0 -0.260188,0.07627 -0.351563,0.171875 -0.0984,0.09561 -0.24613,0.169922 -0.351562,0.169922 -0.105437,0 -0.253188,0.07431 -0.351563,0.169922 -0.147604,0.15025 -0.22398,0.171875 -0.673828,0.171875 -0.281156,0 -0.555884,-0.02248 -0.619141,-0.04297 -0.182755,-0.0683 -0.141311,-0.456233 0.0625,-0.640625 0.154634,-0.143416 0.177735,-0.212371 0.177735,-0.683594 0,-0.471219 0.0192,-0.538225 0.173828,-0.68164 0.140585,-0.129757 0.175781,-0.224893 0.175781,-0.511719 0,-0.286832 -0.0352,-0.383919 -0.175781,-0.513672 -0.154635,-0.143386 -0.173828,-0.211391 -0.173828,-0.675781 l 0,-0.519532 -0.964844,-0.933593 -0.96875,-0.94336 -1.224609,0 -1.230469,0 -0.195313,0.183594 c -0.267096,0.245856 -0.77353,0.240945 -1.054687,-0.02539 -0.161662,-0.150235 -0.238058,-0.171874 -0.708984,-0.171874 l -0.521485,0.0059 -0.519531,-0.511719 c -0.37956,-0.368783 -0.562545,-0.505858 -0.703125,-0.505859 -0.0984,0 -0.254328,-0.07431 -0.345703,-0.169922 -0.133535,-0.136629 -0.232164,-0.169922 -0.527344,-0.169922 -0.400646,0 -0.527344,-0.08326 -0.527344,-0.335937 0,-0.252685 -0.80751,-1.031251 -1.060547,-1.03125 -0.309273,0 -0.363662,-0.135486 -0.349609,-0.873047 0.01405,-0.635122 0.0058,-0.67694 -0.169922,-0.833985 -0.0984,-0.08878 -0.175781,-0.240327 -0.175781,-0.335937 0,-0.252685 -1.153998,-1.371094 -1.414063,-1.371094 -0.09841,0 -0.250431,-0.07431 -0.341796,-0.169922 -0.161663,-0.170733 -0.185122,-0.171875 -1.232422,-0.171875 -1.047301,0 -1.066849,0.0011 -1.228516,0.171875 -0.133547,0.136587 -0.231346,0.169922 -0.519531,0.169922 l -0.359375,0 -0.914063,0.888672 c -0.49905,0.484847 -0.955484,0.886719 -1.011719,0.886719 -0.224916,0 -0.359374,-0.219095 -0.359374,-0.574219 0,-0.273168 -0.03482,-0.376129 -0.189454,-0.533203 -0.168695,-0.170733 -0.183967,-0.226035 -0.169922,-0.683594 0.01405,-0.423413 0.0438,-0.523612 0.191407,-0.673828 0.133542,-0.136587 0.167968,-0.247334 0.167969,-0.513672 0,-0.314149 0.02315,-0.359684 0.353515,-0.673828 0.246008,-0.232196 0.349609,-0.390773 0.349609,-0.513672 0,-0.10244 0.07074,-0.246173 0.16211,-0.328125 0.08434,-0.07513 0.196891,-0.191459 0.246094,-0.246094 0.0492,-0.06146 0.176601,-0.107422 0.289062,-0.107422 0.112461,0 0.259044,-0.06944 0.357422,-0.171875 0.0984,-0.09561 0.246138,-0.169922 0.351562,-0.169922 0.105432,0 0.25316,-0.07627 0.351563,-0.171874 0.154634,-0.157075 0.209207,-0.169922 0.876953,-0.169922 0.66774,-1e-6 0.726226,0.01285 0.88086,0.169922 0.133543,0.136577 0.231349,0.171875 0.519531,0.171874 0.337386,0 0.373189,0.01212 0.794922,0.421876 0.316296,0.30731 0.441406,0.478639 0.441406,0.601562 0,0.109241 0.07817,0.252046 0.183594,0.347656 0.154598,0.143416 0.174602,0.206325 0.146484,0.472656 -0.04217,0.334608 0.0356,0.546875 0.197266,0.546876 0.175721,-1e-6 0.232404,-0.220224 0.197265,-0.732422 -0.03515,-0.402925 -0.07154,-0.519659 -0.205078,-0.642578 -0.09137,-0.08195 -0.16797,-0.232514 -0.167969,-0.328126 0,-0.239017 -0.462201,-0.687499 -0.701171,-0.6875 -0.126519,0 -0.288365,-0.109628 -0.527344,-0.341796 l -0.345703,-0.341797 -1.236329,0 c -1.230039,0 -1.244584,0.0011 -1.40625,0.171875 -0.09839,0.102435 -0.246922,0.169922 -0.359374,0.169922 -0.147609,-1e-6 -0.273909,0.08814 -0.50586,0.347656 -0.274127,0.307315 -0.330512,0.341731 -0.457031,0.273437 -0.133521,-0.06829 -0.146468,-0.122475 -0.111328,-0.539062 0.0492,-0.635121 0.08559,-0.765624 0.205078,-0.765625 0.133553,0 0.238657,-0.191566 0.189453,-0.355469 -0.02108,-0.08878 0.181874,-0.332592 0.779297,-0.90625 0.709914,-0.682926 0.843036,-0.789062 1.046875,-0.789062 0.175691,0 0.251578,-0.0382 0.300781,-0.154297 0.07029,-0.143411 0.100362,-0.151376 1.175781,-0.158203 1.075416,-0.01366 1.103179,-0.0067 1.257813,0.15039 0.08434,0.08878 0.237529,0.16211 0.335937,0.16211 0.133547,0 0.382233,0.19392 0.972657,0.767578 l 0.792968,0.771484 0,0.517578 c 0,0.464393 0.02115,0.534323 0.175782,0.677735 0.147606,0.129728 0.175781,0.224901 0.175781,0.52539 0,0.307315 -0.02817,0.375093 -0.175781,0.470703 -0.196804,0.122928 -0.238219,0.36914 -0.0625,0.369141 0.05623,-10e-7 0.231301,-0.129052 0.378906,-0.279297 l 0.273437,-0.287109 -0.04102,-0.486328 c -0.02812,-0.382442 -0.07661,-0.518694 -0.203125,-0.66211 -0.147576,-0.150216 -0.169922,-0.236757 -0.169922,-0.673828 l 0,-0.513672 -0.78711,-0.765625 C 57.86506,17.831631 57.640581,17.654297 57.5,17.654297 c -0.105431,0 -0.234,-0.04791 -0.283203,-0.109375 -0.08432,-0.10244 -0.07535,-0.123113 0.03711,-0.191406 0.07029,-0.04098 0.274279,-0.218927 0.457032,-0.396485 l 0.322265,-0.3125 z m -6.53125,3.064453 c 0.115097,-0.01622 0.22854,0.0079 0.298828,0.07617 0.133548,0.129753 0.09602,0.21887 -0.128906,0.341797 -0.168728,0.09561 -0.203899,0.15051 -0.175781,0.273438 0.02812,0.116098 -0.007,0.205196 -0.140625,0.328125 -0.175683,0.157071 -0.182023,0.195939 -0.167969,0.83789 0.007,0.64195 -6.1e-5,0.683766 -0.175781,0.861328 -0.0984,0.102437 -0.183595,0.259859 -0.183594,0.355469 0,0.09561 -0.07543,0.247156 -0.173828,0.335938 -0.154634,0.143415 -0.175781,0.211392 -0.175781,0.675781 l 0,0.511719 -0.4375,0.429687 c -0.309271,0.300485 -0.491847,0.431641 -0.611328,0.431641 -0.253041,0 -1.060547,0.784415 -1.060547,1.023437 0,0.102437 -0.07738,0.253016 -0.175782,0.341797 -0.105432,0.09561 -0.175781,0.239375 -0.175781,0.355469 0,0.122928 -0.05628,0.223705 -0.175781,0.298828 -0.161666,0.10244 -0.189903,0.10244 -0.351563,0 l -0.18164,-0.115234 0.01953,-1.583985 c 0.02109,-1.557069 0.02311,-1.584059 0.177734,-1.652343 0.119485,-0.04781 0.159775,-0.130089 0.173829,-0.341797 0.01404,-0.204875 0.05708,-0.287163 0.183593,-0.341797 0.119484,-0.05463 0.154297,-0.124216 0.154297,-0.322266 0,-0.191216 0.04185,-0.278419 0.189453,-0.380859 0.140585,-0.10244 0.189835,-0.18471 0.175781,-0.328125 -0.01404,-0.1639 0.105698,-0.314111 0.773438,-0.962891 0.604482,-0.587316 0.835995,-0.771484 0.976562,-0.771484 0.0984,0 0.254329,-0.07431 0.345704,-0.169922 0.0984,-0.09561 0.244177,-0.171875 0.349609,-0.171875 0.105434,0 0.253159,-0.07431 0.351563,-0.169922 0.08785,-0.09219 0.20716,-0.149791 0.322265,-0.166016 z m 4.070313,4.775391 c 0.66774,0 0.724272,0.0148 0.878906,0.171875 0.09137,0.09561 0.2473,0.169921 0.345703,0.169922 0.133547,-1e-6 0.345079,0.156674 0.794922,0.59375 l 0.617187,0.601562 0,0.359375 c 0,0.259514 0.02816,0.369168 0.105469,0.396485 0.06326,0.02732 0.141421,0.103582 0.183594,0.171875 0.05624,0.109269 0.02063,0.17109 -0.197266,0.36914 l -0.267578,0.240235 -1.060547,0 c -1.040271,0 -1.060993,-8.11e-4 -1.222656,0.169922 -0.09137,0.09561 -0.2473,0.169921 -0.345703,0.169922 -0.260066,0 -1.763672,1.460206 -1.763672,1.71289 0,0.09561 -0.07738,0.247156 -0.175781,0.335938 -0.0984,0.08878 -0.175782,0.237414 -0.175782,0.326172 0,0.198038 -0.182088,0.425781 -0.34375,0.425781 -0.06326,0 -0.401292,-0.289399 -0.759765,-0.63086 l -0.652344,-0.632812 0,-1.03125 c 0,-1.010728 -0.0019,-1.030426 0.173828,-1.1875 0.0984,-0.08878 0.175781,-0.240327 0.175781,-0.335938 0,-0.136582 0.22684,-0.396231 0.964844,-1.113281 l 0.96875,-0.941406 0.359375,0 c 0.288181,0 0.385993,-0.03334 0.519531,-0.169922 0.154634,-0.157074 0.209209,-0.171875 0.876954,-0.171875 z m -5.181641,0.701172 c 0.08962,0.035 0.146864,0.14909 0.115234,0.316406 -0.02812,0.129757 0.007,0.218873 0.140625,0.341797 0.105425,0.09561 0.18164,0.244237 0.181641,0.339844 0,0.09561 0.0852,0.253038 0.183594,0.355468 0.17572,0.177563 0.182774,0.226207 0.175781,0.861329 -0.007,0.621462 -0.01998,0.676883 -0.181641,0.80664 -0.217898,0.177558 -0.217898,0.258928 0,0.402344 0.161666,0.102439 0.173828,0.14991 0.173829,0.648437 0,0.498532 0.01412,0.545999 0.175781,0.648438 0.0984,0.06146 0.177734,0.142618 0.177734,0.183594 0,0.04098 -0.239164,0.288344 -0.527344,0.554687 l -0.527343,0.476563 0,0.363281 c 0,0.443897 -0.106018,0.538061 -0.548828,0.517578 -0.3163,-0.01366 -0.366993,-0.04059 -0.94336,-0.607422 -0.463905,-0.437071 -0.617187,-0.634901 -0.617187,-0.771484 0,-0.09561 -0.07738,-0.245212 -0.175782,-0.333985 -0.175721,-0.157066 -0.175781,-0.170117 -0.175781,-1.365234 0,-1.195126 6e-5,-1.208164 0.175781,-1.365234 0.0984,-0.09561 0.175782,-0.239357 0.175782,-0.341797 0,-0.10244 0.07737,-0.246187 0.175781,-0.341797 0.0984,-0.08877 0.175781,-0.240327 0.175781,-0.335938 0,-0.252676 0.800485,-1.029295 1.060547,-1.029296 0.119494,0 0.225413,-0.06261 0.302734,-0.171875 0.09489,-0.143415 0.217023,-0.187344 0.306641,-0.152344 z m -3.654297,1.359375 c 0.131792,-0.04194 0.247251,0.168031 0.205078,0.480469 -0.03514,0.266343 -0.01979,0.299194 0.345703,0.667968 l 0.378907,0.390625 0,1.19336 c 0,1.181462 6.1e-5,1.196441 0.175781,1.353515 0.147603,0.129757 0.175781,0.225897 0.175781,0.533203 0,0.355125 -0.01339,0.381143 -0.34375,0.667969 -0.260066,0.225368 -0.358994,0.363439 -0.373047,0.527344 -0.01405,0.150239 -0.07738,0.245187 -0.210937,0.320313 l -0.197266,0.101562 -0.667969,-0.662109 c -0.470933,-0.464389 -0.667968,-0.702262 -0.667968,-0.81836 0,-0.09561 -0.07543,-0.239348 -0.173829,-0.328125 -0.175712,-0.157069 -0.177734,-0.172053 -0.177734,-1.353515 l 0,-1.195313 0.394531,-0.375 c 0.288187,-0.280002 0.379681,-0.410267 0.351563,-0.519531 -0.02812,-0.10244 0.04266,-0.212119 0.267578,-0.423828 0.17572,-0.157075 0.342595,-0.347736 0.384766,-0.429688 0.04217,-0.07513 0.08888,-0.116881 0.132812,-0.130859 z m 10.769531,1.353516 c 0.857498,0 0.893025,0.008 1.054688,0.171874 0.09137,0.09561 0.24613,0.169922 0.351562,0.169922 0.119489,0 0.281324,0.09689 0.492188,0.308594 0.309271,0.307319 0.309344,0.311706 0.210937,0.496094 -0.09838,0.163879 -0.161444,0.18459 -0.505859,0.205078 -0.309267,0.01366 -0.422306,0.05579 -0.548828,0.185547 -0.09137,0.09561 -0.245346,0.169922 -0.34375,0.169922 -0.260069,0 -1.765625,1.460207 -1.765625,1.71289 0,0.09561 -0.07543,0.247157 -0.173828,0.335938 -0.09837,0.09558 -0.177735,0.239356 -0.177735,0.341797 0,0.102438 -0.07543,0.246213 -0.173828,0.341797 C 55.771147,32.481302 55.75,32.550262 55.75,33.021484 c 0,0.464363 -0.02231,0.538251 -0.169922,0.681641 -0.112468,0.09561 -0.183212,0.245271 -0.197266,0.402344 -0.02107,0.225367 -0.04187,0.247094 -0.259765,0.267578 -0.217871,0.02049 -0.295922,-0.02691 -0.865235,-0.580078 -0.463895,-0.443905 -0.617187,-0.642715 -0.617187,-0.779297 0,-0.09561 -0.07738,-0.245212 -0.175781,-0.333984 -0.16167,-0.150245 -0.175781,-0.204736 -0.175782,-0.853516 0,-0.648781 0.01412,-0.703275 0.175782,-0.853516 0.0984,-0.09559 0.175781,-0.239357 0.175781,-0.341797 0,-0.10244 0.07737,-0.246215 0.175781,-0.341797 0.0984,-0.08877 0.175781,-0.240327 0.175782,-0.335937 0,-0.129756 0.196685,-0.369698 0.787109,-0.943359 l 0.792969,-0.769532 0.359375,0 c 0.288184,0 0.385983,-0.03333 0.519531,-0.169922 0.161667,-0.163897 0.197169,-0.171874 1.054687,-0.171874 z m 2.460938,1.707031 c 0.857523,0 0.893025,0.0079 1.054687,0.171875 0.09137,0.09561 0.245347,0.169922 0.34375,0.169922 0.253037,0 1.060547,0.779561 1.060547,1.02539 0,0.102436 0.07933,0.253016 0.177735,0.341797 0.175721,0.157074 0.173828,0.17581 0.173828,1.193359 0,1.017563 0.0019,1.038265 -0.173828,1.195313 -0.0984,0.09561 -0.177735,0.239357 -0.177735,0.341797 0,0.102439 -0.07737,0.246188 -0.175781,0.341797 -0.0984,0.08875 -0.173828,0.238375 -0.173828,0.333984 0,0.252658 -1.503606,1.714844 -1.763672,1.714844 -0.0984,0 -0.254328,0.07431 -0.345703,0.169922 -0.161662,0.170732 -0.184347,0.171875 -1.224609,0.171875 l -1.060547,0 -0.609375,-0.59375 c -0.442814,-0.430242 -0.621094,-0.651479 -0.621094,-0.767578 0,-0.09561 -0.08323,-0.251077 -0.181641,-0.353516 -0.182713,-0.184391 -0.184727,-0.198245 -0.177734,-1.195312 0.01405,-0.976582 0.02391,-1.023605 0.185547,-1.1875 0.0984,-0.102439 0.173828,-0.254001 0.173828,-0.34961 0,-0.09561 0.07737,-0.245204 0.175781,-0.333984 0.0984,-0.08878 0.177734,-0.240329 0.177735,-0.335938 0,-0.252684 1.503605,-1.71289 1.763671,-1.71289 0.09838,0 0.252375,-0.07431 0.34375,-0.169922 0.161662,-0.163902 0.197166,-0.171875 1.054688,-0.171875 z M 51.875,30.5625 c 0.06327,0 0.325868,0.204347 0.585938,0.457031 l 0.476562,0.457031 0,0.691407 c 0,0.648781 0.01412,0.70327 0.175781,0.853515 0.105432,0.0956 0.175781,0.236434 0.175781,0.345704 0,0.143405 0.119668,0.295284 0.527344,0.664062 0.288184,0.266343 0.527344,0.511766 0.527344,0.552734 0,0.04098 -0.07738,0.122133 -0.175781,0.183594 -0.112463,0.07512 -0.175782,0.178823 -0.175781,0.294922 0,0.109269 -0.07035,0.252046 -0.175782,0.347656 -0.0984,0.08878 -0.175781,0.239357 -0.175781,0.341797 0,0.279992 -0.118947,0.341797 -0.695313,0.341797 l -0.535156,0 -0.787109,-0.763672 -0.794922,-0.773437 0,-0.347657 c -10e-7,-0.280001 -0.03326,-0.376106 -0.173828,-0.505859 -0.154634,-0.143407 -0.175781,-0.210432 -0.175781,-0.681641 0,-0.471222 0.02115,-0.540182 0.175781,-0.683593 0.140581,-0.129748 0.173827,-0.225858 0.173828,-0.50586 -10e-7,-0.33463 0.01384,-0.360781 0.470703,-0.804687 0.26007,-0.25951 0.519946,-0.464844 0.576172,-0.464844 z m 14.769531,0.410156 c 0.484992,1e-6 0.555519,0.01968 0.703125,0.169922 0.09137,0.09561 0.245347,0.171875 0.34375,0.171875 0.260065,0 1.41211,1.11841 1.41211,1.371094 0,0.09561 0.07933,0.247155 0.177734,0.335937 0.17572,0.157041 0.173828,0.17011 0.173828,1.365235 0,1.195092 0.0019,1.20816 -0.173828,1.365234 -0.0984,0.08875 -0.177734,0.239357 -0.177734,0.341797 0,0.122927 -0.103602,0.279526 -0.34961,0.511719 -0.274124,0.266343 -0.351562,0.382002 -0.351562,0.552734 -10e-7,0.225361 -0.09268,0.300781 -0.38086,0.300781 -0.08435,0 -0.23089,0.07627 -0.322265,0.171875 -0.09137,0.09561 -0.2473,0.169922 -0.345703,0.169922 -0.0984,0 -0.253159,0.07528 -0.351563,0.164063 -0.168695,0.157067 -0.245527,0.169938 -0.871094,0.183594 -0.660712,0.0068 -0.70204,8.11e-4 -0.884765,-0.169922 -0.126518,-0.116098 -0.268406,-0.177735 -0.416016,-0.177735 -0.379553,0 -0.36587,-0.177099 0.04883,-0.52539 0.267099,-0.225367 0.359375,-0.348772 0.359375,-0.492188 0,-0.109269 0.07035,-0.252046 0.175781,-0.347656 0.0984,-0.09558 0.175782,-0.239357 0.175782,-0.341797 0,-0.10244 0.07737,-0.246216 0.175781,-0.341797 l 0.175781,-0.15625 0,-1.550781 0,-1.548828 -0.175781,-0.158203 c -0.0984,-0.08875 -0.175781,-0.240329 -0.175781,-0.335938 0,-0.109269 -0.07895,-0.231531 -0.191406,-0.320312 -0.161661,-0.129756 -0.182398,-0.176857 -0.119141,-0.279297 0.05623,-0.08195 0.148485,-0.115218 0.289062,-0.101563 0.140576,0.01366 0.253553,-0.03527 0.373047,-0.158203 0.147604,-0.15707 0.218133,-0.169922 0.703125,-0.169922 z m -3.134765,0.0059 c 0.115098,0.01622 0.234406,0.07187 0.322265,0.164062 0.09137,0.09561 0.2473,0.171875 0.345703,0.171875 0.126518,0 0.309874,0.128219 0.619141,0.421875 0.428765,0.409758 0.441406,0.436862 0.441406,0.771484 0,0.286832 0.03521,0.383915 0.175781,0.513672 0.175721,0.157042 0.175782,0.17775 0.175782,1.195313 0,1.017558 -6.2e-5,1.036285 -0.175782,1.193359 -0.09839,0.09561 -0.175781,0.239357 -0.175781,0.341797 0,0.102412 -0.07737,0.246188 -0.175781,0.341797 -0.0984,0.08878 -0.175781,0.238375 -0.175781,0.333984 0,0.252681 -1.152045,1.373047 -1.41211,1.373047 -0.0984,0 -0.252375,0.07627 -0.34375,0.171875 -0.161662,0.16393 -0.198334,0.169922 -1.048828,0.169922 l -0.878906,0 -0.478516,-0.457031 C 60.45751,37.432863 60.246094,37.179633 60.246094,37.125 c 0,-0.163903 0.219209,-0.347656 0.416015,-0.347656 0.260043,0 1.763672,-1.455335 1.763672,-1.714844 0,-0.09561 0.07933,-0.245203 0.177735,-0.333984 0.0984,-0.09561 0.173828,-0.239385 0.173828,-0.341797 0,-0.102439 0.0774,-0.246187 0.175781,-0.341797 l 0.177734,-0.15625 0,-1.38086 c 0,-0.976573 0.02072,-1.391668 0.08398,-1.453124 0.07029,-0.06829 0.179828,-0.0924 0.294922,-0.07617 z m -15.183594,0.675781 c 0.17572,0 0.296184,0.07545 0.570312,0.341797 0.23195,0.225365 0.400043,0.341797 0.519532,0.341797 0.105433,0 0.281692,0.09488 0.443359,0.251953 l 0.267578,0.251953 0,0.691406 c 0,0.64878 0.01217,0.703271 0.173828,0.853516 0.105435,0.0956 0.177735,0.238388 0.177735,0.347656 0,0.116099 0.06332,0.217843 0.175781,0.292969 0.0984,0.06146 0.173828,0.151422 0.173828,0.199218 0,0.04098 -0.159831,0.21305 -0.349609,0.376954 -0.337391,0.28683 -0.351563,0.30601 -0.351563,0.654296 0,0.29366 -0.02819,0.389775 -0.175781,0.519532 -0.119489,0.109269 -0.177735,0.230615 -0.177734,0.380859 0,0.286828 -0.152418,0.342568 -0.363282,0.130859 -0.09137,-0.09559 -0.239486,-0.169921 -0.33789,-0.169921 -0.246008,0 -1.054688,-0.786365 -1.054688,-1.025391 0,-0.10244 -0.07737,-0.253024 -0.175781,-0.341797 l -0.175781,-0.15625 0,-1.550781 0,-1.548828 0.175781,-0.158203 c 0.0984,-0.08877 0.175781,-0.232509 0.175781,-0.314453 0,-0.08195 0.01994,-0.198306 0.04102,-0.259766 0.02812,-0.06829 0.126995,-0.109376 0.267578,-0.109375 z m -2.423828,1.035156 c 0.1643,-0.0017 0.330957,0.135531 0.61914,0.412109 l 0.441407,0.423829 0,0.691406 c 0,0.648779 0.01411,0.703286 0.175781,0.853515 0.140584,0.129753 0.177734,0.224888 0.177734,0.511719 0,0.327802 0.01925,0.369445 0.34961,0.683594 0.407674,0.389267 0.449905,0.600831 0.175781,0.853516 -0.0984,0.09561 -0.175781,0.237403 -0.175781,0.339843 0,0.109269 -0.07816,0.252048 -0.183594,0.347657 -0.133583,0.122927 -0.168743,0.206195 -0.140625,0.349609 0.02812,0.136587 0.0086,0.205133 -0.08984,0.259766 -0.112465,0.05463 -0.189551,0.01338 -0.470703,-0.273438 -0.267099,-0.273163 -0.379751,-0.341797 -0.5625,-0.341797 -0.161667,0 -0.240242,-0.03525 -0.275391,-0.130859 -0.02109,-0.07513 -0.118394,-0.183648 -0.216797,-0.238281 -0.126514,-0.08878 -0.162093,-0.150514 -0.126953,-0.273438 0.02811,-0.102439 0.0012,-0.197327 -0.07617,-0.251953 -0.330352,-0.273173 -0.331235,-0.280602 -0.289063,-0.615234 0.0492,-0.327807 0.04091,-0.341071 -0.275391,-0.59375 -0.08434,-0.0683 -0.103515,-0.273282 -0.103515,-1.113282 l 0,-1.023437 0.433593,-0.445313 c 0.284668,-0.283414 0.448985,-0.424075 0.613282,-0.425781 z m 29.177734,1.355469 c 0.316275,0 0.349609,0.102467 0.34961,1.03125 l 0,0.867187 -0.189454,0.136719 c -0.175721,0.122928 -0.197265,0.183944 -0.197265,0.539063 0,0.348295 -0.0188,0.403382 -0.152344,0.464843 -0.126527,0.0478 -0.164062,0.123224 -0.164063,0.300782 0,0.19805 -0.06338,0.29225 -0.351562,0.558593 -0.26007,0.239021 -0.349609,0.368303 -0.349609,0.511719 0,0.204879 -0.437562,0.712891 -0.613282,0.712891 -0.0492,0 -0.0918,0.03228 -0.0918,0.08008 0,0.04781 -0.119188,0.198381 -0.259765,0.341797 -0.182718,0.184387 -0.322312,0.259765 -0.462891,0.259765 -0.154634,-1e-6 -0.28953,0.08129 -0.521484,0.320313 -0.17572,0.184391 -0.335164,0.323204 -0.363281,0.316406 -0.02109,-0.0068 -0.34739,0.01275 -0.712891,0.04687 -0.365499,0.02728 -0.707828,0.03514 -0.75,0.02148 -0.175725,-0.0683 -0.08465,-0.267861 0.259766,-0.554688 0.267101,-0.218539 0.351562,-0.342912 0.351562,-0.486328 -10e-7,-0.109269 0.07035,-0.250093 0.175781,-0.345703 0.140584,-0.129727 0.175782,-0.226845 0.175782,-0.513672 0,-0.286831 0.03521,-0.381962 0.175781,-0.511719 0.154635,-0.143415 0.175781,-0.213341 0.175781,-0.677734 l 0,-0.517578 1.138672,-1.105469 c 0.878604,-0.86052 1.188719,-1.113281 1.322266,-1.113281 0.126518,0 0.288364,-0.109635 0.527343,-0.341797 0.238984,-0.232196 0.400825,-0.341797 0.527344,-0.341797 z m -20.177734,0.726562 c 0.0861,-0.0077 0.153943,0.04846 0.220703,0.167969 0.04217,0.08195 0.147314,0.13086 0.259765,0.130859 0.246012,0 0.367188,0.108637 0.367188,0.333985 0,0.129757 0.196685,0.367748 0.787109,0.941406 l 0.794922,0.773438 0.357422,0 c 0.288182,0 0.385979,0.03335 0.519531,0.169921 0.238979,0.245886 0.795389,0.244884 1.027344,-0.0078 0.189762,-0.198045 0.264559,-0.168616 0.552734,0.166016 0.147604,0.177562 0.197266,0.298088 0.197266,0.537109 0,0.30049 -0.0116,0.321068 -0.798828,1.085937 -0.611514,0.594146 -0.845752,0.779296 -0.986328,0.779297 -0.09841,0 -0.250423,0.07627 -0.341797,0.171875 -0.161663,0.17073 -0.185123,0.169922 -1.232422,0.169922 -1.047301,0 -1.066858,8.08e-4 -1.228515,-0.169922 -0.09137,-0.09561 -0.2473,-0.171875 -0.345704,-0.171875 -0.238983,0 -0.708984,-0.45237 -0.708984,-0.677734 0,-0.09561 -0.07739,-0.243263 -0.175781,-0.345703 -0.168727,-0.170728 -0.168798,-0.200349 -0.175781,-1.361328 l -0.01367,-1.179688 0.183593,-0.185547 c 0.147609,-0.150245 0.181641,-0.252218 0.181641,-0.52539 0,-0.286832 0.03444,-0.367404 0.238281,-0.585938 0.130033,-0.136586 0.23421,-0.209115 0.320313,-0.216797 z m -3.722656,0.91211 c 0.06325,0 0.281322,0.172079 0.492187,0.376953 0.358473,0.355129 0.400115,0.375 0.730469,0.375 0.309272,0 0.387186,0.02659 0.61914,0.251953 0.260102,0.245856 0.267579,0.25929 0.267578,0.771484 0,0.471222 0.02114,0.54018 0.175782,0.683594 0.140571,0.129758 0.175781,0.224887 0.175781,0.511719 0,0.286826 0.0352,0.383925 0.175781,0.513672 0.0984,0.08878 0.175781,0.236432 0.175782,0.332031 0,0.10244 0.06997,0.233485 0.189453,0.322266 0.302239,0.232197 0.182642,0.36914 -0.316407,0.36914 -0.344412,0 -0.435596,0.02651 -0.576172,0.169922 -0.133539,0.136584 -0.232129,0.171875 -0.527343,0.171875 -0.29521,0 -0.393796,-0.03529 -0.527344,-0.171875 -0.0984,-0.09561 -0.246126,-0.169922 -0.351563,-0.169922 -0.105422,0 -0.251207,-0.07432 -0.349609,-0.169922 -0.112461,-0.116101 -0.239897,-0.171875 -0.394531,-0.171875 -0.23195,0 -0.310547,-0.08914 -0.310547,-0.36914 0,-0.08195 -0.07543,-0.223718 -0.173828,-0.3125 -0.140571,-0.129747 -0.175781,-0.226846 -0.175781,-0.513672 0,-0.286832 -0.03716,-0.381961 -0.177735,-0.511719 -0.140571,-0.129756 -0.173828,-0.224887 -0.173828,-0.511719 0,-0.28683 0.03325,-0.381971 0.173828,-0.511718 0.140585,-0.129756 0.177735,-0.227811 0.177735,-0.507813 0,-0.314144 0.02784,-0.366469 0.294922,-0.632812 0.161658,-0.163898 0.342993,-0.294922 0.40625,-0.294922 z m -24.59961,1.435547 0,0.435547 c 0,1.707309 1.426056,3.509529 3.373047,4.267578 1.117588,0.430239 1.603582,0.520462 2.953125,0.513672 1.026212,0 1.319687,-0.02746 1.769531,-0.150391 1.349543,-0.361949 2.278803,-0.862142 3.115235,-1.695313 0.836436,-0.826342 1.285179,-1.753966 1.355468,-2.8125 l 0.03516,-0.558593 -6.304688,0 -6.296875,0 z m 44.185547,0 c 0.107493,0.03693 0.135732,0.302037 0.109375,0.839843 -0.02809,0.614633 -0.04968,0.715972 -0.197266,0.873047 -0.09137,0.09561 -0.167968,0.24718 -0.167968,0.335938 0,0.245851 -1.510635,1.707031 -1.763672,1.707031 -0.0984,0 -0.252399,0.07432 -0.34375,0.169922 -0.09137,0.09561 -0.247299,0.169922 -0.345703,0.169922 -0.09841,-10e-7 -0.25316,0.07528 -0.351563,0.164062 -0.168692,0.157066 -0.245527,0.169938 -0.871094,0.183594 -0.660713,0.0068 -0.703969,8.07e-4 -0.886718,-0.169922 -0.105436,-0.09561 -0.266047,-0.177735 -0.357422,-0.177734 -0.196811,-10e-7 -0.773438,-0.510908 -0.773438,-0.681641 0,-0.06144 0.175854,-0.273649 0.386719,-0.478515 0.274127,-0.259514 0.386719,-0.423949 0.386719,-0.546876 0,-0.102431 0.07737,-0.251061 0.175781,-0.339843 0.0984,-0.08876 0.175781,-0.239357 0.175781,-0.341797 0,-0.280001 0.119731,-0.341797 0.703125,-0.341797 0.484992,0 0.555519,-0.02163 0.703125,-0.171875 0.0984,-0.102435 0.244962,-0.169922 0.357422,-0.169922 0.140577,0 0.273906,-0.08911 0.50586,-0.341797 l 0.316406,-0.341797 0.892578,0 c 0.864552,0 0.898908,-0.006 1.060547,-0.169922 0.126522,-0.133161 0.220662,-0.192091 0.285156,-0.169921 z m -22.40625,0.326171 c 0.246121,-0.032 0.57837,0.04287 0.720703,0.191407 0.09137,0.09561 0.238318,0.164062 0.34375,0.164062 0.267097,0 0.349609,0.122452 0.34961,0.511719 0,0.286831 0.03716,0.383915 0.177734,0.513672 0.105431,0.09561 0.175781,0.236434 0.175781,0.345703 0,0.136586 0.0915,0.268773 0.351563,0.494141 l 0.349609,0.30664 0,0.539063 c -10e-7,0.491706 -0.01217,0.559709 -0.173828,0.703125 -0.0984,0.08877 -0.175781,0.239357 -0.175781,0.341797 0,0.280006 -0.120896,0.341796 -0.697266,0.341797 l -0.533203,0 -0.611328,-0.59375 c -0.618538,-0.594146 -0.619141,-0.600925 -0.619141,-0.949219 0,-0.280002 -0.0352,-0.376114 -0.175781,-0.50586 -0.154638,-0.143415 -0.175781,-0.210422 -0.175781,-0.68164 0,-0.471212 0.02114,-0.540189 0.175781,-0.683594 0.147603,-0.129757 0.175781,-0.225875 0.175781,-0.519531 0,-0.273172 0.02739,-0.380931 0.132813,-0.449219 0.05272,-0.03586 0.126943,-0.05964 0.208984,-0.07031 z m 15.824219,0.697266 c 0.527148,0 0.534467,2.65e-4 0.808594,0.273438 0.246035,0.245854 0.274975,0.30009 0.253906,0.59375 -0.01405,0.320977 -0.03659,0.347419 -0.802735,1.091796 L 63.65625,40.875 l -0.359375,0 c -0.288181,0 -0.385979,0.03334 -0.519531,0.169922 -0.147605,0.150249 -0.21618,0.169922 -0.701172,0.169922 -0.484992,0 -0.557474,-0.01967 -0.705078,-0.169922 C 61.237542,40.908338 61.140527,40.875 60.859375,40.875 c -0.344399,0 -0.364671,-0.0152 -0.955078,-0.568359 -0.330358,-0.307314 -0.605469,-0.592813 -0.605469,-0.626953 0,-0.04098 0.273941,-0.32257 0.611328,-0.636719 l 0.611328,-0.572266 1.392578,0.01367 1.398438,0.0059 0.167969,-0.177734 c 0.147605,-0.15025 0.218132,-0.169922 0.703125,-0.169922 z m -17.947266,0.339844 c 0.13267,0.0128 0.280111,0.07285 0.375,0.171875 0.09137,0.0956 0.246132,0.171875 0.351563,0.171875 0.309273,0 0.353515,0.109125 0.353515,0.853516 0,0.648771 0.01217,0.703277 0.173828,0.853515 0.154629,0.143416 0.175782,0.210423 0.175782,0.681641 0,0.559992 -0.06377,0.683594 -0.337891,0.683594 -0.246012,0 -1.074595,-0.819516 -1.025391,-1.003907 0.02812,-0.08195 -0.007,-0.17779 -0.07031,-0.232422 -0.330322,-0.266343 -0.324219,-0.244993 -0.324219,-1.11914 0,-0.464389 0.02188,-0.889711 0.04297,-0.951172 0.03514,-0.08878 0.152484,-0.122179 0.285156,-0.109375 z m 12.746094,1.654297 c 0.02109,-0.0068 0.288389,0.232714 0.597656,0.533203 0.400645,0.396079 0.609806,0.544922 0.736328,0.544922 0.23195,0 0.718345,0.431787 0.66211,0.582031 -0.02812,0.05463 -0.105493,0.134804 -0.175782,0.175781 -0.07732,0.04098 -0.132812,0.13683 -0.132812,0.246094 0,0.232197 -0.484846,0.705078 -0.716797,0.705078 -0.0984,0 -0.246517,0.07432 -0.337891,0.169922 -0.09839,0.09561 -0.24613,0.169922 -0.351562,0.169922 -0.105436,0 -0.25316,0.07627 -0.351563,0.171875 -0.147605,0.150245 -0.218134,0.169922 -0.703125,0.169922 -0.484991,0 -0.555532,-0.01967 -0.703125,-0.169922 -0.0984,-0.09561 -0.246131,-0.171874 -0.351562,-0.171875 -0.105436,0 -0.251216,-0.07432 -0.349609,-0.169922 -0.09137,-0.09561 -0.248084,-0.169922 -0.353516,-0.169922 -0.231951,0 -0.351563,-0.116447 -0.351563,-0.341797 0,-0.102439 -0.07543,-0.253016 -0.173828,-0.341797 C 55.78521,42.110481 55.75,42.015351 55.75,41.742188 c 0,-0.273173 -0.03716,-0.370251 -0.177734,-0.5 -0.140583,-0.129757 -0.167563,-0.1915 -0.111328,-0.28711 0.06325,-0.116092 0.141239,-0.121068 0.794921,-0.09375 0.709914,0.02732 0.728957,0.02521 0.890625,-0.152344 0.140576,-0.150242 0.232915,-0.175781 0.535157,-0.175781 0.29521,10e-7 0.393791,-0.03626 0.527343,-0.166015 0.105432,-0.116097 0.254361,-0.176773 0.451172,-0.197266 0.154616,-0.01366 0.30118,-0.02641 0.322266,-0.0332 z m -4.154297,0.09766 c 0.0448,-0.01707 0.08556,-0.0097 0.134766,0.01758 0.119493,0.06146 0.125775,0.136363 0.09766,0.771485 -0.02812,0.689747 -0.02844,0.710113 0.154297,0.867187 0.105429,0.10244 0.183593,0.240345 0.183594,0.349609 0,0.10244 0.07543,0.246188 0.173828,0.341797 0.0984,0.0956 0.177734,0.239361 0.177734,0.341797 0,0.109269 0.08246,0.252073 0.208984,0.375 0.119494,0.109269 0.210937,0.245181 0.210938,0.306641 -10e-7,0.05463 -0.215328,0.314705 -0.482422,0.574219 -0.477964,0.457554 -0.495019,0.470664 -0.783203,0.429687 -0.253037,-0.03415 -0.32272,-0.0047 -0.519531,0.166016 -0.288181,0.245853 -0.526248,0.25076 -0.744141,0.02539 -0.133548,-0.13662 -0.232134,-0.169921 -0.527344,-0.169922 -0.295214,0 -0.391842,-0.03529 -0.52539,-0.171875 -0.09137,-0.09561 -0.247308,-0.169921 -0.345703,-0.169922 -0.246008,0 -0.708985,-0.451396 -0.708985,-0.683593 0,-0.102435 -0.07933,-0.253015 -0.177734,-0.341797 -0.175719,-0.15706 -0.175782,-0.175802 -0.175781,-1.19336 0,-0.710236 0.02971,-1.060602 0.08594,-1.115234 0.05624,-0.05463 0.457715,-0.08008 1.322266,-0.08008 1.23005,0 1.242629,-0.0011 1.404297,-0.171875 0.09136,-0.09561 0.244563,-0.169922 0.335937,-0.169922 0.0984,0 0.246516,-0.07627 0.337891,-0.171875 0.06677,-0.0683 0.1173,-0.10988 0.162109,-0.126953 z M 64.345703,40.875 c 0.04217,0 0.218028,0.155452 0.386719,0.339844 0.210869,0.239001 0.357072,0.341797 0.476562,0.341797 0.196811,0 0.732422,0.380992 0.732422,0.517578 0,0.05463 -0.07737,0.143618 -0.175781,0.205078 -0.112463,0.0683 -0.175781,0.179793 -0.175781,0.289062 0,0.252684 -0.801651,1.03711 -1.054688,1.03711 -0.105432,0 -0.260207,0.07627 -0.351562,0.171875 -0.0984,0.09561 -0.246126,0.169921 -0.351563,0.169922 -0.105432,-10e-7 -0.253159,0.07432 -0.351562,0.169922 -0.161667,0.170719 -0.183168,0.171875 -1.230469,0.171874 -1.047299,0 -1.066853,-0.0012 -1.228516,-0.171874 -0.09137,-0.09561 -0.238703,-0.169922 -0.330078,-0.169922 -0.189778,-10e-7 -0.724609,-0.381981 -0.724609,-0.525391 0,-0.04781 0.02852,-0.08984 0.05664,-0.08984 0.03513,0 0.349727,-0.285492 0.701171,-0.626953 0.477959,-0.471223 0.646485,-0.676892 0.646485,-0.80664 0,-0.300469 0.112763,-0.341797 0.878906,-0.341797 0.667746,0 0.726225,-0.01286 0.880859,-0.169922 0.133546,-0.136584 0.230974,-0.171875 0.533203,-0.171875 0.309271,0 0.37816,-0.02651 0.476563,-0.169922 0.06326,-0.09561 0.155876,-0.169924 0.205078,-0.169922 z m 5.298828,0 c 0.0492,0 0.141821,0.07432 0.205078,0.169922 0.105432,0.157077 0.154464,0.169922 0.646485,0.169922 0.470912,0 0.541843,-0.01967 0.689453,-0.169922 0.189777,-0.198049 0.34182,-0.163814 0.412109,0.08203 0.04217,0.184391 -0.117256,0.429688 -0.292968,0.429688 -0.05624,0 -0.0918,0.08219 -0.0918,0.246093 0,0.218537 -0.07876,0.321977 -0.802735,1.025391 -0.702885,0.682923 -0.835223,0.777344 -1.039062,0.777344 -0.175721,0 -0.251601,0.04112 -0.300782,0.15039 -0.06326,0.136589 -0.120046,0.158204 -0.478515,0.158203 -0.372531,0 -0.430123,0.02067 -0.556641,0.191407 -0.147609,0.191214 -0.147123,0.189414 -0.871094,0.175781 -0.660703,-0.01366 -0.744189,-0.03236 -0.884765,-0.175781 -0.08434,-0.08878 -0.232844,-0.158203 -0.324219,-0.158203 -0.210868,-1e-6 -0.435547,-0.176933 -0.435547,-0.333985 0,-0.06146 0.175855,-0.281471 0.386719,-0.486328 0.260069,-0.252684 0.386719,-0.422963 0.386719,-0.539062 0,-0.10244 0.0981,-0.272615 0.259765,-0.429688 0.253037,-0.252711 0.267757,-0.259766 0.794922,-0.259765 0.484991,0 0.553563,-0.01968 0.701172,-0.169922 0.133548,-0.143412 0.232914,-0.171875 0.535156,-0.171875 0.358447,0 0.380568,-0.01402 0.675782,-0.341797 0.168692,-0.184392 0.342598,-0.339854 0.384765,-0.339844 z m -21.498047,0.685547 c 0.08665,-0.0086 0.203788,0.09204 0.419922,0.337891 0.295215,0.327797 0.315359,0.341796 0.673828,0.341796 0.302243,0 0.399657,0.02651 0.533204,0.169922 0.09136,0.09561 0.2473,0.171874 0.345703,0.171875 0.246012,0 0.708983,0.449457 0.708984,0.681641 0,0.10244 0.07933,0.253025 0.177734,0.341797 0.0984,0.08878 0.173828,0.238375 0.173829,0.333984 0,0.10244 0.09301,0.266732 0.226562,0.396485 0.217881,0.218528 0.224572,0.240406 0.119141,0.417968 -0.0984,0.17756 -0.132992,0.184616 -0.660157,0.191406 -0.309271,0.0068 -0.738355,0.02639 -0.949218,0.04688 -0.372531,0.04097 -0.3934,0.03496 -0.50586,-0.15625 -0.08434,-0.150246 -0.177,-0.205079 -0.310547,-0.205079 -0.253037,1e-6 -0.736703,-0.464059 -0.6875,-0.662109 0.02812,-0.08195 -0.007,-0.179754 -0.07031,-0.234375 -0.330322,-0.273168 -0.324219,-0.246029 -0.324219,-1.181641 0,-0.498535 0.02071,-0.926782 0.04883,-0.947265 0.02459,-0.02561 0.05119,-0.04203 0.08008,-0.04492 z m 11.328125,2.095703 c 0.08171,0.02988 0.18678,0.133011 0.373047,0.337891 0.189777,0.204883 0.33051,0.294921 0.457032,0.294921 0.203826,0 0.435546,0.176911 0.435546,0.333985 0,0.06146 -0.29504,0.389986 -0.646484,0.738281 -0.470935,0.457559 -0.697701,0.634766 -0.824219,0.634766 -0.0984,10e-7 -0.251206,0.07431 -0.349609,0.169922 -0.17572,0.157065 -0.233478,0.166031 -1.048828,0.179687 -0.850494,0.0068 -0.870769,0.0057 -1.060547,-0.171875 -0.105431,-0.09561 -0.260189,-0.177734 -0.351563,-0.177734 -0.161645,0 -1.027343,-0.703259 -1.027343,-0.839844 0,-0.02732 0.267303,-0.315742 0.597656,-0.636719 l 0.597656,-0.572265 1.224609,0 c 1.215992,-10e-7 1.223099,-1.73e-4 1.384766,-0.177735 0.09839,-0.09903 0.156571,-0.143159 0.238281,-0.113281 z m 5.41211,0.291016 c 0.105432,-10e-7 0.253159,0.07432 0.351562,0.169922 0.0984,0.102431 0.246132,0.171875 0.351563,0.171874 0.140577,0 0.273506,0.0881 0.484375,0.306641 0.154634,0.163903 0.289062,0.335976 0.289062,0.376953 0,0.04098 -0.294653,0.361677 -0.660156,0.716797 -0.576366,0.566836 -0.691476,0.648438 -0.902344,0.648438 -0.175719,0 -0.251578,0.04112 -0.300781,0.15039 -0.06326,0.13659 -0.120043,0.15625 -0.478516,0.15625 -0.365502,0 -0.428168,0.0197 -0.554687,0.183594 -0.126518,0.177561 -0.168535,0.191406 -0.681641,0.191406 -0.513107,0 -0.548889,-0.0051 -0.724609,-0.203125 -0.175721,-0.198033 -0.211044,-0.206024 -0.527344,-0.171875 -0.302244,0.04098 -0.356302,0.02817 -0.503906,-0.128906 -0.0984,-0.102437 -0.247296,-0.177734 -0.345703,-0.177734 -0.203836,0 -0.4375,-0.176911 -0.4375,-0.333985 0,-0.06146 0.296994,-0.389986 0.648437,-0.738281 l 0.654297,-0.634766 1.060547,0 c 1.040271,10e-7 1.060994,-0.0011 1.222656,-0.171875 0.09841,-0.09561 0.24613,-0.169921 0.351563,-0.169922 0.10541,0 0.253159,-0.07628 0.351562,-0.171874 0.0984,-0.09561 0.246127,-0.169922 0.351563,-0.169922 z m -10.044922,1.011718 0.226562,0.191407 c 0.302236,0.266343 0.330078,0.30586 0.330079,0.503906 0,0.218538 0.464528,0.683594 0.689453,0.683594 0.17572,0 0.716796,0.381961 0.716797,0.511718 0,0.150244 -0.541475,0.513656 -0.738282,0.5 -0.133551,-0.01365 -0.231675,0.03334 -0.330078,0.169922 -0.126518,0.170734 -0.170487,0.183594 -0.683594,0.183594 -0.513107,0 -0.547715,-0.008 -0.730468,-0.212891 -0.133548,-0.150247 -0.224656,-0.196258 -0.330078,-0.162109 -0.112466,0.03415 -0.266591,-0.0825 -0.765626,-0.560547 l -0.61914,-0.601562 -0.03516,-0.525391 c -0.02108,-0.320973 -0.0082,-0.551819 0.04102,-0.599609 0.105432,-0.10244 0.177792,-0.08965 0.353516,0.101562 0.154634,0.163906 0.209199,0.170944 0.841797,0.177734 0.653682,0.0068 0.68873,-1.73e-4 0.857422,-0.177734 l 0.175781,-0.183594 z m -3.957031,0.38086 0.96289,0.0078 0.02148,0.246094 c 0.01405,0.15707 0.08481,0.306747 0.197265,0.402344 0.182747,0.170733 0.224566,0.485464 0.08398,0.601562 -0.0492,0.03415 -0.24655,0.06742 -0.44336,0.07422 -0.330354,0 -0.36456,-0.01301 -0.673828,-0.333984 -0.246012,-0.25268 -0.379739,-0.341796 -0.527344,-0.341797 -0.126519,-0.0068 -0.309824,-0.09487 -0.478515,-0.238282 -0.231955,-0.184378 -0.267555,-0.246179 -0.197266,-0.328124 0.07029,-0.08198 0.281514,-0.09663 1.054688,-0.08984 z m 8.730468,0.998047 c 0.105436,0 0.253161,0.07432 0.351563,0.169921 0.0984,0.102435 0.244177,0.171875 0.349609,0.171876 0.140576,0 0.27546,0.0881 0.486328,0.30664 0.323325,0.341461 0.330416,0.354697 0.175782,0.566406 -0.07029,0.10244 -0.17427,0.150391 -0.335938,0.150391 -0.17572,0 -0.268001,0.04798 -0.359375,0.177734 -0.09136,0.136586 -0.155536,0.16404 -0.289062,0.136719 -0.133547,-0.03415 -0.216456,1.79e-4 -0.371094,0.164063 l -0.189453,0.21289 -0.914063,-0.02148 c -0.864546,-0.02048 -0.908226,-0.02749 -0.978515,-0.177735 -0.05624,-0.116088 -0.126252,-0.15039 -0.330078,-0.15039 -0.274128,-10e-7 -0.35236,-0.06767 -0.394532,-0.333984 -0.01405,-0.129753 0.08449,-0.266927 0.421875,-0.601563 l 0.435547,-0.429687 0.710938,0 c 0.66774,0 0.724268,-0.01481 0.878906,-0.171876 0.0984,-0.0956 0.246151,-0.169916 0.351562,-0.169921 z"
       transform="translate(-7.629395e-6,-22.000001)"
       id="rect5509"
       inkscape:connector-curvature="0" />
    <g
       id="g4"
       transform="matrix(0.08172222,0,0,0.06460296,38.676327,4.058088)"
       style="opacity:1;fill:#000000;fill-opacity:1;stroke:none">
      <g
         id="g6"
         style="fill:#000000;fill-opacity:1">
        <path
           d="m 107.12303,-21.467766 c 0.87242,9.78603 -2.12808,15.3313798 -2.01714,24.2829698 -13.09734,6.23631 -13.97279,30.6771202 -19.1629,48.5659402 -3.74081,12.89316 -8.16239,27.93756 -18.15433,34.21692 -31.61375,19.868986 -83.3536,11.7055 -102.87454,-14.34903 -4.83712,-6.45596 -10.98237,-18.83696 -15.12861,-28.69806 -6.39637,-15.20997 -7.07212,-37.8770202 -25.21435,-29.80183 -6.04639,2.691 -12.40243,26.2521 -17.14575,36.42446 -5.32528,11.41962 -13.10642,25.97064 -20.17148,32.00937 -20.93698,17.89324 -73.86493,21.228836 -95.81452,1.10378 -19.52196,-17.89987 -12.44177,-64.27262 -33.28294,-80.5753202 -0.16944,-8.27608 -2.82501,-13.8324698 -2.01714,-23.1791998 34.66669,-11.59402 87.10145,-6.48797 123.04602,1.10377 17.68634,3.73516 34.50834,11.9637798 53.45441,11.0377098 13.56532,-0.66336 27.80739,-6.0961298 41.35153,-8.8301698 41.66014,-8.41074 85.13069,-13.09625 133.13174,-3.31131 z"
           id="path8"
           inkscape:connector-curvature="0"
           style="clip-rule:evenodd;fill:#000000;fill-opacity:1;fill-rule:evenodd" />
      </g>
    </g>
    <rect
       style="fill:none;fill-opacity:1;stroke:none;stroke-opacity:1"
       id="rect6177"
       width="95.964493"
       height="45.961941"
       x="85.844872"
       y="-21.055534" />
  </g>
</svg>
