<?xml version="1.0" encoding="UTF-8" standalone="no"?>
<!-- Created with Inkscape (http://www.inkscape.org/) -->

<svg
   xmlns:dc="http://purl.org/dc/elements/1.1/"
   xmlns:cc="http://creativecommons.org/ns#"
   xmlns:rdf="http://www.w3.org/1999/02/22-rdf-syntax-ns#"
   xmlns:svg="http://www.w3.org/2000/svg"
   xmlns="http://www.w3.org/2000/svg"
   xmlns:sodipodi="http://sodipodi.sourceforge.net/DTD/sodipodi-0.dtd"
   xmlns:inkscape="http://www.inkscape.org/namespaces/inkscape"
   width="517"
   height="28"
   viewBox="0 0 517.00001 28.000001"
   id="svg4288"
   version="1.1"
   inkscape:version="0.91 r13725"
   sodipodi:docname="NLYSH.svg">
  <defs
     id="defs4290" />
  <sodipodi:namedview
     id="base"
     pagecolor="#ffffff"
     bordercolor="#666666"
     borderopacity="1.0"
     inkscape:pageopacity="0.0"
     inkscape:pageshadow="2"
     inkscape:zoom="0.98994949"
     inkscape:cx="93.187478"
     inkscape:cy="31.254532"
     inkscape:document-units="px"
     inkscape:current-layer="layer1"
     showgrid="false"
     units="px"
     inkscape:window-width="1920"
     inkscape:window-height="1057"
     inkscape:window-x="-8"
     inkscape:window-y="1072"
     inkscape:window-maximized="1" />
  <metadata
     id="metadata4293">
    <rdf:RDF>
      <cc:Work
         rdf:about="">
        <dc:format>image/svg+xml</dc:format>
        <dc:type
           rdf:resource="http://purl.org/dc/dcmitype/StillImage" />
        <dc:title></dc:title>
      </cc:Work>
    </rdf:RDF>
  </metadata>
  <g
     inkscape:label="Ebene 1"
     inkscape:groupmode="layer"
     id="layer1"
     transform="translate(0,-1024.3622)">
    <path
       inkscape:connector-curvature="0"
       id="path4141"
       style="font-style:normal;font-variant:normal;font-weight:normal;font-stretch:normal;font-size:medium;line-height:125%;font-family:'Myriad Pro';-inkscape-font-specification:'Myriad Pro, Normal';text-align:start;letter-spacing:0px;word-spacing:0px;writing-mode:lr-tb;text-anchor:start;fill:#ffffff;fill-opacity:1;stroke:none;stroke-width:1px;stroke-linecap:butt;stroke-linejoin:miter;stroke-opacity:1"
       d="m 4.936125,1048.6881 0,-9.433 c 0,-3.6684 -0.038924,-6.3214 -0.2335452,-9.1055 l 0.1167726,-0.033 c 1.2844986,2.391 3.0360886,4.913 4.8655256,7.3695 l 8.329781,11.2017 3.42533,0 0,-22.0759 -3.191785,0 0,9.2365 c 0,3.4392 0.07785,6.125 0.389242,9.0728 l -0.116773,0.033 c -1.20665,-2.26 -2.763618,-4.5855 -4.670905,-7.173 l -8.3687041,-11.169 -3.7367239,0 0,22.0759 3.191785,0 z" />
    <path
       inkscape:connector-curvature="0"
       id="path4143"
       style="font-style:normal;font-variant:normal;font-weight:normal;font-stretch:normal;font-size:medium;line-height:125%;font-family:'Myriad Pro';-inkscape-font-specification:'Myriad Pro, Normal';text-align:start;letter-spacing:0px;word-spacing:0px;writing-mode:lr-tb;text-anchor:start;fill:#ffffff;fill-opacity:1;stroke:none;stroke-width:1px;stroke-linecap:butt;stroke-linejoin:miter;stroke-opacity:1"
       d="m 37.951764,1026.2192 c -7.006357,0 -12.144353,4.5855 -12.144353,11.5948 0,6.6817 4.826602,11.2344 11.794035,11.2344 6.694964,0 12.183277,-4.0614 12.183277,-11.6275 0,-6.5834 -4.631981,-11.2017 -11.832959,-11.2017 z m -0.116772,2.3255 c 5.64401,0 8.368704,4.5855 8.368704,9.0072 0,5.0113 -3.036088,9.171 -8.407629,9.171 -5.37154,0 -8.407628,-4.2252 -8.407628,-8.9744 0,-4.8148 2.802542,-9.2038 8.446553,-9.2038 z" />
    <path
       inkscape:connector-curvature="0"
       id="path4145"
       style="font-style:normal;font-variant:normal;font-weight:normal;font-stretch:normal;font-size:medium;line-height:125%;font-family:'Myriad Pro';-inkscape-font-specification:'Myriad Pro, Normal';text-align:start;letter-spacing:0px;word-spacing:0px;writing-mode:lr-tb;text-anchor:start;fill:#ffffff;fill-opacity:1;stroke:none;stroke-width:1px;stroke-linecap:butt;stroke-linejoin:miter;stroke-opacity:1"
       d="m 62.448471,1048.6881 14.635502,0 0,-2.391 -11.210172,0 0,-19.6849 -3.42533,0 0,22.0759 z" />
    <path
       inkscape:connector-curvature="0"
       id="path4147"
       style="font-style:normal;font-variant:normal;font-weight:normal;font-stretch:normal;font-size:medium;line-height:125%;font-family:'Myriad Pro';-inkscape-font-specification:'Myriad Pro, Normal';text-align:start;letter-spacing:0px;word-spacing:0px;writing-mode:lr-tb;text-anchor:start;fill:#ffffff;fill-opacity:1;stroke:none;stroke-width:1px;stroke-linecap:butt;stroke-linejoin:miter;stroke-opacity:1"
       d="m 80.846241,1026.6122 0,22.0759 3.42533,0 0,-22.0759 -3.42533,0 z" />
    <path
       inkscape:connector-curvature="0"
       id="path4149"
       style="font-style:normal;font-variant:normal;font-weight:normal;font-stretch:normal;font-size:medium;line-height:125%;font-family:'Myriad Pro';-inkscape-font-specification:'Myriad Pro, Normal';text-align:start;letter-spacing:0px;word-spacing:0px;writing-mode:lr-tb;text-anchor:start;fill:#ffffff;fill-opacity:1;stroke:none;stroke-width:1px;stroke-linecap:butt;stroke-linejoin:miter;stroke-opacity:1"
       d="m 112.89181,1048.6881 3.34748,0 -1.63481,-22.0759 -4.32059,0 -4.67091,10.6777 c -1.16772,2.7841 -2.1019,5.2078 -2.80254,7.4351 l -0.0778,0 c -0.70063,-2.2928 -1.55697,-4.7165 -2.64684,-7.4351 l -4.476287,-10.6777 -4.320587,0 -1.829438,22.0759 3.230709,0 0.700636,-9.4657 c 0.233545,-3.3409 0.428166,-7.0093 0.506014,-9.7606 l 0.07785,0 c 0.73956,2.6203 1.751589,5.4371 2.997163,8.5814 l 4.28166,10.5139 2.569,0 4.63198,-10.7104 c 1.32342,-3.0461 2.37438,-5.8301 3.30856,-8.3849 l 0.0779,0 c 0,2.7185 0.23354,6.4525 0.42816,9.5313 l 0.62279,9.695 z" />
    <path
       inkscape:connector-curvature="0"
       id="path4151"
       style="font-style:normal;font-variant:normal;font-weight:normal;font-stretch:normal;font-size:medium;line-height:125%;font-family:'Myriad Pro';-inkscape-font-specification:'Myriad Pro, Normal';text-align:start;letter-spacing:0px;word-spacing:0px;writing-mode:lr-tb;text-anchor:start;fill:#ffffff;fill-opacity:1;stroke:none;stroke-width:1px;stroke-linecap:butt;stroke-linejoin:miter;stroke-opacity:1"
       d="m 121.44297,1026.6122 0,22.0759 3.42533,0 0,-22.0759 -3.42533,0 z" />
    <path
       inkscape:connector-curvature="0"
       id="path4153"
       style="font-style:normal;font-variant:normal;font-weight:normal;font-stretch:normal;font-size:medium;line-height:125%;font-family:'Myriad Pro';-inkscape-font-specification:'Myriad Pro, Normal';text-align:start;letter-spacing:0px;word-spacing:0px;writing-mode:lr-tb;text-anchor:start;fill:#ffffff;fill-opacity:1;stroke:none;stroke-width:1px;stroke-linecap:butt;stroke-linejoin:miter;stroke-opacity:1"
       d="m 135.7391,1048.6881 3.42533,0 0,-19.6521 8.01839,0 0,-2.4238 -19.42318,0 0,2.4238 7.97946,0 0,19.6521 z" />
    <path
       inkscape:connector-curvature="0"
       id="path4155"
       style="font-style:normal;font-variant:normal;font-weight:normal;font-stretch:normal;font-size:medium;line-height:125%;font-family:'Myriad Pro';-inkscape-font-specification:'Myriad Pro, Normal';text-align:start;letter-spacing:0px;word-spacing:0px;writing-mode:lr-tb;text-anchor:start;fill:#ffffff;fill-opacity:1;stroke:none;stroke-width:1px;stroke-linecap:butt;stroke-linejoin:miter;stroke-opacity:1"
       d="m 148.51536,1047.6073 c 1.40127,0.7861 4.16489,1.4411 6.69497,1.4411 6.18894,0 9.14718,-2.9805 9.14718,-6.3869 0,-3.2426 -2.21868,-5.0441 -6.65604,-6.4852 -3.61995,-1.1791 -5.21584,-2.1945 -5.21584,-4.258 0,-1.5066 1.36235,-3.3081 4.94338,-3.3081 2.37437,0 4.12596,0.6223 4.94337,1.0481 l 0.93418,-2.3255 c -1.1288,-0.5568 -3.11394,-1.0808 -5.76078,-1.0808 -5.09907,0 -8.48548,2.5547 -8.48548,5.9939 0,3.0788 2.64685,4.9785 6.92851,6.2886 3.5421,1.1137 4.94337,2.3255 4.94337,4.3563 0,2.2272 -2.02405,3.7666 -5.48831,3.7666 -2.33545,0 -4.51521,-0.6223 -6.03325,-1.4411 l -0.89526,2.391 z" />
    <path
       inkscape:connector-curvature="0"
       id="path4157"
       style="font-style:normal;font-variant:normal;font-weight:normal;font-stretch:normal;font-size:medium;line-height:125%;font-family:'Myriad Pro';-inkscape-font-specification:'Myriad Pro, Normal';text-align:start;letter-spacing:0px;word-spacing:0px;writing-mode:lr-tb;text-anchor:start;fill:#ffffff;fill-opacity:1;stroke:none;stroke-width:1px;stroke-linecap:butt;stroke-linejoin:miter;stroke-opacity:1"
       d="m 170.32022,1049.0484 c 1.44019,0 2.37437,-0.8843 2.37437,-2.0634 0,-1.2119 -0.93418,-2.0635 -2.29653,-2.0635 -1.36234,0 -2.33545,0.8843 -2.33545,2.0635 0,1.1791 0.93418,2.0634 2.25761,2.0634 z" />
    <path
       inkscape:connector-curvature="0"
       id="path4159"
       style="font-style:normal;font-variant:normal;font-weight:normal;font-stretch:normal;font-size:medium;line-height:125%;font-family:'Myriad Pro';-inkscape-font-specification:'Myriad Pro, Normal';text-align:start;letter-spacing:0px;word-spacing:0px;writing-mode:lr-tb;text-anchor:start;fill:#4d8e06;fill-opacity:1;stroke:none;stroke-width:1px;stroke-linecap:butt;stroke-linejoin:miter;stroke-opacity:1"
       d="m 192.78131,1048.6881 0,-9.4002 8.75795,-12.6757 -3.81457,0 -3.77565,6.0922 c -1.01203,1.6704 -1.94621,3.1116 -2.64685,4.5528 l -0.0778,0 c -0.8174,-1.5395 -1.63481,-2.8824 -2.60792,-4.5528 l -3.6978,-6.0922 -3.89242,0 8.32978,12.7084 0,9.3675 3.42533,0 z" />
    <path
       inkscape:connector-curvature="0"
       id="path4161"
       style="font-style:normal;font-variant:normal;font-weight:normal;font-stretch:normal;font-size:medium;line-height:125%;font-family:'Myriad Pro';-inkscape-font-specification:'Myriad Pro, Normal';text-align:start;letter-spacing:0px;word-spacing:0px;writing-mode:lr-tb;text-anchor:start;fill:#4d8e06;fill-opacity:1;stroke:none;stroke-width:1px;stroke-linecap:butt;stroke-linejoin:miter;stroke-opacity:1"
       d="m 213.79491,1026.2192 c -7.00636,0 -12.14436,4.5855 -12.14436,11.5948 0,6.6817 4.82661,11.2344 11.79404,11.2344 6.69496,0 12.18328,-4.0614 12.18328,-11.6275 0,-6.5834 -4.63199,-11.2017 -11.83296,-11.2017 z m -0.11678,2.3255 c 5.64401,0 8.36871,4.5855 8.36871,9.0072 0,5.0113 -3.03609,9.171 -8.40763,9.171 -5.37154,0 -8.40763,-4.2252 -8.40763,-8.9744 0,-4.8148 2.80254,-9.2038 8.44655,-9.2038 z" />
    <path
       inkscape:connector-curvature="0"
       id="path4163"
       style="font-style:normal;font-variant:normal;font-weight:normal;font-stretch:normal;font-size:medium;line-height:125%;font-family:'Myriad Pro';-inkscape-font-specification:'Myriad Pro, Normal';text-align:start;letter-spacing:0px;word-spacing:0px;writing-mode:lr-tb;text-anchor:start;fill:#4d8e06;fill-opacity:1;stroke:none;stroke-width:1px;stroke-linecap:butt;stroke-linejoin:miter;stroke-opacity:1"
       d="m 230.00502,1026.6122 0,13.0032 c 0,6.8783 4.04812,9.433 9.41966,9.433 5.68293,0 9.92567,-2.7513 9.92567,-9.5313 l 0,-12.9049 -3.42533,0 0,13.1015 c 0,4.8475 -2.53007,7.0092 -6.38357,7.0092 -3.50318,0 -6.1111,-2.0962 -6.1111,-7.0092 l 0,-13.1015 -3.42533,0 z" />
    <path
       inkscape:connector-curvature="0"
       id="path4165"
       style="font-style:normal;font-variant:normal;font-weight:normal;font-stretch:normal;font-size:medium;line-height:125%;font-family:'Myriad Pro';-inkscape-font-specification:'Myriad Pro, Normal';text-align:start;letter-spacing:0px;word-spacing:0px;writing-mode:lr-tb;text-anchor:start;fill:#4d8e06;fill-opacity:1;stroke:none;stroke-width:1px;stroke-linecap:butt;stroke-linejoin:miter;stroke-opacity:1"
       d="m 255.20783,1048.6881 3.38641,0 0,-9.564 3.19178,0 c 3.07501,0.098 4.51521,1.2446 5.29369,4.2907 0.70064,2.7513 1.2845,4.6183 1.71267,5.2733 l 3.50318,0 c -0.54494,-0.8515 -1.16773,-2.9805 -2.02406,-6.0594 -0.62279,-2.2927 -1.82944,-3.8649 -3.81457,-4.4544 l 0,-0.098 c 2.72469,-0.7861 4.90445,-2.7186 4.90445,-5.6009 0,-1.7359 -0.77849,-3.2426 -2.06299,-4.2252 -1.59589,-1.2119 -3.97027,-1.8014 -7.59022,-1.8014 -2.29653,0 -4.78767,0.1965 -6.50034,0.4585 l 0,21.7811 z m 3.38641,-19.7831 c 0.58386,-0.131 1.71266,-0.2293 3.34748,-0.2293 3.58103,0 6.03325,1.2447 6.03325,4.0942 0,2.522 -2.29653,4.1925 -5.91648,4.1925 l -3.46425,0 0,-8.0574 z" />
    <path
       inkscape:connector-curvature="0"
       id="path4167"
       style="font-style:normal;font-variant:normal;font-weight:normal;font-stretch:normal;font-size:medium;line-height:125%;font-family:'Myriad Pro';-inkscape-font-specification:'Myriad Pro, Normal';text-align:start;letter-spacing:0px;word-spacing:0px;writing-mode:lr-tb;text-anchor:start;fill:#ffffff;fill-opacity:1;stroke:none;stroke-width:1px;stroke-linecap:butt;stroke-linejoin:miter;stroke-opacity:1"
       d="m 283.07756,1047.6073 c 1.40127,0.7861 4.16489,1.4411 6.69497,1.4411 6.18895,0 9.14719,-2.9805 9.14719,-6.3869 0,-3.2426 -2.21868,-5.0441 -6.65604,-6.4852 -3.61996,-1.1791 -5.21585,-2.1945 -5.21585,-4.258 0,-1.5066 1.36235,-3.3081 4.94338,-3.3081 2.37437,0 4.12596,0.6223 4.94337,1.0481 l 0.93418,-2.3255 c -1.1288,-0.5568 -3.11393,-1.0808 -5.76078,-1.0808 -5.09907,0 -8.48548,2.5547 -8.48548,5.9939 0,3.0788 2.64685,4.9785 6.92851,6.2886 3.5421,1.1137 4.94337,2.3255 4.94337,4.3563 0,2.2272 -2.02405,3.7666 -5.48831,3.7666 -2.33545,0 -4.51521,-0.6223 -6.03325,-1.4411 l -0.89526,2.391 z" />
    <path
       inkscape:connector-curvature="0"
       id="path4169"
       style="font-style:normal;font-variant:normal;font-weight:normal;font-stretch:normal;font-size:medium;line-height:125%;font-family:'Myriad Pro';-inkscape-font-specification:'Myriad Pro, Normal';text-align:start;letter-spacing:0px;word-spacing:0px;writing-mode:lr-tb;text-anchor:start;fill:#ffffff;fill-opacity:1;stroke:none;stroke-width:1px;stroke-linecap:butt;stroke-linejoin:miter;stroke-opacity:1"
       d="m 326.29073,1048.6881 3.34748,0 -1.63481,-22.0759 -4.32059,0 -4.67091,10.6777 c -1.16772,2.7841 -2.1019,5.2078 -2.80254,7.4351 l -0.0779,0 c -0.70063,-2.2928 -1.55697,-4.7165 -2.64684,-7.4351 l -4.47629,-10.6777 -4.32058,0 -1.82944,22.0759 3.23071,0 0.70063,-9.4657 c 0.23355,-3.3409 0.42817,-7.0093 0.50602,-9.7606 l 0.0778,0 c 0.73956,2.6203 1.75159,5.4371 2.99716,8.5814 l 4.28166,10.5139 2.569,0 4.63198,-10.7104 c 1.32342,-3.0461 2.37438,-5.8301 3.30856,-8.3849 l 0.0779,0 c 0,2.7185 0.23354,6.4525 0.42816,9.5313 l 0.62279,9.695 z" />
    <path
       inkscape:connector-curvature="0"
       id="path4171"
       style="font-style:normal;font-variant:normal;font-weight:normal;font-stretch:normal;font-size:medium;line-height:125%;font-family:'Myriad Pro';-inkscape-font-specification:'Myriad Pro, Normal';text-align:start;letter-spacing:0px;word-spacing:0px;writing-mode:lr-tb;text-anchor:start;fill:#ffffff;fill-opacity:1;stroke:none;stroke-width:1px;stroke-linecap:butt;stroke-linejoin:miter;stroke-opacity:1"
       d="m 348.04633,1041.7444 2.80254,6.9437 3.61995,0 -8.95257,-22.0759 -4.04811,0 -8.95257,22.0759 3.50318,0 2.72469,-6.9437 9.30289,0 z m -8.60225,-2.2273 2.56899,-6.3869 c 0.54494,-1.3429 0.93419,-2.7185 1.32343,-3.9959 l 0.0779,0 c 0.38924,1.2774 0.77848,2.5875 1.36234,4.0287 l 2.60793,6.3541 -7.94054,0 z" />
    <path
       inkscape:connector-curvature="0"
       id="path4173"
       style="font-style:normal;font-variant:normal;font-weight:normal;font-stretch:normal;font-size:medium;line-height:125%;font-family:'Myriad Pro';-inkscape-font-specification:'Myriad Pro, Normal';text-align:start;letter-spacing:0px;word-spacing:0px;writing-mode:lr-tb;text-anchor:start;fill:#ffffff;fill-opacity:1;stroke:none;stroke-width:1px;stroke-linecap:butt;stroke-linejoin:miter;stroke-opacity:1"
       d="m 358.29616,1048.6881 3.38641,0 0,-9.564 3.19178,0 c 3.07501,0.098 4.51521,1.2446 5.29369,4.2907 0.70064,2.7513 1.2845,4.6183 1.71267,5.2733 l 3.50318,0 c -0.54494,-0.8515 -1.16773,-2.9805 -2.02406,-6.0594 -0.62279,-2.2927 -1.82944,-3.8649 -3.81457,-4.4544 l 0,-0.098 c 2.72469,-0.7861 4.90445,-2.7186 4.90445,-5.6009 0,-1.7359 -0.77849,-3.2426 -2.06299,-4.2252 -1.59589,-1.2119 -3.97027,-1.8014 -7.59022,-1.8014 -2.29652,0 -4.78767,0.1965 -6.50034,0.4585 l 0,21.7811 z m 3.38641,-19.7831 c 0.58386,-0.131 1.71266,-0.2293 3.34748,-0.2293 3.58103,0 6.03325,1.2447 6.03325,4.0942 0,2.522 -2.29653,4.1925 -5.91648,4.1925 l -3.46425,0 0,-8.0574 z" />
    <path
       inkscape:connector-curvature="0"
       id="path4175"
       style="font-style:normal;font-variant:normal;font-weight:normal;font-stretch:normal;font-size:medium;line-height:125%;font-family:'Myriad Pro';-inkscape-font-specification:'Myriad Pro, Normal';text-align:start;letter-spacing:0px;word-spacing:0px;writing-mode:lr-tb;text-anchor:start;fill:#ffffff;fill-opacity:1;stroke:none;stroke-width:1px;stroke-linecap:butt;stroke-linejoin:miter;stroke-opacity:1"
       d="m 384.56514,1048.6881 3.42533,0 0,-19.6521 8.01838,0 0,-2.4238 -19.42318,0 0,2.4238 7.97947,0 0,19.6521 z" />
    <path
       inkscape:connector-curvature="0"
       id="path4177"
       style="font-style:normal;font-variant:normal;font-weight:normal;font-stretch:normal;font-size:medium;line-height:125%;font-family:'Myriad Pro';-inkscape-font-specification:'Myriad Pro, Normal';text-align:start;letter-spacing:0px;word-spacing:0px;writing-mode:lr-tb;text-anchor:start;fill:#ffffff;fill-opacity:1;stroke:none;stroke-width:1px;stroke-linecap:butt;stroke-linejoin:miter;stroke-opacity:1"
       d="m 407.14057,1026.6122 0,22.0759 3.42533,0 0,-10.3501 12.68929,0 0,10.3501 3.42533,0 0,-22.0759 -3.42533,0 0,9.2365 -12.68929,0 0,-9.2365 -3.42533,0 z" />
    <path
       inkscape:connector-curvature="0"
       id="path4179"
       style="font-style:normal;font-variant:normal;font-weight:normal;font-stretch:normal;font-size:medium;line-height:125%;font-family:'Myriad Pro';-inkscape-font-specification:'Myriad Pro, Normal';text-align:start;letter-spacing:0px;word-spacing:0px;writing-mode:lr-tb;text-anchor:start;fill:#ffffff;fill-opacity:1;stroke:none;stroke-width:1px;stroke-linecap:butt;stroke-linejoin:miter;stroke-opacity:1"
       d="m 443.15884,1026.2192 c -7.00635,0 -12.14435,4.5855 -12.14435,11.5948 0,6.6817 4.8266,11.2344 11.79404,11.2344 6.69496,0 12.18327,-4.0614 12.18327,-11.6275 0,-6.5834 -4.63198,-11.2017 -11.83296,-11.2017 z m -0.11677,2.3255 c 5.64401,0 8.36871,4.5855 8.36871,9.0072 0,5.0113 -3.03609,9.171 -8.40763,9.171 -5.37154,0 -8.40763,-4.2252 -8.40763,-8.9744 0,-4.8148 2.80254,-9.2038 8.44655,-9.2038 z" />
    <path
       inkscape:connector-curvature="0"
       id="path4181"
       style="font-style:normal;font-variant:normal;font-weight:normal;font-stretch:normal;font-size:medium;line-height:125%;font-family:'Myriad Pro';-inkscape-font-specification:'Myriad Pro, Normal';text-align:start;letter-spacing:0px;word-spacing:0px;writing-mode:lr-tb;text-anchor:start;fill:#ffffff;fill-opacity:1;stroke:none;stroke-width:1px;stroke-linecap:butt;stroke-linejoin:miter;stroke-opacity:1"
       d="m 482.13961,1048.6881 3.34748,0 -1.63482,-22.0759 -4.32058,0 -4.67091,10.6777 c -1.16772,2.7841 -2.10191,5.2078 -2.80254,7.4351 l -0.0779,0 c -0.70064,-2.2928 -1.55697,-4.7165 -2.64685,-7.4351 l -4.47628,-10.6777 -4.32059,0 -1.82943,22.0759 3.2307,0 0.70064,-9.4657 c 0.23355,-3.3409 0.42817,-7.0093 0.50601,-9.7606 l 0.0779,0 c 0.73956,2.6203 1.75159,5.4371 2.99717,8.5814 l 4.28166,10.5139 2.569,0 4.63198,-10.7104 c 1.32342,-3.0461 2.37438,-5.8301 3.30856,-8.3849 l 0.0778,0 c 0,2.7185 0.23355,6.4525 0.42817,9.5313 l 0.62279,9.695 z" />
    <path
       inkscape:connector-curvature="0"
       id="path4183"
       style="font-style:normal;font-variant:normal;font-weight:normal;font-stretch:normal;font-size:medium;line-height:125%;font-family:'Myriad Pro';-inkscape-font-specification:'Myriad Pro, Normal';text-align:start;letter-spacing:0px;word-spacing:0px;writing-mode:lr-tb;text-anchor:start;fill:#ffffff;fill-opacity:1;stroke:none;stroke-width:1px;stroke-linecap:butt;stroke-linejoin:miter;stroke-opacity:1"
       d="m 504.27532,1035.9798 -10.15922,0 0,-6.9765 10.78201,0 0,-2.3911 -14.20734,0 0,22.0759 14.7912,0 0,-2.391 -11.36587,0 0,-7.9591 10.15922,0 0,-2.3582 z" />
    <path
       inkscape:connector-curvature="0"
       id="path4185"
       style="font-style:normal;font-variant:normal;font-weight:normal;font-stretch:normal;font-size:medium;line-height:125%;font-family:'Myriad Pro';-inkscape-font-specification:'Myriad Pro, Normal';text-align:start;letter-spacing:0px;word-spacing:0px;writing-mode:lr-tb;text-anchor:start;fill:#ffffff;fill-opacity:1;stroke:none;stroke-width:1px;stroke-linecap:butt;stroke-linejoin:miter;stroke-opacity:1"
       d="m 511.05908,1049.0484 c 1.44019,0 2.37437,-0.8843 2.37437,-2.0634 0,-1.2119 -0.93418,-2.0635 -2.29652,-2.0635 -1.36235,0 -2.33546,0.8843 -2.33546,2.0635 0,1.1791 0.93418,2.0634 2.25761,2.0634 z" />
  </g>
</svg>
