<?xml version="1.0" encoding="UTF-8" standalone="no"?>
<svg
   xmlns:dc="http://purl.org/dc/elements/1.1/"
   xmlns:cc="http://creativecommons.org/ns#"
   xmlns:rdf="http://www.w3.org/1999/02/22-rdf-syntax-ns#"
   xmlns:svg="http://www.w3.org/2000/svg"
   xmlns="http://www.w3.org/2000/svg"
   xmlns:sodipodi="http://sodipodi.sourceforge.net/DTD/sodipodi-0.dtd"
   xmlns:inkscape="http://www.inkscape.org/namespaces/inkscape"
   height="16"
   id="svg4658"
   version="1.1"
   viewBox="0 0 16.000002 16"
   width="16"
   inkscape:version="0.91 r13725"
   sodipodi:docname="notification_error_small.svg">
  <title
     id="title4141">Error</title>
  <metadata
     id="metadata13">
    <rdf:RDF>
      <cc:Work
         rdf:about="">
        <dc:format>image/svg+xml</dc:format>
        <dc:type
           rdf:resource="http://purl.org/dc/dcmitype/StillImage" />
        <dc:title>Error</dc:title>
      </cc:Work>
    </rdf:RDF>
  </metadata>
  <sodipodi:namedview
     pagecolor="#ffffff"
     bordercolor="#666666"
     borderopacity="1"
     objecttolerance="10"
     gridtolerance="10"
     guidetolerance="10"
     inkscape:pageopacity="0"
     inkscape:pageshadow="2"
     inkscape:window-width="1920"
     inkscape:window-height="1057"
     id="namedview11"
     showgrid="false"
     inkscape:zoom="20.094487"
     inkscape:cx="5.7199961"
     inkscape:cy="15.398682"
     inkscape:window-x="-8"
     inkscape:window-y="1072"
     inkscape:window-maximized="1"
     inkscape:current-layer="g4143"
     units="px" />
  <defs
     id="defs4660" />
  <g
     id="layer2"
     transform="matrix(0.15537045,0,0,0.15557762,-223.48131,-133.04355)">
    <g
       id="g4143"
       transform="matrix(0.28019896,0,0,0.28019896,1035.9143,688.61721)">
      <ellipse
         ry="179.69301"
         rx="179.69298"
         style="display:inline;opacity:1;fill:#ef2929;fill-opacity:1;stroke:none;stroke-width:20;stroke-miterlimit:4;stroke-dasharray:none;stroke-opacity:0.63372091"
         id="circle5045-7"
         cy="775.89459"
         cx="1620.9431" />
      <path
         inkscape:connector-curvature="0"
         style="display:inline;opacity:1;fill:#ffffff;fill-opacity:1;stroke:none;stroke-width:20;stroke-miterlimit:4;stroke-dasharray:none;stroke-opacity:0.63372091"
         id="path5047"
         d="m 1619.6667,645.83417 c -12.7998,0 -24.2014,9.04212 -30.8547,19.15574 -9.7244,14.78173 -8.1322,34.80494 -7.858,52.49634 0.4531,29.2209 4.574,59.37079 15.6608,86.26293 6.2211,15.08994 11.9208,28.90065 24.4105,28.85549 11.0426,-0.0398 18.5571,-16.23293 22.2213,-28.2711 8.8381,-29.03749 17.4415,-56.54542 17.8491,-86.84732 0.255,-18.95885 0.8558,-40.72568 -10.5092,-55.90267 -6.9331,-9.25848 -18.8494,-15.74941 -30.9198,-15.74941 z m 2.0374,209.86179 a 25.129109,25.129113 0 0 0 -25.1292,25.12936 25.129109,25.129113 0 0 0 25.1292,25.12931 25.129109,25.129113 0 0 0 25.1293,-25.12931 25.129109,25.129113 0 0 0 -25.1293,-25.12936 z" />
    </g>
  </g>
</svg>
