<?xml version="1.0" encoding="UTF-8" standalone="no"?>
<!-- Generator: Adobe Illustrator 16.0.0, SVG Export Plug-In . SVG Version: 6.00 Build 0)  -->

<svg
   xmlns:dc="http://purl.org/dc/elements/1.1/"
   xmlns:cc="http://creativecommons.org/ns#"
   xmlns:rdf="http://www.w3.org/1999/02/22-rdf-syntax-ns#"
   xmlns:svg="http://www.w3.org/2000/svg"
   xmlns="http://www.w3.org/2000/svg"
   xmlns:sodipodi="http://sodipodi.sourceforge.net/DTD/sodipodi-0.dtd"
   xmlns:inkscape="http://www.inkscape.org/namespaces/inkscape"
   version="1.1"
   id="Layer_1"
   x="0px"
   y="0px"
   width="24"
   height="24"
   viewBox="0 0 24 24"
   enable-background="new 0 0 512 512"
   xml:space="preserve"
   inkscape:version="0.91 r13725"
   sodipodi:docname="download.svg"><metadata
     id="metadata13"><rdf:RDF><cc:Work
         rdf:about=""><dc:format>image/svg+xml</dc:format><dc:type
           rdf:resource="http://purl.org/dc/dcmitype/StillImage" /><dc:title></dc:title></cc:Work></rdf:RDF></metadata><defs
     id="defs11" /><sodipodi:namedview
     pagecolor="#ffffff"
     bordercolor="#666666"
     borderopacity="1"
     objecttolerance="10"
     gridtolerance="10"
     guidetolerance="10"
     inkscape:pageopacity="0"
     inkscape:pageshadow="2"
     inkscape:window-width="1920"
     inkscape:window-height="1057"
     id="namedview9"
     showgrid="false"
     inkscape:zoom="10.429825"
     inkscape:cx="13.271177"
     inkscape:cy="19.091907"
     inkscape:window-x="-8"
     inkscape:window-y="-8"
     inkscape:window-maximized="1"
     inkscape:current-layer="Layer_1" /><g
     id="g3"
     transform="matrix(0.04301604,0,0,0.04301604,1.1772445,2.244638)"
     style="opacity:0.6"><path
       d="m 448.608,351.791 c -18.444,0 -33.4,14.952 -33.4,33.396 l 0,52.055 -318.42,0 0,-52.055 c 0,-18.443 -14.952,-33.396 -33.396,-33.396 -18.444,0 -33.396,14.952 -33.396,33.396 l 0,85.451 c 0,18.443 14.952,33.4 33.396,33.4 l 385.217,0 c 18.443,0 33.396,-14.957 33.396,-33.4 l 0,-85.451 c 0,-18.444 -14.953,-33.396 -33.397,-33.396 z"
       id="path5"
       inkscape:connector-curvature="0" /><path
       d="m 245.918,387.325 c 5.563,5.559 14.6,5.559 20.157,0 L 383.114,270.287 c 3.41,-3.41 4.423,-8.532 2.579,-13 -1.844,-4.45 -6.18,-7.351 -11.012,-7.351 l -54.954,0 0,-215.912 c 0,-14.402 -11.661,-26.063 -26.06,-26.063 l -75.323,0 c -14.398,0 -26.06,11.66 -26.06,26.063 l 0,215.912 -54.973,0 c -4.827,0 -9.163,2.9 -11.007,7.351 -1.844,4.468 -0.83,9.59 2.575,13 l 117.039,117.038 z"
       id="path7"
       inkscape:connector-curvature="0" /></g></svg>