<svg id="svg" version="1.1" width="400" height="400" xmlns="http://www.w3.org/2000/svg" xmlns:xlink="http://www.w3.org/1999/xlink" style="display: block;"><g id="svgg"><path id="path0" d="M179.764 129.960 C 180.466 130.736,182.184 131.421,181.777 130.763 C 181.654 130.563,181.313 130.400,181.019 130.400 C 180.726 130.400,180.382 130.130,180.255 129.800 C 180.129 129.470,179.812 129.200,179.551 129.200 C 179.259 129.200,179.342 129.494,179.764 129.960 M193.500 140.733 C 194.298 141.569,194.609 141.521,194.262 140.617 C 194.132 140.278,193.749 140.000,193.413 140.000 C 192.894 140.000,192.908 140.113,193.500 140.733 M213.200 155.964 C 213.200 156.150,213.470 156.526,213.800 156.800 C 214.288 157.205,214.400 157.185,214.400 156.692 C 214.400 156.358,214.130 155.982,213.800 155.855 C 213.470 155.729,213.200 155.777,213.200 155.964 M54.629 157.829 C 54.262 158.195,54.052 158.585,54.162 158.695 C 54.272 158.805,54.662 158.595,55.029 158.229 C 55.395 157.862,55.605 157.472,55.495 157.362 C 55.385 157.252,54.995 157.462,54.629 157.829 M256.937 195.400 C 256.939 197.160,257.009 197.830,257.093 196.889 C 257.178 195.949,257.177 194.509,257.091 193.689 C 257.005 192.870,256.936 193.640,256.937 195.400 M253.984 203.230 C 253.577 203.990,253.610 204.023,254.370 203.616 C 254.826 203.372,255.200 202.998,255.200 202.786 C 255.200 202.099,254.441 202.377,253.984 203.230 M251.500 205.632 C 250.748 206.070,250.552 206.800,251.186 206.800 C 251.398 206.800,251.765 206.440,252.000 206.000 C 252.487 205.090,252.462 205.072,251.500 205.632 M238.409 215.921 C 237.009 216.880,235.927 218.000,236.400 218.000 C 236.620 218.000,237.129 217.671,237.531 217.269 C 237.932 216.868,238.562 216.423,238.931 216.282 C 239.299 216.141,239.600 215.839,239.600 215.613 C 239.600 215.100,239.611 215.097,238.409 215.921 M231.029 221.409 C 230.605 221.729,230.382 222.115,230.533 222.267 C 230.685 222.418,231.174 222.150,231.620 221.671 C 232.538 220.685,232.190 220.530,231.029 221.409 M223.987 227.140 C 223.210 227.943,222.940 228.312,223.387 227.960 C 223.834 227.607,224.515 227.208,224.900 227.072 C 225.285 226.936,225.600 226.549,225.600 226.213 C 225.600 225.442,225.666 225.404,223.987 227.140 M51.084 229.200 C 51.199 229.640,51.570 230.000,51.909 230.000 C 52.426 230.000,52.409 229.873,51.800 229.200 C 51.402 228.760,51.031 228.400,50.975 228.400 C 50.920 228.400,50.969 228.760,51.084 229.200 M216.562 232.858 C 215.804 233.712,215.805 233.714,216.700 233.244 C 217.195 232.984,217.600 232.598,217.600 232.386 C 217.600 231.818,217.409 231.905,216.562 232.858 M287.200 232.386 C 287.200 232.598,287.605 232.984,288.100 233.244 C 288.995 233.714,288.996 233.712,288.238 232.858 C 287.391 231.905,287.200 231.818,287.200 232.386 M327.362 232.858 C 326.604 233.712,326.605 233.714,327.500 233.244 C 327.995 232.984,328.400 232.598,328.400 232.386 C 328.400 231.818,328.209 231.905,327.362 232.858 M54.032 232.713 C 54.014 232.994,54.315 233.343,54.700 233.488 C 55.085 233.632,55.635 234.032,55.922 234.375 C 56.363 234.903,56.377 234.861,56.008 234.100 C 55.768 233.605,55.323 233.200,55.019 233.200 C 54.715 233.200,54.376 232.975,54.265 232.700 C 54.107 232.308,54.056 232.311,54.032 232.713 M295.200 235.800 C 295.474 236.130,295.878 236.400,296.098 236.400 C 296.321 236.400,296.278 236.135,296.000 235.800 C 295.726 235.470,295.322 235.200,295.102 235.200 C 294.879 235.200,294.922 235.465,295.200 235.800 M80.900 236.700 C 91.185 236.759,108.015 236.759,118.300 236.700 C 128.585 236.640,120.170 236.592,99.600 236.592 C 79.030 236.592,70.615 236.640,80.900 236.700 M211.093 237.200 C 210.716 237.640,210.546 238.000,210.715 238.000 C 210.884 238.000,211.330 237.640,211.707 237.200 C 212.084 236.760,212.254 236.400,212.085 236.400 C 211.916 236.400,211.470 236.760,211.093 237.200 M208.584 238.427 C 208.160 239.113,208.539 239.180,209.377 238.567 C 210.026 238.093,210.046 238.000,209.500 238.000 C 209.141 238.000,208.729 238.192,208.584 238.427 M198.400 246.644 C 198.070 246.962,197.260 247.661,196.600 248.198 C 195.940 248.735,195.618 249.180,195.884 249.187 C 196.151 249.194,196.691 248.869,197.084 248.464 C 197.478 248.059,198.115 247.615,198.500 247.477 C 198.885 247.338,199.200 246.949,199.200 246.613 C 199.200 245.892,199.181 245.893,198.400 246.644 M191.756 251.992 C 190.874 252.348,190.140 253.600,190.813 253.600 C 191.026 253.600,191.200 253.330,191.200 253.000 C 191.200 252.670,191.459 252.400,191.776 252.400 C 192.093 252.400,192.464 252.220,192.600 252.000 C 192.885 251.539,192.878 251.539,191.756 251.992 M182.428 258.966 C 181.796 259.728,181.985 260.104,182.760 259.625 C 183.056 259.442,183.224 259.072,183.134 258.802 C 183.018 258.454,182.814 258.501,182.428 258.966 M168.577 269.767 C 168.150 270.079,167.907 270.440,168.036 270.570 C 168.166 270.699,168.598 270.444,168.998 270.002 C 169.848 269.063,169.673 268.966,168.577 269.767 M162.229 274.629 C 161.805 274.938,161.585 275.318,161.739 275.472 C 161.893 275.626,162.319 275.452,162.686 275.086 C 163.549 274.222,163.226 273.899,162.229 274.629 M154.831 280.620 C 153.872 281.379,153.265 282.000,153.482 282.000 C 153.699 282.000,154.202 281.640,154.600 281.200 C 154.998 280.760,155.555 280.400,155.838 280.400 C 156.121 280.400,156.471 280.208,156.616 279.973 C 157.185 279.053,156.495 279.303,154.831 280.620 M136.800 279.900 C 136.800 280.069,137.160 280.432,137.600 280.707 C 138.040 280.982,138.400 281.069,138.400 280.900 C 138.400 280.731,138.040 280.368,137.600 280.093 C 137.160 279.818,136.800 279.731,136.800 279.900 M140.400 283.924 C 140.400 284.505,141.904 285.309,142.522 285.058 C 142.838 284.929,142.807 284.852,142.431 284.832 C 142.119 284.814,141.534 284.502,141.131 284.138 C 140.719 283.765,140.400 283.671,140.400 283.924 " stroke="none" fill="#000000" fill-rule="evenodd"></path><path id="path1" d="M140.353 107.543 C 140.327 107.684,140.328 107.939,140.356 108.109 C 140.383 108.279,139.955 108.589,139.403 108.799 C 138.851 109.009,138.400 109.365,138.400 109.590 C 138.400 109.816,138.040 110.360,137.600 110.800 C 136.819 111.581,136.800 112.133,136.800 133.600 L 136.800 155.600 97.800 155.600 C 59.333 155.600,58.789 155.611,58.000 156.400 C 57.560 156.840,56.840 157.200,56.400 157.200 C 55.959 157.200,55.600 157.467,55.600 157.795 C 55.600 158.122,54.967 158.654,54.194 158.977 C 53.144 159.415,52.725 159.874,52.544 160.782 C 52.410 161.452,52.072 162.000,51.793 162.000 C 50.839 162.000,50.800 163.313,50.800 195.400 C 50.800 226.197,50.870 229.051,51.613 228.592 C 51.794 228.480,52.059 228.757,52.202 229.207 C 52.487 230.103,54.246 232.021,54.526 231.740 C 54.622 231.644,54.811 231.853,54.946 232.204 C 55.088 232.573,55.024 232.739,54.795 232.597 C 54.578 232.463,54.400 232.449,54.400 232.566 C 54.400 232.961,56.595 233.892,57.100 233.712 C 57.401 233.604,57.514 233.759,57.383 234.100 C 57.263 234.412,57.398 234.697,57.683 234.734 C 59.949 235.028,61.241 235.342,61.427 235.644 C 61.548 235.840,61.862 235.997,62.124 235.994 C 62.410 235.990,62.361 235.833,62.000 235.600 C 61.580 235.329,61.554 235.210,61.913 235.206 C 62.194 235.203,62.529 235.470,62.655 235.800 C 62.858 236.327,67.361 236.400,99.843 236.400 L 136.800 236.400 136.800 257.804 C 136.800 278.713,136.819 279.224,137.600 279.893 C 138.040 280.270,138.400 280.731,138.400 280.917 C 138.400 281.296,139.421 282.408,139.652 282.281 C 139.734 282.236,139.757 282.273,139.703 282.363 C 139.426 282.832,140.648 283.600,141.673 283.600 C 142.366 283.600,142.744 283.766,142.596 284.007 C 142.458 284.230,142.132 284.294,141.872 284.148 C 141.533 283.957,141.537 284.030,141.887 284.408 C 142.654 285.237,148.375 285.123,149.001 284.267 C 149.269 283.900,149.774 283.600,150.123 283.600 C 150.473 283.600,151.244 283.150,151.838 282.600 C 152.431 282.050,153.058 281.600,153.231 281.600 C 153.405 281.600,153.661 281.237,153.802 280.794 C 153.943 280.351,154.227 280.093,154.434 280.221 C 154.831 280.466,156.199 279.510,158.758 277.200 C 160.348 275.764,160.849 275.389,163.100 273.951 C 163.815 273.495,164.400 272.980,164.400 272.807 C 164.400 272.635,164.778 272.394,165.240 272.274 C 165.702 272.153,165.970 271.875,165.834 271.656 C 165.699 271.437,165.996 271.132,166.494 270.978 C 166.992 270.824,167.670 270.452,168.000 270.151 C 169.159 269.094,171.118 267.600,171.344 267.600 C 171.470 267.600,172.176 267.015,172.913 266.300 C 173.650 265.585,174.601 264.792,175.027 264.537 C 175.452 264.283,175.755 263.878,175.700 263.637 C 175.645 263.397,175.818 263.245,176.085 263.300 C 176.352 263.355,176.755 262.995,176.980 262.500 C 177.226 261.959,177.745 261.600,178.279 261.600 C 178.769 261.600,179.546 261.195,180.007 260.700 C 180.468 260.205,181.060 259.792,181.323 259.782 C 181.585 259.772,181.760 259.563,181.712 259.317 C 181.663 259.071,182.113 258.693,182.712 258.476 C 183.310 258.259,184.475 257.433,185.301 256.641 C 186.126 255.848,187.091 255.200,187.444 255.200 C 187.859 255.200,188.002 254.981,187.847 254.579 C 187.716 254.238,187.762 254.053,187.949 254.169 C 188.358 254.421,192.005 251.892,192.494 251.017 C 192.684 250.678,193.061 250.400,193.331 250.400 C 193.601 250.400,194.120 250.085,194.483 249.700 C 195.309 248.825,196.379 247.921,197.205 247.400 C 197.553 247.180,198.414 246.640,199.117 246.200 C 199.820 245.760,200.396 245.175,200.397 244.900 C 200.399 244.625,200.593 244.400,200.829 244.400 C 201.421 244.400,202.418 243.351,202.114 243.048 C 201.978 242.911,202.257 242.800,202.733 242.800 C 203.210 242.800,203.960 242.440,204.400 242.000 C 204.840 241.560,205.376 241.200,205.591 241.200 C 205.806 241.200,206.275 240.752,206.635 240.203 C 206.994 239.655,207.449 239.307,207.647 239.429 C 207.844 239.551,208.119 239.356,208.257 238.995 C 208.396 238.634,208.945 238.173,209.479 237.970 C 210.064 237.747,210.335 237.418,210.162 237.139 C 209.985 236.852,210.052 236.785,210.338 236.962 C 210.592 237.119,210.800 237.027,210.800 236.757 C 210.800 236.487,210.914 236.380,211.053 236.519 C 211.448 236.915,212.800 236.038,212.800 235.386 C 212.800 235.061,213.167 234.800,213.624 234.800 C 214.085 234.800,214.336 234.619,214.194 234.390 C 214.054 234.164,214.493 233.786,215.170 233.551 C 215.846 233.315,216.400 232.869,216.400 232.561 C 216.400 232.252,216.636 232.000,216.924 232.000 C 217.211 232.000,217.796 231.717,218.224 231.370 C 218.651 231.024,218.775 230.855,218.500 230.994 C 218.225 231.133,218.000 231.149,218.000 231.029 C 218.000 230.909,218.630 230.548,219.400 230.226 C 220.170 229.904,220.800 229.452,220.800 229.220 C 220.800 228.989,221.076 228.800,221.413 228.800 C 221.749 228.800,222.134 228.516,222.267 228.169 C 222.400 227.823,222.945 227.373,223.479 227.170 C 224.012 226.967,224.334 226.617,224.194 226.391 C 224.055 226.165,224.089 226.023,224.270 226.075 C 224.818 226.233,226.437 225.189,227.872 223.754 C 228.617 223.009,229.401 222.400,229.613 222.400 C 229.826 222.400,230.341 222.085,230.757 221.700 C 231.173 221.315,232.246 220.476,233.141 219.835 C 234.035 219.195,234.685 218.538,234.584 218.374 C 234.483 218.211,234.941 217.890,235.600 217.660 C 236.260 217.430,236.800 217.052,236.800 216.821 C 236.800 216.589,236.999 216.400,237.242 216.400 C 237.648 216.400,238.650 215.675,241.134 213.586 C 241.648 213.154,242.233 212.800,242.434 212.800 C 242.635 212.800,242.800 212.530,242.800 212.200 C 242.800 211.867,243.156 211.600,243.600 211.600 C 244.325 211.600,244.594 211.173,244.437 210.270 C 244.406 210.089,244.550 210.046,244.758 210.174 C 244.966 210.302,245.414 210.129,245.753 209.789 C 246.093 209.450,246.483 209.193,246.619 209.219 C 246.755 209.245,246.987 209.133,247.133 208.969 C 247.280 208.806,247.187 208.794,246.928 208.942 C 246.668 209.091,246.342 209.030,246.204 208.807 C 246.055 208.565,246.453 208.400,247.189 208.400 C 247.945 208.400,248.519 208.155,248.667 207.769 C 248.800 207.423,249.360 206.967,249.910 206.758 C 250.461 206.549,250.793 206.260,250.649 206.115 C 250.505 205.971,250.916 205.631,251.563 205.359 C 252.210 205.087,253.064 204.355,253.460 203.732 C 253.857 203.109,254.410 202.456,254.690 202.280 C 254.971 202.104,255.200 201.727,255.200 201.441 C 255.200 201.156,255.566 200.500,256.014 199.984 C 256.990 198.858,257.067 191.307,256.100 191.500 C 255.825 191.555,255.639 191.465,255.687 191.300 C 255.848 190.745,254.846 188.400,254.448 188.400 C 254.231 188.400,253.940 188.040,253.800 187.600 C 253.660 187.160,253.295 186.800,252.987 186.800 C 252.680 186.800,252.235 186.440,252.000 186.000 C 251.765 185.560,251.398 185.200,251.186 185.200 C 250.974 185.200,250.440 184.840,250.000 184.400 C 249.560 183.960,248.840 183.600,248.400 183.600 C 247.935 183.600,247.600 183.333,247.600 182.963 C 247.600 182.612,247.240 182.231,246.800 182.116 C 246.360 182.001,246.000 181.670,246.000 181.380 C 246.000 181.091,245.657 180.745,245.237 180.612 C 244.817 180.479,244.373 180.106,244.250 179.785 C 244.126 179.463,243.724 179.200,243.357 179.200 C 242.989 179.200,242.430 178.885,242.114 178.500 C 241.799 178.115,241.655 178.025,241.794 178.300 C 241.933 178.575,241.857 178.800,241.624 178.800 C 241.391 178.800,241.200 178.542,241.200 178.227 C 241.200 177.912,240.840 177.540,240.400 177.400 C 239.960 177.260,239.600 176.888,239.600 176.573 C 239.600 176.258,239.313 176.000,238.963 176.000 C 238.612 176.000,238.231 175.640,238.116 175.200 C 237.976 174.664,237.570 174.400,236.887 174.400 C 236.326 174.400,235.985 174.282,236.130 174.137 C 236.575 173.691,235.553 172.800,234.598 172.800 C 234.030 172.800,233.615 172.502,233.484 172.000 C 233.369 171.560,232.988 171.200,232.637 171.200 C 232.287 171.200,232.000 170.926,232.000 170.590 C 232.000 170.255,231.550 169.809,231.000 169.600 C 230.450 169.391,230.000 169.047,230.000 168.837 C 230.000 168.626,229.595 168.326,229.100 168.170 C 228.605 168.013,227.909 167.551,227.553 167.143 C 227.197 166.734,226.633 166.400,226.300 166.400 C 225.966 166.400,225.599 166.040,225.484 165.600 C 225.369 165.160,224.988 164.800,224.637 164.800 C 224.287 164.800,224.000 164.530,224.000 164.200 C 224.000 163.870,223.758 163.600,223.462 163.600 C 223.166 163.600,222.598 163.240,222.200 162.800 C 221.802 162.360,221.232 162.000,220.934 162.000 C 220.636 162.000,220.084 161.640,219.707 161.200 C 219.330 160.760,218.804 160.400,218.538 160.400 C 218.272 160.400,217.940 160.040,217.800 159.600 C 217.660 159.160,217.295 158.800,216.987 158.800 C 216.680 158.800,216.235 158.440,216.000 158.000 C 215.743 157.520,215.162 157.200,214.548 157.200 C 213.862 157.200,213.456 156.937,213.316 156.400 C 213.200 155.957,212.770 155.600,212.353 155.600 C 211.939 155.600,211.600 155.324,211.600 154.987 C 211.600 154.651,211.285 154.257,210.900 154.114 C 210.515 153.970,209.965 153.526,209.677 153.126 C 209.390 152.727,208.977 152.400,208.761 152.400 C 208.544 152.400,207.980 152.040,207.508 151.600 C 207.036 151.160,206.419 150.800,206.139 150.800 C 205.858 150.800,205.435 150.440,205.200 150.000 C 204.965 149.560,204.508 149.200,204.186 149.200 C 203.864 149.200,203.600 148.942,203.600 148.627 C 203.600 148.312,203.257 147.945,202.837 147.812 C 202.417 147.679,201.979 147.323,201.864 147.022 C 201.749 146.722,201.102 146.354,200.427 146.206 C 199.752 146.058,199.200 145.681,199.200 145.368 C 199.200 145.056,198.936 144.800,198.614 144.800 C 198.292 144.800,197.835 144.440,197.600 144.000 C 197.365 143.560,196.920 143.200,196.613 143.200 C 196.305 143.200,195.940 142.840,195.800 142.400 C 195.660 141.960,195.226 141.600,194.835 141.600 C 194.444 141.600,193.798 141.240,193.400 140.800 C 193.002 140.360,192.344 140.000,191.938 140.000 C 191.467 140.000,191.200 139.711,191.200 139.200 C 191.200 138.667,190.933 138.400,190.400 138.400 C 189.944 138.400,189.600 138.133,189.600 137.779 C 189.600 137.438,189.060 136.970,188.400 136.740 C 187.741 136.510,187.303 136.157,187.427 135.956 C 187.551 135.755,187.101 135.480,186.427 135.345 C 185.752 135.210,185.200 134.847,185.200 134.537 C 185.200 134.228,184.885 133.857,184.500 133.714 C 184.115 133.570,183.565 133.126,183.277 132.726 C 182.990 132.327,182.495 132.000,182.177 132.000 C 181.860 132.000,181.600 131.750,181.600 131.443 C 181.600 130.943,179.855 130.169,179.100 130.334 C 178.935 130.370,178.845 130.182,178.900 129.915 C 178.955 129.648,178.595 129.245,178.100 129.020 C 177.605 128.795,177.200 128.383,177.200 128.105 C 177.200 127.827,176.840 127.600,176.400 127.600 C 175.948 127.600,175.600 127.333,175.600 126.987 C 175.600 126.651,175.285 126.262,174.900 126.123 C 174.515 125.985,173.878 125.541,173.484 125.136 C 173.091 124.731,172.428 124.400,172.011 124.400 C 171.595 124.400,171.146 124.059,171.014 123.643 C 170.882 123.227,170.419 122.794,169.987 122.681 C 169.554 122.567,169.200 122.188,169.200 121.837 C 169.200 121.475,168.868 121.200,168.429 121.200 C 168.005 121.200,167.576 120.885,167.476 120.500 C 167.307 119.853,167.289 119.855,167.246 120.524 C 167.221 120.922,167.028 121.141,166.817 121.011 C 166.607 120.881,166.536 120.510,166.660 120.187 C 166.821 119.768,166.601 119.600,165.889 119.600 C 165.230 119.600,164.823 119.330,164.684 118.800 C 164.569 118.360,164.209 118.000,163.884 118.000 C 163.559 118.000,163.199 117.640,163.084 117.200 C 162.969 116.760,162.588 116.400,162.237 116.400 C 161.887 116.400,161.600 116.216,161.600 115.991 C 161.600 115.767,161.105 115.363,160.500 115.094 C 159.895 114.826,159.051 114.289,158.625 113.903 C 158.198 113.516,157.613 113.200,157.325 113.200 C 157.036 113.200,156.800 112.942,156.800 112.627 C 156.800 112.312,156.440 111.940,156.000 111.800 C 155.560 111.660,155.200 111.288,155.200 110.973 C 155.200 110.658,154.883 110.400,154.496 110.400 C 154.109 110.400,153.568 110.040,153.293 109.600 C 153.016 109.157,152.360 108.800,151.824 108.800 C 151.198 108.800,150.762 108.510,150.594 107.982 C 150.338 107.174,140.498 106.751,140.353 107.543 " stroke="none" fill="#014e8a" fill-rule="evenodd"></path><path id="path2" d="M300.000 154.800 C 299.378 155.422,298.667 155.600,296.800 155.600 C 294.933 155.600,294.222 155.778,293.600 156.400 C 293.151 156.849,292.267 157.200,291.583 157.200 C 290.914 157.200,289.980 157.560,289.508 158.000 C 289.036 158.440,288.233 158.800,287.725 158.800 C 287.195 158.800,286.800 159.041,286.800 159.365 C 286.800 159.712,286.184 160.034,285.200 160.200 C 284.261 160.359,283.600 160.692,283.600 161.008 C 283.600 161.304,283.240 161.660,282.800 161.800 C 282.360 161.940,282.000 162.312,282.000 162.627 C 282.000 162.942,281.736 163.200,281.414 163.200 C 281.092 163.200,280.635 163.560,280.400 164.000 C 280.165 164.440,279.721 164.800,279.414 164.800 C 278.391 164.800,276.000 167.424,276.000 168.547 C 276.000 169.333,275.797 169.600,275.200 169.600 C 274.667 169.600,274.400 169.867,274.400 170.400 C 274.400 170.933,274.133 171.200,273.600 171.200 C 273.103 171.200,272.800 171.467,272.800 171.904 C 272.800 172.291,272.440 172.832,272.000 173.107 C 271.501 173.419,271.200 174.040,271.200 174.757 C 271.200 175.570,270.966 175.968,270.400 176.116 C 269.787 176.276,269.600 176.662,269.600 177.763 C 269.600 178.725,269.416 179.200,269.043 179.200 C 268.310 179.200,268.000 180.083,268.000 182.171 C 268.000 183.381,267.762 184.091,267.182 184.617 C 266.014 185.673,266.123 205.717,267.300 206.577 C 267.792 206.936,268.000 207.638,268.000 208.941 C 268.000 210.360,268.187 210.910,268.800 211.293 C 269.285 211.596,269.600 212.226,269.600 212.893 C 269.600 213.560,269.915 214.190,270.400 214.493 C 270.882 214.794,271.200 215.426,271.200 216.082 C 271.200 216.762,271.501 217.333,272.000 217.600 C 272.440 217.835,272.800 218.367,272.800 218.781 C 272.800 219.196,273.497 220.260,274.350 221.148 C 275.202 222.035,276.006 223.039,276.137 223.380 C 276.268 223.721,276.651 224.000,276.987 224.000 C 277.333 224.000,277.600 224.348,277.600 224.800 C 277.600 225.317,277.867 225.600,278.353 225.600 C 278.770 225.600,279.200 225.957,279.316 226.400 C 279.431 226.840,279.812 227.200,280.163 227.200 C 280.513 227.200,280.800 227.470,280.800 227.800 C 280.800 228.130,280.954 228.400,281.142 228.400 C 281.329 228.400,281.969 228.850,282.562 229.400 C 283.156 229.950,283.992 230.400,284.421 230.400 C 284.852 230.400,285.200 230.672,285.200 231.010 C 285.200 231.365,285.692 231.718,286.380 231.856 C 287.028 231.986,287.866 232.431,288.242 232.846 C 288.617 233.261,289.318 233.600,289.800 233.600 C 290.282 233.600,291.002 233.960,291.400 234.400 C 291.890 234.942,292.632 235.200,293.699 235.200 C 294.668 235.200,295.665 235.508,296.291 236.000 C 297.125 236.656,297.914 236.800,300.683 236.800 C 303.149 236.800,304.219 236.961,304.657 237.400 C 305.457 238.200,310.113 238.230,310.902 237.441 C 311.280 237.063,312.708 236.836,315.314 236.741 C 318.292 236.632,319.284 236.451,319.683 235.943 C 320.005 235.533,321.017 235.214,322.367 235.095 C 323.733 234.975,324.711 234.663,325.011 234.252 C 325.274 233.894,325.755 233.600,326.082 233.600 C 326.409 233.600,327.002 233.240,327.400 232.800 C 327.798 232.360,328.563 232.000,329.099 232.000 C 329.738 232.000,330.147 231.724,330.284 231.200 C 330.400 230.757,330.830 230.400,331.247 230.400 C 331.661 230.400,332.329 230.071,332.731 229.669 C 333.132 229.268,333.762 228.823,334.131 228.682 C 334.499 228.541,334.800 228.149,334.800 227.813 C 334.800 227.476,335.139 227.200,335.553 227.200 C 335.970 227.200,336.400 226.843,336.516 226.400 C 336.631 225.960,336.991 225.600,337.316 225.600 C 337.641 225.600,338.001 225.240,338.116 224.800 C 338.231 224.360,338.612 224.000,338.963 224.000 C 339.333 224.000,339.600 223.665,339.600 223.200 C 339.600 222.748,339.867 222.400,340.213 222.400 C 340.549 222.400,340.938 222.085,341.077 221.700 C 341.215 221.315,341.659 220.678,342.064 220.284 C 342.469 219.891,342.800 219.147,342.800 218.631 C 342.800 218.030,343.087 217.618,343.600 217.484 C 344.164 217.337,344.400 216.938,344.400 216.134 C 344.400 215.426,344.704 214.803,345.200 214.493 C 345.710 214.174,346.000 213.560,346.000 212.797 C 346.000 212.133,346.357 211.243,346.800 210.800 C 347.376 210.224,347.600 209.467,347.600 208.096 C 347.600 206.626,347.782 206.079,348.400 205.693 C 349.165 205.215,349.200 204.760,349.200 195.359 C 349.200 185.862,349.173 185.518,348.400 185.316 C 347.723 185.139,347.600 184.770,347.600 182.916 C 347.600 181.062,347.477 180.693,346.800 180.516 C 346.180 180.354,346.000 179.970,346.000 178.815 C 346.000 177.832,345.727 177.077,345.200 176.600 C 344.760 176.202,344.400 175.584,344.400 175.226 C 344.400 174.869,344.040 174.317,343.600 174.000 C 343.130 173.661,342.800 172.965,342.800 172.312 C 342.800 171.467,342.608 171.200,342.000 171.200 C 341.467 171.200,341.200 170.933,341.200 170.400 C 341.200 169.956,340.933 169.600,340.600 169.600 C 340.270 169.600,340.000 169.339,340.000 169.020 C 340.000 168.701,339.754 168.296,339.454 168.120 C 339.154 167.944,338.606 167.209,338.237 166.487 C 337.779 165.590,337.190 165.098,336.383 164.937 C 335.717 164.803,335.200 164.443,335.200 164.113 C 335.200 163.789,334.840 163.431,334.400 163.316 C 333.960 163.201,333.600 162.841,333.600 162.516 C 333.600 162.191,333.240 161.831,332.800 161.716 C 332.360 161.601,332.000 161.274,332.000 160.989 C 332.000 160.696,331.304 160.353,330.400 160.200 C 329.416 160.034,328.800 159.712,328.800 159.365 C 328.800 158.973,328.311 158.800,327.200 158.800 C 325.867 158.800,325.600 158.667,325.600 158.000 C 325.600 157.341,325.333 157.200,324.089 157.200 C 323.073 157.200,322.353 156.938,321.893 156.400 C 321.349 155.765,320.713 155.600,318.804 155.600 C 316.933 155.600,316.223 155.423,315.600 154.800 C 314.861 154.061,314.267 154.000,307.800 154.000 C 301.333 154.000,300.739 154.061,300.000 154.800 " stroke="none" fill="#b40101" fill-rule="evenodd"></path><path id="path3" d="M241.200 178.243 C 241.200 178.650,241.420 178.801,241.800 178.655 C 242.130 178.529,242.400 178.629,242.400 178.879 C 242.400 179.129,242.516 179.218,242.657 179.076 C 242.955 178.779,242.072 177.600,241.551 177.600 C 241.358 177.600,241.200 177.889,241.200 178.243 M246.110 209.200 C 246.044 210.075,246.585 210.272,247.038 209.538 C 247.226 209.235,247.131 209.176,246.762 209.368 C 246.453 209.528,246.549 209.376,246.976 209.030 C 247.744 208.407,247.744 208.400,246.962 208.400 C 246.457 208.400,246.148 208.690,246.110 209.200 M244.533 210.678 C 244.533 210.977,244.717 211.161,244.942 211.086 C 245.579 210.874,245.685 210.133,245.078 210.133 C 244.778 210.133,244.533 210.378,244.533 210.678 M52.702 230.666 C 52.979 230.777,53.086 231.061,52.941 231.296 C 52.795 231.531,52.839 231.634,53.038 231.525 C 53.510 231.267,54.815 232.642,54.467 233.031 C 54.320 233.194,54.417 233.204,54.683 233.051 C 54.948 232.899,55.061 232.502,54.933 232.170 C 54.806 231.837,54.605 231.662,54.486 231.780 C 54.368 231.898,54.020 231.636,53.713 231.197 C 53.406 230.759,52.940 230.414,52.677 230.432 C 52.334 230.454,52.341 230.520,52.702 230.666 M218.217 230.772 C 217.944 231.214,218.575 231.692,218.944 231.322 C 219.325 230.942,219.254 230.400,218.824 230.400 C 218.617 230.400,218.344 230.568,218.217 230.772 M60.800 235.612 C 60.800 235.931,61.790 236.400,62.466 236.400 C 62.686 236.400,62.792 236.175,62.700 235.900 C 62.522 235.365,60.800 235.104,60.800 235.612 M176.980 262.500 C 176.755 262.995,176.307 263.340,175.985 263.267 C 175.663 263.193,175.533 263.267,175.697 263.430 C 175.860 263.593,175.770 264.013,175.497 264.363 C 175.048 264.939,175.076 264.942,175.789 264.400 C 177.681 262.961,178.796 261.600,178.081 261.600 C 177.701 261.600,177.205 262.005,176.980 262.500 M139.200 282.600 C 140.181 283.645,140.825 283.994,140.052 283.063 C 139.807 282.768,139.740 282.379,139.903 282.199 C 140.067 282.019,139.975 282.001,139.700 282.159 C 139.425 282.318,139.200 282.257,139.200 282.024 C 139.200 281.791,138.989 281.600,138.730 281.600 C 138.472 281.600,138.683 282.050,139.200 282.600 M141.502 283.866 C 141.779 283.977,141.903 284.233,141.779 284.434 C 141.416 285.021,141.856 284.855,142.400 284.200 C 142.819 283.695,142.748 283.605,141.949 283.632 C 141.427 283.649,141.226 283.754,141.502 283.866 " stroke="none" fill="#008080" fill-rule="evenodd"></path><path id="path4" d="" stroke="none" fill="#00ffff" fill-rule="evenodd"></path></g></svg>