<?xml version="1.0" encoding="UTF-8" standalone="no"?>
<svg
   xmlns:dc="http://purl.org/dc/elements/1.1/"
   xmlns:cc="http://creativecommons.org/ns#"
   xmlns:rdf="http://www.w3.org/1999/02/22-rdf-syntax-ns#"
   xmlns:svg="http://www.w3.org/2000/svg"
   xmlns="http://www.w3.org/2000/svg"
   xmlns:sodipodi="http://sodipodi.sourceforge.net/DTD/sodipodi-0.dtd"
   xmlns:inkscape="http://www.inkscape.org/namespaces/inkscape"
   version="1.0"
   width="96pt"
   height="96pt"
   viewBox="0 0 96 96"
   preserveAspectRatio="xMidYMid meet"
   id="svg2"
   inkscape:version="0.91 r13725"
   sodipodi:docname="Disconnected_title_96 (3).svg">
  <defs
     id="defs18" />
  <sodipodi:namedview
     pagecolor="#ffffff"
     bordercolor="#666666"
     borderopacity="1"
     objecttolerance="10"
     gridtolerance="10"
     guidetolerance="10"
     inkscape:pageopacity="0"
     inkscape:pageshadow="2"
     inkscape:window-width="995"
     inkscape:window-height="757"
     id="namedview16"
     showgrid="false"
     inkscape:zoom="0.98333333"
     inkscape:cx="-45.762712"
     inkscape:cy="120"
     inkscape:window-x="0"
     inkscape:window-y="0"
     inkscape:window-maximized="0"
     inkscape:current-layer="g6" />
  <g
     transform="matrix(0.05235712,0,0,-0.05235712,0.39248245,97.417883)"
     id="g6"
     style="fill:#000000;stroke:none">
    <path
       d="m 1581,1649 c -41,-44 -80,-79 -86,-79 -6,0 -31,10 -55,21 -33,16 -64,22 -120,22 -100,0 -152,-25 -258,-127 l -83,-80 213,-213 213,-213 82,82 c 107,106 126,146 127,258 0,72 -4,92 -24,128 l -24,43 84,84 84,85 -34,35 c -19,19 -36,34 -39,34 -4,-1 -39,-37 -80,-80 z"
       id="path8"
       inkscape:connector-curvature="0"
       style="fill:#196794;fill-opacity:1" />
    <path
       d="m 906,1200 c -106,-110 -114,-149 -31,-164 25,-5 39,4 119,83 l 90,89 -35,40 c -18,22 -39,41 -45,41 -6,1 -50,-39 -98,-89 z"
       id="path10"
       inkscape:connector-curvature="0"
       style="fill:#8c9499;fill-opacity:1" />
    <path
       d="m 1127,992 c -71,-71 -87,-93 -87,-118 0,-38 16,-54 53,-54 22,0 48,19 118,88 l 90,87 -43,42 -44,43 -87,-88 z"
       id="path12"
       inkscape:connector-curvature="0"
       style="fill:#8c9499;fill-opacity:1" />
    <path
       d="M 428,853 C 324,745 300,697 300,595 c 0,-55 16,-125 33,-141 21,-22 2,-56 -74,-129 l -80,-78 35,-36 36,-36 83,83 c 45,45 87,82 93,82 6,0 29,-9 52,-20 30,-15 61,-20 116,-20 105,0 159,27 261,129 l 80,81 -210,210 C 610,836 513,930 509,930 c -3,0 -39,-35 -81,-77 z"
       id="path14"
       inkscape:connector-curvature="0"
       style="fill:#196794;fill-opacity:1" />
  </g>
</svg>
