<svg id="svg" version="1.1" xmlns="http://www.w3.org/2000/svg" xmlns:xlink="http://www.w3.org/1999/xlink" width="74" height="74.73972602739724" viewBox="0, 0, 400,342.73972602739724"><g id="svgg"><path id="path0" d="M177.283 17.913 C 177.346 17.970,179.062 18.667,181.096 19.461 C 227.947 37.751,266.483 74.896,285.771 120.361 L 287.260 123.872 287.330 96.825 L 287.400 69.777 285.020 66.601 C 270.983 47.863,256.898 34.029,238.400 20.811 L 234.198 17.808 205.684 17.808 C 190.001 17.808,177.220 17.855,177.283 17.913 M112.603 48.451 C 112.603 60.832,112.632 61.644,113.082 61.648 C 166.516 62.063,214.095 93.705,235.090 142.791 C 241.143 156.942,245.189 175.693,245.203 189.658 L 245.205 192.603 258.216 192.603 L 271.226 192.603 271.098 190.616 C 271.028 189.524,270.905 186.990,270.826 184.985 C 267.660 105.154,199.067 37.964,118.151 35.432 L 112.603 35.258 112.603 48.451 M112.603 103.498 L 112.603 116.669 114.315 116.817 C 115.257 116.899,117.260 117.036,118.767 117.122 C 156.381 119.273,187.340 150.853,189.742 189.521 L 189.934 192.603 202.775 192.603 L 215.616 192.603 215.616 190.837 C 215.616 182.588,213.457 170.495,210.280 160.959 C 196.924 120.861,158.828 92.107,116.918 90.493 L 112.603 90.326 112.603 103.498 " stroke="none" fill="#fbfbfb" fill-rule="evenodd"></path><path id="path1" d="M118.730 18.107 C 114.262 19.401,112.603 22.666,112.603 30.159 L 112.603 35.012 116.370 35.187 C 157.377 37.082,191.787 51.262,220.997 78.303 C 252.017 107.020,271.105 149.965,271.229 191.324 L 271.233 192.647 276.096 192.556 C 281.750 192.451,283.135 192.013,285.187 189.682 C 287.555 186.992,287.397 189.473,287.397 154.933 L 287.397 124.407 285.583 120.217 C 265.551 73.955,227.409 37.342,180.503 19.349 L 176.485 17.808 148.037 17.833 C 131.874 17.847,119.218 17.965,118.730 18.107 M234.537 17.909 C 234.603 17.971,236.507 19.347,238.767 20.967 C 256.789 33.881,269.700 46.439,283.547 64.521 C 285.393 66.932,287.018 69.024,287.157 69.171 C 287.311 69.333,287.381 60.601,287.335 46.705 L 287.260 23.973 286.615 22.740 C 285.735 21.060,284.245 19.550,282.603 18.675 L 281.233 17.945 257.825 17.871 C 244.951 17.830,234.471 17.847,234.537 17.909 M112.603 75.985 C 112.603 83.769,112.695 90.138,112.808 90.140 C 167.656 90.847,213.135 134.345,215.571 188.427 L 215.753 192.466 230.522 192.537 L 245.290 192.608 245.104 188.153 C 242.261 119.808,186.179 64.141,118.014 62.003 L 112.603 61.833 112.603 75.985 M112.667 151.533 L 112.740 186.164 113.334 187.451 C 114.093 189.094,115.920 190.920,117.671 191.787 L 119.041 192.466 154.229 192.538 C 173.582 192.578,189.505 192.517,189.614 192.401 C 189.947 192.048,189.349 184.902,188.641 180.762 C 182.595 145.434,152.277 118.617,116.640 117.076 L 112.594 116.901 112.667 151.533 M173.699 218.920 C 148.945 221.976,132.489 242.311,134.497 267.358 C 136.494 292.264,154.782 308.767,180.386 308.767 C 183.365 308.767,189.397 308.197,190.724 307.791 C 191.046 307.692,192.753 309.429,196.718 313.895 C 206.268 324.648,205.116 324.142,220.479 324.315 C 226.243 324.380,230.959 324.330,230.959 324.203 C 230.959 324.076,225.991 318.550,219.919 311.923 L 208.879 299.873 210.262 298.798 C 225.843 286.685,230.720 261.134,221.063 242.210 C 212.561 225.550,193.983 216.415,173.699 218.920 M223.562 227.671 L 223.562 235.890 235.342 235.890 L 247.123 235.890 247.123 271.918 L 247.123 307.945 257.397 307.945 L 267.671 307.945 267.671 271.918 L 267.671 235.890 279.452 235.890 L 291.233 235.890 291.233 227.671 L 291.233 219.452 257.397 219.452 L 223.562 219.452 223.562 227.671 M300.548 227.671 L 300.548 235.890 312.329 235.890 L 324.110 235.890 324.110 271.918 L 324.110 307.945 334.521 307.945 L 344.932 307.945 344.932 271.918 L 344.932 235.890 357.260 235.890 L 369.589 235.890 369.589 227.671 L 369.589 219.452 335.068 219.452 L 300.548 219.452 300.548 227.671 M30.411 263.836 L 30.411 307.945 39.457 307.945 L 48.503 307.945 48.430 279.064 C 48.389 263.179,48.374 250.203,48.395 250.228 C 48.416 250.253,53.695 260.445,60.126 272.877 C 74.314 300.305,73.019 298.622,79.940 298.627 C 87.091 298.633,85.268 301.005,99.728 272.877 C 105.808 261.048,110.916 251.171,111.077 250.927 C 111.286 250.612,111.346 258.744,111.288 279.215 L 111.207 307.945 120.398 307.945 L 129.589 307.945 129.589 263.836 L 129.589 219.726 119.836 219.726 C 109.198 219.726,108.896 219.766,107.761 221.312 C 107.461 221.720,101.651 233.028,94.849 246.440 C 84.158 267.521,81.105 273.730,80.171 276.286 C 80.022 276.693,79.673 276.116,78.681 273.820 C 76.847 269.573,52.673 221.915,51.960 221.138 C 50.674 219.738,50.574 219.726,40.151 219.726 L 30.411 219.726 30.411 263.836 M183.425 235.903 C 197.129 237.472,204.764 247.417,204.764 263.699 C 204.764 281.579,196.057 291.351,180.137 291.339 C 167.238 291.329,159.356 284.989,156.357 272.208 C 155.501 268.562,155.501 258.835,156.357 255.189 C 159.554 241.565,169.704 234.333,183.425 235.903 " stroke="none" fill="#640464" fill-rule="evenodd"></path><path id="path2" d="" stroke="none" fill="#ac74ac" fill-rule="evenodd"></path><path id="path3" d="M262.466 40.623 C 262.466 40.665,263.421 41.620,264.589 42.747 L 266.712 44.795 264.664 42.671 C 262.762 40.699,262.466 40.423,262.466 40.623 M243.824 59.795 C 244.496 60.510,245.082 61.096,245.126 61.096 C 245.331 61.096,245.114 60.850,243.904 59.715 L 242.603 58.493 243.824 59.795 M248.082 64.110 C 248.671 64.712,249.214 65.205,249.289 65.205 C 249.365 65.205,248.945 64.712,248.356 64.110 C 247.768 63.507,247.224 63.014,247.149 63.014 C 247.074 63.014,247.494 63.507,248.082 64.110 M222.740 80.075 C 222.740 80.117,223.695 81.072,224.863 82.199 L 226.986 84.247 224.938 82.123 C 223.036 80.151,222.740 79.875,222.740 80.075 M206.575 100.685 C 207.394 101.514,208.125 102.192,208.200 102.192 C 208.276 102.192,207.668 101.514,206.849 100.685 C 206.031 99.856,205.300 99.178,205.224 99.178 C 205.149 99.178,205.757 99.856,206.575 100.685 " stroke="none" fill="#b484b4" fill-rule="evenodd"></path><path id="path4" d="M113.630 35.267 C 114.120 35.327,114.921 35.327,115.411 35.267 C 115.901 35.206,115.500 35.156,114.521 35.156 C 113.541 35.156,113.140 35.206,113.630 35.267 M245.205 61.182 C 245.205 61.229,245.606 61.629,246.096 62.072 L 246.986 62.877 246.182 61.986 C 245.432 61.156,245.205 60.970,245.205 61.182 M113.497 61.840 C 113.913 61.903,114.530 61.902,114.867 61.837 C 115.204 61.772,114.863 61.720,114.110 61.722 C 113.356 61.724,113.080 61.777,113.497 61.840 M113.359 90.331 C 113.700 90.396,114.193 90.394,114.455 90.325 C 114.717 90.257,114.438 90.203,113.836 90.206 C 113.233 90.209,113.019 90.265,113.359 90.331 M183.288 118.705 C 183.288 118.747,184.243 119.702,185.411 120.829 L 187.534 122.877 185.486 120.753 C 183.584 118.781,183.288 118.505,183.288 118.705 M271.041 189.589 C 271.041 190.418,271.092 190.757,271.155 190.342 C 271.218 189.928,271.218 189.250,271.155 188.836 C 271.092 188.421,271.041 188.760,271.041 189.589 M189.653 190.411 C 189.653 190.938,189.709 191.154,189.778 190.890 C 189.847 190.627,189.847 190.195,189.778 189.932 C 189.709 189.668,189.653 189.884,189.653 190.411 " stroke="none" fill="#a468a4" fill-rule="evenodd"></path></g></svg>
