<svg xmlns="http://www.w3.org/2000/svg" width="64" height="64" viewBox="0 0 64 64">
  <rect width="64" height="64" rx="14" fill="#c8e8a0"/>
  <svg x="10" y="10" width="44" height="44" viewBox="0 0 24 24" fill="none" stroke="#d4782a" stroke-width="2.5" stroke-linecap="round" stroke-linejoin="round">
<path stroke="none" d="M0 0h24v24H0z" fill="none"/>
  <path d="M12 12m-4 0a4 4 0 1 0 8 0a4 4 0 1 0 -8 0" />
  <path d="M12 12m-9 0a9 9 0 1 0 18 0a9 9 0 1 0 -18 0" />
  <path d="M15 15l3.35 3.35" />
  <path d="M9 15l-3.35 3.35" />
  <path d="M5.65 5.65l3.35 3.35" />
  <path d="M18.35 5.65l-3.35 3.35" />
  </svg>
</svg>
