<?xml version="1.0" encoding="UTF-8" standalone="no"?>
<svg
   width="256px"
   height="210px"
   viewBox="0 0 256 210"
   version="1.1"
   preserveAspectRatio="xMidYMid"
   id="svg8"
   sodipodi:docname="main_terminal.svg"
   inkscape:export-filename="main_terminal.svg"
   inkscape:export-xdpi="24"
   inkscape:export-ydpi="24"
   inkscape:version="1.2 (dc2aedaf03, 2022-05-15)"
   xmlns:inkscape="http://www.inkscape.org/namespaces/inkscape"
   xmlns:sodipodi="http://sodipodi.sourceforge.net/DTD/sodipodi-0.dtd"
   xmlns="http://www.w3.org/2000/svg"
   xmlns:svg="http://www.w3.org/2000/svg">
  <defs
     id="defs12" />
  <sodipodi:namedview
     id="namedview10"
     pagecolor="#ffffff"
     bordercolor="#000000"
     borderopacity="0.25"
     inkscape:showpageshadow="2"
     inkscape:pageopacity="0.0"
     inkscape:pagecheckerboard="0"
     inkscape:deskcolor="#d1d1d1"
     showgrid="false"
     inkscape:zoom="2.5"
     inkscape:cx="135.8"
     inkscape:cy="105.2"
     inkscape:window-width="1366"
     inkscape:window-height="705"
     inkscape:window-x="-8"
     inkscape:window-y="-8"
     inkscape:window-maximized="1"
     inkscape:current-layer="svg8" />
  <g
     id="g6"
     transform="matrix(0.25,0,0,0.25,96,78.503374)">
    <rect
       fill="#000000"
       x="0"
       y="0"
       width="256"
       height="209.34233"
       rx="5"
       id="rect2" />
    <path
       d="m 28.241466,21.773578 c -0.855802,-0.855802 -1.888525,-1.283703 -3.098168,-1.283703 -1.209643,0 -2.24648,0.432015 -3.110511,1.296046 -0.851688,0.851687 -1.283703,1.888524 -1.283703,3.098168 0,1.209643 0.432015,2.24648 1.283703,3.098167 L 35.474638,41.424108 22.04513,54.853616 c -0.864031,0.864031 -1.296046,1.900868 -1.308389,3.110511 0.01234,1.209644 0.444358,2.246481 1.296046,3.098168 0.864031,0.851688 1.900868,1.283703 3.098168,1.296046 1.221986,0 2.258823,-0.432015 3.122854,-1.296046 L 43.1892,46.114561 c 3.135197,-3.122854 3.135197,-6.258052 0,-9.39325 L 28.241466,21.773578 Z M 86.785728,54.878303 C 85.921697,54.014272 84.872517,53.582256 83.65053,53.582256 v -0.0062 H 54.816586 v 0.0062 c -1.221986,0 -2.258823,0.432016 -3.122854,1.296047 -0.864031,0.864031 -1.296046,1.900868 -1.296046,3.122854 0,1.221987 0.432015,2.271167 1.296046,3.135198 0.864031,0.864031 1.900868,1.296046 3.122854,1.296046 v -0.0062 H 83.65053 v 0.0062 c 1.221987,0 2.271167,-0.432015 3.135198,-1.296046 0.864031,-0.864031 1.296046,-1.913211 1.296046,-3.135198 0,-1.221986 -0.432015,-2.258823 -1.296046,-3.122854 v 0 z"
       fill="#ffffff"
       id="path4" />
  </g>
</svg>
