<svg xmlns="http://www.w3.org/2000/svg" width="64" height="64" viewBox="0 0 64 64">
  <rect width="64" height="64" rx="14" fill="#c8e8a0"/>
  <svg x="10" y="10" width="44" height="44" viewBox="0 0 24 24" fill="none" stroke="#6b3fa0" stroke-width="2.5" stroke-linecap="round" stroke-linejoin="round">
  <path stroke="none" d="M0 0h24v24H0z" fill="none"/>
  <path d="M6.331 8h11.339a2 2 0 0 1 1.977 2.304l-1.255 8.152a3 3 0 0 1 -2.966 2.544h-6.852a3 3 0 0 1 -2.965 -2.544l-1.255 -8.152a2 2 0 0 1 1.977 -2.304z" />
  <path d="M9 11v-5a3 3 0 0 1 6 0v5" />
  </svg>
</svg>
