<svg xmlns="http://www.w3.org/2000/svg" width="64" height="64" viewBox="0 0 64 64">
  <rect width="64" height="64" rx="14" fill="#f1f7e8"/>
  <svg x="16" y="16" width="32" height="32" viewBox="0 0 24 24" fill="none" stroke="#6dac20" stroke-width="2" stroke-linecap="round" stroke-linejoin="round">
<path stroke="none" d="M0 0h24v24H0z" fill="none"/>
  <path d="M13 5h8" />
  <path d="M13 9h5" />
  <path d="M13 15h8" />
  <path d="M13 19h5" />
  <path d="M3 4m0 1a1 1 0 0 1 1 -1h4a1 1 0 0 1 1 1v4a1 1 0 0 1 -1 1h-4a1 1 0 0 1 -1 -1z" />
  <path d="M3 14m0 1a1 1 0 0 1 1 -1h4a1 1 0 0 1 1 1v4a1 1 0 0 1 -1 1h-4a1 1 0 0 1 -1 -1z" />
  </svg>
</svg>
