<svg xmlns="http://www.w3.org/2000/svg" width="64" height="64" viewBox="0 0 64 64">
  <rect width="64" height="64" rx="14" fill="#c8e8a0"/>
  <svg x="10" y="10" width="44" height="44" viewBox="0 0 24 24" fill="none" stroke="#4a5568" stroke-width="2.5" stroke-linecap="round" stroke-linejoin="round">
    <path d="M13 5h8" />
    <path d="M13 9h5" />
    <path d="M13 15h8" />
    <path d="M13 19h5" />
    <path d="M3 4m0 1a1 1 0 0 1 1 -1h4a1 1 0 0 1 1 1v4a1 1 0 0 1 -1 1h-4a1 1 0 0 1 -1 -1z" fill="#4a5568" stroke="none"/>
    <path d="M3 14m0 1a1 1 0 0 1 1 -1h4a1 1 0 0 1 1 1v4a1 1 0 0 1 -1 1h-4a1 1 0 0 1 -1 -1z" fill="#4a5568" stroke="none"/>
  </svg>
</svg>
