<svg id="svg" version="1.1" xmlns="http://www.w3.org/2000/svg" xmlns:xlink="http://www.w3.org/1999/xlink" width="64" height="64" viewBox="0, 0, 400,400"><g id="svgg"><path id="path0" d="M80.982 15.571 C 80.772 15.776,79.520 16.002,78.200 16.072 C 76.880 16.142,75.552 16.435,75.248 16.723 C 74.945 17.011,74.456 17.154,74.161 17.040 C 73.867 16.927,73.532 16.987,73.417 17.172 C 73.303 17.358,72.577 17.628,71.804 17.773 C 70.963 17.931,70.400 18.269,70.400 18.618 C 70.400 18.938,70.085 19.206,69.700 19.213 C 69.315 19.220,68.658 19.484,68.241 19.800 C 67.824 20.116,67.301 20.262,67.079 20.125 C 66.858 19.988,66.787 20.055,66.921 20.273 C 67.263 20.825,64.308 24.000,63.452 24.000 C 63.068 24.000,62.857 24.169,62.985 24.376 C 63.113 24.583,62.820 25.123,62.333 25.576 C 61.801 26.073,61.658 26.400,61.974 26.400 C 62.393 26.400,62.399 26.520,62.004 26.996 C 61.732 27.323,61.352 27.494,61.159 27.375 C 60.967 27.256,60.915 27.433,61.043 27.769 C 61.172 28.105,60.990 28.667,60.639 29.018 C 60.287 29.370,60.000 29.974,60.000 30.362 C 60.000 30.750,59.873 31.193,59.718 31.348 C 59.563 31.503,59.372 32.118,59.294 32.715 C 59.215 33.312,58.982 33.971,58.775 34.180 C 58.186 34.777,58.276 101.200,58.867 101.200 C 59.123 101.200,59.220 101.313,59.081 101.452 C 58.751 101.782,61.637 104.379,62.346 104.391 C 62.646 104.396,63.481 105.043,64.201 105.829 C 64.921 106.615,65.791 107.299,66.135 107.349 C 66.479 107.400,67.211 107.927,67.761 108.521 C 68.312 109.114,69.176 109.600,69.683 109.600 C 70.332 109.600,70.770 109.972,71.161 110.857 C 71.483 111.583,72.199 112.296,72.859 112.545 L 74.000 112.975 74.000 146.080 L 74.000 179.185 73.018 179.431 C 72.477 179.567,68.967 179.615,65.217 179.539 L 58.400 179.400 58.400 269.724 C 58.400 331.098,58.531 359.966,58.809 359.795 C 59.056 359.642,59.183 359.989,59.131 360.678 C 59.025 362.058,59.936 365.573,60.613 366.400 C 61.429 367.398,62.383 369.483,62.136 369.730 C 61.888 369.979,63.009 371.256,63.415 371.187 C 63.858 371.112,65.521 373.145,65.258 373.439 C 65.116 373.598,65.210 373.608,65.468 373.460 C 66.062 373.120,67.296 374.321,66.942 374.894 C 66.795 375.132,66.862 375.209,67.093 375.066 C 67.322 374.925,67.732 375.077,68.004 375.404 C 68.276 375.732,68.689 376.000,68.923 376.000 C 69.157 376.000,69.794 376.405,70.339 376.900 C 70.883 377.395,71.199 377.575,71.041 377.300 C 70.569 376.481,71.375 376.733,72.000 377.600 C 72.378 378.125,73.035 378.400,73.912 378.400 C 74.646 378.400,75.155 378.550,75.042 378.732 C 74.929 378.915,75.863 379.105,77.118 379.155 C 78.373 379.204,79.460 379.415,79.533 379.622 C 79.693 380.075,175.224 380.152,175.153 379.700 C 175.127 379.535,175.127 376.025,175.153 371.900 L 175.200 364.400 205.701 364.400 L 236.201 364.400 236.215 371.543 C 236.227 377.621,236.327 378.784,236.886 379.343 C 237.612 380.069,324.687 380.388,324.239 379.663 C 324.124 379.477,324.969 379.293,326.115 379.253 C 327.262 379.213,328.260 379.005,328.333 378.790 C 328.407 378.576,329.150 378.400,329.984 378.400 C 330.840 378.400,331.718 378.140,331.996 377.804 C 332.268 377.477,332.636 377.298,332.813 377.408 C 332.990 377.518,333.379 377.364,333.676 377.067 C 333.973 376.769,334.539 376.573,334.933 376.631 C 335.327 376.689,335.756 376.460,335.885 376.122 C 336.206 375.286,340.865 370.602,341.384 370.593 C 341.613 370.589,341.787 370.193,341.770 369.713 C 341.754 369.233,341.889 368.931,342.070 369.043 C 342.252 369.156,342.400 368.967,342.400 368.624 C 342.400 368.281,342.595 368.000,342.833 368.000 C 343.072 368.000,343.192 367.777,343.101 367.504 C 343.010 367.231,343.175 366.768,343.468 366.475 C 343.761 366.182,344.000 365.416,344.000 364.771 C 344.000 364.127,344.180 363.600,344.400 363.600 C 344.620 363.600,344.800 363.096,344.800 362.480 C 344.800 361.864,344.980 361.180,345.201 360.959 C 345.467 360.693,345.568 326.965,345.501 260.579 L 345.400 160.600 339.300 160.490 L 333.200 160.379 333.200 152.423 C 333.200 146.432,333.076 144.417,332.700 144.265 C 332.425 144.154,335.215 144.049,338.900 144.032 L 345.600 144.000 345.600 110.776 C 345.600 92.503,345.447 77.647,345.260 77.763 C 345.073 77.878,344.686 77.535,344.400 77.000 C 344.114 76.465,343.772 76.094,343.640 76.175 C 343.508 76.256,342.950 75.794,342.400 75.148 C 341.172 73.705,329.151 61.636,326.630 59.314 C 325.624 58.387,324.800 57.442,324.800 57.214 C 324.800 56.986,324.570 56.800,324.288 56.800 C 324.007 56.800,323.512 56.416,323.188 55.947 C 322.248 54.585,311.217 43.600,310.788 43.600 C 310.575 43.600,310.400 43.342,310.400 43.027 C 310.400 42.712,310.049 42.343,309.620 42.206 C 309.192 42.070,308.730 41.608,308.594 41.180 C 308.457 40.751,308.088 40.400,307.773 40.400 C 307.458 40.400,307.200 40.256,307.200 40.079 C 307.200 39.768,297.650 30.050,295.310 27.979 C 294.675 27.417,293.851 26.522,293.478 25.990 C 293.105 25.458,292.800 25.180,292.800 25.372 C 292.800 25.565,292.440 25.307,292.000 24.800 C 291.560 24.293,291.200 23.725,291.200 23.539 C 291.200 23.352,290.930 23.200,290.600 23.200 C 290.270 23.200,290.000 23.038,290.000 22.840 C 290.000 22.643,288.556 21.012,286.792 19.216 C 285.027 17.420,283.687 15.783,283.813 15.579 C 284.125 15.073,81.497 15.066,80.982 15.571 M283.800 71.600 C 283.936 71.820,284.534 72.000,285.130 72.000 C 285.725 72.000,286.840 72.355,287.606 72.789 C 288.373 73.223,289.581 73.871,290.290 74.230 C 291.785 74.985,296.414 79.763,297.285 81.450 C 297.612 82.083,298.158 83.140,298.500 83.800 C 298.841 84.460,299.318 85.643,299.560 86.428 C 300.150 88.344,300.190 308.636,299.600 309.000 C 299.380 309.136,299.198 309.552,299.196 309.924 C 299.174 313.832,289.511 323.600,285.668 323.600 C 285.216 323.600,284.736 323.780,284.600 324.000 C 284.258 324.554,120.142 324.554,119.800 324.000 C 119.664 323.780,119.098 323.600,118.541 323.600 C 116.089 323.600,106.800 316.259,106.800 314.321 C 106.800 314.102,106.469 313.446,106.064 312.862 C 103.862 309.685,104.000 317.382,104.000 197.648 C 104.000 124.746,104.135 87.564,104.400 87.400 C 104.620 87.264,104.800 86.758,104.800 86.276 C 104.799 81.910,114.696 72.000,119.057 72.000 C 119.550 72.000,120.064 71.820,120.200 71.600 C 120.542 71.046,283.458 71.046,283.800 71.600 M184.065 194.751 C 183.500 195.109,156.456 222.032,144.533 234.106 C 136.717 242.020,136.797 241.862,139.303 244.593 C 140.439 245.830,140.828 246.000,142.527 246.000 L 144.460 246.000 164.253 226.300 C 175.139 215.465,184.330 206.537,184.676 206.460 C 185.071 206.373,190.539 211.546,199.366 220.360 C 215.016 235.988,213.676 234.975,215.811 232.788 C 216.677 231.902,218.064 230.973,218.893 230.725 C 221.402 229.973,221.017 229.497,204.700 213.130 C 186.278 194.651,185.424 193.890,184.065 194.751 M181.531 217.493 C 179.843 219.202,174.490 224.548,169.637 229.373 C 164.783 234.198,160.863 238.196,160.925 238.258 C 160.987 238.320,163.729 238.453,167.019 238.553 C 171.322 238.683,174.561 239.043,178.564 239.834 L 184.128 240.935 190.687 239.839 C 195.869 238.974,198.502 238.748,203.223 238.764 C 206.511 238.775,209.200 238.627,209.200 238.435 C 209.200 237.964,185.694 214.628,185.083 214.493 C 184.817 214.434,183.219 215.784,181.531 217.493 M234.135 226.226 C 233.984 226.618,234.394 227.369,235.229 228.230 C 237.181 230.244,238.292 234.849,236.949 235.364 C 235.922 235.758,235.200 234.839,235.200 233.136 C 235.200 230.399,232.815 228.290,229.480 228.077 L 226.861 227.911 224.831 229.810 C 222.647 231.853,222.139 233.107,223.700 232.602 C 224.195 232.442,225.860 232.228,227.400 232.127 L 230.200 231.944 232.100 233.709 C 233.966 235.441,234.684 237.530,233.636 238.178 C 233.027 238.554,232.000 237.957,232.000 237.227 C 232.000 234.667,224.805 233.062,223.531 235.338 C 223.339 235.680,222.896 236.247,222.547 236.596 C 221.492 237.651,220.449 240.881,220.834 241.900 C 221.309 243.158,221.932 243.029,223.693 241.309 L 225.219 239.819 228.802 239.809 L 232.384 239.800 233.987 241.401 C 234.923 242.336,235.889 243.852,236.310 245.047 C 236.981 246.952,238.971 249.600,239.731 249.600 C 239.914 249.600,241.070 250.268,242.299 251.084 L 244.534 252.567 248.968 252.474 L 253.402 252.381 255.301 254.339 C 256.345 255.415,257.200 256.645,257.200 257.072 C 257.200 257.498,257.464 258.196,257.787 258.624 C 258.544 259.624,258.553 260.844,257.813 261.824 C 256.291 263.836,257.403 265.142,259.600 263.923 C 265.336 260.740,263.075 252.119,256.611 252.525 C 254.847 252.636,254.839 251.520,256.597 250.682 C 259.667 249.218,264.800 252.675,264.800 256.208 C 264.800 258.438,265.457 258.847,266.707 257.394 C 267.571 256.389,267.665 255.961,267.531 253.630 C 267.260 248.919,264.500 246.911,259.684 247.921 C 256.112 248.670,255.639 247.516,258.837 245.857 C 261.106 244.679,263.245 244.490,264.000 245.400 C 264.621 246.149,266.400 246.193,266.400 245.460 C 266.400 241.513,262.438 239.833,258.219 241.990 C 254.777 243.750,254.197 243.097,256.847 240.447 C 258.015 239.280,258.830 238.800,259.647 238.800 C 261.083 238.800,261.137 238.056,259.792 236.793 C 258.243 235.338,255.510 235.473,253.112 237.123 C 250.290 239.065,249.719 238.036,252.200 235.481 C 253.804 233.829,253.926 233.126,252.800 232.000 C 251.291 230.491,249.811 231.244,249.776 233.540 C 249.762 234.404,249.430 235.599,249.038 236.198 C 247.924 237.899,247.399 236.909,247.546 233.386 C 247.701 229.659,245.593 226.730,243.643 227.965 C 243.241 228.220,243.105 229.099,243.156 231.117 C 243.210 233.230,243.069 234.074,242.581 234.562 C 241.531 235.612,241.200 234.932,241.200 231.729 C 241.200 228.751,241.177 228.683,239.647 227.153 C 237.909 225.415,234.656 224.868,234.135 226.226 M217.158 234.700 C 214.575 237.459,212.574 243.107,213.758 244.292 C 214.514 245.048,218.629 239.484,219.365 236.710 C 219.673 235.550,220.051 234.285,220.206 233.900 C 220.749 232.542,218.667 233.088,217.158 234.700 M227.268 241.993 C 223.237 242.958,220.500 248.851,222.995 251.195 L 223.908 252.053 224.841 250.726 C 226.828 247.901,229.229 246.242,231.200 246.334 C 233.218 246.429,233.863 245.906,233.385 244.564 C 232.645 242.484,229.949 241.351,227.268 241.993 M153.278 245.722 L 149.973 249.044 150.086 264.902 C 150.175 277.266,150.315 280.875,150.720 281.280 C 151.482 282.041,213.738 282.025,214.491 281.264 C 214.903 280.848,214.867 280.675,214.300 280.355 C 213.915 280.138,213.600 279.636,213.600 279.240 C 213.600 278.844,213.015 277.741,212.300 276.790 C 208.678 271.969,208.705 272.025,208.987 269.766 C 209.209 267.990,209.092 267.361,208.224 265.648 C 206.883 263.002,206.791 259.320,208.025 257.652 C 209.863 255.165,207.918 252.743,205.180 254.110 C 203.664 254.868,202.777 254.995,199.200 254.971 C 192.460 254.924,189.537 253.130,186.814 247.367 C 185.008 243.545,184.174 243.653,181.948 248.000 C 179.150 253.466,176.626 254.922,169.951 254.921 C 164.401 254.921,160.464 252.467,160.382 248.958 C 160.339 247.063,157.931 242.409,156.991 242.403 C 156.766 242.401,155.095 243.895,153.278 245.722 M216.614 245.108 C 214.077 248.941,214.931 254.400,218.067 254.400 C 218.841 254.400,220.569 251.501,220.083 251.018 C 219.927 250.863,219.710 249.176,219.600 247.268 C 219.355 243.026,218.433 242.359,216.614 245.108 M210.606 246.900 C 209.163 251.174,209.108 251.534,209.761 252.466 C 210.113 252.968,210.400 253.770,210.400 254.250 C 210.400 255.266,212.731 256.359,213.218 255.571 C 213.487 255.136,213.318 250.196,212.977 248.528 C 212.653 246.943,210.980 245.794,210.606 246.900 M229.600 249.306 C 226.448 251.316,224.818 254.589,225.799 256.937 C 226.851 259.455,228.787 259.953,228.812 257.713 C 228.831 256.076,232.435 250.800,233.534 250.800 C 234.117 250.800,235.620 249.156,235.385 248.776 C 234.918 248.020,231.064 248.373,229.600 249.306 M234.707 252.981 C 230.600 256.116,229.644 260.215,232.339 263.133 C 235.301 266.342,238.853 264.972,241.900 259.445 C 244.655 254.446,239.204 249.547,234.707 252.981 M220.592 255.756 C 219.594 258.146,219.797 259.051,221.975 261.917 C 222.984 263.244,224.268 263.572,225.120 262.720 C 225.809 262.031,225.712 260.786,224.900 259.890 C 224.515 259.465,223.840 258.103,223.400 256.864 C 222.412 254.080,221.451 253.701,220.592 255.756 M249.947 254.700 C 249.918 254.865,249.873 256.984,249.847 259.408 C 249.805 263.334,249.701 263.942,248.900 264.962 C 247.158 267.180,248.022 267.903,251.198 266.888 C 252.370 266.513,253.451 265.878,253.695 265.422 C 253.932 264.979,254.368 264.375,254.663 264.080 C 255.318 263.425,255.392 258.849,254.771 257.519 C 253.941 255.743,250.154 253.530,249.947 254.700 M244.561 255.815 C 244.420 256.373,244.407 257.337,244.532 257.958 C 244.835 259.474,243.225 262.559,241.116 264.505 C 238.387 267.024,240.581 268.445,244.319 266.580 C 247.506 264.990,248.861 258.760,246.603 256.077 C 245.306 254.535,244.895 254.482,244.561 255.815 M214.617 257.145 C 214.005 259.074,215.025 264.800,215.981 264.800 C 216.176 264.800,216.604 264.904,216.934 265.030 C 217.896 265.399,219.039 262.643,218.455 261.361 C 218.205 260.812,218.000 259.862,218.000 259.251 C 218.000 257.224,215.155 255.453,214.617 257.145 M209.614 258.786 C 207.591 260.809,210.563 268.382,212.830 266.981 C 213.476 266.582,213.224 264.244,212.400 263.000 C 211.963 262.340,211.604 261.249,211.603 260.576 C 211.598 258.469,210.721 257.679,209.614 258.786 M265.200 262.043 C 261.986 264.667,261.290 265.597,260.584 268.204 C 260.193 269.649,259.721 270.925,259.536 271.039 C 259.076 271.324,259.110 272.400,259.580 272.400 C 260.428 272.400,263.540 269.930,264.476 268.514 C 267.656 263.702,268.107 259.669,265.200 262.043 M227.155 263.900 C 224.927 269.663,230.835 273.919,235.331 269.790 C 237.216 268.059,237.072 267.477,234.673 267.134 C 232.695 266.851,231.512 266.107,229.794 264.065 C 228.485 262.510,227.711 262.461,227.155 263.900 M219.825 265.442 C 218.986 268.788,221.131 272.000,224.206 272.000 C 225.006 272.000,225.412 270.138,224.778 269.374 C 224.497 269.035,224.159 268.093,224.027 267.280 C 223.835 266.097,223.508 265.665,222.393 265.120 C 220.489 264.189,220.128 264.234,219.825 265.442 M197.111 265.823 C 199.264 267.331,196.336 272.872,191.998 275.496 C 187.062 278.482,178.540 277.199,174.767 272.901 C 172.462 270.276,171.598 266.507,173.100 265.632 C 174.353 264.902,196.043 265.074,197.111 265.823 M252.800 268.634 C 247.695 271.305,247.034 275.348,251.890 274.200 C 254.121 273.673,258.674 269.290,258.219 268.106 C 258.099 267.792,258.000 267.459,258.000 267.367 C 258.000 266.759,254.977 267.495,252.800 268.634 M215.169 268.458 C 213.983 270.674,215.660 274.523,217.725 274.324 C 219.350 274.166,219.687 272.545,218.427 270.943 C 217.972 270.365,217.600 269.674,217.600 269.408 C 217.600 268.005,215.790 267.298,215.169 268.458 M244.400 269.198 C 244.070 269.409,242.859 269.563,241.710 269.539 C 239.130 269.485,237.374 270.431,237.974 271.552 C 238.564 272.653,241.938 273.831,242.857 273.257 C 243.260 273.006,243.826 272.800,244.116 272.800 C 245.030 272.800,247.253 270.204,246.970 269.467 C 246.689 268.734,245.341 268.593,244.400 269.198 M210.400 270.954 C 210.400 272.038,212.222 274.357,212.796 274.003 C 213.604 273.503,212.348 270.638,211.247 270.472 C 210.699 270.389,210.400 270.559,210.400 270.954 M232.833 273.761 C 232.577 274.069,231.913 274.436,231.358 274.575 C 230.089 274.893,230.173 276.368,231.497 277.025 C 231.991 277.271,232.725 277.770,233.129 278.136 C 234.064 278.982,234.257 278.971,235.491 278.000 C 236.050 277.560,236.831 277.200,237.227 277.200 C 238.520 277.200,238.595 275.647,237.364 274.362 C 236.124 273.068,233.677 272.743,232.833 273.761 M225.800 274.000 C 225.664 274.220,224.878 274.400,224.053 274.400 C 220.923 274.400,220.178 277.733,222.879 279.656 C 226.624 282.323,230.441 279.816,227.966 276.316 C 227.545 275.720,227.200 274.865,227.200 274.416 C 227.200 273.575,226.239 273.290,225.800 274.000 M241.700 276.224 C 238.633 277.716,238.106 278.556,239.826 279.210 C 243.459 280.591,249.504 277.561,247.371 275.429 C 246.408 274.465,244.874 274.680,241.700 276.224 M255.376 275.387 C 254.949 275.710,254.060 275.981,253.400 275.989 C 251.963 276.007,249.509 278.097,249.858 279.006 C 250.140 279.741,251.996 279.768,254.323 279.072 C 256.092 278.543,259.362 275.786,258.971 275.153 C 258.622 274.589,256.226 274.745,255.376 275.387 M215.268 277.100 C 214.385 278.817,218.397 282.563,219.711 281.249 C 220.280 280.680,219.634 278.465,218.825 278.208 C 218.429 278.082,217.784 277.624,217.391 277.190 C 216.507 276.214,215.741 276.181,215.268 277.100 M233.600 280.672 C 231.073 280.932,230.400 281.196,230.400 281.928 C 230.400 283.990,235.097 284.387,236.924 282.479 C 237.758 281.608,237.891 281.251,237.519 280.879 C 237.051 280.411,236.449 280.379,233.600 280.672 M245.089 281.402 C 244.257 281.712,243.328 281.871,243.025 281.754 C 242.147 281.417,240.000 282.724,240.000 283.595 C 240.000 285.503,244.179 285.448,247.488 283.495 C 250.303 281.834,248.394 280.170,245.089 281.402 M224.769 283.437 C 223.904 284.480,226.360 286.487,228.300 286.322 C 230.057 286.173,230.238 285.718,229.085 284.351 C 227.955 283.010,225.546 282.501,224.769 283.437 M233.706 286.211 C 232.431 287.104,232.974 288.000,234.789 288.000 C 236.350 288.000,238.602 286.651,238.180 285.968 C 237.813 285.374,234.655 285.546,233.706 286.211 " stroke="none" fill="#6bab23" fill-rule="evenodd"></path><path id="path1" d="M162.418 74.302 C 135.099 74.368,120.096 74.544,119.838 74.802 C 119.619 75.021,119.022 75.200,118.512 75.200 C 115.542 75.200,108.000 82.768,108.000 85.747 C 108.000 86.290,107.818 86.794,107.595 86.868 C 107.036 87.055,107.041 308.401,107.600 308.960 C 107.820 309.180,108.000 309.864,108.000 310.480 C 108.000 311.096,108.180 311.600,108.400 311.600 C 108.620 311.600,108.800 311.869,108.800 312.199 C 108.800 313.228,114.209 318.538,116.268 319.531 C 117.331 320.043,118.710 320.718,119.332 321.031 C 121.068 321.903,283.422 321.860,284.576 320.987 C 285.004 320.664,285.651 320.400,286.015 320.400 C 287.942 320.400,295.200 314.033,295.200 312.343 C 295.200 311.934,295.380 311.600,295.600 311.600 C 295.820 311.600,296.000 311.161,296.000 310.624 C 296.000 310.087,296.155 309.551,296.344 309.434 C 297.691 308.602,297.688 86.996,296.341 86.163 C 296.153 86.048,296.000 85.631,296.000 85.238 C 296.000 82.468,288.374 75.200,285.468 75.200 C 284.969 75.200,284.335 74.975,284.060 74.700 C 283.532 74.172,255.008 74.078,162.418 74.302 M60.800 104.134 C 60.800 104.237,61.381 104.524,62.091 104.772 C 62.801 105.019,63.206 105.057,62.991 104.856 C 62.535 104.429,60.800 103.858,60.800 104.134 M212.971 123.829 C 213.504 124.361,213.600 125.773,213.600 133.062 L 213.600 141.667 217.442 136.934 C 219.555 134.330,221.659 132.058,222.118 131.885 C 222.933 131.577,225.200 131.860,225.200 132.270 C 225.200 132.539,223.604 134.801,222.775 135.707 C 220.927 137.725,220.886 138.667,222.480 142.400 C 222.715 142.950,223.063 143.805,223.254 144.300 C 223.444 144.795,223.756 145.605,223.946 146.100 C 224.137 146.595,224.521 147.540,224.800 148.200 C 225.311 149.409,225.777 150.561,226.500 152.400 C 226.716 152.950,227.052 153.713,227.247 154.095 C 227.959 155.495,227.654 155.600,222.855 155.600 L 218.110 155.600 216.366 151.000 C 214.122 145.085,213.660 145.069,213.513 150.900 L 213.400 155.400 208.900 155.513 L 204.400 155.626 204.400 139.813 L 204.400 124.000 206.776 124.000 C 208.083 124.000,209.264 123.820,209.400 123.600 C 209.788 122.973,212.275 123.132,212.971 123.829 M146.600 124.400 C 146.736 124.620,147.244 124.800,147.728 124.800 C 152.795 124.800,154.182 134.853,149.466 137.393 C 147.689 138.350,147.658 138.561,149.200 139.200 C 153.360 140.923,155.243 146.564,153.146 151.025 C 151.239 155.082,149.420 155.600,137.072 155.600 L 127.200 155.600 127.200 140.067 C 127.200 131.523,127.320 124.413,127.467 124.267 C 127.909 123.824,146.323 123.952,146.600 124.400 M137.200 132.000 L 137.200 137.200 138.945 137.200 C 141.821 137.200,142.803 135.882,142.787 132.045 C 142.771 128.134,141.707 126.800,138.605 126.800 L 137.200 126.800 137.200 132.000 M237.507 141.115 C 237.623 151.661,237.667 151.845,239.814 150.866 C 241.641 150.034,242.000 148.217,242.000 139.798 C 242.000 130.860,241.429 131.775,247.278 131.341 C 251.605 131.020,251.256 129.851,251.112 144.200 L 251.000 155.400 246.500 155.513 L 242.000 155.626 242.000 154.198 L 242.000 152.769 241.105 153.602 C 238.084 156.417,232.134 156.435,229.696 153.637 C 228.802 152.610,228.794 152.496,228.896 142.200 L 229.000 131.800 231.000 131.554 C 232.100 131.419,233.990 131.329,235.200 131.354 L 237.400 131.400 237.507 141.115 M264.254 132.368 L 264.487 133.535 265.731 132.779 C 269.740 130.341,276.738 133.530,276.790 137.820 C 276.796 138.271,276.991 138.831,277.224 139.064 C 277.704 139.544,277.524 148.636,276.996 150.600 C 275.680 155.490,269.334 158.259,265.575 155.583 L 264.427 154.765 264.314 159.083 L 264.200 163.400 259.800 163.400 L 255.400 163.400 255.295 147.709 L 255.191 132.018 256.095 131.814 C 257.055 131.599,259.493 131.385,262.310 131.270 C 263.901 131.205,264.036 131.281,264.254 132.368 M174.144 132.816 C 177.024 134.169,176.988 134.051,177.108 142.560 C 177.236 151.641,177.292 152.000,178.578 152.000 C 180.164 152.000,181.029 154.158,179.774 154.980 C 178.249 155.979,171.473 155.849,169.988 154.792 L 168.853 153.984 167.415 154.792 C 162.397 157.610,155.200 154.346,155.200 149.253 C 155.200 146.218,159.039 142.000,161.800 142.000 C 162.632 142.000,166.626 140.117,167.369 139.374 C 168.327 138.416,168.181 136.172,167.111 135.423 C 164.415 133.534,159.455 136.495,161.645 138.685 C 162.903 139.943,160.232 140.454,158.061 139.371 C 155.660 138.173,156.709 134.506,159.892 132.972 C 163.246 131.356,170.861 131.272,174.144 132.816 M197.131 132.568 C 199.240 133.665,200.800 136.040,200.800 138.155 C 200.800 138.850,200.343 139.264,198.808 139.957 C 196.321 141.081,196.000 140.880,196.000 138.199 C 196.000 133.403,191.188 133.593,189.736 138.447 C 189.059 140.711,189.061 147.295,189.739 149.562 C 191.356 154.969,197.400 153.394,197.681 147.492 C 197.810 144.784,198.306 144.487,200.700 145.685 C 202.250 146.460,201.456 151.287,199.480 153.110 C 194.714 157.507,184.057 156.300,181.328 151.055 C 177.392 143.486,180.842 134.338,188.437 132.210 C 190.937 131.509,195.454 131.695,197.131 132.568 M264.924 137.069 C 263.363 140.680,264.296 152.800,266.134 152.800 C 268.923 152.800,269.074 136.210,266.289 135.674 C 265.794 135.579,265.389 135.993,264.924 137.069 M137.200 146.400 L 137.200 152.800 138.941 152.800 C 142.783 152.800,144.341 150.292,143.765 145.033 C 143.408 141.774,141.572 140.000,138.554 140.000 L 137.200 140.000 137.200 146.400 M166.487 143.424 C 163.951 145.201,163.598 152.000,166.042 152.000 C 167.450 152.000,168.000 150.458,168.000 146.511 C 168.000 142.604,167.912 142.426,166.487 143.424 M62.032 152.310 C 62.014 152.590,62.462 152.995,63.026 153.210 C 64.317 153.701,64.508 153.699,64.200 153.200 C 64.064 152.980,63.618 152.800,63.210 152.800 C 62.801 152.800,62.376 152.575,62.265 152.300 C 62.106 151.907,62.056 151.909,62.032 152.310 M187.486 194.877 C 191.418 198.192,221.600 228.911,221.600 229.597 C 221.600 230.916,222.220 230.811,224.013 229.188 C 226.174 227.233,227.906 226.631,230.418 226.965 C 232.241 227.206,232.376 227.160,232.877 226.110 C 233.795 224.189,238.424 224.233,240.207 226.180 C 241.485 227.575,241.529 227.589,242.871 227.028 C 244.605 226.304,246.394 227.049,247.600 228.999 C 248.323 230.169,248.634 230.320,250.669 230.489 C 253.260 230.704,255.472 232.512,254.993 234.022 C 254.783 234.685,254.903 234.760,255.875 234.569 C 258.198 234.113,261.416 236.338,261.668 238.574 C 261.768 239.459,262.066 239.818,262.883 240.035 C 266.221 240.920,268.761 245.182,267.000 246.943 C 266.242 247.701,267.587 250.950,268.900 251.533 C 269.301 251.711,269.287 255.897,268.885 256.067 C 267.760 256.543,266.472 259.853,267.229 260.325 C 269.657 261.842,266.656 268.622,262.000 272.139 C 260.255 273.457,259.828 273.996,259.934 274.748 C 260.222 276.781,254.641 280.800,251.530 280.800 C 250.587 280.800,250.253 281.053,249.815 282.100 C 248.767 284.605,245.063 286.310,241.750 285.813 C 240.147 285.573,240.004 285.631,239.420 286.761 C 238.141 289.234,232.295 289.041,231.361 286.495 C 231.340 286.437,230.671 286.662,229.874 286.995 C 227.872 287.832,227.555 287.781,225.345 286.273 C 223.740 285.177,223.114 284.974,221.762 285.109 C 220.239 285.261,220.032 285.155,218.800 283.600 C 217.593 282.076,217.365 281.955,216.238 282.236 C 213.260 282.980,150.878 282.649,150.114 281.886 C 149.456 281.228,149.391 279.901,149.287 264.943 L 149.174 248.715 153.062 244.757 C 155.200 242.581,157.071 240.800,157.218 240.800 C 157.851 240.800,160.460 245.392,160.996 247.449 C 162.390 252.802,164.393 254.123,170.800 253.916 C 176.841 253.722,178.284 252.811,181.226 247.336 C 183.736 242.665,186.128 242.356,187.439 246.533 C 190.559 256.474,206.802 257.038,208.825 247.275 C 209.088 246.005,209.822 244.268,210.486 243.342 C 212.180 240.980,211.908 240.261,209.196 239.940 C 205.029 239.445,200.181 239.620,194.400 240.471 C 186.780 241.593,181.453 241.591,175.600 240.461 C 171.930 239.752,169.827 239.592,165.201 239.665 C 160.392 239.742,159.384 239.658,159.291 239.175 C 159.107 238.222,183.823 213.800,184.972 213.800 C 185.958 213.800,209.259 236.175,211.000 238.794 C 212.038 240.355,212.536 240.313,213.560 238.577 C 214.494 236.996,214.659 235.600,213.913 235.600 C 213.645 235.600,207.117 229.300,199.406 221.600 C 191.694 213.900,185.118 207.600,184.793 207.600 C 184.467 207.600,175.472 216.327,164.804 226.992 C 154.136 237.657,144.914 246.587,144.310 246.837 C 141.147 248.147,137.600 245.566,137.600 241.954 L 137.600 239.591 160.665 216.595 C 186.157 191.181,184.599 192.442,187.486 194.877 M221.200 235.000 C 221.200 235.330,221.470 235.600,221.800 235.600 C 222.130 235.600,222.400 235.330,222.400 235.000 C 222.400 234.670,222.130 234.400,221.800 234.400 C 221.470 234.400,221.200 234.670,221.200 235.000 M220.800 244.600 C 220.800 244.930,221.051 245.200,221.357 245.200 C 221.664 245.200,222.018 244.930,222.145 244.600 C 222.301 244.192,222.123 244.000,221.587 244.000 C 221.154 244.000,220.800 244.270,220.800 244.600 M236.800 249.800 C 236.800 250.130,237.154 250.400,237.587 250.400 C 238.123 250.400,238.301 250.208,238.145 249.800 C 238.018 249.470,237.664 249.200,237.357 249.200 C 237.051 249.200,236.800 249.470,236.800 249.800 M221.478 251.856 C 221.158 252.175,221.519 252.800,222.024 252.800 C 222.231 252.800,222.400 252.530,222.400 252.200 C 222.400 251.581,221.928 251.405,221.478 251.856 M223.200 253.600 C 223.200 253.820,223.470 254.000,223.800 254.000 C 224.130 254.000,224.400 253.820,224.400 253.600 C 224.400 253.380,224.130 253.200,223.800 253.200 C 223.470 253.200,223.200 253.380,223.200 253.600 M212.000 257.767 C 212.000 258.597,212.438 259.600,212.800 259.600 C 213.270 259.600,213.607 258.484,213.345 257.800 C 213.052 257.038,212.000 257.013,212.000 257.767 M228.600 260.395 C 228.160 260.557,227.575 260.605,227.300 260.502 C 227.025 260.399,226.800 260.604,226.800 260.957 C 226.800 261.372,227.146 261.600,227.776 261.600 C 228.313 261.600,228.864 261.780,229.000 262.000 C 229.451 262.730,230.000 262.414,230.000 261.424 C 230.000 260.250,229.664 260.003,228.600 260.395 M263.600 261.033 C 263.600 261.382,263.814 261.595,264.075 261.508 C 264.817 261.261,264.940 260.400,264.233 260.400 C 263.885 260.400,263.600 260.685,263.600 261.033 M220.000 262.567 C 220.000 262.915,220.285 263.200,220.633 263.200 C 221.340 263.200,221.217 262.339,220.475 262.092 C 220.214 262.005,220.000 262.218,220.000 262.567 M224.294 264.239 C 224.009 264.524,224.330 265.500,225.066 266.589 C 225.552 267.306,225.600 267.225,225.600 265.689 C 225.600 264.117,225.039 263.494,224.294 264.239 M255.084 265.050 C 254.397 265.737,254.861 266.400,256.029 266.400 C 256.984 266.400,257.229 266.244,257.125 265.700 C 256.989 264.984,255.594 264.540,255.084 265.050 M258.444 265.747 C 258.098 266.164,258.138 266.417,258.612 266.810 C 259.377 267.444,260.230 266.775,259.866 265.827 C 259.569 265.055,259.043 265.025,258.444 265.747 M236.600 266.000 C 236.464 266.220,236.627 266.400,236.962 266.400 C 237.632 266.400,238.522 267.744,238.119 268.147 C 237.980 268.286,238.167 268.400,238.533 268.400 C 239.363 268.400,239.415 267.258,238.600 266.945 C 238.270 266.818,238.000 266.464,238.000 266.157 C 238.000 265.518,236.970 265.402,236.600 266.000 M173.467 266.667 C 172.599 267.534,174.010 270.974,176.030 272.917 C 181.852 278.513,194.054 276.309,196.387 269.240 C 197.334 266.369,197.462 266.400,184.818 266.400 C 178.721 266.400,173.613 266.520,173.467 266.667 M246.000 267.000 C 245.592 267.491,245.620 267.600,246.151 267.600 C 246.508 267.600,246.800 267.330,246.800 267.000 C 246.800 266.670,246.732 266.400,246.649 266.400 C 246.566 266.400,246.274 266.670,246.000 267.000 M248.000 269.433 C 248.000 269.782,248.214 269.995,248.475 269.908 C 249.217 269.661,249.340 268.800,248.633 268.800 C 248.285 268.800,248.000 269.085,248.000 269.433 M235.467 271.067 C 235.006 271.527,235.175 272.000,235.800 272.000 C 236.130 272.000,236.400 271.730,236.400 271.400 C 236.400 270.775,235.927 270.606,235.467 271.067 M220.400 273.033 C 220.400 274.286,221.339 274.149,221.528 272.869 C 221.613 272.292,221.445 272.000,221.028 272.000 C 220.619 272.000,220.400 272.361,220.400 273.033 M256.880 272.480 C 256.046 273.314,256.296 274.086,257.300 273.777 C 258.467 273.418,258.462 273.426,258.167 272.657 C 257.867 271.876,257.530 271.830,256.880 272.480 M246.267 272.667 C 245.806 273.127,245.975 273.600,246.600 273.600 C 246.930 273.600,247.200 273.330,247.200 273.000 C 247.200 272.375,246.727 272.206,246.267 272.667 M214.178 274.435 C 214.031 274.674,214.110 275.070,214.355 275.315 C 214.682 275.642,214.800 275.526,214.800 274.880 C 214.800 273.914,214.592 273.765,214.178 274.435 M218.826 275.769 C 218.205 276.517,218.599 277.200,219.651 277.200 C 220.249 277.200,220.423 276.977,220.328 276.331 C 220.168 275.246,219.475 274.987,218.826 275.769 M249.200 275.800 C 249.200 276.130,249.470 276.400,249.800 276.400 C 250.130 276.400,250.400 276.130,250.400 275.800 C 250.400 275.470,250.130 275.200,249.800 275.200 C 249.470 275.200,249.200 275.470,249.200 275.800 M230.675 278.258 C 230.109 278.825,230.429 279.600,231.229 279.600 C 231.789 279.600,232.017 279.383,231.929 278.933 C 231.787 278.197,231.104 277.830,230.675 278.258 M247.600 279.000 C 247.600 279.367,247.793 279.602,248.030 279.523 C 248.267 279.445,248.460 279.209,248.460 279.000 C 248.460 278.791,248.267 278.555,248.030 278.477 C 247.793 278.398,247.600 278.633,247.600 279.000 M221.333 281.031 C 220.921 282.105,222.134 282.971,223.229 282.384 L 224.152 281.890 223.232 281.145 C 222.107 280.235,221.649 280.207,221.333 281.031 " stroke="none" fill="#050504" fill-rule="evenodd"></path><path id="path2" d="M162.500 72.300 C 184.225 72.357,219.775 72.357,241.500 72.300 C 263.225 72.243,245.450 72.196,202.000 72.196 C 158.550 72.196,140.775 72.243,162.500 72.300 M104.990 120.800 C 104.990 137.850,105.040 144.825,105.100 136.300 C 105.160 127.775,105.160 113.825,105.100 105.300 C 105.040 96.775,104.990 103.750,104.990 120.800 M298.928 122.000 C 298.928 123.430,299.001 124.015,299.089 123.300 C 299.178 122.585,299.178 121.415,299.089 120.700 C 299.001 119.985,298.928 120.570,298.928 122.000 M64.500 123.091 C 65.325 123.178,66.675 123.178,67.500 123.091 C 68.325 123.005,67.650 122.934,66.000 122.934 C 64.350 122.934,63.675 123.005,64.500 123.091 M128.000 139.785 L 128.000 155.200 136.623 155.200 C 148.074 155.200,150.675 154.503,152.403 150.974 C 154.777 146.128,151.600 139.200,147.005 139.200 C 145.443 139.200,145.809 138.555,148.069 137.325 C 151.024 135.718,151.800 134.500,151.800 131.471 C 151.800 125.885,149.336 124.781,136.300 124.529 L 128.000 124.369 128.000 139.785 M204.800 139.800 L 204.800 155.200 208.600 155.200 L 212.400 155.200 212.400 151.362 C 212.400 148.123,212.529 147.342,213.227 146.362 C 214.615 144.413,214.615 144.413,217.396 151.800 L 218.600 155.000 222.693 155.114 C 226.467 155.219,226.768 155.172,226.557 154.514 C 226.255 153.574,225.552 151.765,224.454 149.100 C 222.309 143.898,220.400 138.788,220.400 138.248 C 220.400 137.948,221.300 136.576,222.400 135.200 C 224.756 132.253,224.713 132.400,223.221 132.400 C 222.211 132.400,221.597 132.956,218.921 136.292 C 214.946 141.249,213.325 142.924,212.810 142.606 C 212.550 142.445,212.400 139.077,212.400 133.376 L 212.400 124.400 208.600 124.400 L 204.800 124.400 204.800 139.800 M142.061 127.314 C 145.920 130.633,143.746 137.769,138.951 137.521 L 136.600 137.400 136.487 132.422 C 136.425 129.684,136.464 127.209,136.575 126.922 C 136.937 125.978,140.832 126.256,142.061 127.314 M63.882 127.682 C 63.617 127.850,64.660 127.970,66.200 127.947 C 69.100 127.906,69.055 127.740,66.082 127.509 C 65.137 127.435,64.147 127.513,63.882 127.682 M298.928 132.000 C 298.928 133.430,299.001 134.015,299.089 133.300 C 299.178 132.585,299.178 131.415,299.089 130.700 C 299.001 129.985,298.928 130.570,298.928 132.000 M63.800 132.400 C 63.936 132.620,65.016 132.800,66.200 132.800 C 67.384 132.800,68.464 132.620,68.600 132.400 C 68.755 132.149,67.863 132.000,66.200 132.000 C 64.537 132.000,63.645 132.149,63.800 132.400 M231.100 132.285 L 229.200 132.444 229.201 141.922 C 229.203 152.504,229.365 153.225,232.027 154.554 C 234.472 155.773,238.947 154.972,240.819 152.980 C 242.184 151.527,242.800 151.720,242.800 153.600 L 242.800 155.200 246.600 155.200 L 250.400 155.200 250.400 143.600 L 250.400 132.000 249.059 132.000 C 248.321 132.000,246.611 132.116,245.259 132.257 L 242.800 132.514 242.800 138.398 C 242.800 148.364,241.819 152.000,239.129 152.000 C 237.134 152.000,237.013 151.452,236.800 141.533 L 236.600 132.200 234.800 132.163 C 233.810 132.143,232.145 132.198,231.100 132.285 M258.100 132.296 L 255.600 132.438 255.600 147.819 L 255.600 163.200 259.400 163.200 L 263.200 163.200 263.200 158.787 C 263.200 154.085,263.591 153.204,265.115 154.474 C 268.765 157.518,274.532 155.698,275.954 151.055 C 276.199 150.255,276.580 149.002,276.800 148.272 C 277.020 147.541,277.200 145.799,277.200 144.400 C 277.200 143.001,277.020 141.259,276.800 140.528 C 276.580 139.798,276.196 138.525,275.946 137.700 C 274.497 132.917,270.342 131.211,265.869 133.563 C 263.542 134.788,263.200 134.685,263.200 132.767 C 263.200 132.152,262.942 132.015,261.900 132.077 C 261.185 132.119,259.475 132.218,258.100 132.296 M162.461 132.805 C 157.569 133.836,155.401 139.200,159.876 139.200 C 160.704 139.200,160.800 139.013,160.800 137.409 C 160.800 135.284,161.778 134.417,164.524 134.107 C 167.628 133.758,170.068 137.089,168.300 139.262 C 167.530 140.208,165.350 141.600,164.638 141.600 C 164.287 141.600,164.000 141.780,164.000 142.000 C 164.000 142.220,163.567 142.400,163.038 142.400 C 160.522 142.400,156.655 145.476,156.282 147.773 C 155.298 153.835,160.849 157.159,166.959 154.167 L 169.068 153.135 170.590 154.167 C 172.931 155.756,179.857 155.407,179.524 153.717 C 179.411 153.143,178.985 152.827,177.200 151.994 C 176.701 151.761,176.583 150.371,176.501 143.757 C 176.390 134.837,176.269 134.363,173.844 133.366 C 171.923 132.577,165.135 132.242,162.461 132.805 M188.331 132.986 C 179.109 135.527,177.450 150.330,185.963 154.118 C 190.643 156.201,197.381 155.122,199.477 151.955 C 201.054 149.573,201.222 146.721,199.824 146.084 C 198.130 145.312,198.000 145.459,198.000 148.158 C 198.000 153.840,191.222 155.582,189.184 150.424 C 188.394 148.424,188.485 139.073,189.314 137.192 C 191.248 132.800,196.180 133.176,196.696 137.755 C 196.918 139.725,197.249 139.925,198.981 139.136 C 201.398 138.035,199.256 133.808,195.795 132.847 C 193.743 132.277,190.699 132.334,188.331 132.986 M268.246 136.837 C 269.068 139.109,268.961 149.876,268.099 151.600 C 265.180 157.445,261.671 146.779,263.797 138.520 C 264.781 134.695,267.148 133.800,268.246 136.837 M64.691 137.089 C 65.401 137.177,66.661 137.179,67.491 137.092 C 68.321 137.005,67.740 136.933,66.200 136.931 C 64.660 136.929,63.981 137.000,64.691 137.089 M142.267 140.624 C 144.825 142.575,145.607 147.092,143.984 150.546 C 142.941 152.763,141.949 153.275,138.984 153.122 L 136.600 153.000 136.489 146.817 C 136.428 143.416,136.468 140.401,136.577 140.117 C 136.955 139.132,140.754 139.470,142.267 140.624 M64.500 141.891 C 65.325 141.978,66.675 141.978,67.500 141.891 C 68.325 141.805,67.650 141.734,66.000 141.734 C 64.350 141.734,63.675 141.805,64.500 141.891 M168.800 145.826 C 168.800 151.097,168.249 152.380,165.980 152.394 C 164.358 152.404,164.000 151.698,164.000 148.494 C 164.000 144.743,164.464 143.789,167.012 142.311 C 168.796 141.276,168.800 141.284,168.800 145.826 M63.895 146.474 C 63.623 146.646,64.570 146.770,66.000 146.747 C 68.643 146.707,68.608 146.561,65.895 146.303 C 65.067 146.224,64.167 146.301,63.895 146.474 M298.950 159.800 C 298.951 162.220,299.016 163.158,299.096 161.885 C 299.176 160.612,299.175 158.632,299.094 157.485 C 299.014 156.338,298.949 157.380,298.950 159.800 M104.994 213.200 C 104.994 241.250,105.042 252.725,105.100 238.700 C 105.158 224.675,105.158 201.725,105.100 187.700 C 105.042 173.675,104.994 185.150,104.994 213.200 M298.991 198.800 C 298.991 217.610,299.040 225.305,299.100 215.900 C 299.160 206.495,299.160 191.105,299.100 181.700 C 299.040 172.295,298.991 179.990,298.991 198.800 M298.928 260.000 C 298.928 261.430,299.001 262.015,299.089 261.300 C 299.178 260.585,299.178 259.415,299.089 258.700 C 299.001 257.985,298.928 258.570,298.928 260.000 M298.963 269.600 C 298.963 273.230,299.023 274.715,299.098 272.900 C 299.172 271.085,299.172 268.115,299.098 266.300 C 299.023 264.485,298.963 265.970,298.963 269.600 M104.965 299.000 C 104.966 302.960,105.026 304.526,105.098 302.480 C 105.171 300.434,105.171 297.194,105.098 295.280 C 105.024 293.366,104.965 295.040,104.965 299.000 M298.406 306.500 C 298.410 307.384,298.523 307.626,298.757 307.256 C 299.072 306.759,298.917 305.200,298.553 305.200 C 298.469 305.200,298.403 305.785,298.406 306.500 " stroke="none" fill="#e3dadd" fill-rule="evenodd"></path><path id="path3" d="M120.200 71.600 C 120.064 71.820,119.550 72.000,119.057 72.000 C 114.696 72.000,104.799 81.910,104.800 86.276 C 104.800 86.758,104.620 87.264,104.400 87.400 C 104.135 87.564,104.000 124.746,104.000 197.648 C 104.000 317.382,103.862 309.685,106.064 312.862 C 106.469 313.446,106.800 314.102,106.800 314.321 C 106.800 316.259,116.089 323.600,118.541 323.600 C 119.098 323.600,119.664 323.780,119.800 324.000 C 119.964 324.265,147.863 324.400,202.200 324.400 C 256.537 324.400,284.436 324.265,284.600 324.000 C 284.736 323.780,285.216 323.600,285.668 323.600 C 289.511 323.600,299.174 313.832,299.196 309.924 C 299.198 309.552,299.380 309.136,299.600 309.000 C 300.190 308.636,300.150 88.344,299.560 86.428 C 299.318 85.643,298.841 84.460,298.500 83.800 C 298.158 83.140,297.612 82.083,297.285 81.450 C 296.414 79.763,291.785 74.985,290.290 74.230 C 289.581 73.871,288.373 73.223,287.606 72.789 C 286.840 72.355,285.725 72.000,285.130 72.000 C 284.534 72.000,283.936 71.820,283.800 71.600 C 283.458 71.046,120.542 71.046,120.200 71.600 M241.500 72.300 C 219.775 72.357,184.225 72.357,162.500 72.300 C 140.775 72.243,158.550 72.196,202.000 72.196 C 245.450 72.196,263.225 72.243,241.500 72.300 M284.615 74.246 C 285.157 74.602,285.972 74.796,286.425 74.678 C 286.929 74.546,287.334 74.683,287.467 75.031 C 287.587 75.344,287.938 75.600,288.247 75.600 C 289.084 75.600,295.178 81.573,295.451 82.660 C 295.581 83.177,295.847 83.600,296.043 83.600 C 296.240 83.600,296.400 83.991,296.400 84.469 C 296.400 84.946,296.715 85.685,297.100 86.111 C 297.763 86.843,297.800 92.715,297.800 197.542 L 297.800 308.200 296.261 311.350 C 294.723 314.497,290.625 319.166,288.640 320.032 C 288.178 320.233,287.530 320.557,287.200 320.750 C 285.120 321.971,283.159 322.000,202.047 322.000 C 116.051 322.000,116.400 322.007,116.400 320.354 C 116.400 320.159,116.148 320.000,115.841 320.000 C 114.080 320.000,107.600 312.411,107.600 310.350 C 107.600 309.924,107.330 309.471,107.000 309.345 C 106.087 308.994,106.087 87.158,107.000 86.400 C 107.330 86.126,107.600 85.384,107.600 84.751 C 107.600 84.118,107.739 83.600,107.909 83.600 C 108.079 83.600,108.557 82.971,108.971 82.202 C 110.562 79.247,116.243 74.800,118.426 74.800 C 118.798 74.800,119.326 74.530,119.600 74.200 C 120.391 73.247,283.160 73.293,284.615 74.246 M105.100 136.300 C 105.040 144.825,104.990 137.850,104.990 120.800 C 104.990 103.750,105.040 96.775,105.100 105.300 C 105.160 113.825,105.160 127.775,105.100 136.300 M299.089 123.300 C 299.001 124.015,298.928 123.430,298.928 122.000 C 298.928 120.570,299.001 119.985,299.089 120.700 C 299.178 121.415,299.178 122.585,299.089 123.300 M63.078 122.444 C 61.675 123.260,63.047 124.001,65.949 123.994 C 69.062 123.987,70.020 123.588,69.225 122.630 C 68.613 121.892,64.254 121.760,63.078 122.444 M67.500 123.091 C 66.675 123.178,65.325 123.178,64.500 123.091 C 63.675 123.005,64.350 122.934,66.000 122.934 C 67.650 122.934,68.325 123.005,67.500 123.091 M210.700 124.280 L 212.400 124.446 212.400 133.399 C 212.400 139.084,212.550 142.445,212.810 142.606 C 213.325 142.924,214.946 141.249,218.921 136.292 C 221.622 132.925,222.205 132.400,223.245 132.400 C 224.052 132.400,224.353 132.552,224.162 132.862 C 223.985 133.148,224.052 133.215,224.338 133.038 C 225.222 132.492,224.791 132.000,223.429 132.000 C 221.804 132.000,221.858 131.950,217.377 137.584 C 215.445 140.013,213.718 142.000,213.540 142.000 C 213.361 142.000,213.167 137.995,213.108 133.100 L 213.000 124.200 211.000 124.157 C 209.205 124.118,209.174 124.131,210.700 124.280 M127.793 139.800 L 127.800 155.400 136.600 155.506 C 143.583 155.589,145.772 155.487,147.200 155.010 C 148.190 154.679,148.550 154.528,148.000 154.673 C 147.450 154.819,142.727 155.009,137.505 155.095 L 128.009 155.252 127.897 139.726 L 127.786 124.200 127.793 139.800 M144.800 124.794 C 145.130 125.011,145.835 125.191,146.367 125.194 C 147.651 125.202,147.325 124.975,145.600 124.658 C 144.615 124.477,144.378 124.518,144.800 124.794 M148.600 125.776 C 149.040 126.114,149.921 126.888,150.557 127.495 L 151.715 128.600 150.998 127.480 C 150.604 126.863,149.723 126.090,149.041 125.760 C 147.919 125.219,147.877 125.220,148.600 125.776 M63.670 126.802 C 63.096 127.046,62.792 127.464,62.875 127.898 C 63.068 128.909,69.081 129.175,69.459 128.190 C 69.988 126.812,65.937 125.840,63.670 126.802 M136.575 126.922 C 136.464 127.209,136.431 129.684,136.501 132.422 L 136.627 137.400 136.714 132.064 L 136.800 126.729 139.163 126.864 C 140.463 126.939,141.442 126.865,141.339 126.700 C 141.004 126.161,136.791 126.357,136.575 126.922 M68.400 127.775 C 68.730 127.848,67.740 127.925,66.200 127.947 C 64.660 127.970,63.617 127.850,63.882 127.682 C 64.323 127.401,66.954 127.455,68.400 127.775 M142.917 129.185 C 143.163 129.836,143.426 130.308,143.501 130.232 C 143.751 129.983,143.120 128.000,142.791 128.000 C 142.614 128.000,142.671 128.533,142.917 129.185 M299.089 133.300 C 299.001 134.015,298.928 133.430,298.928 132.000 C 298.928 130.570,299.001 129.985,299.089 130.700 C 299.178 131.415,299.178 132.585,299.089 133.300 M151.941 131.930 C 151.656 134.578,150.719 135.884,148.069 137.325 C 145.861 138.526,145.437 139.204,146.900 139.194 C 147.502 139.190,147.634 139.082,147.298 138.869 C 146.950 138.648,147.280 138.277,148.371 137.664 C 151.248 136.047,152.741 133.434,152.320 130.752 C 152.236 130.219,152.069 130.736,151.941 131.930 M143.654 131.600 C 143.619 132.150,143.496 133.050,143.383 133.600 L 143.177 134.600 143.607 133.615 C 143.843 133.074,143.965 132.174,143.878 131.615 L 143.720 130.600 143.654 131.600 M62.941 131.810 C 62.515 132.918,63.379 133.241,66.439 133.119 C 69.094 133.012,69.400 132.917,69.400 132.200 C 69.400 131.101,63.353 130.735,62.941 131.810 M234.800 131.947 L 236.600 132.200 236.800 141.481 C 236.956 148.713,237.123 150.876,237.559 151.281 C 238.023 151.712,238.057 151.698,237.759 151.200 C 237.561 150.870,237.310 146.370,237.200 141.200 L 237.000 131.800 235.000 131.747 L 233.000 131.694 234.800 131.947 M248.300 131.883 L 250.400 132.042 250.400 143.621 L 250.400 155.200 246.600 155.200 L 242.800 155.200 242.800 153.600 C 242.800 151.682,242.165 151.522,240.770 153.088 C 240.054 153.891,240.009 154.022,240.600 153.588 C 241.040 153.265,241.525 152.825,241.678 152.611 C 241.990 152.176,242.296 152.859,242.480 154.400 C 242.599 155.392,242.632 155.400,246.600 155.400 L 250.600 155.400 250.600 143.600 L 250.600 131.800 248.400 131.762 L 246.200 131.724 248.300 131.883 M258.200 132.021 C 256.374 132.236,256.685 132.266,259.500 132.144 C 263.126 131.987,263.200 132.002,263.206 132.892 C 263.216 134.422,263.727 134.893,264.624 134.199 C 265.271 133.698,265.284 133.639,264.700 133.842 C 264.193 134.018,264.000 133.875,264.000 133.323 C 264.000 131.615,263.190 131.433,258.200 132.021 M68.600 132.400 C 68.464 132.620,67.384 132.800,66.200 132.800 C 65.016 132.800,63.936 132.620,63.800 132.400 C 63.645 132.149,64.537 132.000,66.200 132.000 C 67.863 132.000,68.755 132.149,68.600 132.400 M163.021 132.347 C 162.372 132.486,164.226 132.600,167.141 132.600 C 170.056 132.600,172.027 132.483,171.520 132.340 C 170.351 132.009,164.575 132.014,163.021 132.347 M188.528 132.539 C 187.608 132.793,186.736 133.122,186.589 133.272 C 186.442 133.422,187.375 133.268,188.661 132.929 C 190.152 132.537,191.943 132.385,193.600 132.509 C 195.116 132.622,195.867 132.569,195.400 132.380 C 194.249 131.914,190.479 132.002,188.528 132.539 M228.980 132.509 C 228.872 132.788,228.837 137.153,228.900 142.209 L 229.016 151.400 229.108 141.922 L 229.200 132.444 231.100 132.294 L 233.000 132.144 231.087 132.072 C 229.852 132.026,229.106 132.180,228.980 132.509 M242.577 132.515 C 242.468 132.799,242.434 135.994,242.500 139.615 L 242.621 146.200 242.711 139.323 L 242.800 132.446 244.500 132.293 L 246.200 132.140 244.487 132.070 C 243.404 132.026,242.702 132.189,242.577 132.515 M266.900 132.596 C 266.185 132.907,265.600 133.251,265.600 133.360 C 265.600 133.470,266.262 133.283,267.071 132.944 C 267.881 132.606,269.216 132.394,270.038 132.472 C 270.860 132.551,271.447 132.476,271.343 132.307 C 271.034 131.808,268.305 131.986,266.900 132.596 M159.300 133.596 C 158.585 134.032,158.000 134.503,158.000 134.643 C 158.000 134.783,158.237 134.701,158.528 134.460 C 158.818 134.219,159.673 133.754,160.428 133.427 C 161.182 133.099,161.530 132.825,161.200 132.817 C 160.870 132.809,160.015 133.160,159.300 133.596 M173.960 133.422 C 174.709 133.746,175.564 134.324,175.861 134.706 C 176.371 135.361,176.388 135.359,176.153 134.685 C 175.893 133.941,174.023 132.788,173.120 132.816 C 172.834 132.824,173.212 133.097,173.960 133.422 M197.000 133.250 C 197.440 133.484,198.315 134.244,198.944 134.938 C 199.704 135.777,199.940 135.909,199.646 135.331 C 199.140 134.333,197.306 132.794,196.646 132.812 C 196.401 132.819,196.560 133.016,197.000 133.250 M272.600 133.268 C 273.040 133.512,273.679 133.912,274.020 134.156 C 274.360 134.400,274.215 134.195,273.697 133.700 C 273.179 133.205,272.540 132.805,272.278 132.812 C 272.015 132.819,272.160 133.024,272.600 133.268 M183.323 135.792 C 182.155 136.997,181.204 138.302,181.209 138.692 C 181.215 139.129,181.467 138.896,181.867 138.083 C 182.225 137.358,183.326 136.053,184.315 135.183 C 185.304 134.312,185.962 133.600,185.779 133.600 C 185.595 133.600,184.490 134.586,183.323 135.792 M222.034 135.652 C 221.135 136.781,220.415 138.086,220.434 138.552 C 220.463 139.252,220.526 139.210,220.796 138.314 C 220.976 137.717,221.792 136.412,222.610 135.414 C 223.427 134.416,224.000 133.600,223.882 133.600 C 223.764 133.600,222.933 134.524,222.034 135.652 M164.305 134.283 C 164.802 134.379,165.522 134.375,165.905 134.275 C 166.287 134.175,165.880 134.096,165.000 134.101 C 164.120 134.105,163.807 134.187,164.305 134.283 M161.689 135.023 C 161.200 135.365,160.813 135.950,160.828 136.323 C 160.852 136.907,160.896 136.898,161.149 136.257 C 161.309 135.848,161.882 135.269,162.420 134.971 C 162.959 134.672,163.215 134.422,162.989 134.414 C 162.763 134.406,162.178 134.680,161.689 135.023 M190.534 135.300 C 189.369 136.603,188.718 138.506,188.907 140.053 L 189.072 141.400 189.136 139.949 C 189.222 137.990,190.159 135.864,191.279 135.084 C 191.786 134.731,192.006 134.433,191.770 134.421 C 191.533 134.409,190.977 134.805,190.534 135.300 M195.207 135.125 C 195.860 135.654,196.157 136.417,196.303 137.934 C 196.550 140.498,196.761 140.640,198.786 139.607 C 199.988 138.994,200.386 138.556,200.346 137.892 C 200.293 137.030,200.285 137.028,200.125 137.845 C 199.965 138.661,198.524 139.600,197.433 139.600 C 197.102 139.600,196.827 138.920,196.699 137.784 C 196.505 136.058,195.522 134.400,194.694 134.400 C 194.483 134.400,194.715 134.726,195.207 135.125 M142.832 135.267 C 142.814 135.633,142.305 136.303,141.700 136.754 C 141.095 137.205,140.794 137.580,141.030 137.587 C 141.724 137.608,143.305 135.706,143.074 135.129 C 142.929 134.765,142.853 134.808,142.832 135.267 M157.443 135.833 C 156.982 137.034,157.191 138.711,157.833 138.957 C 158.857 139.350,159.005 139.238,158.220 138.664 C 157.636 138.237,157.543 137.830,157.762 136.664 C 158.044 135.158,157.873 134.712,157.443 135.833 M264.572 136.187 C 264.216 136.730,263.987 137.336,264.062 137.534 C 264.138 137.732,264.492 137.288,264.849 136.547 C 265.614 134.962,265.484 134.794,264.572 136.187 M168.322 136.983 C 168.407 137.712,168.270 138.734,168.016 139.254 C 167.578 140.154,167.586 140.162,168.178 139.424 C 168.826 138.615,169.033 136.191,168.484 135.852 C 168.310 135.744,168.237 136.253,168.322 136.983 M176.491 143.451 C 176.409 150.708,176.469 151.556,177.100 152.051 C 177.718 152.535,177.742 152.526,177.309 151.969 C 176.968 151.532,176.781 148.901,176.700 143.369 L 176.582 135.400 176.491 143.451 M62.976 136.571 C 62.210 137.136,62.210 137.147,63.000 137.471 C 64.041 137.899,69.039 137.895,69.468 137.466 C 70.688 136.245,64.566 135.402,62.976 136.571 M67.491 137.092 C 66.661 137.179,65.401 137.177,64.691 137.089 C 63.981 137.000,64.660 136.929,66.200 136.931 C 67.740 136.933,68.321 137.005,67.491 137.092 M268.273 138.400 C 268.404 139.390,268.576 140.275,268.656 140.367 C 268.957 140.714,268.728 138.164,268.390 137.400 C 268.153 136.866,268.114 137.198,268.273 138.400 M160.800 138.572 C 160.800 138.887,160.395 139.222,159.900 139.318 C 159.229 139.447,159.321 139.505,160.263 139.546 C 161.339 139.592,161.494 139.482,161.316 138.800 C 161.072 137.868,160.800 137.748,160.800 138.572 M276.434 139.200 C 276.422 139.750,276.587 140.470,276.800 140.800 C 277.309 141.587,277.309 140.184,276.800 139.000 C 276.485 138.267,276.454 138.284,276.434 139.200 M263.452 139.700 C 263.128 140.910,263.187 148.025,263.528 148.885 C 263.678 149.262,263.800 147.147,263.800 144.185 C 263.800 138.333,263.804 138.386,263.452 139.700 M136.577 140.117 C 136.468 140.401,136.433 143.416,136.500 146.817 L 136.622 153.000 136.711 146.464 L 136.800 139.929 139.163 140.064 C 140.463 140.139,141.442 140.065,141.339 139.900 C 141.006 139.365,136.792 139.557,136.577 140.117 M150.016 140.142 C 150.007 140.331,150.424 140.818,150.942 141.226 C 151.460 141.633,152.176 142.559,152.533 143.283 C 152.890 144.008,153.186 144.308,153.191 143.951 C 153.200 143.295,150.047 139.511,150.016 140.142 M142.635 141.203 C 144.031 142.869,144.506 144.604,144.328 147.388 C 144.238 148.815,144.304 149.762,144.475 149.492 C 145.563 147.780,144.473 142.466,142.733 140.995 L 141.800 140.206 142.635 141.203 M180.501 141.800 C 180.505 142.680,180.587 142.993,180.683 142.495 C 180.779 141.998,180.775 141.278,180.675 140.895 C 180.575 140.513,180.496 140.920,180.501 141.800 M63.200 141.253 C 62.228 141.644,62.222 141.671,62.976 142.228 C 63.877 142.891,68.278 143.003,69.200 142.386 C 70.942 141.221,65.729 140.236,63.200 141.253 M67.500 141.891 C 66.675 141.978,65.325 141.978,64.500 141.891 C 63.675 141.805,64.350 141.734,66.000 141.734 C 67.650 141.734,68.325 141.805,67.500 141.891 M162.800 142.000 L 161.800 142.320 162.900 142.360 C 163.505 142.382,164.000 142.220,164.000 142.000 C 164.000 141.780,163.955 141.618,163.900 141.640 C 163.845 141.662,163.350 141.824,162.800 142.000 M168.200 146.364 C 168.200 148.983,168.332 150.918,168.494 150.663 C 168.882 150.052,168.887 141.600,168.500 141.601 C 168.335 141.602,168.200 143.745,168.200 146.364 M188.524 143.800 C 188.526 145.120,188.601 145.612,188.690 144.893 C 188.779 144.174,188.777 143.094,188.686 142.493 C 188.595 141.892,188.522 142.480,188.524 143.800 M165.354 143.340 C 164.541 144.271,163.945 145.638,164.142 146.122 C 164.253 146.393,164.351 146.310,164.368 145.931 C 164.386 145.563,164.866 144.708,165.436 144.031 C 166.404 142.880,166.327 142.228,165.354 143.340 M157.525 144.698 C 156.396 146.012,156.264 146.605,157.357 145.455 C 157.955 144.826,158.373 144.240,158.286 144.153 C 158.200 144.066,157.857 144.311,157.525 144.698 M153.324 147.000 C 153.326 148.320,153.401 148.812,153.490 148.093 C 153.579 147.374,153.577 146.294,153.486 145.693 C 153.395 145.092,153.322 145.680,153.324 147.000 M63.411 145.742 C 61.850 146.884,62.925 147.600,66.200 147.600 C 68.638 147.600,69.274 147.472,69.478 146.942 C 69.867 145.929,68.496 145.200,66.200 145.200 C 65.074 145.200,63.819 145.444,63.411 145.742 M197.738 145.817 C 197.608 146.157,197.613 146.547,197.751 146.684 C 197.888 146.821,198.000 146.612,198.000 146.220 C 198.000 145.703,198.221 145.564,198.801 145.716 C 199.241 145.831,199.500 145.762,199.377 145.563 C 199.019 144.984,197.997 145.143,197.738 145.817 M213.549 145.900 C 213.050 146.537,213.064 146.549,213.710 146.043 C 214.532 145.398,214.429 145.308,215.384 147.504 C 215.792 148.441,216.189 149.144,216.267 149.066 C 216.508 148.826,214.784 145.200,214.430 145.200 C 214.247 145.200,213.851 145.515,213.549 145.900 M180.501 147.000 C 180.505 147.880,180.587 148.193,180.683 147.695 C 180.779 147.198,180.775 146.478,180.675 146.095 C 180.575 145.713,180.496 146.120,180.501 147.000 M68.000 146.577 C 68.330 146.648,67.430 146.725,66.000 146.747 C 64.570 146.770,63.623 146.646,63.895 146.474 C 64.342 146.189,66.465 146.243,68.000 146.577 M200.264 146.271 C 200.519 146.453,200.814 147.142,200.920 147.801 C 201.097 148.899,201.108 148.885,201.056 147.631 C 201.022 146.788,200.769 146.200,200.400 146.100 C 199.995 145.991,199.951 146.047,200.264 146.271 M188.838 148.000 C 188.824 148.990,188.970 150.049,189.163 150.354 C 189.379 150.695,189.441 150.158,189.324 148.954 C 189.060 146.245,188.868 145.867,188.838 148.000 M155.778 148.179 C 155.635 148.937,155.687 150.062,155.893 150.679 C 156.204 151.613,156.267 151.383,156.267 149.300 C 156.267 146.464,156.150 146.196,155.778 148.179 M212.700 147.032 C 212.535 147.198,212.400 149.097,212.400 151.252 L 212.400 155.171 208.500 155.302 L 204.600 155.433 208.400 155.510 C 213.409 155.612,213.253 155.768,213.115 150.832 C 213.052 148.576,212.865 146.866,212.700 147.032 M242.046 147.867 C 242.021 148.124,241.884 148.664,241.741 149.067 C 241.540 149.636,241.594 149.697,241.979 149.342 C 242.252 149.091,242.389 148.551,242.284 148.142 C 242.179 147.734,242.072 147.610,242.046 147.867 M276.649 148.215 C 276.512 148.573,276.416 149.256,276.436 149.733 C 276.462 150.347,276.585 150.208,276.859 149.256 C 277.257 147.872,277.094 147.058,276.649 148.215 M268.254 149.554 C 268.100 150.518,268.058 151.391,268.161 151.494 C 268.430 151.763,268.915 148.945,268.707 148.322 C 268.612 148.036,268.408 148.590,268.254 149.554 M181.056 149.600 C 181.589 151.744,185.012 154.820,186.835 154.791 C 187.146 154.786,186.650 154.442,185.734 154.026 C 183.960 153.220,182.139 151.427,181.312 149.671 C 180.825 148.635,180.816 148.633,181.056 149.600 M197.591 149.700 C 197.581 150.714,196.597 152.077,195.400 152.736 C 194.949 152.984,194.835 153.181,195.140 153.188 C 195.999 153.207,198.000 150.808,198.000 149.758 C 198.000 149.231,197.910 148.800,197.800 148.800 C 197.690 148.800,197.596 149.205,197.591 149.700 M200.432 150.007 C 200.355 151.479,198.389 153.548,196.306 154.349 C 195.148 154.794,194.431 155.168,194.713 155.179 C 197.117 155.277,201.327 151.519,200.656 149.873 C 200.539 149.585,200.451 149.638,200.432 150.007 M143.061 151.440 C 142.654 151.998,141.934 152.611,141.461 152.802 C 140.862 153.044,140.796 153.157,141.245 153.175 C 141.911 153.201,144.000 151.359,144.000 150.745 C 144.000 150.231,143.873 150.326,143.061 151.440 M189.600 151.524 C 189.600 151.915,191.577 153.372,191.782 153.132 C 191.844 153.059,191.378 152.581,190.747 152.070 C 190.116 151.558,189.600 151.312,189.600 151.524 M229.201 151.726 C 229.196 152.844,230.762 154.578,232.100 154.937 C 233.156 155.221,232.940 154.833,231.800 154.400 C 231.250 154.191,230.441 153.430,230.002 152.710 C 229.562 151.989,229.202 151.547,229.201 151.726 M150.000 153.636 C 149.336 154.179,149.269 154.315,149.800 154.040 C 151.105 153.366,151.828 152.812,151.400 152.815 C 151.180 152.817,150.550 153.186,150.000 153.636 M274.279 153.816 C 272.436 156.347,267.764 156.682,265.115 154.474 C 263.589 153.202,263.200 154.084,263.200 158.811 C 263.200 161.667,263.343 163.159,263.600 163.000 C 263.825 162.861,264.000 160.929,264.000 158.576 C 264.000 154.778,264.297 153.662,265.004 154.806 C 265.866 156.201,269.809 156.776,272.051 155.833 C 273.373 155.277,276.112 152.788,275.375 152.813 C 275.169 152.819,274.675 153.271,274.279 153.816 M166.800 154.219 C 164.586 155.398,165.074 155.519,167.386 154.364 L 169.059 153.529 170.585 154.564 C 172.956 156.173,179.424 155.781,179.900 154.000 C 180.021 153.548,179.973 153.525,179.702 153.907 C 178.589 155.482,172.803 155.669,170.638 154.200 C 168.890 153.014,169.065 153.013,166.800 154.219 M157.811 154.137 C 159.157 155.054,161.240 155.602,163.160 155.545 C 164.916 155.493,164.889 155.478,162.578 155.213 C 161.245 155.061,159.553 154.635,158.816 154.268 C 157.202 153.463,156.731 153.401,157.811 154.137 M226.535 154.300 C 226.796 155.536,219.145 155.724,218.432 154.500 C 218.208 154.115,218.019 153.989,218.012 154.220 C 217.981 155.286,219.085 155.600,222.856 155.600 C 226.857 155.600,227.576 155.327,226.794 154.103 C 226.397 153.482,226.367 153.504,226.535 154.300 M238.000 154.600 C 237.230 154.897,235.790 155.182,234.800 155.234 C 233.165 155.319,233.126 155.343,234.375 155.495 C 235.823 155.671,239.071 154.932,239.434 154.345 C 239.687 153.936,239.758 153.923,238.000 154.600 M188.200 155.224 C 188.640 155.400,190.170 155.542,191.600 155.540 C 194.881 155.536,194.307 155.318,190.400 155.085 C 188.699 154.983,187.746 155.043,188.200 155.224 M299.096 161.885 C 299.016 163.158,298.951 162.220,298.950 159.800 C 298.949 157.380,299.014 156.338,299.094 157.485 C 299.175 158.632,299.176 160.612,299.096 161.885 M105.100 238.700 C 105.042 252.725,104.994 241.250,104.994 213.200 C 104.994 185.150,105.042 173.675,105.100 187.700 C 105.158 201.725,105.158 224.675,105.100 238.700 M299.100 215.900 C 299.040 225.305,298.991 217.610,298.991 198.800 C 298.991 179.990,299.040 172.295,299.100 181.700 C 299.160 191.105,299.160 206.495,299.100 215.900 M299.089 261.300 C 299.001 262.015,298.928 261.430,298.928 260.000 C 298.928 258.570,299.001 257.985,299.089 258.700 C 299.178 259.415,299.178 260.585,299.089 261.300 M299.098 272.900 C 299.023 274.715,298.963 273.230,298.963 269.600 C 298.963 265.970,299.023 264.485,299.098 266.300 C 299.172 268.115,299.172 271.085,299.098 272.900 M105.098 302.480 C 105.026 304.526,104.966 302.960,104.965 299.000 C 104.965 295.040,105.024 293.366,105.098 295.280 C 105.171 297.194,105.171 300.434,105.098 302.480 M298.904 305.956 C 299.013 306.371,298.947 306.956,298.757 307.256 C 298.523 307.626,298.410 307.384,298.406 306.500 C 298.399 305.045,298.607 304.818,298.904 305.956 " stroke="none" fill="#aaaea2" fill-rule="evenodd"></path><path id="path4" d="M119.600 74.200 C 119.326 74.530,118.798 74.800,118.426 74.800 C 116.243 74.800,110.562 79.247,108.971 82.202 C 108.557 82.971,108.079 83.600,107.909 83.600 C 107.739 83.600,107.600 84.118,107.600 84.751 C 107.600 85.384,107.330 86.126,107.000 86.400 C 106.087 87.158,106.087 308.994,107.000 309.345 C 107.330 309.471,107.600 309.924,107.600 310.350 C 107.600 312.411,114.080 320.000,115.841 320.000 C 116.148 320.000,116.400 320.159,116.400 320.354 C 116.400 322.007,116.051 322.000,202.047 322.000 C 283.159 322.000,285.120 321.971,287.200 320.750 C 287.530 320.557,288.178 320.233,288.640 320.032 C 290.625 319.166,294.723 314.497,296.261 311.350 L 297.800 308.200 297.800 197.542 C 297.800 92.715,297.763 86.843,297.100 86.111 C 296.715 85.685,296.400 84.946,296.400 84.469 C 296.400 83.991,296.240 83.600,296.043 83.600 C 295.847 83.600,295.581 83.177,295.451 82.660 C 295.178 81.573,289.084 75.600,288.247 75.600 C 287.938 75.600,287.587 75.344,287.467 75.031 C 287.334 74.683,286.929 74.546,286.425 74.678 C 285.972 74.796,285.157 74.602,284.615 74.246 C 283.160 73.293,120.391 73.247,119.600 74.200 M284.060 74.700 C 284.335 74.975,284.969 75.200,285.468 75.200 C 288.374 75.200,296.000 82.468,296.000 85.238 C 296.000 85.631,296.153 86.048,296.341 86.163 C 297.688 86.996,297.691 308.602,296.344 309.434 C 296.155 309.551,296.000 310.087,296.000 310.624 C 296.000 311.161,295.820 311.600,295.600 311.600 C 295.380 311.600,295.200 311.934,295.200 312.343 C 295.200 314.033,287.942 320.400,286.015 320.400 C 285.651 320.400,285.004 320.664,284.576 320.987 C 283.422 321.860,121.068 321.903,119.332 321.031 C 118.710 320.718,117.331 320.043,116.268 319.531 C 114.209 318.538,108.800 313.228,108.800 312.199 C 108.800 311.869,108.620 311.600,108.400 311.600 C 108.180 311.600,108.000 311.096,108.000 310.480 C 108.000 309.864,107.820 309.180,107.600 308.960 C 107.041 308.401,107.036 87.055,107.595 86.868 C 107.818 86.794,108.000 86.290,108.000 85.747 C 108.000 82.768,115.542 75.200,118.512 75.200 C 119.022 75.200,119.619 75.021,119.838 74.802 C 120.606 74.034,283.293 73.933,284.060 74.700 M65.800 115.600 C 65.664 115.820,64.843 116.000,63.976 116.000 C 63.109 116.000,62.400 116.180,62.400 116.400 C 62.400 116.620,62.119 116.800,61.776 116.800 C 61.433 116.800,61.264 116.980,61.400 117.200 C 61.536 117.420,61.460 117.600,61.231 117.600 C 61.002 117.600,60.702 118.050,60.564 118.600 C 60.426 119.150,60.149 119.600,59.948 119.600 C 59.377 119.600,59.528 148.726,60.104 149.761 C 60.570 150.596,60.655 150.839,60.750 151.600 C 60.778 151.820,61.160 152.000,61.600 152.000 C 62.040 152.000,62.400 152.180,62.400 152.400 C 62.400 152.620,62.749 152.800,63.176 152.800 C 63.603 152.800,64.064 152.980,64.200 153.200 C 64.700 154.010,70.725 153.687,71.186 152.826 C 72.086 151.144,71.720 116.357,70.800 116.116 C 70.360 116.001,70.000 115.748,70.000 115.553 C 70.000 115.064,66.105 115.107,65.800 115.600 M69.225 122.630 C 70.020 123.588,69.062 123.987,65.949 123.994 C 63.047 124.001,61.675 123.260,63.078 122.444 C 64.254 121.760,68.613 121.892,69.225 122.630 M209.400 123.600 C 209.264 123.820,208.083 124.000,206.776 124.000 L 204.400 124.000 204.495 139.900 L 204.590 155.800 204.700 140.154 L 204.809 124.509 208.604 124.230 C 213.588 123.865,213.200 123.105,213.200 133.224 C 213.200 138.051,213.349 142.000,213.532 142.000 C 213.715 142.000,215.445 140.013,217.377 137.584 C 219.309 135.155,221.181 132.876,221.538 132.519 C 221.894 132.163,221.981 131.945,221.732 132.036 C 221.482 132.126,219.551 134.330,217.439 136.934 L 213.600 141.667 213.600 133.062 C 213.600 125.773,213.504 124.361,212.971 123.829 C 212.275 123.132,209.788 122.973,209.400 123.600 M127.467 124.267 C 127.096 124.637,127.129 155.600,127.500 155.600 C 127.665 155.600,127.751 148.566,127.691 139.968 L 127.582 124.336 137.153 124.468 C 142.417 124.541,146.641 124.465,146.539 124.300 C 146.309 123.929,127.836 123.897,127.467 124.267 M148.346 125.416 C 150.053 126.157,150.359 126.156,149.376 125.413 C 148.949 125.090,148.240 124.827,147.800 124.828 C 147.246 124.830,147.414 125.011,148.346 125.416 M69.267 127.107 C 69.509 127.349,69.595 127.836,69.459 128.190 C 69.081 129.175,63.068 128.909,62.875 127.898 C 62.615 126.538,68.028 125.868,69.267 127.107 M151.305 128.103 C 151.797 129.063,152.256 129.714,152.324 129.551 C 152.484 129.170,151.330 126.927,150.808 126.605 C 150.589 126.470,150.813 127.144,151.305 128.103 M136.887 132.100 L 136.800 137.600 138.638 137.600 C 140.481 137.600,142.800 136.440,142.800 135.518 C 142.800 135.283,142.325 135.565,141.745 136.145 C 140.930 136.960,140.297 137.200,138.957 137.200 L 137.223 137.200 137.099 131.900 L 136.975 126.600 136.887 132.100 M140.600 127.200 C 140.736 127.420,141.042 127.600,141.280 127.600 C 141.517 127.600,141.957 127.915,142.257 128.300 C 142.774 128.965,142.789 128.964,142.554 128.289 C 142.417 127.898,141.979 127.403,141.579 127.189 C 140.647 126.690,140.287 126.694,140.600 127.200 M142.889 132.000 C 142.896 134.894,142.911 134.940,143.305 133.298 C 143.586 132.129,143.584 131.189,143.298 130.298 C 142.932 129.157,142.883 129.362,142.889 132.000 M69.400 132.200 C 69.400 132.917,69.094 133.012,66.439 133.119 C 63.379 133.241,62.515 132.918,62.941 131.810 C 63.353 130.735,69.400 131.101,69.400 132.200 M231.200 131.487 C 230.210 131.577,229.263 131.785,229.096 131.950 C 228.928 132.114,230.188 132.097,231.896 131.912 C 233.603 131.726,235.450 131.625,236.000 131.687 L 237.000 131.800 237.215 141.000 L 237.430 150.200 237.415 140.800 L 237.400 131.400 235.200 131.361 C 233.990 131.340,232.190 131.397,231.200 131.487 M244.600 131.608 C 243.471 131.817,244.119 131.888,246.800 131.852 L 250.600 131.800 250.600 143.662 C 250.600 150.186,250.735 155.440,250.900 155.338 C 251.256 155.118,251.310 132.752,250.957 131.833 C 250.693 131.144,247.694 131.038,244.600 131.608 M258.400 131.620 C 256.702 131.840,256.965 131.869,259.551 131.746 C 263.080 131.579,264.000 131.890,264.000 133.249 C 264.000 134.196,263.986 134.198,266.238 133.000 C 267.273 132.450,267.867 132.001,267.560 132.001 C 267.252 132.002,266.435 132.348,265.744 132.769 L 264.487 133.535 264.254 132.368 C 263.995 131.074,263.296 130.985,258.400 131.620 M165.700 131.891 C 166.525 131.978,167.875 131.978,168.700 131.891 C 169.525 131.805,168.850 131.734,167.200 131.734 C 165.550 131.734,164.875 131.805,165.700 131.891 M191.305 131.887 C 191.914 131.979,192.814 131.977,193.305 131.882 C 193.797 131.787,193.300 131.711,192.200 131.714 C 191.100 131.717,190.697 131.795,191.305 131.887 M268.900 131.876 C 269.285 131.976,269.915 131.976,270.300 131.876 C 270.685 131.775,270.370 131.693,269.600 131.693 C 268.830 131.693,268.515 131.775,268.900 131.876 M161.200 132.421 C 160.770 132.714,161.054 132.754,162.200 132.562 C 164.184 132.230,164.504 131.998,162.967 132.006 C 162.325 132.009,161.530 132.196,161.200 132.421 M171.600 132.400 C 173.142 132.894,173.964 132.894,173.200 132.400 C 172.870 132.187,172.150 132.027,171.600 132.046 L 170.600 132.080 171.600 132.400 M187.800 132.400 C 186.781 132.838,187.832 132.838,189.200 132.400 C 190.004 132.143,190.043 132.077,189.400 132.068 C 188.960 132.062,188.240 132.211,187.800 132.400 M196.182 132.636 C 198.267 133.399,199.511 134.617,199.998 136.370 C 200.576 138.451,200.515 138.712,199.300 139.371 C 197.973 140.091,198.339 140.193,199.823 139.517 C 202.471 138.310,198.730 131.918,195.441 132.028 C 194.889 132.047,195.143 132.255,196.182 132.636 M223.904 133.644 C 223.301 134.500,222.941 135.198,223.104 135.195 C 223.435 135.190,225.331 132.391,225.129 132.206 C 225.058 132.141,224.507 132.788,223.904 133.644 M242.078 139.900 C 242.158 147.896,242.307 146.967,242.496 137.299 C 242.553 134.384,242.465 131.999,242.300 131.999 C 242.135 132.000,242.035 135.555,242.078 139.900 M255.393 147.700 L 255.400 163.400 259.800 163.400 L 264.200 163.400 264.314 159.063 C 264.420 155.031,264.476 154.763,265.114 155.263 C 265.733 155.747,265.746 155.731,265.251 155.100 C 264.239 153.809,264.028 154.377,263.914 158.700 L 263.800 163.000 259.705 163.114 L 255.609 163.228 255.498 147.614 L 255.386 132.000 255.393 147.700 M271.200 132.195 C 271.200 132.302,271.803 132.641,272.541 132.949 C 273.949 133.538,275.227 135.051,276.192 137.273 C 276.545 138.085,276.775 138.318,276.784 137.872 C 276.807 136.800,274.512 133.657,273.060 132.771 C 271.810 132.009,271.200 131.820,271.200 132.195 M184.313 134.204 C 183.275 134.966,182.145 136.133,181.801 136.799 C 181.287 137.793,181.553 137.633,183.287 135.905 C 184.449 134.747,185.760 133.586,186.200 133.324 C 186.640 133.061,186.820 132.841,186.600 132.833 C 186.380 132.826,185.351 133.443,184.313 134.204 M152.032 133.646 C 151.982 134.658,150.454 136.365,148.518 137.570 L 146.748 138.672 148.570 139.367 C 149.656 139.782,150.959 140.726,151.796 141.703 C 152.568 142.606,153.200 143.171,153.200 142.960 C 153.200 142.298,150.460 139.722,149.203 139.201 C 147.650 138.558,147.686 138.383,149.597 137.291 C 151.201 136.376,152.613 134.348,152.256 133.473 C 152.145 133.202,152.050 133.276,152.032 133.646 M157.603 134.796 C 156.666 136.112,156.606 138.860,157.510 139.039 C 157.791 139.095,157.836 139.049,157.610 138.937 C 156.930 138.599,157.151 136.285,157.996 134.900 C 158.990 133.269,158.737 133.203,157.603 134.796 M176.056 134.545 C 176.339 135.175,176.642 135.473,176.731 135.206 C 176.820 134.940,176.589 134.424,176.218 134.061 C 175.586 133.442,175.576 133.473,176.056 134.545 M162.300 135.029 C 161.695 135.357,161.200 135.813,161.200 136.042 C 161.200 136.271,161.674 136.085,162.254 135.629 C 164.473 133.883,168.005 134.926,167.994 137.323 C 167.985 139.090,167.677 139.447,164.971 140.827 C 163.667 141.492,163.050 141.915,163.600 141.767 C 166.609 140.959,168.400 139.335,168.400 137.416 C 168.400 134.740,165.165 133.474,162.300 135.029 M191.100 135.246 C 190.495 135.697,190.000 136.256,190.000 136.488 C 190.000 136.720,190.475 136.435,191.055 135.855 C 192.259 134.651,193.751 134.499,195.211 135.432 L 196.200 136.064 195.256 135.232 C 194.066 134.184,192.517 134.189,191.100 135.246 M264.995 136.152 C 262.847 139.429,263.451 152.154,265.797 153.054 C 266.625 153.372,268.002 152.106,267.991 151.038 C 267.984 150.373,267.849 150.469,267.341 151.500 C 265.614 155.003,264.262 151.796,264.262 144.200 C 264.262 136.637,265.714 133.305,267.484 136.804 C 267.761 137.352,267.985 137.530,267.981 137.200 C 267.960 135.328,265.988 134.636,264.995 136.152 M221.629 136.654 C 220.663 137.883,220.608 138.932,221.422 140.600 C 222.038 141.861,222.041 141.915,221.325 138.921 C 221.196 138.383,221.452 137.570,221.985 136.821 C 223.050 135.326,222.775 135.197,221.629 136.654 M69.023 136.567 C 70.195 137.424,69.422 137.797,66.468 137.798 C 63.007 137.800,61.856 137.396,62.976 136.571 C 63.995 135.822,68.000 135.819,69.023 136.567 M176.883 143.620 C 176.795 151.918,176.894 152.400,178.680 152.400 C 179.204 152.400,179.626 152.658,179.660 153.000 C 179.693 153.330,179.738 153.825,179.760 154.100 C 179.782 154.375,179.170 154.815,178.400 155.077 C 177.320 155.446,177.209 155.560,177.914 155.577 C 178.417 155.590,179.254 155.321,179.774 154.980 C 181.033 154.155,180.163 152.000,178.571 152.000 C 177.322 152.000,177.476 152.925,177.205 143.800 L 176.967 135.800 176.883 143.620 M196.060 138.513 C 195.998 140.481,196.752 141.408,197.670 140.490 C 197.957 140.203,197.857 140.094,197.343 140.137 C 196.751 140.187,196.551 139.834,196.360 138.400 L 196.120 136.600 196.060 138.513 M189.473 137.753 C 189.323 138.145,189.211 138.766,189.225 139.133 C 189.242 139.575,189.381 139.474,189.637 138.834 C 189.849 138.303,189.961 137.682,189.885 137.454 C 189.809 137.227,189.624 137.361,189.473 137.753 M268.191 143.977 C 268.196 147.374,268.314 149.624,268.453 148.977 C 268.804 147.341,268.813 141.331,268.467 139.400 C 268.297 138.447,268.185 140.299,268.191 143.977 M161.349 138.954 C 161.589 139.632,161.454 139.686,160.008 139.492 C 159.093 139.369,158.496 139.432,158.624 139.638 C 158.939 140.148,161.497 140.090,161.822 139.565 C 161.969 139.326,161.863 138.921,161.586 138.665 C 161.191 138.300,161.140 138.362,161.349 138.954 M277.000 144.401 C 277.000 147.439,277.132 149.717,277.294 149.463 C 277.682 148.852,277.687 139.301,277.300 139.062 C 277.135 138.961,277.000 141.363,277.000 144.401 M136.889 146.548 L 136.800 153.296 139.218 153.121 C 141.204 152.978,141.829 152.748,142.718 151.837 L 143.800 150.728 142.244 151.764 C 141.169 152.480,140.153 152.800,138.954 152.800 L 137.220 152.800 137.099 146.300 L 136.979 139.800 136.889 146.548 M140.600 140.400 C 140.736 140.620,141.096 140.800,141.401 140.800 C 141.705 140.800,142.231 141.194,142.568 141.676 C 142.906 142.158,143.283 142.450,143.408 142.326 C 143.675 142.059,141.318 140.000,140.746 140.000 C 140.530 140.000,140.464 140.180,140.600 140.400 M69.024 141.392 C 70.180 142.275,69.140 142.786,66.176 142.794 C 63.226 142.801,61.531 141.924,63.200 141.253 C 64.738 140.634,68.137 140.716,69.024 141.392 M179.852 142.100 C 179.512 143.370,179.593 146.052,180.000 147.000 C 180.231 147.537,180.353 146.716,180.372 144.500 C 180.401 141.112,180.274 140.526,179.852 142.100 M188.931 143.800 C 188.933 145.340,189.005 145.921,189.092 145.091 C 189.179 144.261,189.177 143.001,189.089 142.291 C 189.000 141.581,188.929 142.260,188.931 143.800 M159.600 142.866 C 156.711 144.537,155.200 146.731,155.200 149.253 C 155.200 150.355,156.738 154.195,157.053 153.880 C 157.136 153.798,156.914 153.150,156.560 152.441 C 154.719 148.749,155.906 145.402,159.800 143.311 C 161.120 142.602,161.930 142.030,161.600 142.040 C 161.270 142.049,160.370 142.421,159.600 142.866 M166.017 143.538 C 165.128 144.384,164.401 145.329,164.401 145.638 C 164.402 145.947,164.753 145.626,165.180 144.926 C 165.855 143.819,167.091 142.800,167.759 142.800 C 167.875 142.800,168.029 144.465,168.102 146.500 L 168.234 150.200 168.317 146.100 C 168.411 141.473,168.308 141.359,166.017 143.538 M143.771 146.841 C 143.771 148.827,143.900 150.125,144.058 149.726 C 144.446 148.741,144.462 144.317,144.080 143.715 C 143.910 143.448,143.771 144.855,143.771 146.841 M153.400 147.000 C 153.400 148.828,153.532 150.116,153.694 149.862 C 153.856 149.608,153.988 148.320,153.988 147.000 C 153.988 145.680,153.856 144.392,153.694 144.138 C 153.532 143.884,153.400 145.172,153.400 147.000 M68.989 145.742 C 70.550 146.884,69.475 147.600,66.200 147.600 C 63.762 147.600,63.126 147.472,62.922 146.942 C 62.533 145.929,63.904 145.200,66.200 145.200 C 67.326 145.200,68.581 145.444,68.989 145.742 M199.200 145.410 C 199.200 145.525,199.673 145.799,200.250 146.019 C 201.247 146.398,201.288 146.526,201.064 148.509 C 200.909 149.888,200.950 150.328,201.186 149.800 C 201.804 148.419,201.656 146.330,200.900 145.757 C 200.196 145.222,199.200 145.019,199.200 145.410 M213.680 146.080 C 213.366 146.394,213.200 148.046,213.200 150.847 C 213.200 153.375,213.032 155.217,212.790 155.337 C 212.565 155.449,212.610 155.494,212.890 155.437 C 213.258 155.363,213.431 154.095,213.513 150.867 C 213.604 147.259,213.739 146.400,214.213 146.400 C 214.536 146.400,214.800 146.220,214.800 146.000 C 214.800 145.458,214.264 145.496,213.680 146.080 M164.059 148.074 C 163.990 150.265,164.528 151.921,165.421 152.263 C 166.261 152.586,168.000 151.628,168.000 150.843 C 168.000 150.396,167.826 150.471,167.377 151.111 C 165.976 153.111,164.851 152.090,164.392 148.400 L 164.118 146.200 164.059 148.074 M214.846 147.000 C 214.869 147.699,216.340 150.627,216.354 150.000 C 216.361 149.670,216.022 148.770,215.600 148.000 C 215.178 147.230,214.839 146.780,214.846 147.000 M241.271 149.169 C 240.807 150.499,239.480 151.367,238.359 151.073 C 237.941 150.964,237.700 151.038,237.823 151.237 C 238.567 152.441,241.174 150.902,241.781 148.900 C 242.183 147.574,241.747 147.804,241.271 149.169 M189.406 149.600 C 189.909 153.270,194.499 154.406,196.891 151.453 C 198.108 149.951,197.648 149.892,196.253 151.372 C 193.916 153.849,190.837 153.086,189.730 149.754 L 189.214 148.200 189.406 149.600 M276.272 151.310 C 276.111 151.921,275.330 153.139,274.536 154.018 C 273.742 154.897,273.393 155.501,273.760 155.360 C 274.714 154.994,276.882 151.707,276.709 150.889 C 276.607 150.406,276.476 150.532,276.272 151.310 M152.179 151.928 C 151.794 152.579,150.832 153.487,150.040 153.947 C 149.248 154.406,148.842 154.786,149.138 154.791 C 150.328 154.811,153.670 151.537,153.071 150.938 C 152.965 150.831,152.563 151.277,152.179 151.928 M181.552 151.400 C 181.995 152.346,183.448 153.719,184.674 154.350 C 186.331 155.204,186.152 154.797,184.373 153.669 C 183.392 153.046,182.271 152.101,181.883 151.569 C 181.408 150.917,181.300 150.862,181.552 151.400 M200.400 151.103 C 200.400 151.342,199.911 152.137,199.314 152.869 C 198.421 153.964,198.392 154.059,199.151 153.404 C 200.229 152.475,200.965 151.231,200.632 150.899 C 200.505 150.771,200.400 150.863,200.400 151.103 M216.427 150.864 C 216.370 151.423,218.127 155.600,218.419 155.600 C 218.589 155.600,218.417 154.925,218.037 154.100 C 217.657 153.275,217.145 152.150,216.900 151.600 C 216.655 151.050,216.442 150.719,216.427 150.864 M228.828 151.800 C 228.827 152.240,229.090 152.949,229.413 153.376 C 230.156 154.359,230.157 154.053,229.416 152.346 C 229.011 151.414,228.830 151.246,228.828 151.800 M241.935 154.034 C 242.017 154.895,242.209 155.600,242.362 155.600 C 242.703 155.600,242.414 152.856,242.048 152.630 C 241.904 152.540,241.852 153.172,241.935 154.034 M240.000 154.000 C 239.450 154.430,239.152 154.786,239.337 154.791 C 239.522 154.796,240.131 154.440,240.691 154.000 C 241.250 153.560,241.549 153.204,241.354 153.209 C 241.159 153.214,240.550 153.570,240.000 154.000 M167.776 154.187 C 167.349 154.510,167.189 154.780,167.420 154.787 C 167.651 154.794,168.042 154.598,168.289 154.351 C 168.621 154.019,169.049 154.123,169.931 154.751 C 170.587 155.218,171.346 155.600,171.618 155.600 C 171.889 155.600,171.449 155.150,170.638 154.600 C 168.915 153.431,168.799 153.414,167.776 154.187 M230.400 154.400 C 230.400 154.762,232.749 155.784,233.001 155.532 C 233.098 155.435,232.552 155.073,231.789 154.727 C 231.025 154.381,230.400 154.234,230.400 154.400 M146.800 155.200 C 145.976 155.464,145.941 155.526,146.600 155.554 C 147.040 155.573,147.670 155.413,148.000 155.200 C 148.701 154.747,148.214 154.747,146.800 155.200 M165.400 155.200 C 164.629 155.531,164.631 155.545,165.476 155.572 C 165.958 155.587,166.464 155.420,166.600 155.200 C 166.892 154.727,166.501 154.727,165.400 155.200 M186.600 155.200 C 186.736 155.420,187.332 155.587,187.924 155.572 C 188.885 155.547,188.914 155.507,188.200 155.200 C 187.089 154.722,186.305 154.722,186.600 155.200 M194.800 155.200 L 193.800 155.520 194.876 155.560 C 195.468 155.582,196.064 155.420,196.200 155.200 C 196.481 154.745,196.220 154.745,194.800 155.200 M237.400 155.200 C 236.629 155.531,236.631 155.545,237.476 155.572 C 237.958 155.587,238.464 155.420,238.600 155.200 C 238.892 154.727,238.501 154.727,237.400 155.200 M63.500 179.498 C 65.315 179.572,68.285 179.572,70.100 179.498 C 71.915 179.423,70.430 179.363,66.800 179.363 C 63.170 179.363,61.685 179.423,63.500 179.498 M160.665 216.595 C 146.172 231.045,137.600 239.876,137.600 240.359 C 137.600 240.875,139.883 238.815,144.575 234.063 C 161.516 216.908,183.677 194.970,184.395 194.643 C 185.580 194.105,187.235 195.611,204.700 213.130 C 221.017 229.497,221.402 229.973,218.893 230.725 C 218.064 230.973,216.677 231.902,215.811 232.788 C 213.676 234.975,215.016 235.988,199.366 220.360 C 190.539 211.546,185.071 206.373,184.676 206.460 C 184.330 206.537,175.139 215.465,164.253 226.300 L 144.460 246.000 142.527 246.000 C 140.613 246.000,138.621 244.602,137.877 242.736 C 137.759 242.441,137.649 242.676,137.632 243.259 C 137.563 245.548,141.862 247.851,144.310 246.837 C 144.914 246.587,154.136 237.657,164.804 226.992 C 175.472 216.327,184.467 207.600,184.793 207.600 C 185.118 207.600,191.694 213.900,199.406 221.600 C 207.117 229.300,213.645 235.600,213.913 235.600 C 214.659 235.600,214.494 236.996,213.560 238.577 C 212.536 240.313,212.038 240.355,211.000 238.794 C 209.259 236.175,185.958 213.800,184.972 213.800 C 183.823 213.800,159.107 238.222,159.291 239.175 C 159.384 239.658,160.392 239.742,165.201 239.665 C 169.827 239.592,171.930 239.752,175.600 240.461 C 181.453 241.591,186.780 241.593,194.400 240.471 C 200.181 239.620,205.029 239.445,209.196 239.940 C 211.908 240.261,212.180 240.980,210.486 243.342 C 209.822 244.268,209.088 246.005,208.825 247.275 C 206.802 257.038,190.559 256.474,187.439 246.533 C 186.128 242.356,183.736 242.665,181.226 247.336 C 178.284 252.811,176.841 253.722,170.800 253.916 C 164.393 254.123,162.390 252.802,160.996 247.449 C 160.460 245.392,157.851 240.800,157.218 240.800 C 157.071 240.800,155.200 242.581,153.062 244.757 L 149.174 248.715 149.287 264.943 C 149.391 279.901,149.456 281.228,150.114 281.886 C 150.878 282.649,213.260 282.980,216.238 282.236 C 217.365 281.955,217.593 282.076,218.800 283.600 C 220.032 285.155,220.239 285.261,221.762 285.109 C 223.114 284.974,223.740 285.177,225.345 286.273 C 227.555 287.781,227.872 287.832,229.874 286.995 C 230.671 286.662,231.340 286.437,231.361 286.495 C 232.295 289.041,238.141 289.234,239.420 286.761 C 240.004 285.631,240.147 285.573,241.750 285.813 C 245.063 286.310,248.767 284.605,249.815 282.100 C 250.253 281.053,250.587 280.800,251.530 280.800 C 254.641 280.800,260.222 276.781,259.934 274.748 C 259.828 273.996,260.255 273.457,262.000 272.139 C 266.656 268.622,269.657 261.842,267.229 260.325 C 266.472 259.853,267.760 256.543,268.885 256.067 C 269.287 255.897,269.301 251.711,268.900 251.533 C 267.587 250.950,266.242 247.701,267.000 246.943 C 268.761 245.182,266.221 240.920,262.883 240.035 C 262.066 239.818,261.768 239.459,261.668 238.574 C 261.416 236.338,258.198 234.113,255.875 234.569 C 254.903 234.760,254.783 234.685,254.993 234.022 C 255.472 232.512,253.260 230.704,250.669 230.489 C 248.634 230.320,248.323 230.169,247.600 228.999 C 246.394 227.049,244.605 226.304,242.871 227.028 C 241.529 227.589,241.485 227.575,240.207 226.180 C 238.424 224.233,233.795 224.189,232.877 226.110 C 232.376 227.160,232.241 227.206,230.418 226.965 C 227.906 226.631,226.174 227.233,224.013 229.188 C 222.220 230.811,221.600 230.916,221.600 229.597 C 221.600 228.911,191.418 198.192,187.486 194.877 C 184.599 192.442,186.157 191.181,160.665 216.595 M197.383 226.343 C 203.882 232.802,209.200 238.243,209.200 238.435 C 209.200 238.627,206.511 238.775,203.223 238.764 C 198.502 238.748,195.869 238.974,190.687 239.839 L 184.128 240.935 178.564 239.834 C 174.561 239.043,171.322 238.683,167.019 238.553 C 163.729 238.453,160.987 238.320,160.925 238.258 C 160.863 238.196,164.783 234.198,169.637 229.373 C 174.490 224.548,179.843 219.202,181.531 217.493 C 183.219 215.784,184.817 214.434,185.083 214.493 C 185.349 214.552,190.884 219.884,197.383 226.343 M239.647 227.153 C 241.177 228.683,241.200 228.751,241.200 231.729 C 241.200 234.932,241.531 235.612,242.581 234.562 C 243.069 234.074,243.210 233.230,243.156 231.117 C 243.105 229.099,243.241 228.220,243.643 227.965 C 245.593 226.730,247.701 229.659,247.546 233.386 C 247.399 236.909,247.924 237.899,249.038 236.198 C 249.430 235.599,249.762 234.404,249.776 233.540 C 249.811 231.244,251.291 230.491,252.800 232.000 C 253.926 233.126,253.804 233.829,252.200 235.481 C 249.719 238.036,250.290 239.065,253.112 237.123 C 255.510 235.473,258.243 235.338,259.792 236.793 C 261.137 238.056,261.083 238.800,259.647 238.800 C 258.830 238.800,258.015 239.280,256.847 240.447 C 254.197 243.097,254.777 243.750,258.219 241.990 C 262.438 239.833,266.400 241.513,266.400 245.460 C 266.400 246.193,264.621 246.149,264.000 245.400 C 263.245 244.490,261.106 244.679,258.837 245.857 C 255.639 247.516,256.112 248.670,259.684 247.921 C 264.500 246.911,267.260 248.919,267.531 253.630 C 267.665 255.961,267.571 256.389,266.707 257.394 C 265.457 258.847,264.800 258.438,264.800 256.208 C 264.800 252.675,259.667 249.218,256.597 250.682 C 254.839 251.520,254.847 252.636,256.611 252.525 C 263.075 252.119,265.336 260.740,259.600 263.923 C 257.403 265.142,256.291 263.836,257.813 261.824 C 258.553 260.844,258.544 259.624,257.787 258.624 C 257.464 258.196,257.200 257.498,257.200 257.072 C 257.200 256.645,256.345 255.415,255.301 254.339 L 253.402 252.381 248.968 252.474 L 244.534 252.567 242.299 251.084 C 241.070 250.268,239.914 249.600,239.731 249.600 C 238.971 249.600,236.981 246.952,236.310 245.047 C 235.889 243.852,234.923 242.336,233.987 241.401 L 232.384 239.800 228.802 239.809 L 225.219 239.819 223.693 241.309 C 221.932 243.029,221.309 243.158,220.834 241.900 C 220.449 240.881,221.492 237.651,222.547 236.596 C 222.896 236.247,223.339 235.680,223.531 235.338 C 224.805 233.062,232.000 234.667,232.000 237.227 C 232.000 237.957,233.027 238.554,233.636 238.178 C 234.684 237.530,233.966 235.441,232.100 233.709 L 230.200 231.944 227.400 232.127 C 225.860 232.228,224.195 232.442,223.700 232.602 C 222.139 233.107,222.647 231.853,224.831 229.810 L 226.861 227.911 229.480 228.077 C 232.815 228.290,235.200 230.399,235.200 233.136 C 235.200 234.839,235.922 235.758,236.949 235.364 C 238.292 234.849,237.181 230.244,235.229 228.230 C 233.455 226.400,233.761 225.600,236.235 225.600 C 237.861 225.600,238.289 225.794,239.647 227.153 M220.206 233.900 C 220.051 234.285,219.673 235.550,219.365 236.710 C 218.629 239.484,214.514 245.048,213.758 244.292 C 212.574 243.107,214.575 237.459,217.158 234.700 C 218.667 233.088,220.749 232.542,220.206 233.900 M222.400 235.000 C 222.400 235.330,222.130 235.600,221.800 235.600 C 221.470 235.600,221.200 235.330,221.200 235.000 C 221.200 234.670,221.470 234.400,221.800 234.400 C 222.130 234.400,222.400 234.670,222.400 235.000 M232.000 242.772 C 234.396 244.473,233.949 246.463,231.200 246.334 C 229.229 246.242,226.828 247.901,224.841 250.726 L 223.908 252.053 222.995 251.195 C 218.668 247.131,227.071 239.271,232.000 242.772 M158.343 243.790 C 159.382 245.316,160.355 247.782,160.382 248.958 C 160.464 252.467,164.401 254.921,169.951 254.921 C 176.626 254.922,179.150 253.466,181.948 248.000 C 184.174 243.653,185.008 243.545,186.814 247.367 C 189.537 253.130,192.460 254.924,199.200 254.971 C 202.777 254.995,203.664 254.868,205.180 254.110 C 207.918 252.743,209.863 255.165,208.025 257.652 C 206.791 259.320,206.883 263.002,208.224 265.648 C 209.092 267.361,209.209 267.990,208.987 269.766 C 208.705 272.025,208.678 271.969,212.300 276.790 C 213.015 277.741,213.600 278.844,213.600 279.240 C 213.600 279.636,213.915 280.138,214.300 280.355 C 214.867 280.675,214.903 280.848,214.491 281.264 C 213.738 282.025,151.482 282.041,150.720 281.280 C 150.315 280.875,150.175 277.266,150.086 264.902 L 149.973 249.044 153.278 245.722 C 157.047 241.933,157.072 241.923,158.343 243.790 M219.600 247.268 C 219.710 249.176,219.927 250.863,220.083 251.018 C 220.569 251.501,218.841 254.400,218.067 254.400 C 216.102 254.400,214.428 250.691,215.191 248.030 C 216.739 242.633,219.307 242.189,219.600 247.268 M222.145 244.600 C 222.018 244.930,221.664 245.200,221.357 245.200 C 221.051 245.200,220.800 244.930,220.800 244.600 C 220.800 244.270,221.154 244.000,221.587 244.000 C 222.123 244.000,222.301 244.192,222.145 244.600 M212.171 247.028 C 213.090 247.947,213.891 254.482,213.218 255.571 C 212.731 256.359,210.400 255.266,210.400 254.250 C 210.400 253.770,210.113 252.968,209.761 252.466 C 209.108 251.534,209.163 251.174,210.606 246.900 C 210.834 246.224,211.414 246.271,212.171 247.028 M235.385 248.776 C 235.620 249.156,234.117 250.800,233.534 250.800 C 232.435 250.800,228.831 256.076,228.812 257.713 C 228.798 258.993,227.875 259.526,226.972 258.777 C 223.175 255.625,227.413 248.425,233.076 248.407 C 234.218 248.403,235.257 248.569,235.385 248.776 M238.145 249.800 C 238.301 250.208,238.123 250.400,237.587 250.400 C 237.154 250.400,236.800 250.130,236.800 249.800 C 236.800 249.470,237.051 249.200,237.357 249.200 C 237.664 249.200,238.018 249.470,238.145 249.800 M222.400 252.200 C 222.400 252.530,222.231 252.800,222.024 252.800 C 221.519 252.800,221.158 252.175,221.478 251.856 C 221.928 251.405,222.400 251.581,222.400 252.200 M240.103 252.611 C 242.825 254.461,243.413 256.699,241.900 259.445 C 238.853 264.972,235.301 266.342,232.339 263.133 C 227.958 258.389,234.854 249.045,240.103 252.611 M224.400 253.600 C 224.400 253.820,224.130 254.000,223.800 254.000 C 223.470 254.000,223.200 253.820,223.200 253.600 C 223.200 253.380,223.470 253.200,223.800 253.200 C 224.130 253.200,224.400 253.380,224.400 253.600 M223.400 256.864 C 223.840 258.103,224.515 259.465,224.900 259.890 C 226.189 261.313,225.559 263.200,223.795 263.200 C 222.567 263.200,220.041 259.784,220.014 258.087 C 219.955 254.279,222.195 253.470,223.400 256.864 M252.906 255.500 C 255.151 257.221,256.234 262.509,254.663 264.080 C 254.368 264.375,253.932 264.979,253.695 265.422 C 253.451 265.878,252.370 266.513,251.198 266.888 C 248.022 267.903,247.158 267.180,248.900 264.962 C 249.701 263.942,249.805 263.334,249.847 259.408 C 249.873 256.984,249.918 254.865,249.947 254.700 C 250.061 254.054,251.541 254.453,252.906 255.500 M246.603 256.077 C 248.861 258.760,247.506 264.990,244.319 266.580 C 240.581 268.445,238.387 267.024,241.116 264.505 C 243.225 262.559,244.835 259.474,244.532 257.958 C 243.957 255.084,244.983 254.152,246.603 256.077 M217.074 257.270 C 217.611 257.774,218.000 258.606,218.000 259.251 C 218.000 259.862,218.205 260.812,218.455 261.361 C 219.039 262.643,217.896 265.399,216.934 265.030 C 216.604 264.904,216.176 264.800,215.981 264.800 C 215.309 264.800,214.791 263.226,214.586 260.564 C 214.265 256.382,215.039 255.358,217.074 257.270 M213.345 257.800 C 213.607 258.484,213.270 259.600,212.800 259.600 C 212.438 259.600,212.000 258.597,212.000 257.767 C 212.000 257.013,213.052 257.038,213.345 257.800 M211.603 260.576 C 211.604 261.249,211.963 262.340,212.400 263.000 C 213.224 264.244,213.476 266.582,212.830 266.981 C 210.563 268.382,207.591 260.809,209.614 258.786 C 210.721 257.679,211.598 258.469,211.603 260.576 M230.000 261.424 C 230.000 262.414,229.451 262.730,229.000 262.000 C 228.864 261.780,228.313 261.600,227.776 261.600 C 227.146 261.600,226.800 261.372,226.800 260.957 C 226.800 260.604,227.025 260.399,227.300 260.502 C 227.575 260.605,228.160 260.557,228.600 260.395 C 229.664 260.003,230.000 260.250,230.000 261.424 M264.708 260.875 C 264.461 261.617,263.600 261.740,263.600 261.033 C 263.600 260.685,263.885 260.400,264.233 260.400 C 264.582 260.400,264.795 260.614,264.708 260.875 M267.200 262.149 C 267.200 265.406,262.001 272.400,259.580 272.400 C 259.110 272.400,259.076 271.324,259.536 271.039 C 259.721 270.925,260.193 269.649,260.584 268.204 C 261.123 266.214,261.647 265.248,262.747 264.219 C 266.214 260.975,267.200 260.517,267.200 262.149 M221.108 262.725 C 221.195 262.986,220.982 263.200,220.633 263.200 C 220.285 263.200,220.000 262.915,220.000 262.567 C 220.000 261.860,220.861 261.983,221.108 262.725 M229.794 264.065 C 231.512 266.107,232.695 266.851,234.673 267.134 C 238.702 267.711,235.647 271.195,231.109 271.198 C 227.903 271.200,227.168 270.479,226.895 267.063 C 226.578 263.106,227.866 261.774,229.794 264.065 M225.600 265.689 C 225.600 267.225,225.552 267.306,225.066 266.589 C 223.918 264.890,223.918 264.000,225.067 264.000 C 225.427 264.000,225.600 264.548,225.600 265.689 M222.393 265.120 C 223.508 265.665,223.835 266.097,224.027 267.280 C 224.159 268.093,224.497 269.035,224.778 269.374 C 225.412 270.138,225.006 272.000,224.206 272.000 C 221.131 272.000,218.986 268.788,219.825 265.442 C 220.128 264.234,220.489 264.189,222.393 265.120 M257.125 265.700 C 257.229 266.244,256.984 266.400,256.029 266.400 C 254.861 266.400,254.397 265.737,255.084 265.050 C 255.594 264.540,256.989 264.984,257.125 265.700 M173.100 265.632 C 171.598 266.507,172.462 270.276,174.767 272.901 C 178.540 277.199,187.062 278.482,191.998 275.496 C 196.336 272.872,199.264 267.331,197.111 265.823 C 196.043 265.074,174.353 264.902,173.100 265.632 M259.866 265.827 C 260.230 266.775,259.377 267.444,258.612 266.810 C 258.138 266.417,258.098 266.164,258.444 265.747 C 259.043 265.025,259.569 265.055,259.866 265.827 M238.000 266.157 C 238.000 266.464,238.270 266.818,238.600 266.945 C 239.415 267.258,239.363 268.400,238.533 268.400 C 238.167 268.400,237.980 268.286,238.119 268.147 C 238.522 267.744,237.632 266.400,236.962 266.400 C 236.627 266.400,236.464 266.220,236.600 266.000 C 236.970 265.402,238.000 265.518,238.000 266.157 M196.411 267.013 C 197.770 268.651,194.468 273.260,190.668 275.029 C 186.260 277.082,179.322 276.080,176.030 272.917 C 174.010 270.974,172.599 267.534,173.467 266.667 C 174.090 266.043,195.879 266.372,196.411 267.013 M246.800 267.000 C 246.800 267.330,246.508 267.600,246.151 267.600 C 245.620 267.600,245.592 267.491,246.000 267.000 C 246.274 266.670,246.566 266.400,246.649 266.400 C 246.732 266.400,246.800 266.670,246.800 267.000 M258.000 267.367 C 258.000 267.459,258.099 267.792,258.219 268.106 C 258.490 268.812,256.095 271.740,254.190 273.033 C 250.590 275.475,246.894 274.014,249.293 271.097 C 250.911 269.130,258.000 266.093,258.000 267.367 M216.869 268.262 C 217.271 268.626,217.600 269.142,217.600 269.408 C 217.600 269.674,217.972 270.365,218.427 270.943 C 219.687 272.545,219.350 274.166,217.725 274.324 C 215.660 274.523,213.983 270.674,215.169 268.458 C 215.721 267.426,215.920 267.403,216.869 268.262 M246.970 269.467 C 247.253 270.204,245.030 272.800,244.116 272.800 C 243.826 272.800,243.260 273.006,242.857 273.257 C 241.938 273.831,238.564 272.653,237.974 271.552 C 237.374 270.431,239.130 269.485,241.710 269.539 C 242.859 269.563,244.070 269.409,244.400 269.198 C 245.341 268.593,246.689 268.734,246.970 269.467 M249.108 269.275 C 248.861 270.017,248.000 270.140,248.000 269.433 C 248.000 269.085,248.285 268.800,248.633 268.800 C 248.982 268.800,249.195 269.014,249.108 269.275 M212.706 272.140 C 213.578 274.336,212.651 274.881,211.337 272.945 C 210.151 271.197,210.118 270.302,211.247 270.472 C 211.800 270.556,212.306 271.134,212.706 272.140 M236.400 271.400 C 236.400 271.730,236.130 272.000,235.800 272.000 C 235.175 272.000,235.006 271.527,235.467 271.067 C 235.927 270.606,236.400 270.775,236.400 271.400 M221.528 272.869 C 221.339 274.149,220.400 274.286,220.400 273.033 C 220.400 272.361,220.619 272.000,221.028 272.000 C 221.445 272.000,221.613 272.292,221.528 272.869 M258.167 272.657 C 258.462 273.426,258.467 273.418,257.300 273.777 C 256.296 274.086,256.046 273.314,256.880 272.480 C 257.530 271.830,257.867 271.876,258.167 272.657 M247.200 273.000 C 247.200 273.330,246.930 273.600,246.600 273.600 C 245.975 273.600,245.806 273.127,246.267 272.667 C 246.727 272.206,247.200 272.375,247.200 273.000 M237.364 274.362 C 238.595 275.647,238.520 277.200,237.227 277.200 C 236.831 277.200,236.050 277.560,235.491 278.000 C 234.257 278.971,234.064 278.982,233.129 278.136 C 232.725 277.770,231.991 277.271,231.497 277.025 C 230.173 276.368,230.089 274.893,231.358 274.575 C 231.913 274.436,232.577 274.069,232.833 273.761 C 233.677 272.743,236.124 273.068,237.364 274.362 M227.200 274.416 C 227.200 274.865,227.545 275.720,227.966 276.316 C 230.441 279.816,226.624 282.323,222.879 279.656 C 220.178 277.733,220.923 274.400,224.053 274.400 C 224.878 274.400,225.664 274.220,225.800 274.000 C 226.239 273.290,227.200 273.575,227.200 274.416 M214.800 274.880 C 214.800 275.526,214.682 275.642,214.355 275.315 C 214.110 275.070,214.031 274.674,214.178 274.435 C 214.592 273.765,214.800 273.914,214.800 274.880 M247.371 275.429 C 249.504 277.561,243.459 280.591,239.826 279.210 C 238.106 278.556,238.633 277.716,241.700 276.224 C 244.874 274.680,246.408 274.465,247.371 275.429 M258.971 275.153 C 259.362 275.786,256.092 278.543,254.323 279.072 C 251.996 279.768,250.140 279.741,249.858 279.006 C 249.509 278.097,251.963 276.007,253.400 275.989 C 254.060 275.981,254.949 275.710,255.376 275.387 C 256.226 274.745,258.622 274.589,258.971 275.153 M220.328 276.331 C 220.423 276.977,220.249 277.200,219.651 277.200 C 218.599 277.200,218.205 276.517,218.826 275.769 C 219.475 274.987,220.168 275.246,220.328 276.331 M250.400 275.800 C 250.400 276.130,250.130 276.400,249.800 276.400 C 249.470 276.400,249.200 276.130,249.200 275.800 C 249.200 275.470,249.470 275.200,249.800 275.200 C 250.130 275.200,250.400 275.470,250.400 275.800 M217.391 277.190 C 217.784 277.624,218.429 278.082,218.825 278.208 C 219.634 278.465,220.280 280.680,219.711 281.249 C 219.246 281.714,216.822 280.739,215.944 279.733 C 214.115 277.637,215.535 275.139,217.391 277.190 M231.929 278.933 C 232.017 279.383,231.789 279.600,231.229 279.600 C 230.773 279.600,230.400 279.360,230.400 279.067 C 230.400 277.842,231.696 277.728,231.929 278.933 M248.460 279.000 C 248.460 279.209,248.267 279.445,248.030 279.523 C 247.793 279.602,247.600 279.367,247.600 279.000 C 247.600 278.633,247.793 278.398,248.030 278.477 C 248.267 278.555,248.460 278.791,248.460 279.000 M223.232 281.145 L 224.152 281.890 223.229 282.384 C 222.134 282.971,220.921 282.105,221.333 281.031 C 221.649 280.207,222.107 280.235,223.232 281.145 M237.519 280.879 C 237.891 281.251,237.758 281.608,236.924 282.479 C 235.097 284.387,230.400 283.990,230.400 281.928 C 230.400 281.196,231.073 280.932,233.600 280.672 C 236.449 280.379,237.051 280.411,237.519 280.879 M248.721 281.848 C 248.854 282.777,247.288 283.913,244.693 284.769 C 242.746 285.412,240.000 284.725,240.000 283.595 C 240.000 282.724,242.147 281.417,243.025 281.754 C 243.328 281.871,244.257 281.712,245.089 281.402 C 247.188 280.620,248.570 280.789,248.721 281.848 M229.085 284.351 C 230.238 285.718,230.057 286.173,228.300 286.322 C 226.360 286.487,223.904 284.480,224.769 283.437 C 225.546 282.501,227.955 283.010,229.085 284.351 M238.180 285.968 C 238.602 286.651,236.350 288.000,234.789 288.000 C 232.974 288.000,232.431 287.104,233.706 286.211 C 234.655 285.546,237.813 285.374,238.180 285.968 " stroke="none" fill="#51622b" fill-rule="evenodd"></path></g></svg>
