<?xml version="1.0" encoding="UTF-8" standalone="no"?>
<svg
   xmlns:dc="http://purl.org/dc/elements/1.1/"
   xmlns:cc="http://creativecommons.org/ns#"
   xmlns:rdf="http://www.w3.org/1999/02/22-rdf-syntax-ns#"
   xmlns:svg="http://www.w3.org/2000/svg"
   xmlns="http://www.w3.org/2000/svg"
   xmlns:sodipodi="http://sodipodi.sourceforge.net/DTD/sodipodi-0.dtd"
   xmlns:inkscape="http://www.inkscape.org/namespaces/inkscape"
   version="1.0"
   width="24pt"
   height="24pt"
   viewBox="0 0 24 24"
   preserveAspectRatio="xMidYMid meet"
   id="svg4141"
   inkscape:version="0.91 r13725"
   sodipodi:docname="open_new_win.svg">
  <defs
     id="defs4153" />
  <sodipodi:namedview
     pagecolor="#ffffff"
     bordercolor="#666666"
     borderopacity="1"
     objecttolerance="10"
     gridtolerance="10"
     guidetolerance="10"
     inkscape:pageopacity="0"
     inkscape:pageshadow="2"
     inkscape:window-width="1920"
     inkscape:window-height="1057"
     id="namedview4151"
     showgrid="false"
     inkscape:zoom="14.954455"
     inkscape:cx="24.353078"
     inkscape:cy="6.044674"
     inkscape:window-x="-8"
     inkscape:window-y="-8"
     inkscape:window-maximized="1"
     inkscape:current-layer="g4145" />
  <metadata
     id="metadata4143">
Created by potrace 1.15, written by Peter Selinger 2001-2017
<rdf:RDF>
  <cc:Work
     rdf:about="">
    <dc:format>image/svg+xml</dc:format>
    <dc:type
       rdf:resource="http://purl.org/dc/dcmitype/StillImage" />
    <dc:title></dc:title>
  </cc:Work>
</rdf:RDF>
</metadata>
  <g
     transform="matrix(0.1,0,0,-0.1,-640.23729,-273.86441)"
     id="g4145"
     style="fill:#000000;stroke:none">
    <g
       id="g4695"
       transform="matrix(0.0197155,0,0,0.0197155,6438.8367,-2978.165)"
       style="opacity:0.6">
      <path
         inkscape:connector-curvature="0"
         id="path4147"
         d="m 7465,8067 c -46,-21 -82,-70 -94,-127 -6,-29 -11,-155 -11,-289 l 0,-238 -117,-7 C 6459,7361 5766,7055 5226,6514 4469,5758 4168,4685 4416,3635 c 15,-60 29,-114 32,-119 3,-5 26,51 52,125 59,171 117,306 187,439 300,564 765,1020 1333,1304 391,195 763,291 1242,321 l 97,6 3,-273 c 3,-269 3,-274 28,-316 13,-24 38,-52 56,-62 38,-24 110,-26 159,-6 53,22 2086,1314 2123,1349 51,49 75,108 70,172 -6,70 -41,123 -115,173 -101,68 -2027,1288 -2061,1306 -46,24 -120,30 -157,13 z" />
      <path
         inkscape:connector-curvature="0"
         id="path4149"
         d="M 295,6332 C 175,6291 90,6215 37,6102 L 5,6035 5,3175 5,315 37,249 C 76,171 153,89 221,55 337,-4 38,0 4227,0 c 2789,0 3857,3 3895,11 131,28 244,117 301,236 l 32,68 3,2448 2,2448 -27,-15 c -16,-8 -253,-158 -528,-334 l -500,-318 -5,-1575 c -5,-1480 -6,-1577 -23,-1619 -45,-113 -120,-196 -225,-247 l -57,-28 -2865,0 -2865,0 -57,28 c -74,36 -157,112 -191,174 -60,112 -57,5 -57,1903 0,1133 4,1750 11,1779 36,157 168,286 327,320 38,8 443,11 1411,11 l 1358,0 18,63 c 82,278 249,639 412,890 34,54 63,100 63,102 0,3 -971,5 -2157,5 -2021,-1 -2161,-2 -2208,-18 z" />
    </g>
  </g>
</svg>
