<?xml version="1.0" encoding="UTF-8" standalone="no"?>
<svg
   xmlns:dc="http://purl.org/dc/elements/1.1/"
   xmlns:cc="http://creativecommons.org/ns#"
   xmlns:rdf="http://www.w3.org/1999/02/22-rdf-syntax-ns#"
   xmlns:svg="http://www.w3.org/2000/svg"
   xmlns="http://www.w3.org/2000/svg"
   xmlns:sodipodi="http://sodipodi.sourceforge.net/DTD/sodipodi-0.dtd"
   xmlns:inkscape="http://www.inkscape.org/namespaces/inkscape"
   width="166"
   height="50"
   viewBox="0 0 166 50.000002"
   id="svg4288"
   version="1.1"
   inkscape:version="0.92.2 (5c3e80d, 2017-08-06)"
   sodipodi:docname="loxberry_footer_loxberry_text_ws.svg">
  <defs
     id="defs4290" />
  <sodipodi:namedview
     id="base"
     pagecolor="#ffffff"
     bordercolor="#666666"
     borderopacity="1.0"
     inkscape:pageopacity="0.57254902"
     inkscape:pageshadow="2"
     inkscape:zoom="5.656854"
     inkscape:cx="92.802059"
     inkscape:cy="-8.0460491"
     inkscape:document-units="px"
     inkscape:current-layer="layer3"
     showgrid="false"
     units="px"
     inkscape:window-width="1920"
     inkscape:window-height="1001"
     inkscape:window-x="-9"
     inkscape:window-y="-9"
     inkscape:window-maximized="1"
     borderlayer="false"
     inkscape:pagecheckerboard="true" />
  <metadata
     id="metadata4293">
    <rdf:RDF>
      <cc:Work
         rdf:about="">
        <dc:format>image/svg+xml</dc:format>
        <dc:type
           rdf:resource="http://purl.org/dc/dcmitype/StillImage" />
        <dc:title></dc:title>
      </cc:Work>
    </rdf:RDF>
  </metadata>
  <g
     inkscape:groupmode="layer"
     id="layer2"
     inkscape:label="Hintergrund"
     transform="translate(0,22.000001)"
     style="display:inline" />
  <g
     inkscape:label="Ebene 1"
     inkscape:groupmode="layer"
     id="layer1"
     transform="translate(0,-1002.3622)"
     style="display:inline" />
  <g
     inkscape:groupmode="layer"
     id="layer3"
     inkscape:label="Text"
     transform="translate(0,22.000001)"
     style="display:inline">
    <g
       id="g29"
       style="display:inline"
       transform="translate(0.17677671,-1.4142137)">
      <path
         d="M 21.126888,9.9857926 20.966702,14.562876 H 4.3272377 q 0.240281,-5.6898605 0.240281,-14.29813591 0,-7.89441839 -0.240281,-13.03838809 h 5.6265832 q -0.240282,4.7660454 -0.240282,13.03838809 0,6.31973391 -0.260305,10.03598991 5.5264661,0 11.6736541,-0.3149374 z"
         style="font-style:normal;font-variant:normal;font-weight:bold;font-stretch:normal;font-size:medium;line-height:125%;font-family:Candara;-inkscape-font-specification:'Candara, Bold';text-align:start;letter-spacing:0px;word-spacing:0px;writing-mode:lr-tb;text-anchor:start;fill:#ffffff;fill-opacity:1;stroke:none;stroke-width:1px;stroke-linecap:butt;stroke-linejoin:miter;stroke-opacity:1"
         id="path6197"
         inkscape:connector-curvature="0" />
      <path
         d="m 42.91238,4.1279662 q 0,5.2909399 -3.10363,8.2723428 -3.10363,2.981403 -7.30855,2.981403 -4.00469,0 -6.86804,-2.708457 -2.86335,-2.729454 -2.86335,-7.6634656 0,-5.31193574 3.12366,-8.3143342 3.12365,-3.0023985 7.32857,-3.0023985 3.98466,0 6.82799,2.7504489 2.86335,2.72945322 2.86335,7.6844606 z M 37.68627,4.75784 q 0,-3.0443901 -1.3616,-5.10197792 -1.36159,-2.07858358 -3.54415,-2.07858358 -2.12248,0 -3.46404,1.93161302 -1.32156,1.93161308 -1.32156,4.82903248 0,3.0443901 1.3616,5.1229737 1.3616,2.0575883 3.54415,2.0575883 2.12248,0 3.44403,-1.9316135 1.34157,-1.931613 1.34157,-4.8290325 z"
         style="font-style:normal;font-variant:normal;font-weight:bold;font-stretch:normal;font-size:medium;line-height:125%;font-family:Candara;-inkscape-font-specification:'Candara, Bold';text-align:start;letter-spacing:0px;word-spacing:0px;writing-mode:lr-tb;text-anchor:start;fill:#ffffff;fill-opacity:1;stroke:none;stroke-width:1px;stroke-linecap:butt;stroke-linejoin:miter;stroke-opacity:1"
         id="path6199"
         inkscape:connector-curvature="0" />
      <path
         d="m 64.77796,14.562876 h -6.26733 q 0,-0.566887 -1.64192,-3.779244 -1.56183,-3.0443894 -2.38278,-4.2621454 h -0.28034 q -0.66077,0.9448107 -2.16252,4.1991594 -1.50176,3.254347 -1.50176,3.84223 H 44.9748 q 0,-0.5039 2.88337,-4.9130162 2.9034,-4.4091166 4.04473,-5.6268727 V 3.7080502 Q 50.94177,2.616269 48.41883,-1.0160033 45.73568,-4.9002251 45.73568,-5.3831284 h 6.22729 q 0,0.5458906 1.34157,3.254348 1.30153,2.62447423 2.00234,3.6112766 h 0.24029 q 0.62072,-0.81883603 1.84215,-3.5482892 1.24145,-2.750449 1.24145,-3.3173354 h 5.36628 q 0,0.3989201 -2.68313,4.1991587 -2.66312,3.8002387 -3.50411,4.6190746 v 0.3149369 q 1.14133,1.3227351 4.00468,5.6898601 2.96347,4.5140951 2.96347,5.1229741 z"
         style="font-style:normal;font-variant:normal;font-weight:bold;font-stretch:normal;font-size:medium;line-height:125%;font-family:Candara;-inkscape-font-specification:'Candara, Bold';text-align:start;letter-spacing:0px;word-spacing:0px;writing-mode:lr-tb;text-anchor:start;fill:#ffffff;fill-opacity:1;stroke:none;stroke-width:1px;stroke-linecap:butt;stroke-linejoin:miter;stroke-opacity:1"
         id="path6201"
         inkscape:connector-curvature="0" />
      <path
         d="m 88.40561,6.3325245 q 0,8.3563255 -13.03525,8.3563255 -2.26265,0 -7.04825,-0.125974 0.2603,-6.3407301 0.2603,-14.29813591 0,-7.64246889 -0.2603,-13.03838809 h 3.2438 q 0.92107,0 3.08361,-0.06299 2.18255,-0.06298 3.40397,-0.06298 8.87039,0 8.87039,6.0467881 0,4.6610663 -4.54533,6.17276335 v 0.3149369 q 2.42284,0.39892008 4.22495,1.99460045 1.80211,1.5746845 1.80211,4.7030577 z m -5.40633,0.2309537 q 0,-4.1781629 -6.98817,-4.1781629 -1.38162,0 -2.38279,0.1049789 0,4.3881209 0.18021,8.0833808 0.6808,0.167966 2.04239,0.167966 3.70433,0 5.42635,-0.9238148 1.72201,-0.9448107 1.72201,-3.254348 z M 81.53757,-5.1941663 q 0,-3.7582471 -4.48525,-3.7582471 -2.06241,0 -3.66428,0.3149369 0.22026,2.1205753 0.22026,7.2855405 0.76088,0.041992 1.60187,0.041992 6.3274,0 6.3274,-3.8842223 z"
         style="font-style:normal;font-variant:normal;font-weight:bold;font-stretch:normal;font-size:medium;line-height:125%;font-family:Candara;-inkscape-font-specification:'Candara, Bold';text-align:start;letter-spacing:0px;word-spacing:0px;writing-mode:lr-tb;text-anchor:start;fill:#ffffff;fill-opacity:1;stroke:none;stroke-width:1px;stroke-linecap:butt;stroke-linejoin:miter;stroke-opacity:1"
         id="path6203"
         inkscape:connector-curvature="0" />
      <path
         d="m 109.57036,2.4483026 q 0,1.0707855 -0.12013,2.7924406 L 96.55514,5.4716969 q 0.28032,2.3725247 1.94227,3.9472092 1.66194,1.5746849 4.3651,1.5746849 3.00352,0 6.38748,-0.944811 l -0.40047,4.073184 q -2.76323,1.049789 -6.84801,1.049789 -5.16605,0 -7.92928,-3.044389 -2.7432,-3.0443905 -2.7432,-7.3275324 0,-4.47210413 2.60304,-7.7474479 2.62307,-3.2963396 7.2685,-3.2963396 4.24497,0 6.30739,2.4145162 2.0624,2.4145163 2.0624,6.2777423 z m -4.68548,-0.1889621 q 0,-4.8290326 -3.92459,-4.8290326 -3.74438,0 -4.4452,4.996999 z"
         style="font-style:normal;font-variant:normal;font-weight:bold;font-stretch:normal;font-size:medium;line-height:125%;font-family:Candara;-inkscape-font-specification:'Candara, Bold';text-align:start;letter-spacing:0px;word-spacing:0px;writing-mode:lr-tb;text-anchor:start;fill:#ffffff;fill-opacity:1;stroke:none;stroke-width:1px;stroke-linecap:butt;stroke-linejoin:miter;stroke-opacity:1"
         id="path6205"
         inkscape:connector-curvature="0" />
      <path
         d="m 126.37002,-5.3831284 -1.16136,4.91301572 q -1.48172,-0.62987382 -3.00351,-0.62987382 -2.94344,0 -3.88454,2.7714448 0,8.3773217 0.12014,12.8914177 h -5.32623 q 0.34039,-6.3197343 0.34039,-10.3299309 0,-4.9969989 -1.00117,-9.469103 l 5.10598,-0.5878822 q 0.3404,2.3095373 0.3404,2.7084574 h 0.32037 q 1.84215,-2.9604069 4.90574,-2.9604069 1.44169,0 3.24379,0.6928612 z"
         style="font-style:normal;font-variant:normal;font-weight:bold;font-stretch:normal;font-size:medium;line-height:125%;font-family:Candara;-inkscape-font-specification:'Candara, Bold';text-align:start;letter-spacing:0px;word-spacing:0px;writing-mode:lr-tb;text-anchor:start;fill:#ffffff;fill-opacity:1;stroke:none;stroke-width:1px;stroke-linecap:butt;stroke-linejoin:miter;stroke-opacity:1"
         id="path6207"
         inkscape:connector-curvature="0" />
      <path
         d="m 142.14848,-5.3831284 -1.16136,4.91301572 q -1.48173,-0.62987382 -3.00351,-0.62987382 -2.94344,0 -3.88454,2.7714448 0,8.3773217 0.12014,12.8914177 h -5.32623 q 0.34039,-6.3197343 0.34039,-10.3299309 0,-4.9969989 -1.00117,-9.469103 l 5.10597,-0.5878822 q 0.34041,2.3095373 0.34041,2.7084574 h 0.32037 q 1.84215,-2.9604069 4.90574,-2.9604069 1.44169,0 3.24379,0.6928612 z"
         style="font-style:normal;font-variant:normal;font-weight:bold;font-stretch:normal;font-size:medium;line-height:125%;font-family:Candara;-inkscape-font-specification:'Candara, Bold';text-align:start;letter-spacing:0px;word-spacing:0px;writing-mode:lr-tb;text-anchor:start;fill:#ffffff;fill-opacity:1;stroke:none;stroke-width:1px;stroke-linecap:butt;stroke-linejoin:miter;stroke-opacity:1"
         id="path6209"
         inkscape:connector-curvature="0" />
      <path
         d="m 161.87156,-5.3831284 q 0,1.3647266 -2.86335,8.650267 -3.26383,8.3773214 -4.02471,11.4217114 -1.30152,5.248949 -3.50411,7.243549 -2.12248,1.931613 -6.36744,1.931613 l -0.40047,-4.052188 q 2.4829,0 4.08478,-1.490702 1.60187,-1.469705 1.60187,-3.947209 0,-2.498499 -3.60422,-10.9178122 -3.60421,-8.4403091 -3.60421,-8.8392292 h 6.18724 q 0,0.7348528 1.82213,7.117574 1.82213,6.3827213 1.82213,7.8104353 h 0.28033 q 0,-1.217756 1.64192,-7.1805615 1.66195,-5.9838011 1.66195,-7.7474478 z"
         style="font-style:normal;font-variant:normal;font-weight:bold;font-stretch:normal;font-size:medium;line-height:125%;font-family:Candara;-inkscape-font-specification:'Candara, Bold';text-align:start;letter-spacing:0px;word-spacing:0px;writing-mode:lr-tb;text-anchor:start;fill:#ffffff;fill-opacity:1;stroke:none;stroke-width:1px;stroke-linecap:butt;stroke-linejoin:miter;stroke-opacity:1"
         id="path6211"
         inkscape:connector-curvature="0" />
    </g>
  </g>
</svg>
